<?xml version="1.0" encoding="utf-8"?>
<!-- Generator: Adobe Illustrator 21.1.0, SVG Export Plug-In . SVG Version: 6.00 Build 0)  -->
<svg version="1.1" id="Calque_4" xmlns="http://www.w3.org/2000/svg" xmlns:xlink="http://www.w3.org/1999/xlink" x="0px" y="0px"
	 viewBox="0 0 192.5 279.7" style="enable-background:new 0 0 192.5 279.7;" xml:space="preserve">
<style type="text/css">
	.st0{fill:#212121;}
</style>
<g id="BJug7M.tif_1_">
	<g>
		<path class="st0" d="M86.3,0c5.8,2.9,7.4,10.1,3.2,14.1c-0.8,0.7-1.9,1.2-3,1.6c2.2-3.4,1.1-6.2-1-8.9c-1.5-2-2.2-4.3-1.8-6.8
			C84.6,0,85.4,0,86.3,0z"/>
		<path class="st0" d="M156.4,238.7c-2.3,3.2-4.4,6.5-6.9,9.4c-8.7,10.6-18.7,19.7-30.6,26.6c-1.6,0.9-3.4,1.7-5.1,2.4
			c-3.7,1.6-7,1.6-10.7-0.8c-16.3-10.8-32.8-21.2-49.2-31.7c-0.4-0.2-0.7-0.5-0.9-0.7c32.2-15.7,57.2-39,75.1-70.2
			c2.8,5,5.7,10.3,8.6,15.5c4.3,7.8,8.6,15.6,12.9,23.4c0.7,1.3,0.9,2.3-0.1,3.7c-4.7,6.5-2.3,17,4.7,21.1
			C154.7,237.7,155.3,238.1,156.4,238.7z"/>
		<path class="st0" d="M100.9,81.7c-1.8,0.8-3.6,1.5-5.3,2.4c-18.4,9.6-28.9,24.9-33,45c-2,9.7-2.9,19.5-1.4,29.4
			c0.3,1.7,0.8,3.4,1.2,5.1c0.1,0.2,0.2,0.5,0.4,1c0.2-4.1,0.1-7.8,0.5-11.4c1.3-11,5-21.1,12.6-29.5c5.9-6.4,13.2-10,21.8-11.1
			c7.9-1,15.6,0,23.2,2.2c0.5,0.2,1.1,0.4,1.5,0.8c-3.8-0.6-7.6-1.4-11.4-1.6c-10.3-0.7-20.1,0.9-28.4,7.9c-4.9,4.2-8,9.6-10.1,15.7
			c-4.4,13.1-4.4,26.1,1.8,38.8c3.2,6.6,8.2,11.4,15.1,14.3c3.6,1.5,4,3.2,1.7,6.3c-3.8,5-8.7,8.7-13.9,12.4
			c-4.2-4.2-7.3-9.2-10.2-14.3c-3.3-5.8-6.2-11.8-9.6-17.4c-4.9-7.9-11.4-14-20.9-16.4c3.6-0.8,8.1,0.9,17.7,7
			c-0.3-4.5-2.1-8.4-4.2-12.1c-3.5-6.3-8.3-11.3-15.7-12.9c-4.6-1-9-0.2-13.3,1.3c-0.7,0.2-1.3,0.5-2,0.6c8.5-5.7,22.4-6.8,33,5.8
			c0.2-2.9,0.1-5.5,0.5-8c0.9-6.3,2-12.7,3-19c1.3-8,1-15.8-2.9-23C48,92.3,40.2,88.7,31.2,87.4c-3.7-0.5-7.6-0.5-11.4-0.9
			c3.2-0.2,6.3-0.4,9-0.5c-1.3-1.4-3.2-2.8-4.3-4.7c-1.2-2-1.1-4.3,0.8-6.8c0.5,3.7,3,5,5.7,6.3c2.5,1.2,3.2,3.5,1.7,5.4
			c14.3,1.6,23.7,8.8,27.1,23c3.2-5.9,6-11.7,9.4-17.3c2.4-4,4.1-8.2,5-12.8c1-5.1,0.7-10-3.7-13.6c-1.7-1.3-3.7-2.1-5.4-3.1
			c7.5,0,12.6,6.9,12.5,17.1c0.2-0.4,0.3-0.9,0.6-1.3c5-7.5,10.4-14.8,15.1-22.5c8.5-13.9,1.2-36.3-19.8-40.1
			c-2.2-0.4-4.3-0.7-6.5-0.9c-2.1-0.1-4.2,0-6.3-0.2c7.6-0.9,15-0.4,22,2.8c9.6,4.4,14.4,12.3,16.4,22.4c1.5,7.8-0.7,15-4.7,21.6
			C88.9,70.7,83,79.6,77.2,88.7c-0.8,1.3-1.6,2.7-2.1,4.4c0.5-0.4,1-0.8,1.5-1.2c8.3-7.4,18.1-12.2,28.6-15.8c9-3.1,18.1-6,27.1-9.2
			c2.6-0.9,5.1-2.6,7.3-4.3c3.6-2.8,5.4-6.8,5.5-11.5c0-0.6,0-1.2,0-1.8c0-0.1,0.1-0.3,0.2-0.4c1.2,5.2-0.9,11.3-5.1,14.9
			c-5.8,5-12.9,7.2-19.9,9.9c-5.7,2.2-11.4,4.4-17.1,6.6c-0.6,0.2-1.1,0.8-1.7,1.2C101.3,81.6,101.1,81.6,100.9,81.7z"/>
		<path class="st0" d="M74,170.5c-1.6-2.9-1.7-3,0.8-4.8c9.6-7.2,19.5-14,31.1-17.7c3.2-1,6.6-1.5,9.9-1.6c6.1-0.3,9.3,3.9,8.7,9.9
			c-0.7,7.3-4,13.7-7.9,19.7c-15.2,23.4-35.1,41.9-59.2,55.9c-5.8,3.4-12,6.2-18.8,7c-1.7,0.2-3.5,0.2-5.3,0.1
			c-4.3-0.4-6.9-3.4-7.1-7.7c-0.2-6.5,2.4-12.1,5.4-17.6c6.8-12.5,16-23.1,26.1-33.1c2.1,2.5,2.1,2.8,0,5
			C50,193.3,43,201.7,38,211.4c-1.8,3.5-3.1,7.3-3.9,11.1c-1.3,6.4,2.6,10.5,9,9.3c4.7-0.9,9.5-2.4,13.8-4.5
			c11.2-5.3,20.8-13,29.8-21.3c8.5-7.9,16.3-16.5,22.6-26.4c3.1-4.9,5.9-9.9,7-15.7c1.4-7.1-2.3-11.1-9.4-10.2
			c-7.9,1-14.7,4.8-21.3,8.9C81.8,165,78,167.8,74,170.5z"/>
		<path class="st0" d="M31.8,240.2c6.9,2.3,12.9,0.1,18.8-2.3c13.3-5.5,24.7-14,35.6-23.4c11.2-9.7,21.4-20.3,29.6-32.7
			c3.4-5.1,6.1-10.6,8.7-16.1c1.8-3.8,2.7-8,1.4-12.4c2,1.1,3.1,3.1,3.1,6.2c0,5.9-2.2,11.1-4.9,16.2c-7.6,14.1-18.1,25.9-29.7,36.9
			c-9.7,9.1-20,17.2-31.6,23.7c-6.6,3.7-13.5,7.1-21.3,7.7C37.8,244.1,34.4,243.7,31.8,240.2z"/>
		<path class="st0" d="M162.8,213.3c0,2,0,3.9,0,5.8c-1,0.2-1.8,0.3-2.7,0.5c-2.1,0.4-3.7,1.4-4.2,3.6c-0.5,2.2,0.3,4,1.9,5.5
			c4.8,4.2,15.9,2.1,18.8-3.6c1.5-2.9,1.2-6.1,0.9-9.2c-0.1-0.9-0.2-1.7-0.4-2.5c0.2-0.1,0.3-0.2,0.4-0.2c5.6-0.7,5.8-0.5,6.3,5
			c0.5,5.6-0.2,10.8-4.5,14.9c-2.7,2.5-6,3.8-9.7,4.2c-4.6,0.5-9.2,0.6-13.5-1.4c-6.5-3-9.1-12.9-4.9-18.7
			C153.4,214.2,157.8,212.6,162.8,213.3z"/>
		<path class="st0" d="M160.3,188c0-1.9,0-3.6,0-5.5c0.5-0.2,1.2-0.5,2-0.9c-2.6-2.4-3.6-5.2-1.9-8.4c1.4-2.7,4-3.8,6.8-4.3
			c3.7-0.7,7.4-0.5,11,0.5c5.1,1.4,7.8,6.9,3.8,12c2,0,3.7,0,5.4,0c1.7,0,3.3,0,5.1,0c0,2.3,0,4.3,0,6.6
			C181.7,188,171,188,160.3,188z M172.8,181.6c0-0.1,0-0.1,0-0.2c0.7,0,1.6,0.2,2.2-0.1c1.1-0.5,2.6-1.2,3-2.2
			c0.3-0.6-1-2.4-1.9-2.9c-2.5-1.3-5.4-1.4-8-0.4c-0.9,0.3-2.2,1.7-2.1,2.3c0.2,1,1.3,2.2,2.3,2.6
			C169.6,181.5,171.3,181.4,172.8,181.6z"/>
		<path class="st0" d="M173.8,84.6c0,4.2,0,7.9,0,11.6c4.1,0.1,4.9-2.5,3.6-11.2c0.1-0.1,0.2-0.2,0.3-0.2c6.2,0.1,5.2-1.5,6.1,5.3
			c0.1,0.9,0.1,1.9,0.1,2.8c-0.1,6.2-3.3,9.9-9.5,10.5c-2.7,0.2-5.4,0.1-8.1-0.4c-4.5-0.8-6.9-4.3-6.9-9.1c0.1-4.8,2.4-7.8,7-8.7
			C168.8,84.9,171.2,84.8,173.8,84.6z M169.5,91.5c-2.9,0-4.6,1-4.6,2.6c0,1.6,1.8,2.6,4.6,2.5C169.5,94.9,169.5,93.2,169.5,91.5z"
			/>
		<path class="st0" d="M183.7,192c-0.2,2.4-0.4,4.4-0.6,7c0.2,1.4,0.8,3.5,0.8,5.5c0,4-2.3,6.1-6.3,6.2c-3.8,0.1-6.5-2.2-6.8-5.9
			c-0.2-1.9,0-3.9,0-5.9c-3.3-0.7-5.2,0.7-5.1,4c0,1.9,0.4,3.9,0.6,6.2c-1.6,0-3.1,0.1-4.7-0.1c-0.4,0-0.9-0.7-1-1.1
			c-1.1-3.6-1.2-7.3-0.2-11c0.9-3.2,3.4-4.8,6.5-4.9C172.3,191.9,177.8,192,183.7,192z M179.5,202.1c-0.1-2.6-1.1-3.4-3-3.5
			c-1.6-0.1-1.8,0.9-1.7,2.1c0.1,1.6,0.6,3.1,2.5,2.8C178.2,203.4,179,202.4,179.5,202.1z"/>
		<path class="st0" d="M160.3,147.4c0-2.2,0-4.3,0-6.6c4.1,0,8,0,11.9,0c1,0,2-0.1,3-0.2c1.5-0.2,2.8-0.7,2.5-2.6
			c-0.3-1.7-1.1-3-3.1-3.1c-4.1,0-8.2,0-12.3,0c-0.6,0-1.3-0.1-2.1-0.1c0-2,0-4,0-6.1c7.6,0,15.2,0,22.8,0c1,3.3,0.6,5.1-1.4,6.1
			c0.7,1.2,1.5,2.3,1.9,3.5c1.6,4.7-0.8,8.6-6.2,9C171.8,147.8,166.1,147.4,160.3,147.4z"/>
		<path class="st0" d="M158.8,239.3c-2.8,20.7-22.1,39-45.2,40.4c9.9-4,17.9-10.3,25.5-17.1C146.7,255.7,153.3,248,158.8,239.3z"/>
		<path class="st0" d="M177.6,166.2c0.2-2.4,0.5-4.6,0.5-6.8c0-0.6-0.6-1.6-1.1-1.7c-0.6-0.2-1.6,0.2-2,0.7
			c-0.8,1.1-1.2,2.5-1.8,3.7c-1.5,3-3.9,4.3-7.1,3.9c-3.3-0.4-5.4-2.1-5.9-5.4c-0.4-2.3-0.1-4.8-0.1-7.1c0-1.6,0.9-2.1,2.4-2
			c1.1,0.1,2.2,0,3.4,0c-0.2,2-0.5,3.7-0.4,5.4c0,0.8,0.8,1.6,1.2,2.5c0.7-0.6,1.5-1,1.9-1.7c0.6-1,0.9-2.3,1.4-3.4
			c1.6-3,4.1-4.1,8.4-3.5c2.8,0.3,4.8,2.2,5.2,5.4c0.3,2.7,0,5.5,0,8.3c0,1.6-0.9,2.1-2.4,2C179.9,166.1,178.7,166.2,177.6,166.2z"
			/>
		<path class="st0" d="M183.4,124.1c-11.6,0-23.2,0-34.9,0c0-2,0-4.1,0-6.4c11.6,0,23.1,0,34.9,0
			C183.4,119.9,183.4,121.9,183.4,124.1z"/>
		<path class="st0" d="M183.4,74.5c0,2.4,0,4.4,0,6.7c-7.7,0-15.3,0-23.1,0c0-2.1,0-4.3,0-6.5c0.8-0.1,1.5-0.2,2.3-0.3
			c-1-1.3-2.3-2.4-3-3.8c-1-1.9-0.4-2.7,1.8-2.7c1.5,0,3,0,4.7,0c0.1,1.2,0,2.2,0.2,3.1c0.4,1.8,2.9,3.4,5.1,3.5
			C175.3,74.5,179.3,74.5,183.4,74.5z"/>
		<path class="st0" d="M57.4,15.3c-5.3-1.3-8.8,0.2-11.4,5c-1.6,2.9-3.5,5.4-6.4,7c-2.5,1.3-3,1.1-3.8-1.6c-0.8-2.9-0.3-5.6,1.2-8
			c2.6-4.3,6.5-6.8,11.7-7.1C52.3,10.5,55.3,11.8,57.4,15.3z"/>
		<path class="st0" d="M16.5,145.6c-5.1,1.3-7.6,4.7-7.5,10.3c0,4-1.3,7.4-4.1,10.2c-5.3-2.8-6.5-9.5-2.9-15.8
			C5.2,144.8,11.6,142.6,16.5,145.6z"/>
		<path class="st0" d="M37.3,29.6c5.4-0.1,8.6-2.9,10.9-7.1c1.7-3.2,4.2-5.5,8.1-5.4c0.6,0,1.5,0.6,1.7,1.1c1.5,4.3-1.4,10.2-6.4,13
			C46.3,34.1,40.8,33.6,37.3,29.6z"/>
		<path class="st0" d="M5.8,166.6c4.7-2.6,6.1-6.8,6.2-11.8c0.1-4.1,1.8-6.6,5.5-8.4c4.2,3.4,4.7,9.9,1.2,15.3
			C15.6,166.5,10.1,168.6,5.8,166.6z"/>
		<path class="st0" d="M183.8,250.9c0,2.4,0.2,4.8,0,7c-0.2,2.8-1.9,4.8-4.7,5.3c-2.3,0.4-4.7,0.4-6.9,0.1c-3.2-0.5-4.8-3-4.6-6.4
			c0.1-3.3,1.8-5.2,5.2-5.7c1.4-0.2,2.9-0.3,4.5-0.4c0,2.7,0,5.3,0,8.4c4.1-2.2,2.4-5.4,2.4-8.2
			C180.8,250.9,181.9,250.9,183.8,250.9z M174.1,255.5c-0.2-0.2-0.4-0.3-0.6-0.5c-0.8,0.8-1.6,1.5-2.4,2.3c0.8,0.7,1.7,1.3,3,2.4
			C174.1,257.7,174.1,256.6,174.1,255.5z"/>
		<path class="st0" d="M183.4,106.9c0,2.1,0,4.1,0,6.3c-7.7,0-15.4,0-23.1,0c0-2.1,0-4.1,0-6.3C167.9,106.9,175.5,106.9,183.4,106.9
			z"/>
		<path class="st0" d="M2.7,101.8c-3.9-4.3-3.1-10.5,1.9-15c4.2-3.8,10.5-4,13.8-0.1c-5.4-0.3-8.1,2.8-9.5,7.5
			C7.9,97.7,6.2,99.6,2.7,101.8z"/>
		<path class="st0" d="M3.2,102.5c4.8-1.1,7.1-4.1,8.6-8.2c0.7-2.1,2.3-4.1,4.1-5.4c2.6-2.1,4.4-1,4.6,2.3c0.4,5.6-2.6,10.4-8,12.5
			C9.5,104.9,6.4,104.8,3.2,102.5z"/>
		<path class="st0" d="M86.5,23.3c-5.1-1.1-8.1,1.3-10.2,5.3c-1.6,3-4,5.1-7.4,6.2c-2-2.7-1.8-5.6-0.5-8.4c2.1-4.4,5.7-6.7,10.5-7
			C82,19.2,84.7,20.2,86.5,23.3z"/>
		<path class="st0" d="M161,277.3c0-1.7,0-3,0-4.7c2.1,0,4.1,0,6.1,0c3,0,6,0,9,0c2.7-0.1,3.2-0.5,3.2-3.2c0-1.4,0-2.9,0-4.5
			c1.6,0,2.9,0,4.6,0c-0.2,3-0.3,5.9-0.6,8.8c-0.2,2-1.8,3-3.6,3.3c-1.1,0.2-2.3,0.3-3.5,0.3C171.3,277.3,166.2,277.3,161,277.3z"/>
		<path class="st0" d="M69.8,35.7c4.6-0.3,7.4-2.4,9.4-6.1c1.5-2.8,3.5-4.8,6.9-5.1c1.4-0.1,1.8,0.3,2,1.5c1,5-2.9,10.6-8.6,12.1
			C76,39.1,72.7,38.9,69.8,35.7z"/>
		<path class="st0" d="M130.6,30.6c2.1-3.5,7.9-3.9,12.2-0.6c3.6,2.7,4.9,8.3,2.2,11.1c-0.7-4.4-3.7-6-7.7-6.5
			C134.4,34.3,132.5,33.1,130.6,30.6z"/>
		<path class="st0" d="M129.6,31.8c1.8,3.7,4.5,5.4,8.2,5.8c2.3,0.3,4.1,1.3,5.4,3.3c0.8,1.3,0.5,2.1-0.8,2.8c-3,1.6-7.7,0.7-10.7-2
			C129,39.1,128.1,35.5,129.6,31.8z"/>
		<path class="st0" d="M131.6,100.1c1.8,1.9,2.1,3.9,1.7,6c-1,5.9-8,9.9-12.9,7.3c-1.9-1-2.2-1.8-0.5-3.2c1.6-1.2,3.4-2.3,5.3-2.9
			C128.7,106.1,131.2,104.3,131.6,100.1z"/>
		<path class="st0" d="M118.3,110.3c-1.8-2.9-1.3-5.5,0-8c2.2-4,7.2-6.1,11.1-4.7c1.4,0.5,1.8,1.1,1.2,2.6c-1,2.1-2.6,3.2-4.7,3.9
			C121.2,105.5,120.7,105.9,118.3,110.3z"/>
		<path class="st0" d="M104.3,116.1c-0.7,3.8,1,6,3.9,7.8c1.6,1,3.1,2.4,4.3,3.9c1.4,1.8,0.8,2.7-1.5,3c-4.8,0.5-9.4-3.4-9.6-8.3
			C101.2,120,101.6,117.7,104.3,116.1z"/>
		<path class="st0" d="M160.7,46.2c3.4,2.8,1.8,8.1-1.2,10.8c-3.4,3-8.1,3.1-10.7,0.1c1.2-2.3,3.3-3.6,5.8-4.2
			C158,52,160.7,50.4,160.7,46.2z"/>
		<path class="st0" d="M114.1,128.8c-0.2-3.5-2-5.6-4.7-7.1c-2.1-1.2-3.9-2.7-3.9-5.3c0-0.6,0.5-1.4,1-1.6c2.8-1,6.8,1.2,8.7,4.5
			C117.1,122.6,116.7,126.5,114.1,128.8z"/>
		<path class="st0" d="M147.6,57c-1.9-3.3-1.5-6.5,1-9.3c2.6-2.9,6.5-4.1,9.4-3c1.3,0.5,1.6,1.3,1,2.5c-0.9,2-2.5,3.2-4.6,3.6
			C151.1,51.7,148.7,53.5,147.6,57z"/>
		<path class="st0" d="M82.7,0.6c-1.3,3.4-0.3,6,1.6,8.6c1.3,1.7,1.9,3.6,1.2,5.7c-0.3,1.1-0.7,1.4-1.9,1.1c-3-0.7-5.3-3.8-5.7-7.3
			C77.7,4.9,79.2,2.1,82.7,0.6z"/>
		<path class="st0" d="M22,128.2c2.7-2.6,6.9-2.2,9.6,0.7c2.6,2.8,2.9,6.9,0.1,9.6c-1.2-1.6-2.6-2.9-3.3-4.6
			C27.2,130.8,25.8,128.3,22,128.2z"/>
		<path class="st0" d="M31.5,139.2c-4,2.9-10.4-0.1-11-5.2c-0.2-1.4,0.6-2.9,0.9-4.4c1.4,0.9,2.8,1.9,4.2,2.8
			c0.2,0.1,0.2,0.4,0.3,0.6C26.7,136,28.2,138.4,31.5,139.2z"/>
		<path class="st0" d="M128.8,117.5c2.2-1.3,4.5-1,6.4,0.6c3.1,2.7,4,7.2,1.8,9.9c-1,1.3-2,1.6-2.7-0.1c-0.6-1.4-1.2-3-1.3-4.5
			C132.8,120.5,131.8,118.4,128.8,117.5z"/>
		<path class="st0" d="M34.9,84.3c0.1-3.7-2-5.2-4.6-6.5c-1.6-0.8-2.9-2.3-4.3-3.4c2.5-2.6,6.1-2.3,8.8,0.4
			C37.3,77.4,37.6,81.5,34.9,84.3z"/>
		<path class="st0" d="M51.2,69.7c-2.1-3.5-1.3-6.7,1.8-9c3.1-2.2,6.5-1.9,8.8,0.9c-3.4-0.5-5.1,1.4-6.6,3.9
			C54.3,67.1,52.6,68.3,51.2,69.7z"/>
		<path class="st0" d="M134.4,130.3c-2.9,0.8-5.5-0.1-7.2-2.5c-1.7-2.5-2-5.9-0.7-8c0.8-1.3,1.9-1.4,2.6-0.3
			c0.9,1.4,1.6,2.9,1.9,4.5C131.7,127.7,131.6,127.9,134.4,130.3z"/>
		<path class="st0" d="M62.1,62.9c1.4,3.1-0.7,6.3-3,7.8c-2.8,1.8-5.6,1.7-8.1-0.6c3.5-0.2,5-2.6,6.5-5.1
			C58.6,63.3,60.2,62.6,62.1,62.9z"/>
		<path class="st0" d="M100.9,81.7c0.2,0,0.4-0.1,0.6-0.1c3.4-1.2,6.5-0.3,8.4,2.6c1.6,2.4,1.6,5.2-0.6,7.6
			c-1.1-1.5-2.4-2.8-3.1-4.3c-1-2.4-2-4.6-5-4.8C101.1,82.6,101,82,100.9,81.7z"/>
		<path class="st0" d="M109.6,92.6c-2.8,1.6-5.5,1.3-7.7-0.7c-2.3-2-3-4.9-1.7-7.8c2.4-0.1,3.7,1.3,4.4,3.4
			C105.3,90,106.7,91.8,109.6,92.6z"/>
		<path class="st0" d="M132.9,65.3c1.9-2.3,1.4-4.4,0-6.6c-0.7-1.1-1.2-2.5-1.5-3.8c-0.4-1.8,0.2-2.3,2-1.8c2.4,0.6,4.3,3.6,4.2,6.5
			C137.6,62.4,135.9,65.3,132.9,65.3z"/>
		<path class="st0" d="M153.3,106.6c2.2,0,3.7,1.6,3.7,3.7c0,2.1-1.6,3.6-3.9,3.6c-2.2,0-3.7-1.6-3.7-3.7
			C149.5,107.9,151,106.6,153.3,106.6z"/>
		<path class="st0" d="M131.7,65c-3.3-0.8-5-3.1-5.1-6.4c-0.1-3,1.2-5,3.8-5.8c-1,2.7-0.1,4.9,1.4,7C133,61.5,132.8,63.1,131.7,65z"
			/>
		<path class="st0" d="M70.3,52.5c0,1.7,0.3,3.2-0.1,4.5c-0.6,2.1-0.5,4,1.3,5.6c-2.3,0.6-4.3-0.7-4.9-3
			C65.7,56.2,66.8,53.8,70.3,52.5z"/>
		<path class="st0" d="M71.3,52.4c1.6,0,3.3,1.4,3.9,3.6c0.8,2.7-0.1,4.9-2.5,6.4c-1.6-1.1-1.5-2.7-1.4-4.4
			C71.5,56.1,71.3,54.3,71.3,52.4z"/>
		<path class="st0" d="M26.2,165.8c-1.3-2.8-0.8-4.6,1.2-5.9c2.1-1.4,3.7-1.2,5.1,0.2c-1.1,0.7-2.3,1.4-3.2,2.3
			C28.2,163.4,27.4,164.5,26.2,165.8z"/>
		<path class="st0" d="M33.1,161.6c0.6,2.3-0.2,3.9-2,5c-1.6,1-3.2,1-5.5-0.6C29.7,166.4,29.4,161.3,33.1,161.6z"/>
		<path class="st0" d="M35.9,159.9c0.4-1.6,0.7-3.3,1.2-5.2c1.5,1,1.8,2.3,1.2,3.8C37.9,159.4,37.4,160.9,35.9,159.9L35.9,159.9z"/>
		<path class="st0" d="M35.8,159.9c-1.4,1-1.8-0.3-2.1-1.1c-0.8-1.8,0.2-3.5,2.7-4.2c-0.4,1.2-0.8,2-0.9,3
			C35.4,158.3,35.8,159.1,35.8,159.9C35.9,159.9,35.8,159.9,35.8,159.9z"/>
	</g>
</g>
</svg>
