<?xml version="1.0" encoding="utf-8"?>
<!-- Generator: Adobe Illustrator 21.1.0, SVG Export Plug-In . SVG Version: 6.00 Build 0)  -->
<svg version="1.1" id="Calque_1" xmlns="http://www.w3.org/2000/svg" xmlns:xlink="http://www.w3.org/1999/xlink" x="0px" y="0px"
	 viewBox="0 0 553.4 69.5" style="enable-background:new 0 0 553.4 69.5;" xml:space="preserve">
<style type="text/css">
	.st0{fill:#231F20;}
	.st1{enable-background:new    ;}
</style>
<g id="Calque_2">
	<g>
		<g>
			<path class="st0" d="M33.7,16.4c-2,0-3.4,1.6-3.4,3.4c0,1.9,1.7,3.5,3.4,3.5c1.6,0,4-1.4,4-5.3c0-6.4-5.3-11.3-13.9-11.3
				C9.4,6.6,0,20.4,0,33.6c0,11,7.5,18.6,17.7,18.6c11.6,0,16.5-8.5,18.2-11.5L35,40.2c-1,1.8-2,3.4-4,5.4
				c-5.3,5.1-10.4,5.1-11.6,5.1C11.7,50.7,6.3,44,6.3,34c0-11.6,7.1-26.1,19.1-26.1c7.2,0,11.9,5.1,11.4,10.4
				C36.4,17.6,35.6,16.4,33.7,16.4z M34.1,18.4c-0.1,0.4-0.7,1-0.7,1l0.2,0.6c0,0,0.2,0.5,0.1,0.6c-0.2,0.1-0.3,0.1-0.3,0.1
				s-0.5-0.2-0.7,0.2c-0.2,0.4,0,0.8,0.3,1.3c-0.5-0.3-0.8-0.9-0.6-1.5s0.8-0.5,0.8-0.5s-0.2-0.6-0.3-0.8c-0.1-0.2,0-0.3,0-0.3
				s0.3-0.2,0.6-0.5C34.4,17.8,34,17,34,17C34.3,17.4,34.3,18,34.1,18.4z"/>
		</g>
		<g>
			<path class="st0" d="M26.2,20.9c0.9-2.8,1.2-7-1-9.4c0,0,2.5,5.5-3.1,10.9c-2.2,2.1-4.2,3.3-4.2,3.3s-0.8,0.8-0.3,2.1
				c0.5,1.3,1.8,5.4,1.8,5.4s-4.2,0-5.5,3.7S15.1,45,18.3,47c-1.8-3.3-3.4-5.9-1.9-8.9c1.3-2.7,4.9-1.3,4.9-1.3s1,0.4,2.1-0.5
				c0.9-0.8-0.7-4.4-0.7-4.4l-1.5-4.4C21.2,27.4,25.2,23.7,26.2,20.9z"/>
		</g>
	</g>
	<g>
		<g>
			<path class="st0" d="M468.7,16.4c-2,0-3.4,1.6-3.4,3.4c0,1.9,1.7,3.5,3.4,3.5c1.6,0,4-1.4,4-5.3c0-6.4-5.3-11.3-13.9-11.3
				c-14.5,0-23.9,13.9-23.9,27c0,11,7.5,18.6,17.7,18.6c11.6,0,16.5-8.5,18.2-11.5l-0.9-0.5c-1.1,1.8-2.1,3.4-4,5.4
				c-5.3,5.1-10.4,5.1-11.6,5.1c-7.8,0-13.2-6.7-13.2-16.7c0-11.6,7.1-26.1,19.1-26.1c7.2,0,11.9,5.1,11.4,10.4
				C471.4,17.6,470.6,16.4,468.7,16.4z M469.1,18.4c-0.1,0.4-0.7,1-0.7,1l0.2,0.6c0,0,0.2,0.5,0.1,0.6c-0.2,0.1-0.3,0.1-0.3,0.1
				s-0.5-0.2-0.7,0.2c-0.2,0.4,0,0.8,0.3,1.3c-0.5-0.3-0.8-0.9-0.6-1.5c0.2-0.6,0.8-0.5,0.8-0.5s-0.2-0.6-0.3-0.8
				c-0.1-0.2,0-0.3,0-0.3s0.3-0.2,0.6-0.5c0.8-0.8,0.5-1.6,0.5-1.6C469.3,17.4,469.3,18,469.1,18.4z"/>
		</g>
		<g>
			<path class="st0" d="M461.2,20.9c0.9-2.8,1.2-7-1-9.4c0,0,2.5,5.5-3.1,10.9c-2.2,2.1-4.2,3.3-4.2,3.3s-0.8,0.8-0.3,2.1
				c0.5,1.3,1.8,5.4,1.8,5.4s-4.2,0-5.5,3.7S450,45,453.2,47c-1.8-3.3-3.4-5.9-1.9-8.9c1.3-2.7,4.9-1.3,4.9-1.3s1,0.4,2.1-0.5
				c0.9-0.8-0.7-4.4-0.7-4.4l-1.5-4.4C456.2,27.4,460.2,23.7,461.2,20.9z"/>
		</g>
	</g>
	<g class="st1">
		<path class="st0" d="M68.1,35.3c0,6.5-4.4,17.4-15.7,17.4c-5.6,0-12-3.1-12-11.9c0-8,5.6-17.3,15.3-17.5
			C62.5,23,68.1,27.5,68.1,35.3z M56.6,24.1c-4.7,0-6.8,3.8-7.6,5.2c-3,5.7-3.7,12.8-3.7,14.3c0,4.8,2.4,8.2,6.7,8.2s6.2-3,7.3-5.3
			c2.5-4.8,3.7-10.7,3.7-14.1c0-1.3-0.2-3.2-0.8-4.7C60.9,24.7,58.2,24.1,56.6,24.1z"/>
		<path class="st0" d="M83.2,23.2l-3.3,16.2c1.8-4.4,3.8-9.3,7.4-12.8c2.4-2.4,4.5-3.3,7.4-3.3c4.2,0,7.5,2.4,7.5,6.6
			c0,1.1-0.2,2.1-0.4,3.1l-3.1,11.5c-0.3,1.2-0.6,2.4-0.6,4c0,1.3,0.7,2.4,2,2.4c1.8,0,3-2.2,4.3-6.5l0.8,0.2
			c-1.1,4.2-2.6,7.9-6.6,7.9c-1.8,0-5-1-5-5.3c0-1.3,0.3-2.6,0.5-3.8L97,32.8c0.3-1.3,0.6-2.4,0.6-3.8c0-4.5-3.7-4.5-4.3-4.5
			c-4.1,0-7,4.6-8.1,6.2c-4,6.2-6.1,13.7-7.9,20.9h-4.7l5.6-26.7l-5.4,0.8l-0.2-0.9L83.2,23.2z"/>
		<path class="st0" d="M127.9,26.2c-1-1.1-3-2-5.3-2c-4.1,0-6.7,2.7-6.7,5.6c0,1.3,0.5,2.6,1.5,3.5c0.8,0.8,1.5,1.2,4.7,2.8
			c2.4,1.3,6.3,3.3,6.3,7.8c0,4.2-3.6,8.7-11.4,8.7c-7,0-8.9-4.4-8.9-7c0-2.7,1.7-4.2,3.4-4.2c1.6,0,3.1,1.4,3.1,3.2s-1.4,3.1-3,3.1
			c-1,0-1.8-0.6-2.5-1.1c0.3,1.1,0.6,2,1.6,3s2.8,2,5.4,2c4.7,0,7.6-3.1,7.6-6.2c0-2.9-2.2-4.3-3.8-5.3c-1.3-0.7-2.6-1.4-3.9-2.2
			s-4.5-2.8-4.5-6.7c0-3.7,3-8.1,9.9-8.1c6.4,0,8.8,3.9,8.8,6.4c0,2.2-1.4,3.6-3.2,3.6c-1.6,0-2.8-1.1-2.8-3c0-1.8,1.3-3,2.8-3
			c0.4,0,0.8,0.1,1.2,0.3c0.2,0.1,0.5,0.3,0.7,0.5C128.9,27.8,128.3,26.7,127.9,26.2z"/>
		<path class="st0" d="M154.9,45.4c-1.7,2.4-4.9,7.2-11.6,7.2c-5.4,0-9.6-3.5-9.6-10.2c0-4,1.6-8.2,3.1-10.8
			c2.8-4.9,7.7-8.3,12.7-8.3c4.2,0,7.4,2.7,7.4,6.7c0,2.5-1,4.8-2.9,6.7c-3.9,4-9.3,4-11.4,4c-1.2,0-2.5-0.1-3.8-0.1
			c-0.1,1-0.2,1.9-0.2,2.8c0,4.1,1.7,8.1,5.9,8.1c5.1,0,8.3-4.7,9.6-6.5L154.9,45.4z M141.5,39.8c8.4,0,13.7-5,13.7-10.3
			c0-3.3-2.1-5-4.7-5s-4.4,1.7-5.2,2.5c-4.4,4.2-5.7,10-6.4,12.7C139.8,39.7,140.6,39.8,141.5,39.8z"/>
		<path class="st0" d="M166.9,39.6c2.8-6.7,7.7-16.6,12.9-16.6c2.1,0,3.7,1.6,3.7,3.4c0,1.7-1.3,3.3-3.4,3.3c-1.9,0-3.3-1.4-3.3-3.5
			c0-0.4,0.1-0.8,0.1-1.2c-8.3,7.6-11.3,20.8-12.6,26.6h-4.7l5.6-26.6l-5.3,0.7l-0.1-0.9l10.6-1.6L166.9,39.6z"/>
		<path class="st0" d="M192.3,23.1c-0.4,4.1-0.7,8.2-0.7,15.4c0,4.7,0.2,6.8,0.5,10.3c5.3-3.6,16.8-11.7,16.8-18.9
			c0-3.6-2.3-6.1-6-6.1c-2.6,0-3.5,1.3-3.9,2c0.4-0.2,0.6-0.3,1-0.3c1.6,0,3,1.3,3,3c0,1.8-1.3,3-3,3c-1.8,0-3-1.3-3-3.3
			c0-2.4,2.2-5.4,6.1-5.4c4.2,0,7,3,7,7c0,4.8-4.1,9.7-10,14.6c-4.4,3.7-9.4,6.9-11.7,8.3c-0.7-4.2-1.3-7.4-1.3-15.2
			c0-5.9,0.2-9.3,0.5-12.9l-4.1,0.6l-0.1-0.9L192.3,23.1z"/>
		<path class="st0" d="M232.3,38.9c-2.8,6.5-6.2,13.6-12.8,13.6c-4.7,0-7.7-4.3-7.7-9.8c0-4.8,2.3-9.9,5.7-13.3
			c5.1-5,11.9-6.1,15.9-6.1c3,0,4.7,0.5,6.9,1.1L235.7,45c-0.4,1.9-0.5,2.7-0.5,3.6c0,0.4,0,2.6,2,2.6c2.4,0,3.6-3.9,4.3-6.5
			l0.9,0.2c-1.1,4.5-2.7,7.8-6.5,7.8c-2.2,0-5.1-1.4-5.1-5.2c0-0.8,0.1-1.6,0.3-2.5L232.3,38.9z M233.5,24.2c-1.8,0-4.1,0.4-6.4,1.5
			c-8.1,4-10.4,13.5-10.4,17.9c0,4.6,2.1,7.2,4.7,7.2c3.9,0,7.9-6.4,10.9-14.5c1.8-4.9,2.3-7.7,3.1-12.1
			C234.8,24.3,234.1,24.2,233.5,24.2z"/>
		<path class="st0" d="M252.1,17.6h4.7l-1.6,8.1h5.4l-0.2,1.1H255l-4,19.1c-0.1,0.7-0.2,1.5-0.2,2.2c0,2.5,1.5,2.8,2.1,2.8
			c2.2,0,3.1-3.1,4.1-6.4l0.9,0.2c-1.3,4.3-2.4,7.9-6.5,7.9c-2,0-5.1-1.3-5.1-5.3c0-0.8,0.2-1.8,0.3-2.6l3.8-17.7h-4.2l0.2-1.1h4.3
			L252.1,17.6z"/>
		<path class="st0" d="M288.7,35.3c0,6.5-4.4,17.4-15.7,17.4c-5.6,0-12-3.1-12-11.9c0-8,5.6-17.3,15.3-17.5
			C283.2,23,288.7,27.5,288.7,35.3z M277.2,24.1c-4.7,0-6.8,3.8-7.6,5.2c-3,5.7-3.7,12.8-3.7,14.3c0,4.8,2.4,8.2,6.7,8.2
			c4.3,0,6.2-3,7.3-5.3c2.5-4.8,3.7-10.7,3.7-14.1c0-1.3-0.2-3.2-0.8-4.7C281.5,24.7,278.9,24.1,277.2,24.1z"/>
		<path class="st0" d="M304.4,23.3c-1,4.9-1.9,9.1-3.6,15.1c-0.9,3.3-2.2,8-2.2,9.9c0,1.4,0.6,2.7,1.9,2.7c2.4,0,3.9-5.1,4.3-6.5
			l0.9,0.2c-1.2,3.9-2.6,7.8-6.7,7.8c-1.9,0-5-1.1-5-5.3c0-1.7,0.4-3.4,1.5-7.7c2-7.4,3.3-12.2,3.8-14.6l-5.4,0.9l-0.2-0.9
			L304.4,23.3z M300.7,12.9c0-1.8,1.4-3.1,3.1-3.1c1.6,0,3.1,1.4,3.1,3.1s-1.5,3.1-3.1,3.1c-0.8,0-1.6-0.3-2.2-0.9
			C301,14.5,300.7,13.7,300.7,12.9z"/>
		<path class="st0" d="M316.9,39.6c2.8-6.7,7.7-16.6,12.9-16.6c2.1,0,3.7,1.6,3.7,3.4c0,1.7-1.3,3.3-3.4,3.3c-1.9,0-3.3-1.4-3.3-3.5
			c0-0.4,0.1-0.8,0.1-1.2c-8.3,7.6-11.3,20.8-12.6,26.6h-4.7l5.6-26.6l-5.3,0.7l-0.1-0.9l10.6-1.6L316.9,39.6z"/>
		<path class="st0" d="M354.1,45.4c-1.7,2.4-4.9,7.2-11.6,7.2c-5.4,0-9.6-3.5-9.6-10.2c0-4,1.6-8.2,3.1-10.8
			c2.8-4.9,7.7-8.3,12.7-8.3c4.2,0,7.4,2.7,7.4,6.7c0,2.5-1,4.8-2.9,6.7c-3.9,4-9.3,4-11.4,4c-1.2,0-2.5-0.1-3.8-0.1
			c-0.1,1-0.2,1.9-0.2,2.8c0,4.1,1.7,8.1,5.9,8.1c5.1,0,8.3-4.7,9.6-6.5L354.1,45.4z M340.7,39.8c8.4,0,13.7-5,13.7-10.3
			c0-3.3-2.1-5-4.7-5s-4.4,1.7-5.2,2.5c-4.4,4.2-5.7,10-6.4,12.7C339,39.7,339.9,39.8,340.7,39.8z"/>
	</g>
	<g class="st1">
		<path class="st0" d="M390.4,22.9l-5.3,24.4c-0.3,1.3-0.3,1.8-0.3,2.2s0,1.7,1.3,1.7c1.4,0,2.2-2,2.8-4.1l0.6,0.2
			c-0.9,2.9-1.6,5-4.3,5c-1.1,0-3.2-0.7-3.2-3.3c0-0.8,0.2-1.6,0.4-2.5l0.6-3.2c-1.7,3.9-3.8,8.9-8.6,8.9c-2.3,0-5.4-1.5-5.4-6.2
			c0-6.9,6-12.7,13.9-12.7c0.7,0,1.4,0,2.2,0.1l2-9.4l-3.5,0.4v-0.6L390.4,22.9z M383.4,33.9c-7.6,0-11.2,7.6-11.2,12.7
			c0,3.2,1.5,4.6,3.4,4.6c2,0,3.5-1.7,4.8-3.7c2.7-4.3,3.3-7.3,4.7-13.5C384.4,33.9,383.9,33.9,383.4,33.9z"/>
		<path class="st0" d="M397.9,33.2c-0.9,4.7-1.2,6.4-2.1,10c-0.4,1.5-0.8,3.5-0.8,4.5c0,0.8,0.2,3.2,2.8,3.2c2.5,0,4.1-2.5,5.1-4.3
			c2.9-4.9,3.7-9.2,4.4-12.8h3.1l-2.8,13.7c-0.1,0.6-0.2,1.2-0.2,1.8c0,1.8,1.1,1.8,1.3,1.8c1.3,0,1.9-1.8,2.6-4.1l0.6,0.2
			c-0.7,2.7-1.6,5.1-4.1,5.1c-1.2,0-3.3-0.6-3.3-3.3c0-0.5,0.1-0.9,0.1-1.3l0.9-4.8c-2.7,6.4-5.1,9.3-8.7,9.3
			c-1.7,0-4.7-0.9-4.7-4.3c0-1.2,0.3-2.6,1.2-6.3c0.7-3.2,1-4.7,1.4-7l-3.1,0.5l0.2-0.7L397.9,33.2z"/>
	</g>
	<g class="st1">
		<path class="st0" d="M497.6,38.9c-2.8,6.5-6.2,13.6-12.8,13.6c-4.7,0-7.7-4.3-7.7-9.8c0-4.8,2.3-9.9,5.7-13.3
			c5.1-5,11.9-6.1,15.9-6.1c3,0,4.7,0.5,6.9,1.1L500.9,45c-0.4,1.9-0.5,2.7-0.5,3.6c0,0.4,0,2.6,2,2.6c2.4,0,3.6-3.9,4.3-6.5
			l0.9,0.2c-1.2,4.5-2.7,7.8-6.5,7.8c-2.2,0-5.1-1.4-5.1-5.2c0-0.8,0.1-1.6,0.3-2.5L497.6,38.9z M498.8,24.2c-1.8,0-4.1,0.4-6.4,1.5
			c-8.1,4-10.4,13.5-10.4,17.9c0,4.6,2.1,7.2,4.7,7.2c3.9,0,7.9-6.4,10.9-14.5c1.8-4.9,2.3-7.7,3.1-12.1
			C500,24.3,499.4,24.2,498.8,24.2z"/>
		<path class="st0" d="M517.1,19.9c0.8-3.8,1.6-7.1,4.5-9.9c2-1.9,4.6-3,7.4-3c3.8,0,5.6,2.1,5.6,4.1c0,1.8-1.5,3.1-3,3.1
			c-1.6,0-3-1.4-3-3c0-1.8,1.3-2.5,2.2-3c-0.6-0.1-1.1-0.2-1.7-0.2c-1.2,0-2.6,0.5-3.6,1.6c-1.5,1.5-2.1,3.8-3,7.9l-1.8,8.2h5.7
			l-0.2,1.1h-5.6l-4.8,22.8c-1.5,6.2-3,12.5-7.3,16.6c-1,1-3.3,3-7,3c-3.6,0-5.1-2.1-5.1-4c0-1.8,1.5-3.1,3-3.1c1.6,0,3,1.3,3,3
			c0,1.3-0.6,2.4-2.3,3c0.5,0,1,0.1,1.4,0.1c5.3,0,6.8-6.5,8.1-12.1l6.1-29.4h-4.5l0.2-1.1h4.6L517.1,19.9z"/>
		<path class="st0" d="M547.5,45.4c-1.7,2.4-4.9,7.2-11.6,7.2c-5.4,0-9.6-3.5-9.6-10.2c0-4,1.6-8.2,3.1-10.8
			c2.8-4.9,7.7-8.3,12.7-8.3c4.2,0,7.4,2.7,7.4,6.7c0,2.5-1,4.8-2.9,6.7c-3.9,4-9.3,4-11.4,4c-1.2,0-2.5-0.1-3.8-0.1
			c-0.1,1-0.2,1.9-0.2,2.8c0,4.1,1.7,8.1,5.9,8.1c5.1,0,8.3-4.7,9.6-6.5L547.5,45.4z M534.1,39.8c8.4,0,13.7-5,13.7-10.3
			c0-3.3-2.1-5-4.7-5s-4.4,1.7-5.2,2.5c-4.4,4.2-5.7,10-6.4,12.7C532.4,39.7,533.2,39.8,534.1,39.8z M551.3,11.8l0.8,1.4l-12.3,7.7
			l-0.8-1.4L551.3,11.8z"/>
	</g>
</g>
</svg>
