<svg xmlns="http://www.w3.org/2000/svg" xmlns:xlink="http://www.w3.org/1999/xlink" width="106" height="153" viewBox="0 0 106 153">
    <defs>
        <path id="a" d="M18.126 10.893V.197H.184v10.697h17.942z"/>
        <path id="c" d="M0 152.653h105.126V0H0z"/>
    </defs>
    <g fill="none" fill-rule="evenodd" opacity=".151">
        <path fill="#2E2A26" d="M69.965 94.746l7.991 14.53c1.27 2.308 2.572 4.598 3.79 6.93.21.403.286 1.124.065 1.464-2.852 4.369-1.576 9.717 2.97 12.213.136.074.265.16.637.387-1.259 1.744-2.398 3.51-3.724 5.123-4.779 5.813-10.282 10.815-16.825 14.596-.997.576-2.068 1.04-3.14 1.468-1.893.754-3.563.592-5.398-.617-8.897-5.865-17.899-11.573-26.86-17.34-.227-.146-.422-.34-.503-.407 17.595-8.564 31.23-21.298 40.997-38.347zM55.15 44.472c-.972.428-1.973.8-2.912 1.291-10.032 5.24-15.798 13.63-18.023 24.584-1.077 5.306-1.598 10.656-.746 16.055a14.79 14.79 0 0 0 .877 3.137c.089-2.016.053-4.046.29-6.046.716-6.033 2.708-11.556 6.887-16.12 3.206-3.502 7.226-5.443 11.9-6.05 4.304-.56 8.51.015 12.655 1.19.298.084.58.217.845.415-2.075-.303-4.14-.744-6.226-.88-5.651-.375-11.006.484-15.503 4.31-2.694 2.293-4.397 5.266-5.51 8.555-2.426 7.173-2.397 14.286.986 21.186 1.764 3.598 4.499 6.247 8.249 7.798 1.967.813 2.204 1.737.903 3.423-2.095 2.715-4.773 4.777-7.58 6.777-2.317-2.319-4.008-5.025-5.59-7.796-1.798-3.149-3.38-6.429-5.271-9.518-2.658-4.34-6.233-7.649-11.416-8.958 1.969-.459 4.423.516 9.68 3.81-.183-2.449-1.14-4.579-2.281-6.624-1.935-3.468-4.514-6.184-8.6-7.053-2.505-.532-4.911-.119-7.278.72-.36.13-.725.248-1.103.326 4.654-3.119 12.234-3.696 18.008 3.18.082-1.57.05-2.983.249-4.359.499-3.47 1.114-6.92 1.66-10.383.688-4.349.568-8.63-1.59-12.59-2.495-4.577-6.751-6.509-11.65-7.227-2.042-.299-4.132-.269-6.217-.502l4.927-.276c-.71-.76-1.723-1.548-2.33-2.575-.637-1.08-.574-2.36.447-3.709.277 2.004 1.636 2.743 3.096 3.462 1.373.676 1.733 1.905.9 2.948 7.79.865 12.95 4.817 14.8 12.582 1.727-3.22 3.306-6.418 5.126-9.474 1.309-2.198 2.244-4.5 2.74-6.972.56-2.776.398-5.47-2.024-7.42-.904-.729-2.041-1.167-2.95-1.67 4.118.02 6.912 3.793 6.838 9.357.1-.23.173-.482.31-.688 2.757-4.102 5.689-8.097 8.248-12.318 4.62-7.617.635-19.815-10.834-21.899a32.53 32.53 0 0 0-3.555-.467c-1.148-.079-2.306-.017-3.454-.09 4.134-.467 8.202-.242 12.044 1.504 5.252 2.387 7.895 6.734 8.939 12.226.814 4.29-.392 8.198-2.543 11.791-3.011 5.031-6.25 9.925-9.382 14.884-.463.733-.876 1.497-1.163 2.403.274-.226.557-.444.823-.68 4.562-4.039 9.898-6.689 15.606-8.648 4.935-1.693 9.915-3.259 14.822-5.03 1.432-.517 2.777-1.419 3.989-2.366 1.992-1.555 2.974-3.7 2.985-6.256.002-.388 0-.776.063-1.164.733 2.808-.45 6.186-2.698 8.12-3.17 2.725-7.073 3.96-10.863 5.432-3.12 1.212-6.25 2.395-9.366 3.617-.344.135-.622.441-.931.667-.101.02-.201.04-.302.058"/>
        <path fill="#2E2A26" d="M40.4 93.026c-.845-1.636-.863-1.66.457-2.654 5.245-3.95 10.646-7.664 16.982-9.666 1.722-.544 3.584-.8 5.395-.873 3.23-.128 5.136 2.234 4.738 5.464-.432 3.528-1.877 6.657-3.651 9.658-4.247 7.18-9.772 13.296-15.858 18.944-5.171 4.798-10.706 9.105-16.887 12.524-3.321 1.838-6.733 3.518-10.572 3.982-.984.12-2.003.11-2.988.002-2.23-.245-3.62-1.889-3.722-4.116-.124-2.725.737-5.19 1.867-7.59 2.803-5.95 6.81-11.062 11.203-15.893 1.34-1.473 2.749-2.884 4.138-4.335 1.196 1.548 1.192 1.543-.032 2.778-4.207 4.242-7.997 8.822-10.73 14.157-.986 1.924-1.695 4.054-2.147 6.172-.671 3.157 1.268 5.204 4.512 4.998 2.878-.183 5.508-1.264 8.047-2.539 6.04-3.036 11.34-7.124 16.276-11.697 4.67-4.326 8.917-9.028 12.34-14.422 1.695-2.669 3.204-5.429 3.836-8.582.774-3.858-1.267-6.039-5.187-5.52-4.312.571-8.013 2.625-11.616 4.863-2.161 1.343-4.217 2.855-6.4 4.345"/>
        <path fill="#2E2A26" d="M17.437 131.196c4.6 1.258 8.552-.556 12.436-2.405 6.316-3.009 11.884-7.162 17.143-11.73 6.14-5.333 11.693-11.219 16.273-17.964 2.47-3.64 4.742-7.417 5.532-11.836.217-1.214.033-2.502.033-3.904 1.539 1.392 1.724 3.08 1.483 4.871-.533 3.974-2.367 7.424-4.471 10.738-4.003 6.305-8.918 11.839-14.364 16.938-5.294 4.958-10.954 9.42-17.29 12.97-3.63 2.033-7.37 3.867-11.616 4.211-1.951.157-3.824-.058-5.16-1.889M96.801 116.445c.125-.068.158-.101.195-.105 3.052-.37 3.16-.269 3.441 2.75.285 3.062-.084 5.92-2.472 8.159-1.48 1.388-3.295 2.085-5.283 2.297-2.517.268-5.026.306-7.403-.786-3.532-1.621-4.997-7.094-2.672-10.208 1.553-2.082 3.82-2.369 6.3-2.245v3.27c-.51.09-.978.164-1.442.256-1.139.225-2.018.775-2.302 1.979-.287 1.215.154 2.204 1.067 2.991 2.644 2.281 8.681 1.141 10.271-1.951.826-1.605.666-3.335.494-5.051-.047-.466-.132-.929-.194-1.356"/>
        <g transform="translate(87 91.653)">
            <mask id="b" fill="#fff">
                <use xlink:href="#a"/>
            </mask>
            <path fill="#2E2A26" d="M7.384 7.439l.015-.1c.397 0 .855.128 1.18-.027.623-.298 1.433-.647 1.655-1.186.14-.34-.526-1.299-1.042-1.567-1.425-.734-3.006-.759-4.495-.157-.46.186-1.097.878-1.032 1.218.104.54.643 1.197 1.158 1.407.781.316 1.701.292 2.561.412zm-6.79.434c.34-.136.663-.267.93-.373C1.096 6.755.526 6.088.315 5.322c-.49-1.777.413-3.495 2.243-4.26 2.774-1.16 5.631-1.14 8.395-.02 2.702 1.093 3.28 3.49 1.555 6.298h5.617v3.553H.593v-3.02z" mask="url(#b)"/>
        </g>
        <path fill="#2E2A26" d="M92.633 49.896l-.319-.381c-.694.419-1.429.785-2.05 1.293-.155.127-.075.908.127 1.04.63.416 1.37.664 2.242 1.056v-3.008zM95 46.09v6.359c2.271-.04 2.672-1.36 1.955-6.196h3.057c.493 2.342.907 4.69.013 7.033-.815 2.132-2.627 2.96-4.713 3.126a17.034 17.034 0 0 1-4.284-.212c-2.51-.448-3.899-2.368-3.854-5.012.045-2.61 1.33-4.265 3.847-4.738 1.235-.232 2.514-.236 3.98-.36zM96.595 108.412c-.662-.107-1.107.086-1.124.914-.02 1.06.487 1.813 1.314 1.79.738-.02 1.28-.387 1.234-1.161-.047-.813-.235-1.643-1.424-1.543m3.544-3.65c.308 2.05.217 2.76-.219 3.27.22 1.308.55 2.424.561 3.543.021 2.208-1.188 3.343-3.417 3.442-2.06.093-3.603-1.157-3.782-3.175-.095-1.093-.016-2.201-.016-3.305-1.997-.233-2.858.464-2.816 2.425.022 1.018.21 2.034.34 3.19-.855 0-1.688.052-2.508-.031-.238-.023-.556-.394-.634-.663-.549-1.91-.628-3.847-.12-5.777.446-1.702 1.77-2.812 3.813-2.891 2.903-.112 5.816-.028 8.798-.028M99.4 73.507c.403.958.935 1.758 1.065 2.619.385 2.544-.935 4.139-3.737 4.288-3.018.16-6.052.036-9.15.036v-3.633c2.066 0 4.089.003 6.112-.002.599-.001 1.208.042 1.79-.058.81-.137 1.744-.213 1.633-1.447-.093-1.034-.792-1.697-1.895-1.703-2.076-.011-4.152-.003-6.23-.004h-1.396v-3.431h12.445c.577 1.701.329 2.778-.637 3.335M62.413 152.653c10.198-4.968 18.129-12.527 24.374-22.221-.846 9.609-10.716 21.397-24.375 22.221M97.02 90.643c.114-1.293.27-2.469.292-3.647.007-.343-.32-.93-.576-.983-.364-.072-.97.133-1.183.428-.431.6-.654 1.35-.991 2.022-.79 1.576-2.066 2.261-3.813 2.073-1.807-.196-3.003-1.138-3.287-2.935-.201-1.27-.07-2.597-.07-3.898.002-.942.538-1.216 1.407-1.136.58.054 1.169.011 1.814.011-.102 1.16-.257 2.142-.24 3.123.005.388.39.77.603 1.155.355-.255.83-.437 1.037-.78.362-.607.514-1.334.834-1.97.862-1.715 2.308-2.305 4.687-1.97 1.477.206 2.626 1.26 2.807 2.984.158 1.486-.021 3.008-.062 4.514-.023.826-.5 1.074-1.272 1.02-.668-.049-1.342-.01-1.987-.01"/>
        <mask id="d" fill="#fff">
            <use xlink:href="#c"/>
        </mask>
        <path fill="#2E2A26" d="M81.119 67.683h19.082v-3.485H81.119zM87.54 44.233v-3.54l1.303-.19c-.569-.707-1.242-1.33-1.64-2.095-.507-.975-.176-1.403.898-1.425.87-.02 1.74-.004 2.298-.004.49 1.085.724 2.069 1.31 2.753.42.49 1.3.775 1.991.808 2.108.102 4.224.037 6.454.037v3.656H87.54zM31.273 8.166c-2.95-.628-4.754.187-6.251 2.954-.923 1.704-2.131 3.038-3.922 3.86-.82.376-1.128.12-1.41-.622-1.02-2.681.398-6.064 3.33-7.671 2.264-1.24 4.588-1.594 6.9-.08.584.38 1.14.804 1.707 1.207l-.354.352zM2.698 90.608c-2.903-1.624-3.542-5.45-1.53-8.764 1.79-2.95 5.286-4.087 7.476-2.669-.897.741-2.117 1.37-2.747 2.37-.636 1.011-.89 2.38-.955 3.61-.11 2.096-.772 3.87-2.244 5.453" mask="url(#d)"/>
        <path fill="#2E2A26" d="M20.383 16.299c3.001-.298 4.737-1.967 6.027-4.358.852-1.578 2.134-2.642 4.036-2.816.967-.088 1.264.358 1.334 1.211.158 1.896-.429 3.518-1.656 4.956-1.874 2.195-5.286 3.221-7.8 2.222-.698-.277-1.296-.803-1.94-1.215M9.603 79.808c2.23 2.191 2.452 5.442.646 8.307-1.681 2.664-4.451 3.8-6.941 2.91.748-.8 1.778-1.506 2.223-2.479.576-1.262.83-2.724.965-4.126.204-2.144 1.104-3.698 3.107-4.612M95.127 139.428c-.764.077-1.673.006-1.575.997.04.403.863.73 1.575 1.28v-2.277zm2.958-2.467h2.027c.104.481.233.935.296 1.398.637 4.677-1.76 6.331-6.639 5.292-1.58-.336-2.284-1.508-2.28-3.216.003-1.74.711-2.825 2.284-3.216.943-.233 1.94-.252 3.042-.382v4.345c1.552-.329 1.634-.616 1.27-4.22zM87.574 61.746h12.592v-3.495H87.574zM1.454 55.489C-.761 53.122-.18 49.417 2.73 47.072c2.647-2.134 6.313-1.649 7.239.154-2.508-.131-4.233 1.12-5.029 3.818-.572 1.945-1.681 3.398-3.487 4.445" mask="url(#d)"/>
        <path fill="#2E2A26" d="M1.857 55.811c2.655-.544 3.943-2.365 4.687-4.747.477-1.529 1.479-2.617 3.02-3.153.726-.253 1.154-.064 1.445.722.933 2.516-.502 5.91-3.197 7.396-2.233 1.231-4.284 1.18-5.955-.218M37.673 18.846c-1.799-2.44-.228-6.024 2.352-7.495 2.698-1.54 5.771-1.14 7.148 1.178-2.978-.615-4.527 1.062-5.739 3.349-.802 1.514-2.116 2.424-3.76 2.968M87.963 151.262v-2.445c2.3 0 4.525-.026 6.751.006 3.927.054 3.195-.337 3.256-3.165.007-.316.035-.63.06-1.052h2.475c-.114 1.66-.146 3.324-.372 4.963-.16 1.161-1.158 1.65-2.203 1.67-3.272.063-6.544.023-9.967.023" mask="url(#d)"/>
        <path fill="#2E2A26" d="M38.213 19.366c2.398-.143 3.963-1.335 5.023-3.307.81-1.504 1.905-2.61 3.753-2.78.748-.07.99.18 1.114.844.516 2.746-1.61 5.764-4.679 6.601-2.145.585-3.929.154-5.21-1.358M71.364 16.64c.862-1.823 4.02-2.277 6.49-.494 2.189 1.579 2.848 4.796 1.322 6.155-.333-2.344-1.921-3.236-4.021-3.51-1.573-.204-2.868-.861-3.791-2.151" mask="url(#d)"/>
        <path fill="#2E2A26" d="M70.843 17.238c.968 1.942 2.395 2.895 4.39 3.111 1.26.139 2.351.707 3.047 1.867.378.631.334 1.066-.355 1.458-1.608.919-4.158.51-5.88-.995-1.579-1.38-2.078-3.446-1.202-5.441M71.881 54.55c1.013.998 1.128 2.069.944 3.212-.494 3.075-4.05 5.276-6.713 4.161-1.42-.596-1.58-1.239-.366-2.148a8.984 8.984 0 0 1 2.736-1.368c1.886-.572 3.194-1.573 3.4-3.857" mask="url(#d)"/>
        <path fill="#2E2A26" d="M64.733 60.14c-1.706-2.162-.137-6.127 3.242-6.985.936-.238 2.016-.001 3.007.155.202.033.499.734.42 1.043-.323 1.275-1.292 2.016-2.506 2.302-1.938.457-3.434 1.389-4.163 3.486M87.836 25.026c1.584 1.867 1.252 4.129-.757 5.97-1.746 1.603-4.259 1.672-5.847.096.738-1.384 1.971-2.046 3.447-2.434 2.126-.557 2.9-1.456 3.157-3.632M61.832 70.751c-1.695 1.18-4.052.593-5.453-1.312-1.605-2.177-1.432-4.583.568-6.134-.463 2.368.838 3.581 2.641 4.54 1.163.617 1.954 1.594 2.244 2.906" mask="url(#d)"/>
        <path fill="#2E2A26" d="M80.622 30.95c-.996-1.681-.79-3.48.53-4.98 1.44-1.633 3.655-2.296 5.246-1.614.674.288.781.705.501 1.323-.518 1.144-1.45 1.73-2.622 2.062-2.166.612-2.659 1.059-3.655 3.209M62.36 70.29c-.12-1.985-1.156-3.173-2.731-4.014-1.137-.607-2.004-1.478-1.948-2.883.013-.292.329-.746.595-.824 1.58-.465 3.682.703 4.7 2.533.97 1.743.78 3.798-.615 5.188M47.14 8.334c1.335-1.793.611-3.258-.439-4.828-.649-.969-.885-2.214-1.32-3.372 2.384-.589 4.193.804 4.658 3.237.496 2.588-.636 4.606-2.899 4.963" mask="url(#d)"/>
        <path fill="#2E2A26" d="M45.187.194c-.75 1.922-.105 3.403.994 4.833.869 1.133.949 3.097.288 3.577-.587.426-2.427-.634-3.11-1.792-1.351-2.29-.832-5.258 1.12-6.365.164-.094.36-.13.708-.253M12.037 69.928c1.313-1.396 3.403-1.3 5.05.155 1.524 1.347 1.813 3.687.564 5.218-1.12-.427-1.825-1.249-2.188-2.39-.532-1.669-1.393-2.966-3.425-2.983M17.173 76.01c-1.47.931-3.072.787-4.472-.345-1.345-1.088-2.04-3.029-1.469-4.379.11-.26.813-.573.921-.48.733.617 1.61 1.225 2.005 2.044.97 2.003 1.025 2.213 3.015 3.16M70.288 64.031c1.741-.835 3.294-.36 4.464 1.258 1.047 1.45 1.001 3.677-.067 4.752-.437.44-.888.52-1.137-.056-.385-.892-.8-1.832-.884-2.78-.135-1.547-.672-2.662-2.376-3.174M19.046 45.877c.052-1.872-.969-2.694-2.358-3.388-.94-.469-1.7-1.3-2.585-2.004 1.552-1.375 3.625-1.116 4.968.373 1.351 1.497 1.413 3.706-.025 5.02M33.79 33.607c-1.765-.298-2.639.613-3.457 1.809-.622.908-1.468 1.663-2.259 2.536-1.296-1.761-.885-3.584.832-4.851 1.722-1.271 3.713-1.105 4.883.506M73.44 71.065c-1.554.443-2.917-.032-3.863-1.283-1.003-1.325-1.174-3.312-.444-4.495.44-.71 1.012-.749 1.398-.143.47.74.856 1.6 1.016 2.457.385 2.054.368 2.15 1.894 3.464" mask="url(#d)"/>
        <path fill="#2E2A26" d="M27.878 38.19c1.763-.23 2.686-1.23 3.394-2.58.55-1.05 1.906-1.69 2.556-1.379.543.26.477 1.645-.116 2.766-1.049 1.976-4.147 3-5.834 1.192M55.15 44.472l.303-.058c1.872-.65 3.538-.142 4.59 1.402.895 1.315.853 2.827-.338 4.155-.596-.82-1.302-1.52-1.674-2.369-.568-1.29-1.076-2.499-2.734-2.602-.06-.003-.098-.344-.146-.528M60 50.512c-1.653.805-2.92.686-4.1-.208-1.204-.913-1.727-2.121-1.525-3.646.112-.844.628-1.052 1.22-.64.583.41 1.2.98 1.45 1.618.52 1.33 1.216 2.386 2.954 2.876M72.622 35.53c1-1.202.813-2.299.062-3.476-.415-.65-.639-1.434-.883-2.18-.304-.928.185-1.159 1.004-1 1.292.25 2.412 1.864 2.41 3.485-.003 1.5-.956 3.238-2.593 3.17M83.674 58.1c1.227-.024 2.077.764 2.102 1.946.024 1.176-.809 2.008-2.032 2.032-1.237.023-2.084-.768-2.09-1.953-.006-1.227.764-2 2.02-2.025" mask="url(#d)"/>
        <path fill="#2E2A26" d="M72.056 35.322c-1.677-.273-2.733-1.482-2.872-3.224-.136-1.711.578-2.934 2.06-3.382-.563 1.468-.036 2.649.767 3.818.604.879.623 1.856.045 2.788M39.099 34.068c-1.335.256-2.372-.43-2.709-1.704-.487-1.843.097-3.177 1.874-3.736.063.803.303 1.591.137 2.282-.29 1.2-.292 2.245.698 3.158M39.415 34.157c-.16-.994-.339-1.75-.393-2.512-.073-1.047-.053-2.1-.073-3.17.837-.042 1.651.557 2.083 1.792.51 1.457.088 2.732-1.617 3.89M14.257 90.305c-.64-1.312-.393-2.292.59-2.99 1.135-.807 2.121-.742 3.117.287-1.206-.089-1.81.576-2.343 1.483-.284.486-.87.794-1.364 1.22" mask="url(#d)"/>
        <path fill="#2E2A26" d="M18.063 88.181c.363 1.17-.047 2.051-.998 2.665-.89.575-1.827.687-2.99-.287 2.144.248 1.946-2.647 3.988-2.378M19.463 87.042l-.538.223c-.207-.52-.637-1.073-.564-1.548.084-.541.617-1.013.955-1.515l.514.245c-.139.479-.329.95-.403 1.439-.058.383.026.787.047 1.18l-.01-.024z" mask="url(#d)"/>
        <path fill="#2E2A26" d="M19.474 87.067l.813-2.476c1 .547 1.088 2.035.024 2.643-.186.106-.559-.117-.847-.19l.01.023M95.127 139.428v2.276c-.712-.55-1.535-.876-1.575-1.279-.098-.99.811-.92 1.575-.997" mask="url(#d)"/>
    </g>
</svg>
