<?xml version="1.0" standalone="no"?>
<!DOCTYPE svg PUBLIC "-//W3C//DTD SVG 1.1//EN" "http://www.w3.org/Graphics/SVG/1.1/DTD/svg11.dtd" >
<svg>
<metadata>
Created by FontForge 20120731 at Wed Apr 26 11:59:01 2017
 By www-data
Copyright (c) 2012 by Jeremy Dooley. All rights reserved.
</metadata>
<defs>
<font id="AshemoreCondMedium" horiz-adv-x="478" >
  <font-face 
    font-family="Ashemore Cond Medium"
    font-weight="550"
    font-stretch="normal"
    units-per-em="1000"
    panose-1="0 0 0 0 0 0 0 0 0 0"
    ascent="750"
    descent="-250"
    x-height="500"
    cap-height="720"
    bbox="-45 -236 1059 962"
    underline-thickness="50"
    underline-position="-50"
    stemh="106"
    stemv="124"
    unicode-range="U+0020-FB06"
  />
<missing-glyph horiz-adv-x="200" 
 />
    <glyph glyph-name="ff" unicode="ff" horiz-adv-x="597" 
d="M17 405v95h68v14c0 146 54 216 174 216c47 0 85 -12 117 -34c27 44 71 65 133 65c28 0 64 -7 85 -15v-96c-13 7 -36 12 -58 12c-67 0 -80 -48 -80 -134v-28h127v-95h-127v-405h-114v405h-143v-405h-114v405h-68zM199 500h143v28c0 31 1 58 5 82c-17 16 -41 22 -67 22
c-69 0 -81 -42 -81 -118v-14z" />
    <glyph glyph-name="f_f_j" unicode="ffj" horiz-adv-x="758" 
d="M17 405v95h68v14c0 138 54 207 170 207c46 0 82 -10 114 -29c26 39 71 58 148 58c51 0 97 -9 133 -24v-96c-23 13 -65 22 -106 22c-79 0 -92 -42 -92 -118v-34h255v-521c0 -112 -34 -182 -128 -182c-40 0 -61 5 -83 14v90c11 -5 26 -10 46 -10c43 0 51 41 51 93v421h-141
v-405h-114v405h-139v-405h-114v405h-68zM199 514v-14h139v34c0 26 1 50 4 72c-17 12 -40 17 -66 17c-66 0 -77 -42 -77 -109z" />
    <glyph glyph-name="ffl" unicode="ffl" horiz-adv-x="761" 
d="M338 0v405h-139v-405h-114v405h-68v95h68v14c0 138 54 207 170 207c46 0 82 -10 114 -29c26 39 71 58 149 58c26 0 52 -3 76 -7v7h113v-750h-113v405h-142v-405h-114zM452 534v-34h142v148c-16 2 -33 4 -50 4c-79 0 -92 -42 -92 -118zM199 514v-14h139v34c0 26 1 50 4 72
c-17 12 -39 17 -66 17c-66 0 -77 -42 -77 -109z" />
    <glyph glyph-name="fi" unicode="fi" horiz-adv-x="501" 
d="M19 405v95h63v34c0 146 33 216 180 216c50 0 97 -9 132 -24v-96c-22 13 -65 22 -106 22c-78 0 -91 -42 -91 -118v-34h253v-500h-113v405h-140v-405h-115v405h-63z" />
    <glyph glyph-name="f_j" unicode="fj" horiz-adv-x="503" 
d="M19 405v95h63v34c0 146 33 216 180 216c50 0 97 -9 132 -24v-96c-22 13 -65 22 -106 22c-78 0 -91 -42 -91 -118v-34h255v-521c0 -112 -34 -182 -128 -182c-40 0 -61 5 -83 14v90c11 -5 26 -10 46 -10c43 0 51 41 51 93v421h-141v-405h-115v405h-63z" />
    <glyph glyph-name="fl" unicode="fl" horiz-adv-x="505" 
d="M19 405v95h63v34c0 146 33 216 180 216c26 0 52 -3 76 -7v7h113v-750h-113v405h-141v-405h-115v405h-63zM197 534v-34h141v148c-16 2 -33 4 -50 4c-78 0 -91 -42 -91 -118z" />
    <glyph glyph-name=".notdef" horiz-adv-x="200" 
 />
    <glyph glyph-name="A.str" unicode="&#xe000;" horiz-adv-x="594" 
d="M462 0l-41 139h-252l-44 -139h-116l243 720h94l235 -720h-119zM301 552l-98 -307h187z" />
    <glyph glyph-name="E" unicode="E" horiz-adv-x="470" 
d="M174 330v-94c0 -114 29 -133 109 -133h152v-105h-154c-169 0 -220 47 -220 235v487h364v-102h-251v-186h211v-102h-211z" />
    <glyph glyph-name="X" unicode="X" horiz-adv-x="549" 
d="M274 420c66 97 113 223 132 300h120c-26 -114 -86 -243 -166 -358c80 -116 140 -247 166 -362h-120c-19 78 -66 206 -132 305c-67 -99 -114 -227 -132 -305h-120c29 115 86 246 165 362c-78 115 -136 244 -165 358h120c18 -77 65 -203 132 -300z" />
    <glyph glyph-name="C.narrow" unicode="&#xe001;" horiz-adv-x="528" 
d="M488 115v-103c-51 -17 -113 -22 -149 -22c-199 0 -301 175 -301 397c0 247 109 343 247 343c143 0 203 -97 203 -244v-17h-106v11c0 86 -39 142 -99 142c-63 0 -124 -62 -124 -237c0 -120 32 -287 204 -287c35 0 77 5 125 17z" />
    <glyph glyph-name="C" unicode="C" horiz-adv-x="581" 
d="M542 112v-100c-50 -13 -124 -22 -171 -22c-225 0 -334 171 -334 392c0 255 122 348 273 348c161 0 232 -98 232 -266v-17h-107v14c0 103 -44 161 -125 161c-84 0 -156 -61 -156 -238c0 -120 38 -290 245 -290c37 0 85 5 143 18z" />
    <glyph glyph-name="O" unicode="O" horiz-adv-x="656" 
d="M618 364c0 -228 -105 -374 -290 -374c-186 0 -291 145 -291 372s105 368 291 368c184 0 290 -139 290 -366zM502 363c0 152 -59 264 -174 264s-174 -112 -174 -264s58 -270 174 -270c115 0 174 118 174 270z" />
    <glyph glyph-name="e" unicode="e" horiz-adv-x="452" 
d="M413 219h-263c8 -92 44 -131 137 -131c40 0 88 7 129 17v-96c-53 -12 -111 -19 -154 -19c-149 0 -229 83 -229 269c0 169 66 251 192 251c127 0 188 -82 188 -240v-51zM228 420c-44 0 -74 -31 -79 -128h153v13c0 82 -30 115 -74 115z" />
    <glyph glyph-name="c" unicode="c" horiz-adv-x="440" 
d="M403 289h-100v22c0 61 -24 104 -74 104c-48 0 -81 -43 -81 -150c0 -125 53 -181 149 -181c34 0 74 5 108 12v-90c-43 -10 -103 -16 -135 -16c-148 0 -238 88 -238 276c0 171 84 244 196 244c117 0 175 -71 175 -195v-26z" />
    <glyph glyph-name="b" unicode="b" horiz-adv-x="476" 
d="M45 751h113v-290c36 31 75 49 119 49c101 0 166 -84 166 -243c0 -162 -66 -277 -211 -277c-125 0 -187 90 -187 269v492zM242 409c-30 0 -57 -17 -84 -44v-114c0 -106 30 -163 81 -163c56 0 86 68 86 171c0 104 -33 150 -83 150z" />
    <glyph glyph-name="p.ch" unicode="&#xe002;" horiz-adv-x="457" 
d="M147 -198h-102v450c0 162 61 258 183 258c130 0 197 -107 197 -256c0 -153 -69 -261 -178 -261c-32 0 -68 15 -100 43v-234zM147 248v-125c23 -21 48 -33 71 -33c45 0 96 42 96 161c0 96 -28 158 -85 158s-82 -58 -82 -161z" />
    <glyph glyph-name="p" unicode="p" horiz-adv-x="477" 
d="M52 500h95l15 -56c30 46 73 66 120 66c106 0 163 -109 163 -254c0 -132 -44 -266 -174 -266c-52 0 -86 29 -106 57v-247h-113v700zM247 407c-43 0 -65 -30 -82 -86v-178c18 -41 47 -56 72 -56c57 0 92 71 92 166c0 93 -28 154 -82 154z" />
    <glyph glyph-name="d" unicode="d" horiz-adv-x="480" 
d="M205 510c54 0 88 -31 109 -59v299h114v-750h-98l-9 66c-32 -53 -76 -76 -124 -76c-105 0 -164 109 -164 255c0 131 47 265 172 265zM231 93c42 0 66 30 83 89v175c-19 41 -48 56 -75 56c-57 0 -91 -71 -91 -167c0 -92 28 -153 83 -153z" />
    <glyph glyph-name="S" unicode="S" horiz-adv-x="477" 
d="M240 629c-50 0 -79 -40 -79 -97c0 -169 282 -89 282 -343c0 -169 -102 -199 -216 -199c-70 0 -143 19 -194 45v102c58 -29 113 -47 185 -47c50 0 112 13 112 99c0 151 -282 82 -282 342c0 119 65 199 190 199c128 0 189 -81 189 -206v-18h-107v13c0 71 -32 110 -80 110z
" />
    <glyph glyph-name="i" unicode="i" horiz-adv-x="216" 
d="M51 0v500h113v-500h-113zM44 648c0 36 27 66 63 66s64 -28 64 -66c0 -37 -28 -65 -64 -65s-63 31 -63 65z" />
    <glyph glyph-name="h" unicode="h" horiz-adv-x="479" 
d="M52 0v750h113v-287c30 23 81 47 126 47c113 0 139 -97 139 -176v-334h-112v296c0 66 -18 112 -72 112c-31 0 -60 -20 -81 -31v-377h-113z" />
    <glyph glyph-name="f" unicode="f" horiz-adv-x="339" 
d="M17 405v95h68v28c0 160 51 233 167 233c28 0 64 -7 85 -15v-96c-13 7 -36 12 -58 12c-67 0 -80 -48 -80 -134v-28h127v-95h-127v-405h-114v405h-68z" />
    <glyph glyph-name="g" unicode="g" horiz-adv-x="479" 
d="M313 -12v64c-31 -43 -73 -62 -117 -62c-104 0 -164 109 -164 255c0 131 48 265 173 265c53 0 87 -30 108 -57v47h114v-484c0 -143 -47 -252 -206 -252c-60 0 -124 17 -178 39v96c60 -24 116 -36 162 -36c76 0 108 46 108 125zM230 93c43 0 67 30 83 89v175
c-19 41 -48 56 -74 56c-57 0 -91 -71 -91 -167c0 -92 27 -153 82 -153z" />
    <glyph glyph-name="a" unicode="a" horiz-adv-x="445" 
d="M181 268c38 0 77 -4 103 -14v35c0 83 -14 123 -104 123c-38 0 -85 -10 -125 -22v96c47 15 96 24 145 24c143 0 198 -60 198 -188v-322h-97l-8 37c-31 -29 -77 -47 -127 -47c-99 0 -141 51 -141 135c0 78 39 143 156 143zM202 68c37 0 65 13 82 36v83c-19 8 -42 9 -63 9
c-44 0 -78 -14 -78 -65c0 -44 21 -63 59 -63z" />
    <glyph glyph-name="t" unicode="t" horiz-adv-x="329" 
d="M16 405v95h61v99l114 39v-138h111v-95h-111v-196c0 -79 10 -121 61 -121c22 0 40 5 57 12v-97c-31 -10 -57 -14 -90 -14c-96 0 -142 54 -142 218v198h-61z" />
    <glyph glyph-name="j" unicode="j" horiz-adv-x="218" 
d="M166 500v-537c0 -102 -33 -172 -128 -172c-40 0 -61 4 -83 13v96c11 -5 26 -9 46 -9c43 0 51 37 51 84v525h114zM173 648c0 -38 -29 -66 -64 -66c-37 0 -63 31 -63 66s26 65 63 65c35 0 64 -28 64 -65z" />
    <glyph glyph-name="k" unicode="k" horiz-adv-x="473" 
d="M467 0h-133l-169 244v-244h-113v750h113v-442c103 23 138 103 146 192h116c-4 -108 -50 -210 -143 -235z" />
    <glyph glyph-name="l" unicode="l" horiz-adv-x="221" 
d="M54 0v750h113v-750h-113z" />
    <glyph glyph-name="n" unicode="n" horiz-adv-x="479" 
d="M52 0v500h113v-37c30 23 81 47 126 47c113 0 139 -97 139 -176v-334h-112v296c0 66 -18 112 -72 112c-31 0 -60 -20 -81 -31v-377h-113z" />
    <glyph glyph-name="u" unicode="u" 
d="M426 500v-500h-96l-11 48c-31 -30 -74 -59 -129 -59c-80 0 -142 50 -142 182v329h113v-297c0 -95 37 -110 65 -110c32 0 61 14 88 41v366h112z" />
    <glyph glyph-name="q" unicode="q" 
d="M313 500h113v-700h-113v252c-31 -43 -73 -62 -117 -62c-104 0 -164 109 -164 255c0 131 48 265 173 265c53 0 87 -30 108 -57v47zM230 93c43 0 67 30 83 89v175c-19 41 -48 56 -74 56c-57 0 -91 -71 -91 -167c0 -92 27 -153 82 -153z" />
    <glyph glyph-name="r" unicode="r" horiz-adv-x="331" 
d="M165 0h-113v500h113v-87c27 63 73 101 112 101c20 0 34 -4 34 -4v-115c-14 5 -28 6 -43 6c-39 0 -77 -30 -103 -87v-314z" />
    <glyph glyph-name="o" unicode="o" horiz-adv-x="468" 
d="M436 254c0 -173 -80 -264 -202 -264c-124 0 -201 91 -201 264c0 176 82 256 201 256c117 0 202 -80 202 -256zM323 254c0 107 -34 161 -89 161c-54 0 -88 -54 -88 -161c0 -106 28 -168 88 -168c59 0 89 62 89 168z" />
    <glyph glyph-name="space" unicode=" " horiz-adv-x="185" 
 />
    <glyph glyph-name="s" unicode="s" horiz-adv-x="375" 
d="M325 493v-95c-38 12 -84 16 -117 16c-45 0 -62 -20 -62 -50c0 -42 47 -51 98 -73c55 -24 103 -52 103 -144c0 -119 -75 -157 -191 -157c-57 0 -91 8 -124 19v96c43 -12 89 -19 131 -19c36 0 67 14 67 63c0 41 -35 54 -81 72c-59 25 -113 54 -113 142c0 84 45 147 177 147
c32 0 66 -4 112 -17z" />
    <glyph glyph-name="z" unicode="z" horiz-adv-x="400" 
d="M40 409v91h318v-91c0 -135 -95 -242 -197 -313h207v-96h-336v96c103 62 218 176 218 313h-210z" />
    <glyph glyph-name="y" unicode="y" horiz-adv-x="449" 
d="M205 -221h-114c29 77 59 151 87 224c-80 165 -132 331 -157 497h116c16 -122 42 -239 88 -365c38 113 68 230 86 365h115c-33 -251 -133 -498 -221 -721z" />
    <glyph glyph-name="v" unicode="v" horiz-adv-x="449" 
d="M167 0c-74 166 -122 333 -144 500h115c15 -132 40 -259 87 -397c46 138 72 265 86 397h115c-23 -167 -69 -334 -142 -500h-117z" />
    <glyph glyph-name="w" unicode="w" horiz-adv-x="681" 
d="M476 118c40 136 58 249 69 382h113c-18 -167 -63 -334 -134 -500h-98c-38 108 -66 218 -85 328c-21 -114 -49 -224 -86 -328h-98c-73 166 -119 333 -133 500h113c11 -133 29 -246 68 -382c47 136 67 249 79 382h114c12 -133 33 -246 78 -382z" />
    <glyph glyph-name="x" unicode="x" horiz-adv-x="441" 
d="M133 250c-48 71 -89 158 -108 250h116c14 -73 44 -146 79 -199c35 53 64 126 78 199h117c-18 -92 -60 -179 -109 -250c49 -71 92 -162 110 -252h-117c-14 73 -44 148 -79 201c-35 -53 -65 -126 -79 -199h-116c19 91 60 179 108 250z" />
    <glyph glyph-name="G" unicode="G" horiz-adv-x="595" 
d="M327 264v96h220v-339h-1l1 -4c-60 -20 -141 -28 -182 -28c-242 0 -327 170 -327 396c0 248 118 345 269 345c160 0 237 -90 237 -249v-17h-110v11c0 91 -46 147 -124 147c-82 0 -151 -69 -151 -237c0 -142 29 -293 200 -293c18 0 47 2 77 6v166h-109z" />
    <glyph glyph-name="F" unicode="F" horiz-adv-x="460" 
d="M180 0h-115v720h370v-106h-255v-225h208v-105h-208v-284z" />
    <glyph glyph-name="B" unicode="B" horiz-adv-x="509" 
d="M65 0v720h192c98 0 182 -56 182 -172c0 -65 -28 -115 -65 -154c61 -37 108 -86 108 -183c0 -161 -128 -211 -238 -211h-179zM288 329c-53 -30 -101 -43 -110 -46v-187h52c60 0 137 26 137 120c0 57 -40 91 -79 113zM242 624h-64v-243c44 14 148 57 148 154
c0 68 -47 89 -84 89z" />
    <glyph glyph-name="L" unicode="L" horiz-adv-x="442" 
d="M177 215c0 -84 16 -108 81 -108h169v-109h-171c-137 0 -195 30 -195 212v510h116v-505z" />
    <glyph glyph-name="D" unicode="D" horiz-adv-x="604" 
d="M65 0v720h212c139 0 291 -72 291 -319c0 -277 -201 -401 -389 -401h-114zM179 614v-507c149 0 270 97 270 290c0 171 -86 217 -191 217h-79z" />
    <glyph glyph-name="H" unicode="H" horiz-adv-x="609" 
d="M65 0v720h114v-299h251v299h114v-720h-114v315h-251v-315h-114z" />
    <glyph glyph-name="I" unicode="I" horiz-adv-x="244" 
d="M65 0v720h114v-720h-114z" />
    <glyph glyph-name="T" unicode="T" horiz-adv-x="441" 
d="M9 614v106h423v-106h-154v-614h-114v614h-155z" />
    <glyph glyph-name="K" unicode="K" horiz-adv-x="516" 
d="M65 0v720h114v-322c100 97 172 218 201 322h119c-31 -109 -89 -218 -177 -327c83 -128 140 -271 172 -393h-121c-25 88 -67 202 -127 308c-21 -23 -44 -45 -67 -68v-240h-114z" />
    <glyph glyph-name="J" unicode="J" horiz-adv-x="412" 
d="M234 223v497h117v-503c0 -151 -60 -228 -193 -228c-40 0 -94 5 -146 20v96c41 -9 72 -17 124 -17c70 0 98 48 98 135z" />
    <glyph glyph-name="Q" unicode="Q" horiz-adv-x="656" 
d="M618 364c0 -157 -50 -275 -142 -334c49 -26 88 -57 146 -58v-102c-121 5 -185 77 -276 120v1c-6 -1 -12 -1 -18 -1c-186 0 -291 145 -291 372s105 368 291 368c184 0 290 -139 290 -366zM502 363c0 152 -59 264 -174 264s-174 -112 -174 -264s58 -270 174 -270
c115 0 174 118 174 270z" />
    <glyph glyph-name="R" unicode="R" horiz-adv-x="509" 
d="M463 495c0 -100 -42 -168 -96 -217c52 -93 91 -190 111 -278h-121c-14 56 -43 138 -82 217c-36 -18 -71 -31 -97 -40v-177h-114v720h180c116 0 219 -53 219 -225zM340 491c0 98 -47 129 -112 129h-48v-330c61 23 160 61 160 201z" />
    <glyph glyph-name="N" unicode="N" horiz-adv-x="617" 
d="M65 0v720h114c98 -91 181 -225 259 -382v382h114v-720h-114v141c-84 189 -172 335 -259 428v-569h-114z" />
    <glyph glyph-name="M" unicode="M" horiz-adv-x="732" 
d="M210 720c68 -137 115 -267 150 -394c4 -14 4 -29 6 -41c0 9 1 30 4 40c32 106 83 262 152 395h64c78 -247 105 -486 108 -720h-108c0 160 -24 374 -61 536c-50 -116 -90 -273 -116 -397h-86c-25 124 -68 280 -116 397c-37 -162 -62 -376 -62 -536h-108
c3 234 32 473 109 720h64z" />
    <glyph glyph-name="A.001" unicode="&#xe003;" horiz-adv-x="599" 
d="M359 720l224 -720h-126l-51 183l-235 -74l-31 -109h-125l231 720h113zM301 556l-96 -331l174 55l-77 276h-1z" />
    <glyph glyph-name="K.str" unicode="&#xe004;" horiz-adv-x="546" 
d="M65 0v720h113v-372l229 372h131l-220 -334l222 -386h-138l-148 289l-76 -116v-173h-113z" />
    <glyph glyph-name="U" unicode="U" horiz-adv-x="622" 
d="M563 720v-419c0 -210 -90 -311 -250 -311c-162 0 -254 101 -254 311v419h114v-405c0 -201 84 -220 140 -220c55 0 136 19 136 220v405h114z" />
    <glyph glyph-name="V" unicode="V" horiz-adv-x="556" 
d="M278 125c72 188 120 414 140 595h116c-30 -240 -99 -480 -203 -720h-107c-104 240 -173 480 -202 720h116c19 -181 67 -407 140 -595z" />
    <glyph glyph-name="V.str" unicode="&#xe005;" horiz-adv-x="591" 
d="M237 0l-224 720h126l155 -556h1l161 556h125l-231 -720h-113z" />
    <glyph glyph-name="W" unicode="W" horiz-adv-x="835" 
d="M636 0h-99c-55 145 -93 290 -119 436c-27 -146 -64 -291 -118 -436h-100c-90 240 -150 480 -175 720h113c16 -178 54 -398 112 -583c58 185 95 405 111 583h113c16 -178 55 -398 112 -583c58 185 96 405 111 583h113c-25 -240 -84 -480 -174 -720z" />
    <glyph glyph-name="Z" unicode="Z" horiz-adv-x="477" 
d="M44 619v102h385v-60c0 -76 -87 -382 -268 -555h285v-106h-417v106c199 199 265 458 281 513h-266z" />
    <glyph glyph-name="Y" unicode="Y" horiz-adv-x="534" 
d="M209 0v241c-105 163 -164 316 -191 479h115c18 -118 61 -252 134 -374c72 122 115 256 133 374h114c-26 -163 -86 -316 -190 -479v-241h-115z" />
    <glyph glyph-name="A" unicode="A" horiz-adv-x="566" 
d="M334 720c108 -240 180 -480 210 -720h-114c-6 51 -15 106 -26 163c-79 -3 -174 -24 -253 -60c-6 -36 -11 -70 -14 -103h-116c32 240 103 480 211 720h102zM283 580c-47 -115 -84 -242 -111 -365c67 27 144 44 211 49c-26 107 -59 217 -100 316z" />
    <glyph glyph-name="zero" unicode="0" horiz-adv-x="589" 
d="M43 361c0 201 55 369 250 369c198 0 253 -168 253 -369c0 -203 -55 -372 -253 -372c-195 0 -250 169 -250 372zM162 361c0 -155 27 -264 131 -264c105 0 133 109 133 264c0 153 -28 262 -133 262c-104 0 -131 -109 -131 -262z" />
    <glyph glyph-name="one" unicode="1" horiz-adv-x="290" 
d="M222 0h-114v598l-79 -43v114l92 51h101v-720z" />
    <glyph glyph-name="two.001" unicode="&#xe006;" horiz-adv-x="500" 
d="M196 103l262 2v-105h-421v101c165 145 303 268 303 388c0 76 -35 138 -131 138c-65 0 -108 -19 -163 -51v106c51 27 90 48 195 48c148 0 213 -94 213 -231c0 -163 -113 -266 -258 -396z" />
    <glyph glyph-name="three.001" unicode="&#xe007;" horiz-adv-x="501" 
d="M47 593v102c74 30 138 35 188 35c148 0 208 -61 208 -181c0 -82 -33 -149 -92 -174c78 -21 111 -95 111 -177c0 -142 -87 -208 -232 -208c-49 0 -137 13 -189 39v103c37 -17 96 -35 160 -35c100 0 147 45 147 120c0 64 -32 103 -110 103h-94v105h90c77 0 96 57 96 101
c0 88 -68 97 -126 97c-54 0 -109 -15 -157 -30z" />
    <glyph glyph-name="four" unicode="4" horiz-adv-x="515" 
d="M411 720v-470h67v-106h-67v-144h-113v144h-279v90l259 486h133zM298 250v340l-159 -340h159z" />
    <glyph glyph-name="five" unicode="5" horiz-adv-x="490" 
d="M108 720h318v-105h-233l-24 -166c18 1 39 1 57 1c165 0 227 -81 227 -219c0 -127 -61 -242 -237 -242c-60 0 -140 14 -180 38v104c44 -24 105 -40 162 -40c106 0 141 72 141 136c0 80 -36 131 -156 131c-44 0 -71 -2 -128 -6z" />
    <glyph glyph-name="v.ital" unicode="&#xe008;" horiz-adv-x="470" 
d="M48 159v341h113v-326c0 -60 19 -84 52 -84c61 0 110 78 110 208c0 63 -12 142 -58 202h103c59 -54 70 -134 70 -208c0 -196 -97 -302 -245 -302c-106 0 -145 48 -145 169z" />
    <glyph glyph-name="P" unicode="P" horiz-adv-x="490" 
d="M464 490c0 -212 -205 -286 -285 -313v-177h-114v720h180c115 0 219 -55 219 -230zM341 485c0 96 -45 135 -112 135h-48v-336c48 18 160 60 160 201z" />
    <glyph glyph-name="six" unicode="6" horiz-adv-x="518" 
d="M294 428c114 0 193 -70 193 -212c0 -136 -77 -226 -216 -226c-154 0 -229 123 -229 326c0 247 111 414 399 414v-106c-214 -7 -273 -93 -283 -253c36 33 81 57 136 57zM273 97c60 0 100 41 100 117c0 82 -43 113 -96 113c-42 0 -84 -19 -120 -55c7 -120 48 -175 116 -175
z" />
    <glyph glyph-name="nine" unicode="9" horiz-adv-x="508" 
d="M222 293c-115 0 -190 67 -190 209c0 132 73 228 216 228c148 0 218 -134 218 -328c0 -245 -109 -412 -390 -412v106c204 5 263 89 274 246c-35 -27 -79 -49 -128 -49zM244 623c-63 0 -98 -48 -98 -117c0 -81 38 -112 93 -112c34 0 75 14 112 44c-5 125 -45 185 -107 185z
" />
    <glyph glyph-name="seven" unicode="7" horiz-adv-x="448" 
d="M212 0h-119c31 237 95 419 210 613h-280v107h409v-91c-122 -212 -184 -391 -220 -629z" />
    <glyph glyph-name="eight" unicode="8" horiz-adv-x="530" 
d="M265 -10c-132 0 -228 68 -228 198c0 101 54 163 126 198c-51 24 -94 72 -94 165c0 122 85 179 196 179c113 0 197 -58 197 -180c0 -91 -43 -137 -95 -164c71 -35 126 -97 126 -198c0 -130 -97 -198 -228 -198zM265 435c55 19 87 51 87 104c0 57 -32 95 -87 95
c-54 0 -86 -38 -86 -93c0 -54 33 -91 86 -106zM264 87c70 0 113 49 113 113c0 65 -53 112 -112 129c-66 -20 -112 -67 -112 -128c0 -65 43 -114 111 -114z" />
    <glyph glyph-name="D.alt" unicode="&#xe009;" horiz-adv-x="622" 
d="M65 0v720h113v-58c28 38 76 68 142 68c158 0 265 -132 265 -355c0 -235 -127 -375 -328 -375h-192zM178 564v-461h83c127 0 201 112 201 272c0 149 -58 251 -164 251c-49 0 -93 -21 -120 -62z" />
    <glyph glyph-name="M.str" unicode="&#xe00a;" horiz-adv-x="709" 
d="M65 0v720h106l184 -366l183 366h106v-720h-106v534l-158 -324h-51l-158 324v-534h-106z" />
    <glyph glyph-name="y.alt" unicode="&#xe00b;" horiz-adv-x="477" 
d="M161 500v-297c0 -95 37 -110 65 -110c32 0 60 14 86 39v368h114v-509c0 -152 -75 -226 -213 -226c-44 0 -90 10 -129 23v96c32 -12 72 -21 103 -21c105 0 125 54 125 134v44c-31 -28 -71 -52 -122 -52c-80 0 -142 50 -142 182v329h113z" />
    <glyph glyph-name="x.str" unicode="&#xe00c;" horiz-adv-x="440" 
d="M220 302l79 198h122l-113 -250h1l112 -250h-122l-79 198l-80 -198h-122l113 250l-113 250h122z" />
    <glyph glyph-name="ampersand.001" unicode="&#xe092;" horiz-adv-x="582" 
d="M408 0l-25 36c-49 -30 -105 -47 -167 -47c-102 0 -186 73 -186 188c0 96 51 172 129 214c-23 51 -38 101 -38 145c0 111 66 194 179 194c41 0 111 -9 147 -28v-107c-23 14 -75 29 -115 29c-58 0 -90 -46 -90 -113c0 -64 36 -123 168 -319c27 40 45 85 52 124h103
c-8 -74 -43 -150 -97 -210l72 -106h-132zM227 79c38 0 74 13 105 33l-33 49c-91 134 -42 62 -99 151c-32 -30 -57 -75 -57 -128c0 -44 29 -105 84 -105z" />
    <glyph glyph-name="dollar" unicode="$" horiz-adv-x="498" 
d="M209 -106v97c-65 4 -127 21 -173 44v102c60 -29 119 -47 194 -47c54 0 122 13 122 99c0 151 -300 82 -300 342c0 105 53 180 157 196v98h80v-98c106 -14 159 -91 159 -203v-18h-108v13c0 71 -35 110 -88 110c-54 0 -88 -40 -88 -97c0 -169 300 -89 300 -343
c0 -144 -77 -187 -173 -196v-99h-82z" />
    <glyph glyph-name="question" unicode="?" horiz-adv-x="389" 
d="M189 706c110 0 170 -57 170 -164c0 -158 -146 -166 -146 -256c0 -26 8 -55 21 -86h-102c-16 25 -25 58 -25 98c0 115 131 132 131 224c0 44 -19 80 -67 80c-40 0 -99 -15 -136 -41v104c39 26 104 41 154 41zM119 55c0 34 25 64 62 64c35 0 63 -28 63 -64
c0 -37 -28 -65 -63 -65c-37 0 -62 31 -62 65z" />
    <glyph glyph-name="at" unicode="@" horiz-adv-x="672" 
d="M323 -52c-165 0 -281 126 -281 334c0 222 125 377 310 377c164 0 287 -118 287 -318c0 -183 -103 -251 -172 -251c-48 0 -76 35 -85 78c-26 -53 -62 -78 -107 -78c-73 0 -123 68 -123 175c0 137 81 257 180 257c43 0 80 -20 98 -55l6 43h95l-48 -275c-1 -8 -2 -19 -2 -29
c0 -27 7 -55 36 -55c36 0 86 49 86 191c0 195 -116 282 -250 282c-173 0 -277 -141 -277 -343c0 -188 101 -301 251 -301c51 0 123 15 178 41l5 -29c-59 -29 -130 -44 -187 -44zM318 171c32 0 53 20 70 63l29 165c-11 22 -32 43 -63 43c-61 0 -103 -85 -103 -170
c0 -65 25 -101 67 -101z" />
    <glyph glyph-name="sterling" unicode="&#xa3;" horiz-adv-x="497" 
d="M344 384v-73h-105c4 -19 6 -37 6 -54c0 -85 -29 -117 -57 -134c13 4 28 7 40 7c38 0 64 -23 103 -27c45 -4 90 8 129 29v-113c-29 -18 -76 -31 -130 -31c-69 0 -111 36 -151 36c-27 0 -61 -8 -94 -26l-34 84c43 20 80 58 80 140c0 25 -6 55 -15 89h-79v73h60
c-12 48 -23 98 -23 143c0 14 1 27 3 40c18 103 84 163 192 163c61 0 119 -14 166 -43v-107c-49 33 -101 44 -139 44c-64 0 -96 -47 -96 -114c0 -40 11 -83 22 -126h122z" />
    <glyph glyph-name="section" unicode="&#xa7;" horiz-adv-x="415" 
d="M367 714v-81c-33 13 -64 18 -90 18c-45 0 -88 -33 -88 -86c0 -111 182 -87 182 -265c0 -58 -22 -106 -65 -133c24 -26 42 -61 42 -115c0 -90 -65 -155 -173 -155c-58 0 -87 6 -140 20v81c48 -18 70 -23 111 -23c80 0 89 62 89 87c0 127 -177 97 -177 266
c0 57 18 110 65 136c-25 25 -43 59 -43 113c0 80 41 154 161 154c42 0 71 -6 126 -17zM159 317c0 -42 27 -65 60 -86c33 18 47 60 47 79c0 43 -22 68 -51 89c-33 -8 -56 -38 -56 -82z" />
    <glyph glyph-name="germandbls" unicode="&#xdf;" horiz-adv-x="525" 
d="M250 2v92c23 -5 43 -8 61 -8c48 0 77 29 77 86c0 38 -17 76 -73 125c-37 40 -61 64 -61 106c0 39 25 64 46 83c16 14 31 33 31 65c0 66 -42 94 -84 94c-53 0 -79 -54 -79 -141v-504h-114s-2 393 -2 509c0 144 67 221 192 221c117 0 191 -74 191 -169
c0 -52 -24 -87 -48 -106c-25 -22 -45 -28 -45 -51c0 -74 162 -84 162 -244c0 -64 -42 -170 -147 -170c-26 0 -73 3 -107 12z" />
    <glyph glyph-name="paragraph" unicode="&#xb6;" horiz-adv-x="492" 
d="M288 720v-720h-87v342c-57 15 -172 59 -172 210c0 103 62 168 154 168h105zM421 0h-87v720h87v-720z" />
    <glyph glyph-name="Euro" unicode="&#x20ac;" horiz-adv-x="654" 
d="M32 373v62h71c15 211 131 295 273 295c160 0 231 -108 231 -266v-17h-107v11c0 99 -48 164 -126 164c-68 0 -136 -50 -149 -187h181v-62h-183c0 -22 2 -46 6 -69h177v-62h-161c29 -79 91 -144 216 -144c41 0 89 5 146 17v-103c-59 -17 -129 -22 -170 -22
c-175 0 -280 101 -318 252h-87v62h75c-3 22 -5 45 -5 69h-70z" />
    <glyph glyph-name="OE" unicode="&#x152;" horiz-adv-x="839" 
d="M543 330v-94c0 -114 29 -133 109 -133h152v-105h-154c-74 0 -125 9 -159 34c-43 -27 -95 -42 -154 -42c-190 0 -300 144 -300 372c0 230 110 368 301 368c36 0 63 -2 92 -11v1h364v-102h-251v-186h211v-102h-211zM338 93c42 0 75 14 99 38c-5 28 -7 62 -7 102v365
c-23 18 -53 29 -92 29c-125 0 -179 -123 -179 -265c0 -143 56 -269 179 -269z" />
    <glyph glyph-name="oe" unicode="&#x153;" horiz-adv-x="747" 
d="M707 219h-263c8 -92 44 -131 137 -131c40 0 88 7 129 17v-96c-53 -12 -111 -19 -154 -19c-77 0 -135 22 -174 69c-35 -46 -86 -69 -148 -69c-124 0 -201 91 -201 264c0 176 82 256 201 256c57 0 107 -20 143 -60c32 40 80 60 142 60c127 0 188 -82 188 -240v-51zM323 254
c0 107 -34 161 -89 161c-54 0 -88 -54 -88 -161c0 -106 28 -168 88 -168c59 0 89 62 89 168zM522 420c-44 0 -74 -31 -79 -128h153v13c0 82 -30 115 -74 115z" />
    <glyph glyph-name="AE" unicode="&#xc6;" horiz-adv-x="817" 
d="M526 229c2 -104 30 -122 144 -122h112v-109h-112c-127 0 -204 7 -238 87c-68 45 -156 62 -225 66l-74 -151h-130l371 720h398v-106h-246v-179h207v-106h-207v-100zM267 251c64 -5 110 -24 141 -38v360z" />
    <glyph glyph-name="ae" unicode="&#xe6;" horiz-adv-x="705" 
d="M177 268c44 0 85 -10 109 -21v12c0 12 0 25 1 36c-1 79 -14 117 -101 117c-40 0 -91 -10 -131 -22v96c57 14 95 24 150 24c68 0 113 -17 143 -48c31 32 75 48 130 48c127 0 188 -82 188 -240v-51h-263c8 -92 44 -131 137 -131c40 0 88 7 129 17v-96
c-53 -12 -111 -19 -154 -19c-73 0 -129 20 -167 61c-44 -37 -101 -61 -178 -61c-102 0 -145 56 -145 135c0 66 34 143 152 143zM207 62c45 0 82 23 102 53c-8 21 -14 44 -18 70c-22 12 -51 15 -71 15c-47 0 -77 -21 -77 -71c0 -44 21 -67 64 -67zM481 420
c-44 0 -74 -31 -79 -128h153v13c0 82 -30 115 -74 115z" />
    <glyph glyph-name="exclam" unicode="!" horiz-adv-x="236" 
d="M164 191h-90l-19 529h126zM56 59c0 34 26 64 62 64s64 -27 64 -64c0 -38 -28 -65 -64 -65s-62 31 -62 65z" />
    <glyph glyph-name="florin" unicode="&#x192;" horiz-adv-x="455" 
d="M92 -10c-25 0 -39 2 -66 9v99c15 -4 33 -7 48 -7c36 0 61 33 71 118l17 145h-68v90h83c4 29 12 123 12 123c13 117 60 163 157 163c32 0 61 -5 82 -13v-95c-25 9 -39 11 -58 11c-45 0 -70 -14 -75 -84l-7 -105h100v-90h-115l-20 -160c-18 -124 -66 -204 -161 -204z" />
    <glyph glyph-name="percent" unicode="%" horiz-adv-x="752" 
d="M233 0h-83l372 720h85zM574 -10c-94 0 -141 90 -141 181c0 90 47 181 141 181c95 0 142 -91 142 -181c0 -91 -47 -181 -142 -181zM574 63c47 0 70 54 70 108s-23 108 -70 108c-45 0 -69 -54 -69 -109c0 -54 23 -107 69 -107zM184 368c-95 0 -142 90 -142 181
c0 90 47 181 142 181c94 0 141 -91 141 -181c0 -91 -47 -181 -141 -181zM184 440c46 0 69 54 69 109c0 54 -23 108 -69 108s-69 -55 -69 -109s23 -108 69 -108z" />
    <glyph glyph-name="onequarter" unicode="&#xbc;" horiz-adv-x="763" 
d="M591 432h93v-266h52v-68h-52v-98h-75v98h-186v57zM204 0h-84l373 720h85zM180 288h-75v353l-79 -45v78l76 46h78v-432zM507 166h102v184z" />
    <glyph glyph-name="onehalf" unicode="&#xbd;" horiz-adv-x="801" 
d="M205 0h-84l373 720h84zM601 67l165 3v-70h-281v70c76 51 200 118 200 211c0 58 -30 89 -74 89c-30 0 -75 -12 -116 -36v69c36 19 92 35 133 35c79 0 136 -59 136 -150c0 -105 -86 -169 -163 -221zM180 288h-75v353l-79 -45v78l76 46h78v-432z" />
    <glyph glyph-name="threequarters" unicode="&#xbe;" horiz-adv-x="859" 
d="M687 432h93v-266h52v-68h-52v-98h-75v98h-185v57zM45 640v69c43 18 88 21 122 21c72 0 124 -37 124 -109c0 -41 -17 -86 -47 -104c42 -16 58 -61 58 -106c0 -83 -64 -125 -147 -125c-30 0 -87 8 -114 24v70c23 -13 60 -24 102 -24c55 0 79 27 79 67c0 38 -17 59 -57 59
h-63v67h61c38 0 48 40 48 59c0 44 -25 53 -60 53c-36 0 -73 -9 -106 -21zM294 0h-84l373 720h84zM603 166h102v184z" />
    <glyph glyph-name="quotedbl" unicode="&#x22;" horiz-adv-x="355" 
d="M125 496h-55s-29 143 -29 167c0 39 19 67 58 67c37 0 56 -28 56 -67c0 -24 -30 -167 -30 -167zM285 496h-55s-29 143 -29 167c0 39 19 67 58 67c37 0 56 -28 56 -67c0 -24 -30 -167 -30 -167z" />
    <glyph glyph-name="numbersign" unicode="#" horiz-adv-x="549" 
d="M323 0h-79l39 193h-90l-39 -193h-80l40 193h-86l16 74h86l37 183h-86l17 75h88l40 195h80l-40 -195h90l39 195h80l-41 -195h87l-16 -75h-89l-38 -183h89l-14 -74h-91zM299 267l38 183h-90l-37 -183h89z" />
    <glyph glyph-name="quotesingle" unicode="'" horiz-adv-x="195" 
d="M125 496h-55s-29 143 -29 167c0 39 19 67 58 67c37 0 56 -28 56 -67c0 -24 -30 -167 -30 -167z" />
    <glyph glyph-name="parenleft" unicode="(" horiz-adv-x="290" 
d="M274 -155h-86c-89 98 -152 261 -152 451c0 189 67 358 156 454h86c-70 -117 -118 -287 -118 -454c0 -171 49 -335 114 -451z" />
    <glyph glyph-name="parenright" unicode=")" horiz-adv-x="290" 
d="M102 -155h-87c66 116 114 280 114 451c0 167 -48 337 -118 454h87c89 -96 155 -265 155 -454c0 -190 -62 -353 -151 -451z" />
    <glyph glyph-name="asterisk" unicode="*" horiz-adv-x="347" 
d="M195 508l5 -130h-54l5 130l-85 -68l-26 50l90 61l-90 61l26 49l85 -67l-5 129h54l-5 -129l85 67l27 -49l-91 -61l91 -61l-27 -50z" />
    <glyph glyph-name="plus" unicode="+" horiz-adv-x="464" 
d="M431 325h-159v-210h-79v210h-160v82h160v220h79v-220h159v-82z" />
    <glyph glyph-name="comma" unicode="," horiz-adv-x="215" 
d="M175 43c0 -64 -48 -119 -110 -154l-20 39c34 22 58 42 64 69c-3 -2 -9 -4 -16 -4c-32 0 -53 28 -53 63c0 41 26 73 66 73c41 0 69 -35 69 -86z" />
    <glyph glyph-name="hyphen" unicode="-" horiz-adv-x="313" 
d="M260 256h-208v97h208v-97z" />
    <glyph glyph-name="period" unicode="." horiz-adv-x="212" 
d="M41 63c0 40 27 73 64 73s67 -31 67 -73s-30 -73 -67 -73s-64 34 -64 73z" />
    <glyph glyph-name="slash" unicode="/" horiz-adv-x="361" 
d="M116 -22h-93l222 764h93z" />
    <glyph glyph-name="colon" unicode=":" horiz-adv-x="234" 
d="M50 406c0 36 28 68 66 68s67 -30 67 -68c0 -40 -29 -70 -67 -70s-66 33 -66 70zM50 93c0 36 28 69 66 69s67 -31 67 -69c0 -40 -29 -70 -67 -70s-66 34 -66 70z" />
    <glyph glyph-name="semicolon" unicode=";" horiz-adv-x="245" 
d="M190 43c0 -64 -47 -119 -109 -154l-21 39c35 22 60 42 64 69c-1 -2 -9 -4 -15 -4c-32 0 -53 28 -53 63c0 41 26 73 66 73c41 0 68 -35 68 -86zM58 406c0 36 27 68 65 68s68 -30 68 -68c0 -40 -30 -70 -68 -70s-65 33 -65 70z" />
    <glyph glyph-name="less" unicode="&#x3c;" horiz-adv-x="483" 
d="M423 115l-390 198v98l390 197v-89l-315 -158l315 -157v-89z" />
    <glyph glyph-name="greater" unicode="&#x3e;" horiz-adv-x="483" 
d="M60 115v89l315 157l-315 158v89l390 -197v-98z" />
    <glyph glyph-name="equal" unicode="=" horiz-adv-x="502" 
d="M446 394h-390v82h390v-82zM446 179h-390v82h390v-82z" />
    <glyph glyph-name="bracketleft" unicode="[" horiz-adv-x="293" 
d="M264 -225h-203v975h203v-90h-110v-795h110v-90z" />
    <glyph glyph-name="bracketright" unicode="]" horiz-adv-x="293" 
d="M29 -225v90h109v795h-109v90h203v-975h-203z" />
    <glyph glyph-name="backslash" unicode="\" horiz-adv-x="361" 
d="M332 -22h-80l-223 764h81z" />
    <glyph glyph-name="asciicircum" unicode="^" horiz-adv-x="399" 
d="M365 418h-84l-81 202l-81 -202h-85l121 293h92z" />
    <glyph glyph-name="underscore" unicode="_" horiz-adv-x="626" 
d="M52 -227v79h522v-79h-522z" />
    <glyph glyph-name="grave" unicode="`" horiz-adv-x="202" 
d="M201 594h-77l-112 133h113z" />
    <glyph glyph-name="braceleft" unicode="{" horiz-adv-x="302" 
d="M271 -202h-42c-76 0 -143 62 -143 171v186c0 48 -18 65 -58 65v87c40 0 58 17 58 65v190c0 106 67 166 143 166h42v-90h-29c-36 0 -62 -36 -62 -91v-193c0 -50 -10 -80 -45 -90c35 -12 45 -38 45 -86v-193c0 -57 26 -96 62 -96h29v-91z" />
    <glyph glyph-name="braceright" unicode="}" horiz-adv-x="302" 
d="M73 -202h-42v91h29c36 0 62 39 62 96v193c0 48 10 74 46 86c-36 10 -46 40 -46 90v193c0 55 -26 91 -62 91h-29v90h42c76 0 143 -60 143 -166v-190c0 -48 19 -65 58 -65v-87c-39 0 -58 -17 -58 -65v-186c0 -109 -67 -171 -143 -171z" />
    <glyph glyph-name="bar" unicode="|" horiz-adv-x="202" 
d="M61 -225v1000h80v-1000h-80z" />
    <glyph glyph-name="asciitilde" unicode="~" horiz-adv-x="477" 
d="M115 247h-65c8 102 43 170 114 170c63 0 110 -77 146 -77c32 0 49 56 58 84h66c-7 -77 -41 -167 -114 -170c-55 0 -103 78 -145 78c-43 0 -51 -64 -60 -85z" />
    <glyph glyph-name="quotesinglbase" unicode="&#x201a;" horiz-adv-x="215" 
d="M175 43c0 -64 -48 -119 -110 -154l-20 39c34 22 58 42 64 69c-3 -2 -9 -4 -16 -4c-32 0 -53 28 -53 63c0 41 26 73 66 73c41 0 69 -35 69 -86z" />
    <glyph glyph-name="quotedblbase" unicode="&#x201e;" horiz-adv-x="394" 
d="M175 43c0 -64 -48 -119 -110 -154l-20 39c34 22 58 42 64 69c-3 -2 -9 -4 -16 -4c-32 0 -53 28 -53 63c0 41 26 73 66 73c41 0 69 -35 69 -86zM353 43c0 -64 -48 -119 -110 -154l-20 39c34 22 58 42 64 69c-3 -2 -9 -4 -16 -4c-32 0 -53 28 -53 63c0 41 26 73 66 73
c41 0 69 -35 69 -86z" />
    <glyph glyph-name="ellipsis" unicode="&#x2026;" horiz-adv-x="616" 
d="M106 54c0 33 26 63 62 63c13 0 25 -4 35 -10c9 6 20 10 33 10c36 0 64 -27 64 -63c0 -37 -28 -64 -64 -64c-13 0 -24 4 -33 10c-10 -6 -22 -10 -35 -10c-36 0 -62 31 -62 64zM454 54c0 33 26 63 61 63c36 0 64 -27 64 -63c0 -37 -28 -64 -64 -64c-35 0 -61 31 -61 64z
" />
    <glyph glyph-name="perthousand" unicode="&#x2030;" horiz-adv-x="1107" 
d="M233 0h-83l372 720h85zM574 -10c-94 0 -141 90 -141 181c0 90 47 181 141 181c95 0 142 -91 142 -181c0 -91 -47 -181 -142 -181zM574 63c47 0 70 54 70 108s-23 108 -70 108c-45 0 -69 -54 -69 -109c0 -54 23 -107 69 -107zM184 368c-95 0 -142 90 -142 181
c0 90 47 181 142 181c94 0 141 -91 141 -181c0 -91 -47 -181 -141 -181zM184 440c46 0 69 54 69 109c0 54 -23 108 -69 108s-69 -55 -69 -109s23 -108 69 -108zM918 -10c-95 0 -142 90 -142 181c0 90 47 181 142 181c94 0 141 -91 141 -181c0 -91 -47 -181 -141 -181z
M918 63c46 0 69 54 69 108s-23 108 -69 108s-70 -54 -70 -109c0 -54 24 -107 70 -107z" />
    <glyph glyph-name="exclamdown" unicode="&#xa1;" horiz-adv-x="221" 
d="M154 290l21 -472h-128l19 472h88zM47 445c0 37 28 64 64 64s62 -29 62 -64s-26 -64 -62 -64s-64 27 -64 64z" />
    <glyph glyph-name="questiondown" unicode="&#xbf;" horiz-adv-x="390" 
d="M201 -206c-110 0 -170 57 -170 164c0 158 146 166 146 256c0 26 -8 55 -21 86h102c16 -25 25 -58 25 -98c0 -115 -131 -132 -131 -224c0 -44 19 -80 67 -80c40 0 99 15 136 41v-104c-39 -26 -104 -41 -154 -41zM271 445c0 -34 -25 -64 -62 -64c-35 0 -63 28 -63 64
c0 37 28 65 63 65c37 0 62 -31 62 -65z" />
    <glyph glyph-name="plusminus" unicode="&#xb1;" horiz-adv-x="492" 
d="M441 325h-159v-204h-79v204h-153v82h153v214h79v-214h159v-82zM445 -18h-399v78h399v-78z" />
    <glyph glyph-name="dagger" unicode="&#x2020;" horiz-adv-x="282" 
d="M249 587l-85 4l4 -219h-57l4 219l-81 -4v59l81 -4l-4 108h57l-3 -108l84 4v-59z" />
    <glyph glyph-name="daggerdbl" unicode="&#x2021;" horiz-adv-x="322" 
d="M268 646v-58l-82 4v-219l82 5v-58l-82 3l3 -110h-57l3 110l-81 -3v58l81 -5v219l-81 -4v58l81 -4l-3 108h57l-3 -108z" />
    <glyph glyph-name="circumflex" unicode="&#x2c6;" horiz-adv-x="314" 
d="M301 564h-73l-72 86l-70 -86h-72l86 138h112z" />
    <glyph glyph-name="tilde" unicode="&#x2dc;" horiz-adv-x="303" 
d="M196 620c-51 0 -63 55 -90 55c-13 0 -26 -13 -26 -49h-56c0 68 27 116 85 116c52 0 62 -55 91 -55c16 0 26 19 26 49h57c0 -80 -33 -116 -87 -116z" />
    <glyph glyph-name="dieresis" unicode="&#xa8;" horiz-adv-x="355" 
d="M312 663c0 -35 -26 -62 -58 -62c-30 0 -56 27 -56 62s26 62 56 62c32 0 58 -27 58 -62zM151 663c0 -35 -25 -62 -57 -62c-31 0 -56 27 -56 62s25 62 56 62c32 0 57 -27 57 -62z" />
    <glyph glyph-name="acute" unicode="&#xb4;" horiz-adv-x="203" 
d="M0 594l89 132h111l-121 -132h-79z" />
    <glyph glyph-name="periodcentered" unicode="&#xb7;" horiz-adv-x="221" 
d="M45 254c0 35 26 66 64 66s67 -29 67 -66c0 -39 -29 -68 -67 -68s-64 32 -64 68z" />
    <glyph glyph-name="Eth" unicode="&#xd0;" horiz-adv-x="608" 
d="M65 0v322h-56v96h56v302h212c139 0 291 -72 291 -319c0 -277 -201 -401 -389 -401h-114zM179 614v-196h145v-96h-145v-215c149 0 270 97 270 290c0 171 -86 217 -191 217h-79z" />
    <glyph glyph-name="multiply" unicode="&#xd7;" horiz-adv-x="437" 
d="M274 363l125 -160l-59 -66l-126 160l-116 -148l-53 58l115 150l-120 156l60 65l120 -156l113 146l55 -59z" />
    <glyph glyph-name="Thorn" unicode="&#xde;" horiz-adv-x="510" 
d="M179 0h-114v720h114v-103h104c131 0 201 -114 201 -249s-71 -245 -201 -245h-104v-123zM268 229c70 0 101 57 101 140s-32 142 -101 142h-89v-282h89z" />
    <glyph glyph-name="bullet" unicode="&#x2022;" horiz-adv-x="305" 
d="M243 251c0 -56 -40 -102 -90 -102s-90 46 -90 102c0 58 40 104 90 104s90 -46 90 -104z" />
    <glyph glyph-name="quoteleft" unicode="&#x2018;" horiz-adv-x="213" 
d="M37 575c0 64 48 119 110 154l20 -39c-34 -22 -58 -42 -64 -69c3 2 9 4 16 4c32 0 53 -28 53 -63c0 -41 -26 -73 -66 -73c-41 0 -69 35 -69 86z" />
    <glyph glyph-name="quoteright" unicode="&#x2019;" horiz-adv-x="213" 
d="M180 643c0 -64 -48 -119 -110 -154l-20 39c34 22 58 42 64 69c-3 -2 -9 -4 -16 -4c-32 0 -53 28 -53 63c0 41 26 73 66 73c41 0 69 -35 69 -86z" />
    <glyph glyph-name="quotedblleft" unicode="&#x201c;" horiz-adv-x="392" 
d="M37 575c0 64 48 119 110 154l20 -39c-34 -22 -58 -42 -64 -69c3 2 9 4 16 4c32 0 53 -28 53 -63c0 -41 -26 -73 -66 -73c-41 0 -69 35 -69 86zM216 575c0 64 48 119 110 154l20 -39c-34 -22 -58 -42 -64 -69c3 2 9 4 16 4c32 0 53 -28 53 -63c0 -41 -26 -73 -66 -73
c-41 0 -69 35 -69 86z" />
    <glyph glyph-name="quotedblright" unicode="&#x201d;" horiz-adv-x="391" 
d="M180 643c0 -64 -48 -119 -110 -154l-20 39c34 22 58 42 64 69c-3 -2 -9 -4 -16 -4c-32 0 -53 28 -53 63c0 41 26 73 66 73c41 0 69 -35 69 -86zM358 643c0 -64 -48 -119 -110 -154l-20 39c34 22 58 42 64 69c-3 -2 -9 -4 -16 -4c-32 0 -53 28 -53 63c0 41 26 73 66 73
c41 0 69 -35 69 -86z" />
    <glyph glyph-name="guilsinglright" unicode="&#x203a;" horiz-adv-x="304" 
d="M139 56h-99l138 194l-138 192h99l139 -192z" />
    <glyph glyph-name="brokenbar" unicode="&#xa6;" horiz-adv-x="204" 
d="M62 247h80v-433h-80v433zM142 360h-80v415h80v-415z" />
    <glyph glyph-name="endash" unicode="&#x2013;" horiz-adv-x="565" 
d="M513 206h-461v101h461v-101z" />
    <glyph glyph-name="emdash" unicode="&#x2014;" horiz-adv-x="772" 
d="M720 206h-668v101h668v-101z" />
    <glyph glyph-name="guilsinglleft" unicode="&#x2039;" horiz-adv-x="304" 
d="M265 56h-100l-138 194l138 192h100l-139 -192z" />
    <glyph glyph-name="guillemotleft" unicode="&#xab;" horiz-adv-x="507" 
d="M265 56h-100l-138 194l138 192h100l-139 -192zM468 56h-99l-139 194l139 192h99l-139 -192z" />
    <glyph glyph-name="guillemotright" unicode="&#xbb;" horiz-adv-x="507" 
d="M342 56h-99l139 194l-139 192h99l139 -192zM139 56h-99l138 194l-138 192h99l139 -192z" />
    <glyph glyph-name="divide" unicode="&#xf7;" horiz-adv-x="481" 
d="M437 334h-393v72h393v-72zM289 549c0 -30 -22 -55 -49 -55s-49 25 -49 55c0 31 22 54 49 54s49 -23 49 -54zM289 188c0 -30 -22 -54 -49 -54s-49 24 -49 54s22 55 49 55s49 -25 49 -55z" />
    <glyph glyph-name="trademark" unicode="&#x2122;" horiz-adv-x="623" 
d="M46 671v49h212v-49h-79v-255h-53v255h-80zM359 720c34 -54 53 -110 67 -160c17 50 36 107 68 160h29c36 -102 48 -204 50 -304h-56c1 69 -4 148 -20 218c-26 -43 -42 -103 -54 -145h-32c-10 42 -27 101 -54 146c-17 -71 -22 -150 -21 -219h-55c1 100 17 202 50 304h28z
" />
    <glyph glyph-name="yen" unicode="&#xa5;" horiz-adv-x="565" 
d="M286 346c72 122 115 256 133 374h114c-23 -143 -72 -280 -155 -421h129v-128h-164v-171h-115v171h-174v128h138c-82 141 -132 278 -155 421h115c18 -118 61 -252 134 -374z" />
    <glyph glyph-name="currency" unicode="&#xa4;" horiz-adv-x="541" 
d="M158 135l-59 -73l-55 58l56 70c-18 37 -28 85 -28 141s10 104 28 141l-56 70l55 58l59 -73c31 26 66 39 112 39c47 0 82 -13 113 -39l59 73l55 -58l-56 -70c19 -37 28 -85 28 -141s-9 -104 -28 -141l56 -70l-55 -58l-59 73c-31 -26 -66 -39 -113 -39
c-46 0 -81 13 -112 39zM270 485c-72 0 -103 -50 -104 -154c1 -104 32 -154 104 -154c74 0 104 50 105 154c-1 104 -31 154 -105 154z" />
    <glyph glyph-name="eth" unicode="&#xf0;" horiz-adv-x="487" 
d="M104 752h147c20 -18 39 -35 55 -53l91 48l25 -51l-77 -42c101 -132 101 -265 101 -398c0 -167 -65 -265 -205 -265c-137 0 -209 111 -209 275c0 147 62 245 177 245c34 0 69 -11 102 -34c-12 43 -31 85 -59 127l-98 -53l-25 55l86 45c-29 34 -66 67 -111 101zM333 247
c0 40 0 79 -3 119c-30 24 -58 39 -87 39c-56 0 -93 -46 -93 -156c0 -90 33 -154 93 -154c57 0 90 54 90 152z" />
    <glyph glyph-name="thorn" unicode="&#xfe;" horiz-adv-x="476" 
d="M52 -221v971h113v-301c31 42 71 61 116 61c106 0 163 -109 163 -254c0 -132 -43 -266 -173 -266c-52 0 -86 29 -106 56v-267h-113zM246 407c-42 0 -65 -30 -81 -85v-181c19 -40 46 -54 72 -54c57 0 91 71 91 166c0 93 -28 154 -82 154z" />
    <glyph glyph-name="cent" unicode="&#xa2;" horiz-adv-x="460" 
d="M195 -114v115c-100 29 -159 114 -159 265c0 160 65 228 159 241v107h79v-107c95 -15 142 -83 142 -192v-20h-100v16c0 55 -26 92 -78 92c-53 0 -85 -40 -85 -144c0 -120 54 -169 153 -169c35 0 77 4 113 11v-95c-45 -10 -106 -16 -139 -16h-6v-104h-79z" />
    <glyph glyph-name="mu" unicode="&#xb5;" horiz-adv-x="483" 
d="M325 500h112v-500h-112v38c-24 -23 -65 -47 -98 -47c-27 0 -43 9 -55 30v-244h-113v723h113v-300c0 -94 40 -107 72 -107c27 0 59 17 81 29v378z" />
    <glyph glyph-name="mu" unicode="&#x3bc;" horiz-adv-x="483" 
d="M325 500h112v-500h-112v38c-24 -23 -65 -47 -98 -47c-27 0 -43 9 -55 30v-244h-113v723h113v-300c0 -94 40 -107 72 -107c27 0 59 17 81 29v378z" />
    <glyph glyph-name="logicalnot" unicode="&#xac;" horiz-adv-x="483" 
d="M426 476v-292h-80v210h-302v82h382z" />
    <glyph glyph-name="cedilla" unicode="&#xb8;" horiz-adv-x="224" 
d="M62 11h52l-13 -62c1 1 9 1 18 1c54 0 76 -39 76 -83c0 -63 -41 -91 -98 -91c-21 0 -54 6 -75 16v51c17 -9 39 -16 60 -16c27 0 42 18 42 41c0 18 -13 36 -45 36c-12 0 -25 -1 -40 -4z" />
    <glyph glyph-name="uni00AD" unicode="&#xad;" horiz-adv-x="313" 
d="M260 256h-208v97h208v-97z" />
    <glyph glyph-name="ordfeminine" unicode="&#xaa;" horiz-adv-x="348" 
d="M143 526c30 0 57 -6 74 -12v23c0 56 -10 84 -71 84c-27 0 -59 -6 -86 -15v67c39 10 63 17 100 17c99 0 136 -42 136 -129v-218h-67l-5 26c-21 -20 -52 -33 -89 -33c-66 0 -96 36 -96 92c0 45 23 98 104 98zM164 387c27 0 43 10 53 26v57c-14 6 -32 8 -44 8
c-31 0 -51 -12 -51 -47c0 -30 14 -44 42 -44z" />
    <glyph glyph-name="degree" unicode="&#xb0;" horiz-adv-x="302" 
d="M267 603c0 -72 -52 -125 -116 -125s-115 53 -115 126c0 72 50 126 115 126s116 -53 116 -127zM194 604c0 33 -19 59 -43 59c-23 0 -42 -26 -42 -59c0 -32 18 -58 42 -58s43 26 43 58z" />
    <glyph glyph-name="macron" unicode="&#xaf;" horiz-adv-x="275" 
d="M242 614h-207v82h207v-82z" />
    <glyph glyph-name="copyright" unicode="&#xa9;" horiz-adv-x="684" 
d="M470 281v-62c-19 -30 -57 -60 -117 -60c-102 0 -165 89 -165 213c0 123 65 183 153 183c94 0 133 -56 133 -150v-10h-60v7c0 65 -32 90 -76 90c-41 0 -81 -32 -81 -122c0 -87 41 -148 98 -148c53 0 83 24 115 59zM39 361c0 205 114 369 303 369s302 -164 302 -369
s-112 -371 -302 -371c-189 0 -303 166 -303 371zM84 362c0 -183 94 -329 259 -329c163 0 257 146 257 329c0 180 -94 325 -257 325c-165 0 -259 -145 -259 -325z" />
    <glyph glyph-name="registered" unicode="&#xae;" horiz-adv-x="684" 
d="M39 361c0 205 114 369 303 369s302 -164 302 -369s-112 -371 -302 -371c-189 0 -303 166 -303 371zM84 362c0 -183 94 -329 259 -329c163 0 257 146 257 329c0 180 -94 325 -257 325c-165 0 -259 -145 -259 -325zM473 433c0 -51 -21 -88 -48 -115c28 -53 47 -107 57 -158
h-84c-6 31 -20 73 -37 114c-20 -10 -39 -17 -52 -21v-93h-74v415h108c65 0 130 -30 130 -142zM393 428c0 57 -24 80 -61 80h-22v-184c25 8 83 32 83 104z" />
    <glyph glyph-name="ordmasculine" unicode="&#xba;" horiz-adv-x="350" 
d="M311 516c0 -118 -54 -180 -137 -180c-84 0 -137 62 -137 180c0 119 56 174 137 174c80 0 137 -55 137 -174zM235 516c0 72 -23 109 -61 109c-37 0 -60 -37 -60 -109s19 -115 60 -115c40 0 61 43 61 115z" />
    <glyph glyph-name="Oslash" unicode="&#xd8;" horiz-adv-x="655" 
d="M197 0h-84l30 57c-69 64 -106 170 -106 305c0 227 105 368 291 368c55 0 104 -13 144 -37l14 27h85l-40 -76c56 -63 87 -159 87 -280c0 -228 -105 -374 -290 -374c-46 0 -87 9 -123 25zM154 363c0 -78 15 -147 46 -196l221 428c-25 20 -56 32 -93 32
c-115 0 -174 -112 -174 -264zM502 363c0 64 -11 120 -31 165l-216 -416c21 -13 45 -19 73 -19c115 0 174 118 174 270z" />
    <glyph glyph-name="scaron" unicode="&#x161;" horiz-adv-x="369" 
d="M325 493v-95c-38 12 -84 16 -117 16c-45 0 -62 -20 -62 -50c0 -42 47 -51 98 -73c55 -24 103 -52 103 -144c0 -119 -75 -157 -191 -157c-57 0 -91 8 -124 19v96c43 -12 89 -19 131 -19c36 0 67 14 67 63c0 41 -35 54 -81 72c-59 25 -113 54 -113 142c0 84 45 147 177 147
c32 0 66 -4 112 -17zM255 697h73l-89 -138h-112l-86 138h72l70 -86z" />
    <glyph glyph-name="oslash" unicode="&#xf8;" horiz-adv-x="468" 
d="M136 0h-60l22 44c-42 44 -65 114 -65 210c0 176 82 256 201 256c34 0 66 -7 94 -22l6 12h62l-24 -45c40 -42 64 -108 64 -201c0 -173 -80 -264 -202 -264c-35 0 -66 7 -92 21zM146 254c0 -38 3 -71 11 -97l124 240c-13 12 -29 18 -47 18c-54 0 -88 -54 -88 -161zM323 254
c0 34 -4 62 -10 86l-124 -239c12 -10 27 -15 45 -15c59 0 89 62 89 168z" />
    <glyph glyph-name="Ccedilla" unicode="&#xc7;" horiz-adv-x="582" 
d="M542 112v-100c-50 -13 -124 -22 -171 -22c-11 0 -22 1 -32 2l-9 -42c1 1 9 1 18 1c54 0 76 -39 76 -83c0 -63 -41 -91 -98 -91c-21 0 -54 6 -75 16v51c17 -9 39 -16 60 -16c27 0 42 18 42 41c0 18 -13 36 -45 36c-12 0 -25 -1 -40 -4l20 98c-169 37 -251 191 -251 383
c0 255 122 348 273 348c161 0 232 -98 232 -266v-17h-107v14c0 103 -44 161 -125 161c-84 0 -156 -61 -156 -238c0 -120 38 -290 245 -290c37 0 85 5 143 18z" />
    <glyph glyph-name="Egrave" unicode="&#xc8;" horiz-adv-x="470" 
d="M174 330v-94c0 -114 29 -133 109 -133h152v-105h-154c-169 0 -220 47 -220 235v487h364v-102h-251v-186h211v-102h-211zM299 780h-77l-112 133h113z" />
    <glyph glyph-name="Eacute" unicode="&#xc9;" horiz-adv-x="470" 
d="M174 330v-94c0 -114 29 -133 109 -133h152v-105h-154c-169 0 -220 47 -220 235v487h364v-102h-251v-186h211v-102h-211zM170 780l89 132h111l-121 -132h-79z" />
    <glyph glyph-name="Igrave" unicode="&#xcc;" horiz-adv-x="244" 
d="M65 0v720h114v-720h-114zM175 780h-77l-112 133h113z" />
    <glyph glyph-name="Iacute" unicode="&#xcd;" horiz-adv-x="244" 
d="M65 0v720h114v-720h-114zM52 780l89 132h111l-121 -132h-79z" />
    <glyph glyph-name="Icircumflex" unicode="&#xce;" horiz-adv-x="244" 
d="M65 0v720h114v-720h-114zM264 744h-73l-72 86l-70 -86h-72l86 138h112z" />
    <glyph glyph-name="Ugrave" unicode="&#xd9;" horiz-adv-x="622" 
d="M563 720v-419c0 -210 -90 -311 -250 -311c-162 0 -254 101 -254 311v419h114v-405c0 -201 84 -220 140 -220c55 0 136 19 136 220v405h114zM353 780h-77l-112 133h113z" />
    <glyph glyph-name="Uacute" unicode="&#xda;" horiz-adv-x="622" 
d="M563 720v-419c0 -210 -90 -311 -250 -311c-162 0 -254 101 -254 311v419h114v-405c0 -201 84 -220 140 -220c55 0 136 19 136 220v405h114zM251 779l89 132h111l-121 -132h-79z" />
    <glyph glyph-name="ccedilla" unicode="&#xe7;" horiz-adv-x="449" 
d="M403 289h-100v22c0 61 -24 104 -74 104c-48 0 -81 -43 -81 -150c0 -125 53 -181 149 -181c34 0 74 5 108 12v-90c-43 -10 -103 -16 -135 -16c-10 0 -19 1 -28 1l-9 -42c1 1 9 1 18 1c54 0 76 -39 76 -83c0 -63 -41 -91 -98 -91c-21 0 -54 6 -75 16v51
c17 -9 39 -16 60 -16c27 0 42 18 42 41c0 18 -13 36 -45 36c-12 0 -25 -1 -40 -4l20 100c-100 27 -159 114 -159 266c0 171 84 244 196 244c117 0 175 -71 175 -195v-26z" />
    <glyph glyph-name="ring" unicode="&#x2da;" horiz-adv-x="666" 
d="M221 593c-73 0 -105 46 -105 103s32 104 105 104c75 0 103 -47 103 -104s-28 -103 -103 -103zM221 652c29 0 40 20 40 44c0 26 -11 45 -40 45c-28 0 -40 -19 -40 -45c0 -24 12 -44 40 -44z" />
    <glyph glyph-name="breve" unicode="&#x2d8;" horiz-adv-x="230" 
d="M116 634c27 0 42 22 42 51h64c0 -60 -30 -110 -106 -110c-75 0 -108 50 -108 110h65c0 -29 17 -51 43 -51z" />
    <glyph glyph-name="caron" unicode="&#x2c7;" horiz-adv-x="314" 
d="M227 714h73l-88 -138h-112l-87 138h72l70 -86z" />
    <glyph glyph-name="ogonek" unicode="&#x2db;" horiz-adv-x="666" 
d="M242 -161c14 0 40 6 53 14v-45c-17 -14 -42 -23 -79 -23c-71 0 -102 38 -102 86c0 51 31 94 99 123h45c-41 -25 -63 -66 -63 -100s18 -55 47 -55z" />
    <glyph glyph-name="dotaccent" unicode="&#x2d9;" horiz-adv-x="666" 
d="M321 664c0 -35 -25 -60 -58 -60c-31 0 -56 25 -56 60s25 60 56 60c33 0 58 -25 58 -60z" />
    <glyph glyph-name="Z.str" unicode="&#xe010;" horiz-adv-x="482" 
d="M452 0h-422v113l289 501h-275v106h393v-112l-280 -502h295v-106z" />
    <glyph glyph-name="hungarumlaut" unicode="&#x2dd;" horiz-adv-x="393" 
d="M1 594l75 136h111l-109 -136h-77zM151 594l75 136h110l-108 -136h-77z" />
    <glyph glyph-name="two.alt" unicode="&#xe02b;" horiz-adv-x="501" 
d="M196 103l262 2v-105h-421v101c165 145 303 268 303 388c0 76 -35 138 -131 138c-65 0 -108 -19 -163 -51v106c51 27 90 48 195 48c142 0 213 -89 213 -231c0 -163 -113 -266 -258 -396z" />
    <glyph glyph-name="two" unicode="2" horiz-adv-x="512" 
d="M230 106l-5 -1l247 1v-106h-432v79c206 186 300 297 300 421c0 60 -20 122 -94 122c-73 0 -94 -62 -94 -126v-11h-106v17c0 149 64 228 201 228c138 0 213 -79 213 -217c0 -111 -56 -236 -230 -407z" />
    <glyph glyph-name="three" unicode="3" horiz-adv-x="488" 
d="M43 110c45 -17 82 -23 119 -23c122 0 168 76 168 168c0 68 -37 113 -109 113c-22 0 -66 -1 -114 -22v72c60 74 98 123 170 200h-229v102h377v-101c-68 -72 -122 -135 -164 -187c29 7 57 10 81 6c68 -8 105 -71 105 -172c0 -180 -102 -277 -266 -277c-52 0 -88 7 -138 22
v99z" />
    <glyph glyph-name="zero.osf" unicode="&#xe02c;" horiz-adv-x="465" 
d="M43 253c0 140 41 257 190 257s190 -117 190 -257c0 -143 -41 -261 -190 -261s-190 118 -190 261zM162 253c0 -87 15 -153 71 -153c54 0 70 66 70 153c0 84 -16 150 -70 150c-56 0 -71 -66 -71 -150z" />
    <glyph glyph-name="one.osf" unicode="&#xe02d;" horiz-adv-x="275" 
d="M212 0h-114v379l-61 -37v115l70 42h105v-499z" />
    <glyph glyph-name="four.osf" unicode="&#xe02e;" horiz-adv-x="486" 
d="M388 506v-403h64v-103h-64v-128h-109v128h-259v87l241 419h127zM279 103v276l-139 -276h139z" />
    <glyph glyph-name="five.osf" unicode="&#xe02f;" horiz-adv-x="447" 
d="M98 499h291v-105h-205l-21 -137c17 1 35 1 49 1c146 0 199 -69 199 -196c0 -111 -67 -218 -224 -218c-40 0 -108 12 -152 33v103c39 -21 95 -35 144 -35c86 0 119 56 119 112c0 68 -31 110 -124 110c-45 0 -75 -2 -124 -6z" />
    <glyph glyph-name="six.osf" unicode="&#xe030;" horiz-adv-x="489" 
d="M275 390c105 0 176 -66 176 -192c0 -121 -70 -207 -199 -207c-143 0 -209 120 -209 295c0 221 102 371 367 371v-106c-187 -7 -240 -75 -251 -206c32 27 70 45 116 45zM255 98c48 0 82 34 82 97c0 67 -34 94 -78 94c-35 0 -69 -14 -101 -42c5 -100 39 -149 97 -149z" />
    <glyph glyph-name="nine.osf" unicode="&#xe031;" horiz-adv-x="476" 
d="M209 112c-108 0 -177 62 -177 191c0 120 69 207 201 207c140 0 206 -121 206 -295c0 -221 -102 -371 -366 -371v106c185 5 237 73 249 202c-31 -23 -70 -40 -113 -40zM229 403c-53 0 -83 -40 -83 -97c0 -67 32 -94 80 -94c31 0 66 11 98 36c-5 105 -39 155 -95 155z" />
    <glyph glyph-name="seven.osf" unicode="&#xe032;" horiz-adv-x="415" 
d="M207 -148h-125c28 209 84 370 185 541h-247v107h375v-90c-104 -189 -157 -347 -188 -558z" />
    <glyph glyph-name="eight.osf" unicode="&#xe033;" horiz-adv-x="491" 
d="M245 -9c-117 0 -204 60 -204 179c0 88 44 143 105 175c-42 24 -75 69 -75 148c0 115 76 164 175 164c98 0 174 -50 174 -165c0 -79 -34 -122 -75 -147c61 -32 106 -87 106 -175c0 -119 -88 -179 -206 -179zM246 394c37 15 68 47 68 90c0 47 -25 83 -68 83
c-46 0 -70 -38 -70 -81c0 -47 33 -80 70 -92zM246 82c56 0 89 45 89 97c0 56 -47 95 -89 109c-45 -15 -90 -54 -90 -109c0 -53 32 -97 90 -97z" />
    <glyph glyph-name="two.osf" unicode="&#xe034;" horiz-adv-x="455" 
d="M214 102l195 2v-104h-364v101c114 78 247 167 247 234c0 43 -33 74 -114 74c-50 0 -84 -10 -126 -30v98c44 19 77 33 170 33c120 0 183 -58 183 -158c0 -103 -94 -178 -191 -250z" />
    <glyph glyph-name="three.osf" unicode="&#xe035;" horiz-adv-x="451" 
d="M43 -40c42 -15 74 -20 108 -20c106 0 145 64 145 146c0 55 -33 90 -96 90c-19 0 -60 0 -103 -19v71c58 64 90 103 157 170h-209v102h357v-101c-61 -60 -112 -113 -152 -158c26 6 52 8 73 4c58 -8 90 -61 90 -148c0 -170 -95 -255 -244 -255c-49 0 -79 5 -126 18v100z" />
    <glyph glyph-name="zero.sm" unicode="&#xe036;" horiz-adv-x="436" 
d="M40 253c0 140 38 258 178 258s178 -118 178 -258c0 -142 -38 -261 -178 -261s-178 119 -178 261zM129 253c0 -107 18 -179 89 -179c70 0 89 72 89 179c0 105 -19 177 -89 177c-71 0 -89 -72 -89 -177z" />
    <glyph glyph-name="one.sm" unicode="&#xe037;" horiz-adv-x="251" 
d="M193 0h-85v409l-80 -43v94l78 44h87v-504z" />
    <glyph glyph-name="two.sm" unicode="&#xe038;" horiz-adv-x="386" 
d="M41 79c73 91 207 157 207 269c0 39 -13 82 -62 82c-50 0 -63 -43 -63 -85v-8h-80v12c0 107 47 162 143 162c97 0 153 -55 153 -154c0 -103 -66 -182 -181 -278l188 1v-80h-305v79z" />
    <glyph glyph-name="three.sm" unicode="&#xe039;" horiz-adv-x="368" 
d="M41 82c33 -12 58 -16 84 -16c84 0 115 50 115 112c0 46 -26 76 -75 76c-16 0 -47 -1 -81 -15v54c45 50 72 82 124 134h-164v77h275v-76c-49 -48 -88 -90 -120 -125c21 5 41 6 57 3c46 -6 71 -50 71 -120c0 -128 -72 -194 -188 -194c-37 0 -62 5 -98 15v75z" />
    <glyph glyph-name="four.sm" unicode="&#xe03a;" horiz-adv-x="396" 
d="M312 504v-313h49v-81h-49v-110h-84v110h-202v69l188 325h98zM228 191v214l-109 -214h109z" />
    <glyph glyph-name="five.sm" unicode="&#xe03b;" horiz-adv-x="365" 
d="M86 504h223v-80h-160l-15 -108h38c113 0 156 -56 156 -152c0 -93 -54 -170 -175 -170c-30 0 -82 10 -116 26v79c30 -17 72 -29 109 -29c71 0 97 45 97 90c0 53 -25 87 -100 87c-34 0 -55 -2 -94 -5z" />
    <glyph glyph-name="six.sm" unicode="&#xe03c;" horiz-adv-x="389" 
d="M218 303c81 0 136 -51 136 -150c0 -96 -54 -160 -153 -160c-110 0 -162 87 -162 228c0 173 78 290 283 290v-80c-148 -6 -189 -60 -197 -166c25 22 55 38 93 38zM202 74c41 0 67 28 67 77c0 55 -28 75 -64 75c-28 0 -56 -12 -80 -35c4 -80 31 -117 77 -117z" />
    <glyph glyph-name="seven.sm" unicode="&#xe03d;" horiz-adv-x="340" 
d="M169 0h-93c21 164 68 289 148 423h-197v81h293v-68c-83 -147 -127 -271 -151 -436z" />
    <glyph glyph-name="eight.sm" unicode="&#xe03e;" horiz-adv-x="394" 
d="M197 -7c-91 0 -158 47 -158 139c0 69 36 112 83 137c-36 18 -67 51 -67 116c0 88 63 126 142 126c80 0 142 -40 142 -127c0 -63 -30 -96 -67 -115c47 -25 83 -68 83 -137c0 -92 -68 -139 -158 -139zM197 306c35 13 55 34 55 69c0 37 -20 60 -55 60c-36 0 -56 -24 -56 -58
c0 -36 23 -61 56 -71zM197 70c44 0 72 33 72 73c0 43 -35 72 -72 83c-41 -14 -72 -43 -72 -83s28 -73 72 -73z" />
    <glyph glyph-name="nine.sm" unicode="&#xe03f;" horiz-adv-x="382" 
d="M169 202c-81 0 -134 48 -134 148c0 94 52 161 152 161c106 0 156 -94 156 -230c0 -171 -77 -288 -277 -288v80c141 3 181 57 190 161c-24 -18 -53 -32 -87 -32zM185 430c-41 0 -65 -32 -65 -77c0 -54 26 -74 62 -74c23 0 50 9 75 29c-3 82 -30 122 -72 122z" />
    <glyph glyph-name="zerosuperior" unicode="&#x2070;" horiz-adv-x="426" 
d="M35 653c0 140 38 258 178 258s178 -118 178 -258c0 -142 -38 -261 -178 -261s-178 119 -178 261zM124 653c0 -107 18 -179 89 -179c70 0 89 72 89 179c0 105 -19 177 -89 177c-71 0 -89 -72 -89 -177z" />
    <glyph glyph-name="onesuperior" unicode="&#xb9;" horiz-adv-x="242" 
d="M189 400h-85v409l-80 -43v94l78 44h87v-504z" />
    <glyph glyph-name="twosuperior" unicode="&#xb2;" horiz-adv-x="372" 
d="M33 479c73 91 207 157 207 269c0 39 -13 82 -62 82c-50 0 -63 -43 -63 -85v-8h-80v12c0 107 47 162 143 162c97 0 153 -55 153 -154c0 -103 -66 -182 -181 -278l188 1v-80h-305v79z" />
    <glyph glyph-name="threesuperior" unicode="&#xb3;" horiz-adv-x="355" 
d="M35 482c33 -12 58 -16 84 -16c84 0 115 50 115 112c0 46 -26 76 -75 76c-16 0 -47 -1 -81 -15v54c45 50 72 82 124 134h-164v77h275v-76c-49 -48 -88 -90 -120 -125c21 5 41 6 57 3c46 -6 71 -50 71 -120c0 -128 -72 -194 -188 -194c-37 0 -62 5 -98 15v75z" />
    <glyph glyph-name="foursuperior" unicode="&#x2074;" horiz-adv-x="386" 
d="M306 904v-313h49v-81h-49v-110h-84v110h-202v69l188 325h98zM222 591v214l-109 -214h109z" />
    <glyph glyph-name="fivesuperior" unicode="&#x2075;" horiz-adv-x="351" 
d="M80 904h223v-80h-160l-15 -108h38c113 0 156 -56 156 -152c0 -93 -54 -170 -175 -170c-30 0 -82 10 -116 26v79c30 -17 72 -29 109 -29c71 0 97 45 97 90c0 53 -25 87 -100 87c-34 0 -55 -2 -94 -5z" />
    <glyph glyph-name="sixsuperior" unicode="&#x2076;" horiz-adv-x="375" 
d="M213 703c81 0 136 -51 136 -150c0 -96 -54 -160 -153 -160c-110 0 -162 87 -162 228c0 173 78 290 283 290v-80c-148 -6 -189 -60 -197 -166c25 22 55 38 93 38zM197 474c41 0 67 28 67 77c0 55 -28 75 -64 75c-28 0 -56 -12 -80 -35c4 -80 31 -117 77 -117z" />
    <glyph glyph-name="sevensuperior" unicode="&#x2077;" horiz-adv-x="337" 
d="M167 400h-93c21 164 68 289 148 423h-197v81h293v-68c-83 -147 -127 -271 -151 -436z" />
    <glyph glyph-name="eightsuperior" unicode="&#x2078;" horiz-adv-x="379" 
d="M190 393c-91 0 -158 47 -158 139c0 69 36 112 83 137c-36 18 -67 51 -67 116c0 88 63 126 142 126c80 0 142 -40 142 -127c0 -63 -30 -96 -67 -115c47 -25 83 -68 83 -137c0 -92 -68 -139 -158 -139zM190 706c35 13 55 34 55 69c0 37 -20 60 -55 60
c-36 0 -56 -24 -56 -58c0 -36 23 -61 56 -71zM190 470c44 0 72 33 72 73c0 43 -35 72 -72 83c-41 -14 -72 -43 -72 -83s28 -73 72 -73z" />
    <glyph glyph-name="ninesuperior" unicode="&#x2079;" horiz-adv-x="369" 
d="M161 602c-81 0 -134 48 -134 148c0 94 52 161 152 161c106 0 156 -94 156 -230c0 -171 -77 -288 -277 -288v80c141 3 181 57 190 161c-24 -18 -53 -32 -87 -32zM177 830c-41 0 -65 -32 -65 -77c0 -54 26 -74 62 -74c23 0 50 9 75 29c-3 82 -30 122 -72 122z" />
    <glyph glyph-name="zeroinferior" unicode="&#x2080;" horiz-adv-x="426" 
d="M35 53c0 140 38 258 178 258s178 -118 178 -258c0 -142 -38 -261 -178 -261s-178 119 -178 261zM124 53c0 -107 18 -179 89 -179c70 0 89 72 89 179c0 105 -19 177 -89 177c-71 0 -89 -72 -89 -177z" />
    <glyph glyph-name="oneinferior" unicode="&#x2081;" horiz-adv-x="242" 
d="M189 -200h-85v409l-80 -43v94l78 44h87v-504z" />
    <glyph glyph-name="twoinferior" unicode="&#x2082;" horiz-adv-x="372" 
d="M33 -121c73 91 207 157 207 269c0 39 -13 82 -62 82c-50 0 -63 -43 -63 -85v-8h-80v12c0 107 47 162 143 162c97 0 153 -55 153 -154c0 -103 -66 -181 -181 -277h188v-80h-305v79z" />
    <glyph glyph-name="threeinferior" unicode="&#x2083;" horiz-adv-x="355" 
d="M35 -118c33 -12 58 -16 84 -16c84 0 115 50 115 112c0 46 -26 76 -75 76c-16 0 -47 -1 -81 -15v54c45 50 72 82 124 134h-164v77h275v-76c-49 -48 -88 -90 -120 -125c21 5 41 6 57 3c46 -6 71 -50 71 -120c0 -128 -72 -194 -188 -194c-37 0 -62 5 -98 15v75z" />
    <glyph glyph-name="fourinferior" unicode="&#x2084;" horiz-adv-x="386" 
d="M309 304v-313h49v-81h-49v-110h-84v110h-202v69l188 325h98zM225 -9v214l-109 -214h109z" />
    <glyph glyph-name="fiveinferior" unicode="&#x2085;" horiz-adv-x="351" 
d="M80 304h223v-80h-160l-15 -108h38c113 0 156 -56 156 -152c0 -93 -54 -170 -175 -170c-30 0 -82 10 -116 26v79c30 -17 72 -29 109 -29c71 0 97 45 97 90c0 53 -25 87 -100 87c-34 0 -55 -2 -94 -5z" />
    <glyph glyph-name="sixinferior" unicode="&#x2086;" horiz-adv-x="375" 
d="M213 103c81 0 136 -51 136 -150c0 -96 -54 -160 -153 -160c-110 0 -162 87 -162 228c0 173 78 290 283 290v-80c-148 -6 -189 -60 -197 -166c25 22 55 38 93 38zM197 -126c41 0 67 28 67 77c0 55 -28 75 -64 75c-28 0 -56 -12 -80 -34c4 -81 31 -118 77 -118z" />
    <glyph glyph-name="seveninferior" unicode="&#x2087;" horiz-adv-x="337" 
d="M167 -200h-93c21 164 68 289 148 423h-197v81h293v-68c-83 -147 -127 -271 -151 -436z" />
    <glyph glyph-name="eightinferior" unicode="&#x2088;" horiz-adv-x="379" 
d="M190 -207c-91 0 -158 47 -158 139c0 69 36 112 83 137c-36 18 -67 51 -67 116c0 88 63 126 142 126c80 0 142 -40 142 -127c0 -63 -30 -96 -67 -115c47 -25 83 -68 83 -137c0 -92 -68 -139 -158 -139zM190 106c35 13 55 34 55 69c0 37 -20 60 -55 60
c-36 0 -56 -24 -56 -58c0 -36 23 -61 56 -71zM190 -130c44 0 72 33 72 73c0 43 -35 72 -72 83c-41 -14 -72 -43 -72 -83s28 -73 72 -73z" />
    <glyph glyph-name="nineinferior" unicode="&#x2089;" horiz-adv-x="369" 
d="M161 2c-81 0 -134 48 -134 148c0 94 52 161 152 161c106 0 156 -94 156 -230c0 -171 -77 -288 -277 -288v80c141 4 181 58 190 161c-24 -18 -53 -32 -87 -32zM177 230c-41 0 -65 -32 -65 -77c0 -54 26 -74 62 -74c23 0 50 9 75 29c-3 82 -30 122 -72 122z" />
    <glyph glyph-name="d.ch" unicode="&#xe041;" horiz-adv-x="475" 
d="M318 751h113v-496c0 -167 -63 -265 -197 -265c-133 0 -201 111 -201 275c0 147 58 245 168 245c38 0 78 -17 117 -50v291zM236 94c51 0 82 53 82 152v118c-28 24 -56 39 -83 39c-51 0 -85 -45 -85 -156c0 -90 30 -153 86 -153z" />
    <glyph glyph-name="a.ch" unicode="&#xe042;" horiz-adv-x="473" 
d="M429 0h-113v54c-38 -44 -79 -65 -116 -65c-109 0 -168 97 -168 244c0 164 69 277 201 277c134 0 196 -100 196 -266v-244zM316 145v107c0 99 -29 155 -82 155c-54 0 -84 -66 -84 -156c0 -110 34 -159 84 -159c27 0 54 19 82 53z" />
    <glyph glyph-name="g.ch" unicode="&#xe043;" horiz-adv-x="477" 
d="M434 244v-255c0 -125 -47 -225 -212 -225c-57 0 -119 17 -170 39v96c52 -24 101 -36 145 -36c104 0 124 50 124 125v65c-39 -43 -80 -64 -118 -64c-111 0 -170 97 -170 244c0 164 69 277 202 277c136 0 199 -100 199 -266zM321 146v106c0 99 -31 155 -84 155
c-56 0 -86 -66 -86 -156c0 -110 35 -159 86 -159c27 0 55 19 84 54z" />
    <glyph glyph-name="m.san" unicode="&#xe044;" horiz-adv-x="695" 
d="M51 0v458c42 27 116 52 191 52c60 0 99 -19 124 -47c39 26 94 47 141 47c112 0 139 -94 139 -172v-338h-113v301c0 64 -17 107 -66 107c-17 0 -45 -12 -66 -23c3 -15 4 -30 4 -45v-340h-112v306c0 60 -16 102 -60 102c-28 0 -51 -11 -69 -20v-388h-113z" />
    <glyph glyph-name="n.san" unicode="&#xe045;" 
d="M51 0v458c44 27 124 52 204 52c141 0 174 -92 174 -175v-335h-112v302c0 62 -19 106 -71 106c-32 0 -61 -11 -82 -21v-387h-113z" />
    <glyph glyph-name="q.ch" unicode="&#xe046;" horiz-adv-x="455" 
d="M409 -198h-100v235c-32 -29 -68 -44 -100 -44c-109 0 -177 108 -177 261c0 149 66 256 195 256c122 0 182 -96 182 -258v-450zM309 124v124c0 103 -26 161 -83 161c-56 0 -84 -62 -84 -158c0 -119 52 -161 97 -161c21 0 47 13 70 34z" />
    <glyph glyph-name="W.str" unicode="&#xe047;" horiz-adv-x="853" 
d="M309 0h-107l-186 720h121l118 -572l118 572h107l118 -572l118 572h121l-185 -720h-108l-118 517z" />
    <glyph glyph-name="z.str" unicode="&#xe048;" horiz-adv-x="410" 
d="M41 404v96h328v-96l-197 -303h208v-101h-348v102l200 302h-191z" />
    <glyph glyph-name="v.str" unicode="&#xe049;" horiz-adv-x="435" 
d="M160 0l-145 500h116l87 -397l86 397h115l-143 -500h-116z" />
    <glyph glyph-name="w.str" unicode="&#xe04a;" horiz-adv-x="682" 
d="M468 113l84 387h114l-142 -500h-97l-87 370l-86 -370h-98l-140 500h113l84 -387l71 387h113z" />
    <glyph glyph-name="k.str" unicode="&#xe04b;" horiz-adv-x="457" 
d="M317 500h128l-164 -236l167 -264h-127l-156 249v-249h-113v750h113v-473z" />
    <glyph glyph-name="a.ital" unicode="&#xe04c;" horiz-adv-x="498" 
d="M314 500h114v-367c0 -22 5 -35 23 -35c10 0 16 2 24 6v-92c-19 -9 -37 -12 -59 -12c-48 0 -79 24 -93 68c-32 -55 -77 -78 -126 -78c-105 0 -164 109 -164 255c0 131 47 265 172 265c54 0 88 -31 109 -59v49zM231 93c42 0 66 30 83 89v175c-19 41 -48 56 -75 56
c-57 0 -91 -71 -91 -167c0 -92 28 -153 83 -153z" />
    <glyph glyph-name="f.ital" unicode="&#xe04d;" horiz-adv-x="327" 
d="M19 405v95h63v28c0 157 49 233 155 233c30 0 61 -6 86 -15v-96c-13 7 -31 12 -54 12c-62 0 -72 -49 -72 -134v-28h116v-95h-116v-627h-115v627h-63z" />
    <glyph glyph-name="i.ital" unicode="&#xe04e;" horiz-adv-x="232" 
d="M162 500v-367c0 -22 4 -35 23 -35c10 0 16 2 23 6v-92c-18 -9 -37 -12 -58 -12c-68 0 -101 49 -101 135v365h113zM42 648c0 36 26 66 62 66s64 -28 64 -66c0 -37 -28 -65 -64 -65s-62 31 -62 65z" />
    <glyph glyph-name="l.ital" unicode="&#xe04f;" horiz-adv-x="235" 
d="M163 750v-617c0 -22 4 -35 22 -35c11 0 17 2 24 6v-92c-18 -9 -37 -12 -58 -12c-68 0 -101 49 -101 135v615h113z" />
    <glyph glyph-name="n.ital" unicode="&#xe050;" horiz-adv-x="493" 
d="M52 0v500h113v-37c30 23 81 47 126 47c113 0 139 -97 139 -176v-201c0 -22 5 -35 23 -35c11 0 17 2 24 6v-92c-18 -9 -37 -12 -59 -12c-68 0 -100 49 -100 135v161c0 66 -18 112 -72 112c-31 0 -60 -20 -81 -31v-377h-113z" />
    <glyph glyph-name="d.ital" unicode="&#xe052;" horiz-adv-x="498" 
d="M428 750v-617c0 -22 5 -35 23 -35c10 0 16 2 24 6v-92c-19 -9 -37 -12 -59 -12c-48 0 -79 24 -93 69c-32 -55 -76 -79 -126 -79c-105 0 -164 109 -164 255c0 131 47 265 172 265c54 0 88 -31 109 -59v299h114zM231 93c42 0 66 30 83 89l1 -11v30h-1v156
c-19 41 -48 56 -75 56c-57 0 -91 -71 -91 -167c0 -92 28 -153 83 -153z" />
    <glyph glyph-name="w.ital" unicode="&#xe053;" horiz-adv-x="713" 
d="M48 159v341h113v-326c0 -60 18 -84 47 -84c53 0 96 60 98 197v213h113v-326c0 -60 18 -84 47 -84c54 0 98 63 98 208c0 63 -11 142 -53 202h104c55 -54 64 -134 64 -208c0 -196 -93 -302 -234 -302c-60 0 -98 27 -119 69c-28 -46 -72 -69 -138 -69
c-102 0 -140 48 -140 169z" />
    <glyph glyph-name="m.ital" unicode="&#xe054;" horiz-adv-x="727" 
d="M52 0v500h113v-37c26 22 75 47 114 47c53 0 87 -22 108 -54c35 29 91 54 137 54c113 0 141 -99 141 -181v-196c0 -22 4 -35 23 -35c10 0 16 2 24 6v-92c-19 -9 -38 -12 -59 -12c-68 0 -101 49 -101 135v157c0 77 -22 116 -68 116c-25 0 -52 -18 -70 -29
c3 -17 4 -34 4 -50v-329h-113v292c0 77 -24 116 -69 116c-28 0 -53 -21 -71 -31v-377h-113z" />
    <glyph glyph-name="u.ital" unicode="&#xe055;" horiz-adv-x="497" 
d="M161 500v-297c0 -95 37 -110 65 -110c32 0 61 14 88 41v366h112v-367c0 -22 5 -35 23 -35c11 0 17 2 24 6v-92c-18 -9 -38 -12 -59 -12c-43 0 -72 20 -87 56c-32 -33 -77 -67 -137 -67c-80 0 -142 50 -142 182v329h113z" />
    <glyph glyph-name="Agrave" unicode="&#xc0;" horiz-adv-x="566" 
d="M334 720c108 -240 180 -480 210 -720h-114c-6 51 -15 106 -26 163c-79 -3 -174 -24 -253 -60c-6 -36 -11 -70 -14 -103h-116c32 240 103 480 211 720h102zM283 580c-47 -115 -84 -242 -111 -365c67 27 144 44 211 49c-26 107 -59 217 -100 316zM379 814h-77l-112 133h113
z" />
    <glyph glyph-name="Amacron" unicode="&#x100;" horiz-adv-x="566" 
d="M334 720c108 -240 180 -480 210 -720h-114c-6 51 -15 106 -26 163c-79 -3 -174 -24 -253 -60c-6 -36 -11 -70 -14 -103h-116c32 240 103 480 211 720h102zM283 580c-47 -115 -84 -242 -111 -365c67 27 144 44 211 49c-26 107 -59 217 -100 316zM386 834h-207v82h207v-82z
" />
    <glyph glyph-name="Aogonek" unicode="&#x104;" horiz-adv-x="566" 
d="M506 -149c14 0 40 6 53 14v-45c-17 -14 -42 -23 -79 -23c-71 0 -102 38 -102 86s27 88 86 117h-34c-6 51 -15 106 -26 163c-79 -3 -174 -24 -253 -60c-6 -36 -11 -70 -14 -103h-116c32 240 103 480 211 720h102c108 -240 180 -480 210 -720h-31c-36 -25 -54 -62 -54 -94
c0 -34 18 -55 47 -55zM283 580c-47 -115 -84 -242 -111 -365c67 27 144 44 211 49c-26 107 -59 217 -100 316z" />
    <glyph glyph-name="Aring" unicode="&#xc5;" horiz-adv-x="566" 
d="M21 0c31 233 99 465 201 698c-30 18 -44 51 -44 89c0 57 32 104 105 104c75 0 103 -47 103 -104c0 -38 -13 -71 -43 -89c103 -233 172 -465 201 -698h-114c-6 51 -15 106 -26 163c-79 -3 -174 -24 -253 -60c-6 -36 -11 -70 -14 -103h-116zM283 580
c-47 -115 -84 -242 -111 -365c67 27 144 44 211 49c-26 107 -59 217 -100 316zM283 743c29 0 40 20 40 44c0 26 -11 45 -40 45c-28 0 -40 -19 -40 -45c0 -24 12 -44 40 -44z" />
    <glyph glyph-name="Aacute" unicode="&#xc1;" horiz-adv-x="566" 
d="M334 720c108 -240 180 -480 210 -720h-114c-6 51 -15 106 -26 163c-79 -3 -174 -24 -253 -60c-6 -36 -11 -70 -14 -103h-116c32 240 103 480 211 720h102zM283 580c-47 -115 -84 -242 -111 -365c67 27 144 44 211 49c-26 107 -59 217 -100 316zM245 759l89 132h111
l-121 -132h-79z" />
    <glyph glyph-name="Abreve" unicode="&#x102;" horiz-adv-x="566" 
d="M334 720c108 -240 180 -480 210 -720h-114c-6 51 -15 106 -26 163c-79 -3 -174 -24 -253 -60c-6 -36 -11 -70 -14 -103h-116c32 240 103 480 211 720h102zM283 580c-47 -115 -84 -242 -111 -365c67 27 144 44 211 49c-26 107 -59 217 -100 316zM284 810c27 0 42 22 42 51
h64c0 -60 -30 -110 -106 -110c-75 0 -108 50 -108 110h65c0 -29 17 -51 43 -51z" />
    <glyph glyph-name="Acircumflex" unicode="&#xc2;" horiz-adv-x="566" 
d="M334 720c108 -240 180 -480 210 -720h-114c-6 51 -15 106 -26 163c-79 -3 -174 -24 -253 -60c-6 -36 -11 -70 -14 -103h-116c32 240 103 480 211 720h102zM283 580c-47 -115 -84 -242 -111 -365c67 27 144 44 211 49c-26 107 -59 217 -100 316zM429 760h-73l-72 86
l-70 -86h-72l86 138h112z" />
    <glyph glyph-name="Adieresis" unicode="&#xc4;" horiz-adv-x="566" 
d="M334 720c108 -240 180 -480 210 -720h-114c-6 51 -15 106 -26 163c-79 -3 -174 -24 -253 -60c-6 -36 -11 -70 -14 -103h-116c32 240 103 480 211 720h102zM283 580c-47 -115 -84 -242 -111 -365c67 27 144 44 211 49c-26 107 -59 217 -100 316zM420 821
c0 -35 -26 -62 -58 -62c-30 0 -56 27 -56 62s26 62 56 62c32 0 58 -27 58 -62zM259 821c0 -35 -25 -62 -57 -62c-31 0 -56 27 -56 62s25 62 56 62c32 0 57 -27 57 -62z" />
    <glyph glyph-name="AEacute" unicode="&#x1fc;" horiz-adv-x="817" 
d="M526 229c2 -104 30 -122 144 -122h112v-109h-112c-127 0 -204 7 -238 87c-68 45 -156 62 -225 66l-74 -151h-130l371 720h398v-106h-246v-179h207v-106h-207v-100zM267 251c64 -5 110 -24 141 -38v360zM329 790l89 132h111l-121 -132h-79z" />
    <glyph glyph-name="Cacute" unicode="&#x106;" horiz-adv-x="581" 
d="M542 112v-100c-50 -13 -124 -22 -171 -22c-225 0 -334 171 -334 392c0 255 122 348 273 348c161 0 232 -98 232 -266v-17h-107v14c0 103 -44 161 -125 161c-84 0 -156 -61 -156 -238c0 -120 38 -290 245 -290c37 0 85 5 143 18zM257 769l89 132h111l-121 -132h-79z" />
    <glyph glyph-name="Ccircumflex" unicode="&#x108;" horiz-adv-x="581" 
d="M542 112v-100c-50 -13 -124 -22 -171 -22c-225 0 -334 171 -334 392c0 255 122 348 273 348c161 0 232 -98 232 -266v-17h-107v14c0 103 -44 161 -125 161c-84 0 -156 -61 -156 -238c0 -120 38 -290 245 -290c37 0 85 5 143 18zM440 770h-73l-72 86l-70 -86h-72l86 138
h112z" />
    <glyph glyph-name="Cdotaccent" unicode="&#x10a;" horiz-adv-x="581" 
d="M542 112v-100c-50 -13 -124 -22 -171 -22c-225 0 -334 171 -334 392c0 255 122 348 273 348c161 0 232 -98 232 -266v-17h-107v14c0 103 -44 161 -125 161c-84 0 -156 -61 -156 -238c0 -120 38 -290 245 -290c37 0 85 5 143 18zM340 884c0 -35 -25 -60 -58 -60
c-31 0 -56 25 -56 60s25 60 56 60c33 0 58 -25 58 -60z" />
    <glyph glyph-name="Dcaron" unicode="&#x10e;" horiz-adv-x="608" 
d="M65 0v720h212c139 0 291 -72 291 -319c0 -277 -201 -401 -389 -401h-114zM179 614v-507c149 0 270 97 270 290c0 171 -86 217 -191 217h-79zM375 934h73l-88 -138h-112l-87 138h72l70 -86z" />
    <glyph glyph-name="Dcroat" unicode="&#x110;" horiz-adv-x="609" 
d="M65 0v337h-58v82h58v301h212c139 0 291 -72 291 -319c0 -277 -201 -401 -389 -401h-114zM179 614v-195h97v-82h-97v-230c149 0 270 97 270 290c0 171 -86 217 -191 217h-79z" />
    <glyph glyph-name="Ebreve" unicode="&#x114;" horiz-adv-x="470" 
d="M174 330v-94c0 -114 29 -133 109 -133h152v-105h-154c-169 0 -220 47 -220 235v487h364v-102h-251v-186h211v-102h-211zM261 810c27 0 42 22 42 51h64c0 -60 -30 -110 -106 -110c-75 0 -108 50 -108 110h65c0 -29 17 -51 43 -51z" />
    <glyph glyph-name="Ecircumflex" unicode="&#xca;" horiz-adv-x="470" 
d="M174 330v-94c0 -114 29 -133 109 -133h152v-105h-154c-169 0 -220 47 -220 235v487h364v-102h-251v-186h211v-102h-211zM406 760h-73l-72 86l-70 -86h-72l86 138h112z" />
    <glyph glyph-name="Ecaron" unicode="&#x11a;" horiz-adv-x="470" 
d="M174 330v-94c0 -114 29 -133 109 -133h152v-105h-154c-169 0 -220 47 -220 235v487h364v-102h-251v-186h211v-102h-211zM332 896h73l-88 -138h-112l-87 138h72l70 -86z" />
    <glyph glyph-name="Edieresis" unicode="&#xcb;" horiz-adv-x="470" 
d="M174 330v-94c0 -114 29 -133 109 -133h152v-105h-154c-169 0 -220 47 -220 235v487h364v-102h-251v-186h211v-102h-211zM397 821c0 -35 -26 -62 -58 -62c-30 0 -56 27 -56 62s26 62 56 62c32 0 58 -27 58 -62zM236 821c0 -35 -25 -62 -57 -62c-31 0 -56 27 -56 62
s25 62 56 62c32 0 57 -27 57 -62z" />
    <glyph glyph-name="Edotaccent" unicode="&#x116;" horiz-adv-x="470" 
d="M174 330v-94c0 -114 29 -133 109 -133h152v-105h-154c-169 0 -220 47 -220 235v487h364v-102h-251v-186h211v-102h-211zM309 816c0 -35 -25 -60 -58 -60c-31 0 -56 25 -56 60s25 60 56 60c33 0 58 -25 58 -60z" />
    <glyph glyph-name="Emacron" unicode="&#x112;" horiz-adv-x="470" 
d="M174 330v-94c0 -114 29 -133 109 -133h152v-105h-154c-169 0 -220 47 -220 235v487h364v-102h-251v-186h211v-102h-211zM349 763h-207v82h207v-82z" />
    <glyph glyph-name="Eogonek" unicode="&#x118;" horiz-adv-x="470" 
d="M385 -146c14 0 40 6 53 14v-45c-17 -14 -42 -23 -79 -23c-71 0 -102 38 -102 86c0 45 24 84 76 112h-52c-169 0 -220 47 -220 235v487h364v-102h-251v-186h211v-102h-211v-94c0 -114 29 -133 109 -133h152v-105h-50c-31 -25 -47 -59 -47 -89c0 -34 18 -55 47 -55z" />
    <glyph glyph-name="Gbreve" unicode="&#x11e;" horiz-adv-x="595" 
d="M327 264v96h220v-339h-1l1 -4c-60 -20 -141 -28 -182 -28c-242 0 -327 170 -327 396c0 248 118 345 269 345c160 0 237 -90 237 -249v-17h-110v11c0 91 -46 147 -124 147c-82 0 -151 -69 -151 -237c0 -142 29 -293 200 -293c18 0 47 2 77 6v166h-109zM313 820
c27 0 42 22 42 51h64c0 -60 -30 -110 -106 -110c-75 0 -108 50 -108 110h65c0 -29 17 -51 43 -51z" />
    <glyph glyph-name="Gcircumflex" unicode="&#x11c;" horiz-adv-x="595" 
d="M327 264v96h220v-339h-1l1 -4c-60 -20 -141 -28 -182 -28c-242 0 -327 170 -327 396c0 248 118 345 269 345c160 0 237 -90 237 -249v-17h-110v11c0 91 -46 147 -124 147c-82 0 -151 -69 -151 -237c0 -142 29 -293 200 -293c18 0 47 2 77 6v166h-109zM458 770h-73l-72 86
l-70 -86h-72l86 138h112z" />
    <glyph glyph-name="Gcommaaccent" unicode="&#x122;" horiz-adv-x="595" 
d="M327 264v96h220v-339h-1l1 -4c-60 -20 -141 -28 -182 -28c-242 0 -327 170 -327 396c0 248 118 345 269 345c160 0 237 -90 237 -249v-17h-110v11c0 91 -46 147 -124 147c-82 0 -151 -69 -151 -237c0 -142 29 -293 200 -293c18 0 47 2 77 6v166h-109zM384 -125
c0 -42 -31 -79 -70 -102l-13 25c20 13 37 28 42 49c0 -2 -7 -3 -10 -3c-20 0 -32 18 -32 40c0 26 16 46 40 46c25 0 43 -22 43 -55z" />
    <glyph glyph-name="Gdotaccent" unicode="&#x120;" horiz-adv-x="595" 
d="M327 264v96h220v-339h-1l1 -4c-60 -20 -141 -28 -182 -28c-242 0 -327 170 -327 396c0 248 118 345 269 345c160 0 237 -90 237 -249v-17h-110v11c0 91 -46 147 -124 147c-82 0 -151 -69 -151 -237c0 -142 29 -293 200 -293c18 0 47 2 77 6v166h-109zM354 817
c0 -35 -25 -60 -58 -60c-31 0 -56 25 -56 60s25 60 56 60c33 0 58 -25 58 -60z" />
    <glyph glyph-name="commaaccent" unicode="&#xe056;" horiz-adv-x="200" 
d="M143 -128c0 -42 -31 -79 -70 -102l-13 25c20 13 37 27 42 48c0 -2 -7 -3 -10 -3c-20 0 -32 18 -32 41c0 26 16 46 40 46c25 0 43 -22 43 -55z" />
    <glyph glyph-name="Hbar" unicode="&#x126;" horiz-adv-x="644" 
d="M78 0v540h-68v82h68v98h114v-98h251v98h114v-98h79v-82h-79v-540h-114v315h-251v-315h-114zM192 540v-119h251v119h-251z" />
    <glyph glyph-name="Hcircumflex" unicode="&#x124;" horiz-adv-x="609" 
d="M65 0v720h114v-299h251v299h114v-720h-114v315h-251v-315h-114zM450 784h-73l-72 86l-70 -86h-72l86 138h112z" />
    <glyph glyph-name="Ibreve" unicode="&#x12c;" horiz-adv-x="244" 
d="M65 0v720h114v-720h-114zM120 810c27 0 42 22 42 51h64c0 -60 -30 -110 -106 -110c-75 0 -108 50 -108 110h65c0 -29 17 -51 43 -51z" />
    <glyph glyph-name="Idieresis" unicode="&#xcf;" horiz-adv-x="244" 
d="M65 0v720h114v-720h-114zM256 821c0 -35 -26 -62 -58 -62c-30 0 -56 27 -56 62s26 62 56 62c32 0 58 -27 58 -62zM95 821c0 -35 -25 -62 -57 -62c-31 0 -56 27 -56 62s25 62 56 62c32 0 57 -27 57 -62z" />
    <glyph glyph-name="Idotaccent" unicode="&#x130;" horiz-adv-x="244" 
d="M65 0v720h114v-720h-114zM176 884c0 -35 -25 -60 -58 -60c-31 0 -56 25 -56 60s25 60 56 60c33 0 58 -25 58 -60z" />
    <glyph glyph-name="Imacron" unicode="&#x12a;" horiz-adv-x="244" 
d="M65 0v720h114v-720h-114zM223 763h-207v82h207v-82z" />
    <glyph glyph-name="Iogonek" unicode="&#x12e;" horiz-adv-x="244" 
d="M65 0v720h114v-720h-35c-33 -25 -50 -61 -50 -91c0 -34 18 -55 47 -55c14 0 40 6 53 14v-45c-17 -14 -42 -23 -79 -23c-71 0 -102 38 -102 86c0 46 25 86 79 114h-27z" />
    <glyph glyph-name="Itilde" unicode="&#x128;" horiz-adv-x="244" 
d="M65 0v720h114v-720h-114zM162 840c-51 0 -63 55 -90 55c-13 0 -26 -13 -26 -49h-56c0 68 27 116 85 116c52 0 62 -55 91 -55c16 0 26 19 26 49h57c0 -80 -33 -116 -87 -116z" />
    <glyph glyph-name="IJ" unicode="&#x132;" horiz-adv-x="655" 
d="M65 0v720h114v-720h-114zM478 223v497h117v-503c0 -151 -60 -228 -193 -228c-40 0 -94 5 -146 20v96c41 -9 72 -17 124 -17c70 0 98 48 98 135z" />
    <glyph glyph-name="Lcommaaccent" unicode="&#x13b;" horiz-adv-x="442" 
d="M177 215c0 -84 16 -108 81 -108h169v-109h-171c-137 0 -195 30 -195 212v510h116v-505zM282 -128c0 -42 -31 -79 -70 -102l-13 25c20 13 37 27 42 48c0 -2 -7 -3 -10 -3c-20 0 -32 18 -32 41c0 26 16 46 40 46c25 0 43 -22 43 -55z" />
    <glyph glyph-name="Jcircumflex" unicode="&#x134;" horiz-adv-x="412" 
d="M234 223v497h117v-503c0 -151 -60 -228 -193 -228c-40 0 -94 5 -146 20v96c41 -9 72 -17 124 -17c70 0 98 48 98 135zM435 760h-73l-72 86l-70 -86h-72l86 138h112z" />
    <glyph glyph-name="Kcommaaccent" unicode="&#x136;" horiz-adv-x="523" 
d="M65 0v720h114v-322c100 97 172 218 201 322h119c-31 -109 -89 -218 -177 -327c83 -128 140 -271 172 -393h-121c-25 88 -67 202 -127 308c-21 -23 -44 -45 -67 -68v-240h-114zM308 -128c0 -42 -31 -79 -70 -102l-13 25c20 13 37 27 42 48c0 -2 -8 -3 -10 -3
c-20 0 -32 18 -32 41c0 26 16 46 40 46c25 0 43 -22 43 -55z" />
    <glyph glyph-name="Lacute" unicode="&#x139;" horiz-adv-x="442" 
d="M177 215c0 -84 16 -108 81 -108h169v-109h-171c-137 0 -195 30 -195 212v510h116v-505zM93 759l89 132h111l-121 -132h-79z" />
    <glyph glyph-name="Lcaron" unicode="&#x13d;" horiz-adv-x="451" 
d="M177 215c0 -84 16 -108 81 -108h169v-109h-171c-137 0 -195 30 -195 212v510h116v-505zM418 642c0 -64 -48 -119 -110 -154l-20 39c34 22 58 42 64 69c-3 -2 -9 -4 -16 -4c-32 0 -53 28 -53 63c0 41 26 73 66 73c41 0 69 -35 69 -86z" />
    <glyph glyph-name="Ldot" unicode="&#x13f;" horiz-adv-x="446" 
d="M177 215c0 -84 16 -108 81 -108h169v-109h-171c-137 0 -195 30 -195 212v510h116v-505zM287 337c0 35 26 66 64 66s67 -29 67 -66c0 -39 -29 -68 -67 -68s-64 32 -64 68z" />
    <glyph glyph-name="Lslash" unicode="&#x141;" horiz-adv-x="460" 
d="M195 215c0 -84 16 -108 81 -108h169v-109h-171c-137 0 -195 30 -195 212v44l-69 -61v101l69 61v365h116v-262l162 144v-101l-162 -144v-142z" />
    <glyph glyph-name="Nacute" unicode="&#x143;" horiz-adv-x="617" 
d="M65 0v720h114c98 -91 181 -225 259 -382v382h114v-720h-114v141c-84 189 -172 335 -259 428v-569h-114zM270 759l89 132h111l-121 -132h-79z" />
    <glyph glyph-name="Ncaron" unicode="&#x147;" horiz-adv-x="617" 
d="M65 0v720h114c98 -91 181 -225 259 -382v382h114v-720h-114v141c-84 189 -172 335 -259 428v-569h-114zM380 896h73l-88 -138h-112l-87 138h72l70 -86z" />
    <glyph glyph-name="Ncommaaccent" unicode="&#x145;" horiz-adv-x="617" 
d="M65 0v720h114c98 -91 181 -225 259 -382v382h114v-720h-114v141c-84 189 -172 335 -259 428v-569h-114zM357 -128c0 -42 -31 -79 -70 -102l-13 25c20 13 37 27 42 48c0 -2 -8 -3 -10 -3c-20 0 -32 18 -32 41c0 26 16 46 40 46c25 0 43 -22 43 -55z" />
    <glyph glyph-name="Oacute" unicode="&#xd3;" horiz-adv-x="656" 
d="M618 364c0 -228 -105 -374 -290 -374c-186 0 -291 145 -291 372s105 368 291 368c184 0 290 -139 290 -366zM502 363c0 152 -59 264 -174 264s-174 -112 -174 -264s58 -270 174 -270c115 0 174 118 174 270zM290 769l89 132h111l-121 -132h-79z" />
    <glyph glyph-name="Obreve" unicode="&#x14e;" horiz-adv-x="656" 
d="M618 364c0 -228 -105 -374 -290 -374c-186 0 -291 145 -291 372s105 368 291 368c184 0 290 -139 290 -366zM502 363c0 152 -59 264 -174 264s-174 -112 -174 -264s58 -270 174 -270c115 0 174 118 174 270zM328 820c27 0 42 22 42 51h64c0 -60 -30 -110 -106 -110
c-75 0 -108 50 -108 110h65c0 -29 17 -51 43 -51z" />
    <glyph glyph-name="Ocircumflex" unicode="&#xd4;" horiz-adv-x="656" 
d="M618 364c0 -228 -105 -374 -290 -374c-186 0 -291 145 -291 372s105 368 291 368c184 0 290 -139 290 -366zM502 363c0 152 -59 264 -174 264s-174 -112 -174 -264s58 -270 174 -270c115 0 174 118 174 270zM473 770h-73l-72 86l-70 -86h-72l86 138h112z" />
    <glyph glyph-name="Odieresis" unicode="&#xd6;" horiz-adv-x="656" 
d="M618 364c0 -228 -105 -374 -290 -374c-186 0 -291 145 -291 372s105 368 291 368c184 0 290 -139 290 -366zM502 363c0 152 -59 264 -174 264s-174 -112 -174 -264s58 -270 174 -270c115 0 174 118 174 270zM464 831c0 -35 -26 -62 -58 -62c-30 0 -56 27 -56 62
s26 62 56 62c32 0 58 -27 58 -62zM303 831c0 -35 -25 -62 -57 -62c-31 0 -56 27 -56 62s25 62 56 62c32 0 57 -27 57 -62z" />
    <glyph glyph-name="Ograve" unicode="&#xd2;" horiz-adv-x="656" 
d="M618 364c0 -228 -105 -374 -290 -374c-186 0 -291 145 -291 372s105 368 291 368c184 0 290 -139 290 -366zM502 363c0 152 -59 264 -174 264s-174 -112 -174 -264s58 -270 174 -270c115 0 174 118 174 270zM372 769h-77l-112 133h113z" />
    <glyph glyph-name="Omacron" unicode="&#x14c;" horiz-adv-x="656" 
d="M618 364c0 -228 -105 -374 -290 -374c-186 0 -291 145 -291 372s105 368 291 368c184 0 290 -139 290 -366zM502 363c0 152 -59 264 -174 264s-174 -112 -174 -264s58 -270 174 -270c115 0 174 118 174 270zM432 773h-207v82h207v-82z" />
    <glyph glyph-name="Ohungarumlaut" unicode="&#x150;" horiz-adv-x="656" 
d="M618 364c0 -228 -105 -374 -290 -374c-186 0 -291 145 -291 372s105 368 291 368c184 0 290 -139 290 -366zM502 363c0 152 -59 264 -174 264s-174 -112 -174 -264s58 -270 174 -270c115 0 174 118 174 270zM214 769l75 136h111l-109 -136h-77zM364 769l75 136h110
l-108 -136h-77z" />
    <glyph glyph-name="Otilde" unicode="&#xd5;" horiz-adv-x="656" 
d="M618 364c0 -228 -105 -374 -290 -374c-186 0 -291 145 -291 372s105 368 291 368c184 0 290 -139 290 -366zM502 363c0 152 -59 264 -174 264s-174 -112 -174 -264s58 -270 174 -270c115 0 174 118 174 270zM376 772c-51 0 -63 55 -90 55c-13 0 -26 -13 -26 -49h-56
c0 68 27 116 85 116c52 0 62 -55 91 -55c16 0 26 19 26 49h57c0 -80 -33 -116 -87 -116z" />
    <glyph glyph-name="Oslashacute" unicode="&#x1fe;" horiz-adv-x="656" 
d="M263 -22h-93l14 49c-96 56 -147 175 -147 335c0 227 105 368 291 368c20 0 40 -2 59 -5l5 17h93l-14 -48c95 -55 147 -171 147 -330c0 -228 -105 -374 -290 -374c-21 0 -41 2 -60 6zM502 363c0 92 -22 170 -65 216l-140 -483c10 -2 20 -3 31 -3c115 0 174 118 174 270z
M154 363c0 -92 21 -172 64 -220l140 481c-10 2 -20 3 -30 3c-115 0 -174 -112 -174 -264zM290 769l89 132h111l-121 -132h-79z" />
    <glyph glyph-name="Racute" unicode="&#x154;" horiz-adv-x="509" 
d="M537 495c0 -100 -42 -168 -96 -217c52 -93 91 -190 111 -278h-121c-14 56 -43 138 -82 217c-36 -18 -71 -31 -97 -40v-177h-114v720h180c116 0 219 -53 219 -225zM414 491c0 98 -47 129 -112 129h-48v-330c61 23 160 61 160 201zM219 759l89 132h111l-121 -132h-79z" />
    <glyph glyph-name="Rcaron" unicode="&#x158;" horiz-adv-x="509" 
d="M537 495c0 -100 -42 -168 -96 -217c52 -93 91 -190 111 -278h-121c-14 56 -43 138 -82 217c-36 -18 -71 -31 -97 -40v-177h-114v720h180c116 0 219 -53 219 -225zM414 491c0 98 -47 129 -112 129h-48v-330c61 23 160 61 160 201zM330 896h73l-88 -138h-112l-87 138h72
l70 -86z" />
    <glyph glyph-name="Rcommaaccent" unicode="&#x156;" horiz-adv-x="509" 
d="M537 495c0 -100 -42 -168 -96 -217c52 -93 91 -190 111 -278h-121c-14 56 -43 138 -82 217c-36 -18 -71 -31 -97 -40v-177h-114v720h180c116 0 219 -53 219 -225zM414 491c0 98 -47 129 -112 129h-48v-330c61 23 160 61 160 201zM294 -128c0 -42 -31 -79 -70 -102l-13 25
c20 13 37 27 42 48c0 -2 -8 -3 -10 -3c-20 0 -32 18 -32 41c0 26 16 46 40 46c25 0 43 -22 43 -55z" />
    <glyph glyph-name="Sacute" unicode="&#x15a;" horiz-adv-x="496" 
d="M240 629c-50 0 -79 -40 -79 -97c0 -169 282 -89 282 -343c0 -169 -102 -199 -216 -199c-70 0 -143 19 -194 45v102c58 -29 113 -47 185 -47c50 0 112 13 112 99c0 151 -282 82 -282 342c0 119 65 199 190 199c128 0 189 -81 189 -206v-18h-107v13c0 71 -32 110 -80 110z
M212 769l89 132h111l-121 -132h-79z" />
    <glyph glyph-name="Scaron" unicode="&#x160;" horiz-adv-x="496" 
d="M240 629c-50 0 -79 -40 -79 -97c0 -169 282 -89 282 -343c0 -169 -102 -199 -216 -199c-70 0 -143 19 -194 45v102c58 -29 113 -47 185 -47c50 0 112 13 112 99c0 151 -282 82 -282 342c0 119 65 199 190 199c128 0 189 -81 189 -206v-18h-107v13c0 71 -32 110 -80 110z
M322 906h73l-88 -138h-112l-87 138h72l70 -86z" />
    <glyph glyph-name="Scedilla" unicode="&#x15e;" horiz-adv-x="496" 
d="M240 629c-50 0 -79 -40 -79 -97c0 -169 282 -89 282 -343c0 -156 -87 -193 -189 -198l-9 -42c1 1 9 1 18 1c54 0 76 -39 76 -83c0 -63 -41 -91 -98 -91c-21 0 -54 6 -75 16v51c17 -9 39 -16 60 -16c27 0 42 18 42 41c0 18 -13 36 -45 36c-12 0 -25 -1 -40 -4l19 91
c-62 4 -124 21 -169 44v102c58 -29 113 -47 185 -47c50 0 112 13 112 99c0 151 -282 82 -282 342c0 119 65 199 190 199c128 0 189 -81 189 -206v-18h-107v13c0 71 -32 110 -80 110z" />
    <glyph glyph-name="Scircumflex" unicode="&#x15c;" horiz-adv-x="496" 
d="M240 629c-50 0 -79 -40 -79 -97c0 -169 282 -89 282 -343c0 -169 -102 -199 -216 -199c-70 0 -143 19 -194 45v102c58 -29 113 -47 185 -47c50 0 112 13 112 99c0 151 -282 82 -282 342c0 119 65 199 190 199c128 0 189 -81 189 -206v-18h-107v13c0 71 -32 110 -80 110z
M395 770h-73l-72 86l-70 -86h-72l86 138h112z" />
    <glyph glyph-name="Scommaaccent" unicode="&#x218;" horiz-adv-x="496" 
d="M240 629c-50 0 -79 -40 -79 -97c0 -169 282 -89 282 -343c0 -169 -102 -199 -216 -199c-70 0 -143 19 -194 45v102c58 -29 113 -47 185 -47c50 0 112 13 112 99c0 151 -282 82 -282 342c0 119 65 199 190 199c128 0 189 -81 189 -206v-18h-107v13c0 71 -32 110 -80 110z
" />
    <glyph glyph-name="Tbar" unicode="&#x166;" 
d="M11 614v106h423v-106h-154v-206h80v-99h-80v-309h-114v309h-48v99h48v206h-155z" />
    <glyph glyph-name="Tcaron" unicode="&#x164;" horiz-adv-x="475" 
d="M9 614v106h423v-106h-154v-614h-114v614h-155zM310 896h73l-88 -138h-112l-87 138h72l70 -86z" />
    <glyph glyph-name="Tcommaaccent" unicode="&#x162;" horiz-adv-x="475" 
d="M9 614v106h423v-106h-154v-614h-114v614h-155zM280 -128c0 -42 -31 -79 -70 -102l-13 25c20 13 37 27 42 48c0 -2 -7 -3 -10 -3c-20 0 -32 18 -32 41c0 26 16 46 40 46c25 0 43 -22 43 -55z" />
    <glyph glyph-name="Ubreve" unicode="&#x16c;" horiz-adv-x="622" 
d="M563 720v-419c0 -210 -90 -311 -250 -311c-162 0 -254 101 -254 311v419h114v-405c0 -201 84 -220 140 -220c55 0 136 19 136 220v405h114zM311 810c27 0 42 22 42 51h64c0 -60 -30 -110 -106 -110c-75 0 -108 50 -108 110h65c0 -29 17 -51 43 -51z" />
    <glyph glyph-name="Udieresis" unicode="&#xdc;" horiz-adv-x="622" 
d="M563 720v-419c0 -210 -90 -311 -250 -311c-162 0 -254 101 -254 311v419h114v-405c0 -201 84 -220 140 -220c55 0 136 19 136 220v405h114zM447 821c0 -35 -26 -62 -58 -62c-30 0 -56 27 -56 62s26 62 56 62c32 0 58 -27 58 -62zM286 821c0 -35 -25 -62 -57 -62
c-31 0 -56 27 -56 62s25 62 56 62c32 0 57 -27 57 -62z" />
    <glyph glyph-name="Uhungarumlaut" unicode="&#x170;" horiz-adv-x="622" 
d="M563 720v-419c0 -210 -90 -311 -250 -311c-162 0 -254 101 -254 311v419h114v-405c0 -201 84 -220 140 -220c55 0 136 19 136 220v405h114zM196 759l75 136h111l-109 -136h-77zM346 759l75 136h110l-108 -136h-77z" />
    <glyph glyph-name="Umacron" unicode="&#x16a;" horiz-adv-x="622" 
d="M563 720v-419c0 -210 -90 -311 -250 -311c-162 0 -254 101 -254 311v419h114v-405c0 -201 84 -220 140 -220c55 0 136 19 136 220v405h114zM415 763h-207v82h207v-82z" />
    <glyph glyph-name="Uogonek" unicode="&#x172;" horiz-adv-x="622" 
d="M334 -146c14 0 40 6 53 14v-45c-17 -14 -42 -23 -79 -23c-71 0 -102 38 -102 86c0 42 21 78 66 106c-137 16 -213 117 -213 309v419h114v-405c0 -201 84 -220 140 -220c55 0 136 19 136 220v405h114v-419c0 -205 -86 -306 -238 -311c-25 -24 -38 -54 -38 -81
c0 -34 18 -55 47 -55z" />
    <glyph glyph-name="Uring" unicode="&#x16e;" horiz-adv-x="622" 
d="M563 720v-419c0 -210 -90 -311 -250 -311c-162 0 -254 101 -254 311v419h114v-405c0 -201 84 -220 140 -220c55 0 136 19 136 220v405h114zM311 685c-73 0 -105 46 -105 103s32 104 105 104c75 0 103 -47 103 -104s-28 -103 -103 -103zM311 744c29 0 40 20 40 44
c0 26 -11 45 -40 45c-28 0 -40 -19 -40 -45c0 -24 12 -44 40 -44z" />
    <glyph glyph-name="Utilde" unicode="&#x168;" horiz-adv-x="622" 
d="M563 720v-419c0 -210 -90 -311 -250 -311c-162 0 -254 101 -254 311v419h114v-405c0 -201 84 -220 140 -220c55 0 136 19 136 220v405h114zM359 762c-51 0 -63 55 -90 55c-13 0 -26 -13 -26 -49h-56c0 68 27 116 85 116c52 0 62 -55 91 -55c16 0 26 19 26 49h57
c0 -80 -33 -116 -87 -116z" />
    <glyph glyph-name="Wacute" unicode="&#x1e82;" horiz-adv-x="834" 
d="M636 0h-99c-55 145 -93 290 -119 436c-27 -146 -64 -291 -118 -436h-100c-90 240 -150 480 -175 720h113c16 -178 54 -398 112 -583c58 185 95 405 111 583h113c16 -178 55 -398 112 -583c58 185 96 405 111 583h113c-25 -240 -84 -480 -174 -720zM376 756l89 132h111
l-121 -132h-79z" />
    <glyph glyph-name="Wcircumflex" unicode="&#x174;" horiz-adv-x="834" 
d="M636 0h-99c-55 145 -93 290 -119 436c-27 -146 -64 -291 -118 -436h-100c-90 240 -150 480 -175 720h113c16 -178 54 -398 112 -583c58 185 95 405 111 583h113c16 -178 55 -398 112 -583c58 185 96 405 111 583h113c-25 -240 -84 -480 -174 -720zM559 757h-73l-72 86
l-70 -86h-72l86 138h112z" />
    <glyph glyph-name="Yacute" unicode="&#xdd;" horiz-adv-x="534" 
d="M209 0v241c-105 163 -164 316 -191 479h115c18 -118 61 -252 134 -374c72 122 115 256 133 374h114c-26 -163 -86 -316 -190 -479v-241h-115zM228 759l89 132h111l-121 -132h-79z" />
    <glyph glyph-name="Ycircumflex" unicode="&#x176;" horiz-adv-x="534" 
d="M209 0v241c-105 163 -164 316 -191 479h115c18 -118 61 -252 134 -374c72 122 115 256 133 374h114c-26 -163 -86 -316 -190 -479v-241h-115zM412 760h-73l-72 86l-70 -86h-72l86 138h112z" />
    <glyph glyph-name="Ydieresis" unicode="&#x178;" horiz-adv-x="534" 
d="M209 0v241c-105 163 -164 316 -191 479h115c18 -118 61 -252 134 -374c72 122 115 256 133 374h114c-26 -163 -86 -316 -190 -479v-241h-115zM403 821c0 -35 -26 -62 -58 -62c-30 0 -56 27 -56 62s26 62 56 62c32 0 58 -27 58 -62zM242 821c0 -35 -25 -62 -57 -62
c-31 0 -56 27 -56 62s25 62 56 62c32 0 57 -27 57 -62z" />
    <glyph glyph-name="Ygrave" unicode="&#x1ef2;" horiz-adv-x="534" 
d="M209 0v241c-105 163 -164 316 -191 479h115c18 -118 61 -252 134 -374c72 122 115 256 133 374h114c-26 -163 -86 -316 -190 -479v-241h-115zM311 759h-77l-112 133h113z" />
    <glyph glyph-name="Zacute" unicode="&#x179;" horiz-adv-x="477" 
d="M44 619v102h385v-60c0 -76 -87 -382 -268 -555h285v-106h-417v106c199 199 265 458 281 513h-266zM205 760l89 132h111l-121 -132h-79z" />
    <glyph glyph-name="Zcaron" unicode="&#x17d;" horiz-adv-x="477" 
d="M44 619v102h385v-60c0 -76 -87 -382 -268 -555h285v-106h-417v106c199 199 265 458 281 513h-266zM315 897h73l-88 -138h-112l-87 138h72l70 -86z" />
    <glyph glyph-name="Zdotaccent" unicode="&#x17b;" horiz-adv-x="477" 
d="M44 619v102h385v-60c0 -76 -87 -382 -268 -555h285v-106h-417v106c199 199 265 458 281 513h-266zM291 884c0 -35 -25 -60 -58 -60c-31 0 -56 25 -56 60s25 60 56 60c33 0 58 -25 58 -60z" />
    <glyph glyph-name="aacute" unicode="&#xe1;" horiz-adv-x="445" 
d="M181 268c38 0 77 -4 103 -14v35c0 83 -14 123 -104 123c-38 0 -85 -10 -125 -22v96c47 15 96 24 145 24c143 0 198 -60 198 -188v-322h-97l-8 37c-31 -29 -77 -47 -127 -47c-99 0 -141 51 -141 135c0 78 39 143 156 143zM202 68c37 0 65 13 82 36v83c-19 8 -42 9 -63 9
c-44 0 -78 -14 -78 -65c0 -44 21 -63 59 -63zM176 569l89 132h111l-121 -132h-79z" />
    <glyph glyph-name="abreve" unicode="&#x103;" horiz-adv-x="445" 
d="M181 268c38 0 77 -4 103 -14v35c0 83 -14 123 -104 123c-38 0 -85 -10 -125 -22v96c47 15 96 24 145 24c143 0 198 -60 198 -188v-322h-97l-8 37c-31 -29 -77 -47 -127 -47c-99 0 -141 51 -141 135c0 78 39 143 156 143zM215 620c27 0 42 22 42 51h64
c0 -60 -30 -110 -106 -110c-75 0 -108 50 -108 110h65c0 -29 17 -51 43 -51zM202 68c37 0 65 13 82 36v83c-19 8 -42 9 -63 9c-44 0 -78 -14 -78 -65c0 -44 21 -63 59 -63z" />
    <glyph glyph-name="acircumflex" unicode="&#xe2;" horiz-adv-x="445" 
d="M181 268c38 0 77 -4 103 -14v35c0 83 -14 123 -104 123c-38 0 -85 -10 -125 -22v96c47 15 96 24 145 24c143 0 198 -60 198 -188v-322h-97l-8 37c-31 -29 -77 -47 -127 -47c-99 0 -141 51 -141 135c0 78 39 143 156 143zM359 570h-73l-72 86l-70 -86h-72l86 138h112z
M202 68c37 0 65 13 82 36v83c-19 8 -42 9 -63 9c-44 0 -78 -14 -78 -65c0 -44 21 -63 59 -63z" />
    <glyph glyph-name="adieresis" unicode="&#xe4;" horiz-adv-x="445" 
d="M181 268c38 0 77 -4 103 -14v35c0 83 -14 123 -104 123c-38 0 -85 -10 -125 -22v96c47 15 96 24 145 24c143 0 198 -60 198 -188v-322h-97l-8 37c-31 -29 -77 -47 -127 -47c-99 0 -141 51 -141 135c0 78 39 143 156 143zM202 68c37 0 65 13 82 36v83c-19 8 -42 9 -63 9
c-44 0 -78 -14 -78 -65c0 -44 21 -63 59 -63zM350 630c0 -35 -26 -62 -58 -62c-30 0 -56 27 -56 62s26 62 56 62c32 0 58 -27 58 -62zM189 630c0 -35 -25 -62 -57 -62c-31 0 -56 27 -56 62s25 62 56 62c32 0 57 -27 57 -62z" />
    <glyph glyph-name="agrave" unicode="&#xe0;" horiz-adv-x="445" 
d="M181 268c38 0 77 -4 103 -14v35c0 83 -14 123 -104 123c-38 0 -85 -10 -125 -22v96c47 15 96 24 145 24c143 0 198 -60 198 -188v-322h-97l-8 37c-31 -29 -77 -47 -127 -47c-99 0 -141 51 -141 135c0 78 39 143 156 143zM202 68c37 0 65 13 82 36v83c-19 8 -42 9 -63 9
c-44 0 -78 -14 -78 -65c0 -44 21 -63 59 -63zM258 569h-77l-112 133h113z" />
    <glyph glyph-name="amacron" unicode="&#x101;" horiz-adv-x="445" 
d="M181 268c38 0 77 -4 103 -14v35c0 83 -14 123 -104 123c-38 0 -85 -10 -125 -22v96c47 15 96 24 145 24c143 0 198 -60 198 -188v-322h-97l-8 37c-31 -29 -77 -47 -127 -47c-99 0 -141 51 -141 135c0 78 39 143 156 143zM318 573h-207v82h207v-82zM202 68
c37 0 65 13 82 36v83c-19 8 -42 9 -63 9c-44 0 -78 -14 -78 -65c0 -44 21 -63 59 -63z" />
    <glyph glyph-name="aogonek" unicode="&#x105;" horiz-adv-x="445" 
d="M370 -141c14 0 40 6 53 14v-45c-17 -14 -42 -23 -79 -23c-71 0 -102 38 -102 86c0 44 22 81 70 109h-11l-8 37c-31 -29 -77 -47 -127 -47c-99 0 -141 51 -141 135c0 78 39 143 156 143c38 0 77 -4 103 -14v35c0 83 -14 123 -104 123c-38 0 -85 -10 -125 -22v96
c47 15 96 24 145 24c143 0 198 -60 198 -188v-322h-32c-28 -24 -43 -58 -43 -86c0 -34 18 -55 47 -55zM202 68c37 0 65 13 82 36v83c-19 8 -42 9 -63 9c-44 0 -78 -14 -78 -65c0 -44 21 -63 59 -63z" />
    <glyph glyph-name="aring" unicode="&#xe5;" horiz-adv-x="445" 
d="M181 268c38 0 77 -4 103 -14v35c0 83 -14 123 -104 123c-38 0 -85 -10 -125 -22v96c47 15 96 24 145 24c143 0 198 -60 198 -188v-322h-97l-8 37c-31 -29 -77 -47 -127 -47c-99 0 -141 51 -141 135c0 78 39 143 156 143zM227 560c-74 0 -106 46 -106 103
c0 56 32 103 106 103s103 -47 103 -103c0 -57 -29 -103 -103 -103zM202 68c37 0 65 13 82 36v83c-19 8 -42 9 -63 9c-44 0 -78 -14 -78 -65c0 -44 21 -63 59 -63zM227 619c25 0 34 19 34 44c0 24 -9 43 -34 43s-36 -19 -36 -43s11 -44 36 -44z" />
    <glyph glyph-name="atilde" unicode="&#xe3;" horiz-adv-x="445" 
d="M181 268c38 0 77 -4 103 -14v35c0 83 -14 123 -104 123c-38 0 -85 -10 -125 -22v96c47 15 96 24 145 24c143 0 198 -60 198 -188v-322h-97l-8 37c-31 -29 -77 -47 -127 -47c-99 0 -141 51 -141 135c0 78 39 143 156 143zM262 572c-51 0 -63 55 -90 55
c-13 0 -26 -13 -26 -49h-56c0 68 27 116 85 116c52 0 62 -55 91 -55c16 0 26 19 26 49h57c0 -80 -33 -116 -87 -116zM202 68c37 0 65 13 82 36v83c-19 8 -42 9 -63 9c-44 0 -78 -14 -78 -65c0 -44 21 -63 59 -63z" />
    <glyph glyph-name="aeacute" unicode="&#x1fd;" horiz-adv-x="705" 
d="M177 268c44 0 85 -10 109 -21v12c0 12 0 25 1 36c-1 79 -14 117 -101 117c-40 0 -91 -10 -131 -22v96c57 14 95 24 150 24c68 0 113 -17 143 -48c31 32 75 48 130 48c127 0 188 -82 188 -240v-51h-263c8 -92 44 -131 137 -131c40 0 88 7 129 17v-96
c-53 -12 -111 -19 -154 -19c-73 0 -129 20 -167 61c-44 -37 -101 -61 -178 -61c-102 0 -145 56 -145 135c0 66 34 143 152 143zM207 62c45 0 82 23 102 53c-8 21 -14 44 -18 70c-22 12 -51 15 -71 15c-47 0 -77 -21 -77 -71c0 -44 21 -67 64 -67zM481 420
c-44 0 -74 -31 -79 -128h153v13c0 82 -30 115 -74 115zM243 594l89 132h111l-121 -132h-79z" />
    <glyph glyph-name="cacute" unicode="&#x107;" horiz-adv-x="449" 
d="M403 289h-100v22c0 61 -24 104 -74 104c-48 0 -81 -43 -81 -150c0 -125 53 -181 149 -181c34 0 74 5 108 12v-90c-43 -10 -103 -16 -135 -16c-148 0 -238 88 -238 276c0 171 84 244 196 244c117 0 175 -71 175 -195v-26zM187 569l89 132h111l-121 -132h-79z" />
    <glyph glyph-name="ccaron" unicode="&#x10d;" horiz-adv-x="449" 
d="M403 289h-100v22c0 61 -24 104 -74 104c-48 0 -81 -43 -81 -150c0 -125 53 -181 149 -181c34 0 74 5 108 12v-90c-43 -10 -103 -16 -135 -16c-148 0 -238 88 -238 276c0 171 84 244 196 244c117 0 175 -71 175 -195v-26zM298 706h73l-88 -138h-112l-87 138h72l70 -86z
" />
    <glyph glyph-name="ccircumflex" unicode="&#x109;" horiz-adv-x="449" 
d="M403 289h-100v22c0 61 -24 104 -74 104c-48 0 -81 -43 -81 -150c0 -125 53 -181 149 -181c34 0 74 5 108 12v-90c-43 -10 -103 -16 -135 -16c-148 0 -238 88 -238 276c0 171 84 244 196 244c117 0 175 -71 175 -195v-26zM371 570h-73l-72 86l-70 -86h-72l86 138h112z" />
    <glyph glyph-name="cdotaccent" unicode="&#x10b;" horiz-adv-x="449" 
d="M403 289h-100v22c0 61 -24 104 -74 104c-48 0 -81 -43 -81 -150c0 -125 53 -181 149 -181c34 0 74 5 108 12v-90c-43 -10 -103 -16 -135 -16c-148 0 -238 88 -238 276c0 171 84 244 196 244c117 0 175 -71 175 -195v-26zM278 664c0 -35 -25 -60 -58 -60
c-31 0 -56 25 -56 60s25 60 56 60c33 0 58 -25 58 -60z" />
    <glyph glyph-name="dcaron" unicode="&#x10f;" horiz-adv-x="567" 
d="M205 510c54 0 88 -31 109 -59v299h114v-750h-98l-9 66c-32 -53 -76 -76 -124 -76c-105 0 -164 109 -164 255c0 131 47 265 172 265zM231 93c42 0 66 30 83 89v175c-19 41 -48 56 -75 56c-57 0 -91 -71 -91 -167c0 -92 28 -153 83 -153zM600 643c0 -64 -48 -119 -110 -154
l-20 39c34 22 58 42 64 69c-3 -2 -9 -4 -16 -4c-32 0 -53 28 -53 63c0 41 26 73 66 73c41 0 69 -35 69 -86z" />
    <glyph glyph-name="dcroat" unicode="&#x111;" horiz-adv-x="481" 
d="M472 584h-44v-584h-98l-9 66c-32 -53 -76 -76 -124 -76c-105 0 -164 109 -164 255c0 131 47 265 172 265c54 0 88 -31 109 -59v133h-79v97h79v69h114v-69h44v-97zM231 93c42 0 66 30 83 89v175c-19 41 -48 56 -75 56c-57 0 -91 -71 -91 -167c0 -92 28 -153 83 -153z" />
    <glyph glyph-name="eacute" unicode="&#xe9;" horiz-adv-x="452" 
d="M413 219h-263c8 -92 44 -131 137 -131c40 0 88 7 129 17v-96c-53 -12 -111 -19 -154 -19c-149 0 -229 83 -229 269c0 169 66 251 192 251c127 0 188 -82 188 -240v-51zM228 420c-44 0 -74 -31 -79 -128h153v13c0 82 -30 115 -74 115zM188 569l89 132h111l-121 -132h-79z
" />
    <glyph glyph-name="ebreve" unicode="&#x115;" horiz-adv-x="452" 
d="M413 219h-263c8 -92 44 -131 137 -131c40 0 88 7 129 17v-96c-53 -12 -111 -19 -154 -19c-149 0 -229 83 -229 269c0 169 66 251 192 251c127 0 188 -82 188 -240v-51zM228 420c-44 0 -74 -31 -79 -128h153v13c0 82 -30 115 -74 115zM227 620c27 0 42 22 42 51h64
c0 -60 -30 -110 -106 -110c-75 0 -108 50 -108 110h65c0 -29 17 -51 43 -51z" />
    <glyph glyph-name="ecaron" unicode="&#x11b;" horiz-adv-x="452" 
d="M413 219h-263c8 -92 44 -131 137 -131c40 0 88 7 129 17v-96c-53 -12 -111 -19 -154 -19c-149 0 -229 83 -229 269c0 169 66 251 192 251c127 0 188 -82 188 -240v-51zM299 706h73l-88 -138h-112l-87 138h72l70 -86zM228 420c-44 0 -74 -31 -79 -128h153v13
c0 82 -30 115 -74 115z" />
    <glyph glyph-name="ecircumflex" unicode="&#xea;" horiz-adv-x="452" 
d="M413 219h-263c8 -92 44 -131 137 -131c40 0 88 7 129 17v-96c-53 -12 -111 -19 -154 -19c-149 0 -229 83 -229 269c0 169 66 251 192 251c127 0 188 -82 188 -240v-51zM372 570h-73l-72 86l-70 -86h-72l86 138h112zM228 420c-44 0 -74 -31 -79 -128h153v13
c0 82 -30 115 -74 115z" />
    <glyph glyph-name="edieresis" unicode="&#xeb;" horiz-adv-x="452" 
d="M413 219h-263c8 -92 44 -131 137 -131c40 0 88 7 129 17v-96c-53 -12 -111 -19 -154 -19c-149 0 -229 83 -229 269c0 169 66 251 192 251c127 0 188 -82 188 -240v-51zM228 420c-44 0 -74 -31 -79 -128h153v13c0 82 -30 115 -74 115zM363 630c0 -35 -26 -62 -58 -62
c-30 0 -56 27 -56 62s26 62 56 62c32 0 58 -27 58 -62zM202 630c0 -35 -25 -62 -57 -62c-31 0 -56 27 -56 62s25 62 56 62c32 0 57 -27 57 -62z" />
    <glyph glyph-name="edotaccent" unicode="&#x117;" horiz-adv-x="452" 
d="M413 219h-263c8 -92 44 -131 137 -131c40 0 88 7 129 17v-96c-53 -12 -111 -19 -154 -19c-149 0 -229 83 -229 269c0 169 66 251 192 251c127 0 188 -82 188 -240v-51zM228 420c-44 0 -74 -31 -79 -128h153v13c0 82 -30 115 -74 115zM276 664c0 -35 -25 -60 -58 -60
c-31 0 -56 25 -56 60s25 60 56 60c33 0 58 -25 58 -60z" />
    <glyph glyph-name="egrave" unicode="&#xe8;" horiz-adv-x="452" 
d="M413 219h-263c8 -92 44 -131 137 -131c40 0 88 7 129 17v-96c-53 -12 -111 -19 -154 -19c-149 0 -229 83 -229 269c0 169 66 251 192 251c127 0 188 -82 188 -240v-51zM228 420c-44 0 -74 -31 -79 -128h153v13c0 82 -30 115 -74 115zM271 569h-77l-112 133h113z" />
    <glyph glyph-name="emacron" unicode="&#x113;" horiz-adv-x="452" 
d="M413 219h-263c8 -92 44 -131 137 -131c40 0 88 7 129 17v-96c-53 -12 -111 -19 -154 -19c-149 0 -229 83 -229 269c0 169 66 251 192 251c127 0 188 -82 188 -240v-51zM330 573h-207v82h207v-82zM228 420c-44 0 -74 -31 -79 -128h153v13c0 82 -30 115 -74 115z" />
    <glyph glyph-name="eogonek" unicode="&#x119;" horiz-adv-x="452" 
d="M290 -137c14 0 40 6 53 14v-45c-17 -14 -42 -23 -79 -23c-71 0 -102 38 -102 86c0 38 17 72 54 98c-120 16 -183 100 -183 266c0 169 66 251 192 251c127 0 188 -82 188 -240v-51h-263c8 -92 44 -131 137 -131c40 0 88 7 129 17v-96c-49 -11 -102 -18 -144 -19
c-19 -22 -29 -49 -29 -72c0 -34 18 -55 47 -55zM228 420c-44 0 -74 -31 -79 -128h153v13c0 82 -30 115 -74 115z" />
    <glyph glyph-name="ffi" unicode="&#xfb03;" horiz-adv-x="757" 
d="M338 0v405h-139v-405h-114v405h-68v95h68v14c0 138 54 207 170 207c46 0 82 -10 114 -29c26 39 71 58 149 58c50 0 97 -9 132 -24v-96c-22 13 -65 22 -106 22c-79 0 -92 -42 -92 -118v-34h253v-500h-113v405h-140v-405h-114zM199 514v-14h139v34c0 26 1 50 4 72
c-17 12 -39 17 -66 17c-66 0 -77 -42 -77 -109z" />
    <glyph glyph-name="dotlessi" unicode="&#x131;" horiz-adv-x="217" 
d="M52 0v500h113v-500h-113z" />
    <glyph glyph-name="dotlessj" unicode="&#x237;" horiz-adv-x="218" 
d="M166 500v-521c0 -112 -34 -182 -128 -182c-40 0 -61 5 -83 14v90c11 -5 26 -10 46 -10c43 0 51 41 51 93v516h114z" />
    <glyph glyph-name="gbreve" unicode="&#x11f;" horiz-adv-x="479" 
d="M314 -12v64c-31 -43 -73 -62 -117 -62c-104 0 -164 109 -164 255c0 131 47 265 172 265c55 0 88 -31 109 -58v48h114v-484c0 -143 -48 -252 -206 -252c-60 0 -125 17 -178 39v96c60 -24 116 -36 162 -36c76 0 108 46 108 125zM231 93c42 0 67 30 83 89v175
c-19 41 -48 56 -75 56c-56 0 -90 -71 -90 -167c0 -92 27 -153 82 -153zM234 620c27 0 42 22 42 51h64c0 -60 -30 -110 -106 -110c-75 0 -108 50 -108 110h65c0 -29 17 -51 43 -51z" />
    <glyph glyph-name="gcircumflex" unicode="&#x11d;" horiz-adv-x="479" 
d="M313 -12v64c-31 -43 -73 -62 -117 -62c-104 0 -164 109 -164 255c0 131 48 265 173 265c53 0 87 -30 108 -57v47h114v-484c0 -143 -47 -252 -206 -252c-60 0 -124 17 -178 39v96c60 -24 116 -36 162 -36c76 0 108 46 108 125zM230 93c43 0 67 30 83 89v175
c-19 41 -48 56 -74 56c-57 0 -91 -71 -91 -167c0 -92 27 -153 82 -153zM378 570h-73l-72 86l-70 -86h-72l86 138h112z" />
    <glyph glyph-name="gcommaaccent" unicode="&#x123;" horiz-adv-x="479" 
d="M313 -12v64c-31 -43 -73 -62 -117 -62c-104 0 -164 109 -164 255c0 131 48 265 173 265c53 0 87 -30 108 -57v47h114v-484c0 -143 -47 -252 -206 -252c-60 0 -124 17 -178 39v96c60 -24 116 -36 162 -36c76 0 108 46 108 125zM230 93c43 0 67 30 83 89v175
c-19 41 -48 56 -74 56c-57 0 -91 -71 -91 -167c0 -92 27 -153 82 -153zM305 646c0 57 42 106 97 138l18 -35c-31 -20 -52 -38 -58 -63c2 3 9 4 14 4c29 0 47 -25 47 -56c0 -36 -23 -64 -58 -64c-36 0 -60 31 -60 76z" />
    <glyph glyph-name="gdotaccent" unicode="&#x121;" horiz-adv-x="479" 
d="M313 -12v64c-31 -43 -73 -62 -117 -62c-104 0 -164 109 -164 255c0 131 48 265 173 265c53 0 87 -30 108 -57v47h114v-484c0 -143 -47 -252 -206 -252c-60 0 -124 17 -178 39v96c60 -24 116 -36 162 -36c76 0 108 46 108 125zM230 93c43 0 67 30 83 89v175
c-19 41 -48 56 -74 56c-57 0 -91 -71 -91 -167c0 -92 27 -153 82 -153zM288 664c0 -35 -25 -60 -58 -60c-31 0 -56 25 -56 60s25 60 56 60c33 0 58 -25 58 -60z" />
    <glyph glyph-name="hbar" unicode="&#x127;" horiz-adv-x="479" 
d="M52 0v595h-48v82h48v73h113v-73h106v-82h-106v-132c30 23 81 47 126 47c113 0 139 -97 139 -176v-334h-112v296c0 66 -18 112 -72 112c-31 0 -60 -20 -81 -31v-377h-113z" />
    <glyph glyph-name="hcircumflex" unicode="&#x125;" horiz-adv-x="479" 
d="M52 0v750h113v-287c30 23 81 47 126 47c113 0 139 -97 139 -176v-334h-112v296c0 66 -18 112 -72 112c-31 0 -60 -20 -81 -31v-377h-113zM257 779h-73l-72 86l-70 -86h-72l86 138h112z" />
    <glyph glyph-name="iacute" unicode="&#xed;" horiz-adv-x="217" 
d="M52 0v500h113v-500h-113zM68 592l89 132h111l-121 -132h-79z" />
    <glyph glyph-name="ibreve" unicode="&#x12d;" horiz-adv-x="217" 
d="M52 0v500h113v-500h-113zM107 643c27 0 42 22 42 51h64c0 -60 -30 -110 -106 -110c-75 0 -108 50 -108 110h65c0 -29 17 -51 43 -51z" />
    <glyph glyph-name="icircumflex" unicode="&#xee;" horiz-adv-x="217" 
d="M52 0v500h113v-500h-113zM252 593h-73l-72 86l-70 -86h-72l86 138h112z" />
    <glyph glyph-name="idieresis" unicode="&#xef;" horiz-adv-x="217" 
d="M52 0v500h113v-500h-113zM243 654c0 -35 -26 -62 -58 -62c-30 0 -56 27 -56 62s26 62 56 62c32 0 58 -27 58 -62zM82 654c0 -35 -25 -62 -57 -62c-31 0 -56 27 -56 62s25 62 56 62c32 0 57 -27 57 -62z" />
    <glyph glyph-name="igrave" unicode="&#xec;" horiz-adv-x="217" 
d="M52 0v500h113v-500h-113zM151 592h-77l-112 133h113z" />
    <glyph glyph-name="imacron" unicode="&#x12b;" horiz-adv-x="217" 
d="M52 0v500h113v-500h-113zM210 596h-207v82h207v-82z" />
    <glyph glyph-name="iogonek" unicode="&#x12f;" horiz-adv-x="216" 
d="M51 0v500h113v-500h-34c-34 -25 -52 -62 -52 -93c0 -34 18 -55 47 -55c14 0 40 6 53 14v-45c-17 -14 -42 -23 -79 -23c-71 0 -102 38 -102 86c0 47 26 88 83 116h-29zM44 648c0 36 27 66 63 66s64 -28 64 -66c0 -37 -28 -65 -64 -65s-63 31 -63 65z" />
    <glyph glyph-name="itilde" unicode="&#x129;" horiz-adv-x="217" 
d="M52 0v500h113v-500h-113zM154 595c-51 0 -63 55 -90 55c-13 0 -26 -13 -26 -49h-56c0 68 27 116 85 116c52 0 62 -55 91 -55c16 0 26 19 26 49h57c0 -80 -33 -116 -87 -116z" />
    <glyph glyph-name="ij" unicode="&#x133;" horiz-adv-x="434" 
d="M51 0v500h113v-500h-113zM44 648c0 36 27 66 63 66s64 -28 64 -66c0 -37 -28 -65 -64 -65s-63 31 -63 65zM383 500v-537c0 -102 -33 -172 -128 -172c-40 0 -61 4 -83 13v96c11 -5 26 -9 46 -9c43 0 51 37 51 84v525h114zM390 648c0 -38 -29 -66 -64 -66
c-37 0 -63 31 -63 66s26 65 63 65c35 0 64 -28 64 -65z" />
    <glyph glyph-name="jcircumflex" unicode="&#x135;" horiz-adv-x="218" 
d="M166 500v-521c0 -112 -34 -182 -128 -182c-40 0 -61 5 -83 14v90c11 -5 26 -10 46 -10c43 0 51 41 51 93v516h114zM250 564h-73l-72 86l-70 -86h-72l86 138h112z" />
    <glyph glyph-name="kcommaaccent" unicode="&#x137;" horiz-adv-x="473" 
d="M467 0h-133l-169 244v-244h-113v750h113v-442c103 23 138 103 146 192h116c-4 -108 -50 -210 -143 -235zM273 -128c0 -42 -31 -79 -70 -102l-13 25c20 13 37 27 42 48c0 -2 -7 -3 -10 -3c-20 0 -32 18 -32 41c0 26 16 46 40 46c25 0 43 -22 43 -55z" />
    <glyph glyph-name="lacute" unicode="&#x13a;" horiz-adv-x="221" 
d="M54 0v750h113v-750h-113zM85 809l89 132h111l-121 -132h-79z" />
    <glyph glyph-name="lcaron" unicode="&#x13e;" horiz-adv-x="304" 
d="M51 0v750h113v-750h-113zM337 643c0 -64 -48 -119 -110 -154l-20 39c34 22 58 42 64 69c-3 -2 -9 -4 -16 -4c-32 0 -53 28 -53 63c0 41 26 73 66 73c41 0 69 -35 69 -86z" />
    <glyph glyph-name="lcommaaccent" unicode="&#x13c;" horiz-adv-x="221" 
d="M54 0v750h113v-750h-113zM154 -128c0 -42 -31 -79 -70 -102l-13 25c20 13 37 27 42 48c0 -2 -7 -3 -10 -3c-20 0 -32 18 -32 41c0 26 16 46 40 46c25 0 43 -22 43 -55z" />
    <glyph glyph-name="ldot" unicode="&#x140;" horiz-adv-x="348" 
d="M54 0v750h113v-750h-113zM221 254c0 35 26 66 64 66s67 -29 67 -66c0 -39 -29 -68 -67 -68s-64 32 -64 68z" />
    <glyph glyph-name="lslash" unicode="&#x142;" horiz-adv-x="288" 
d="M95 0v261l-67 -61v119l67 61v370h113v-266l65 60v-119l-65 -60v-365h-113z" />
    <glyph glyph-name="nacute" unicode="&#x144;" horiz-adv-x="479" 
d="M52 0v500h113v-37c30 23 81 47 126 47c113 0 139 -97 139 -176v-334h-112v296c0 66 -18 112 -72 112c-31 0 -60 -20 -81 -31v-377h-113zM212 569l89 132h111l-121 -132h-79z" />
    <glyph glyph-name="napostrophe" unicode="&#x149;" horiz-adv-x="479" 
d="M52 0v500h113v-37c30 23 81 47 126 47c113 0 139 -97 139 -176v-334h-112v296c0 66 -18 112 -72 112c-31 0 -60 -20 -81 -31v-377h-113zM155 663c0 -42 -31 -79 -70 -102l-13 25c20 13 37 27 42 48c0 -2 -7 -3 -10 -3c-20 0 -32 18 -32 41c0 26 16 46 40 46
c25 0 43 -22 43 -55z" />
    <glyph glyph-name="ncaron" unicode="&#x148;" horiz-adv-x="479" 
d="M52 0v500h113v-37c30 23 81 47 126 47c113 0 139 -97 139 -176v-334h-112v296c0 66 -18 112 -72 112c-31 0 -60 -20 -81 -31v-377h-113zM315 706h73l-88 -138h-112l-87 138h72l70 -86z" />
    <glyph glyph-name="ncommaaccent" unicode="&#x146;" horiz-adv-x="479" 
d="M52 0v500h113v-37c30 23 81 47 126 47c113 0 139 -97 139 -176v-334h-112v296c0 66 -18 112 -72 112c-31 0 -60 -20 -81 -31v-377h-113zM282 -128c0 -42 -31 -79 -70 -102l-13 25c20 13 37 27 42 48c0 -2 -7 -3 -10 -3c-20 0 -32 18 -32 41c0 26 16 46 40 46
c25 0 43 -22 43 -55z" />
    <glyph glyph-name="ntilde" unicode="&#xf1;" horiz-adv-x="479" 
d="M52 0v500h113v-37c30 23 81 47 126 47c113 0 139 -97 139 -176v-334h-112v296c0 66 -18 112 -72 112c-31 0 -60 -20 -81 -31v-377h-113zM283 572c-51 0 -63 55 -90 55c-13 0 -26 -13 -26 -49h-56c0 68 27 116 85 116c52 0 62 -55 91 -55c16 0 26 19 26 49h57
c0 -80 -33 -116 -87 -116z" />
    <glyph glyph-name="racute" unicode="&#x155;" horiz-adv-x="331" 
d="M165 0h-113v500h113v-87c27 63 73 101 112 101c20 0 34 -4 34 -4v-115c-14 5 -28 6 -43 6c-39 0 -77 -30 -103 -87v-314zM150 577l89 132h111l-121 -132h-79z" />
    <glyph glyph-name="rcaron" unicode="&#x159;" horiz-adv-x="331" 
d="M165 0h-113v500h113v-87c27 63 73 101 112 101c20 0 34 -4 34 -4v-115c-14 5 -28 6 -43 6c-39 0 -77 -30 -103 -87v-314zM260 714h73l-88 -138h-112l-87 138h72l70 -86z" />
    <glyph glyph-name="rcommaaccent" unicode="&#x157;" horiz-adv-x="331" 
d="M165 0h-113v500h113v-87c27 63 73 101 112 101c20 0 34 -4 34 -4v-115c-14 5 -28 6 -43 6c-39 0 -77 -30 -103 -87v-314zM155 -128c0 -42 -31 -79 -70 -102l-13 25c20 13 37 27 42 48c0 -2 -8 -3 -10 -3c-20 0 -32 18 -32 41c0 26 16 46 40 46c25 0 43 -22 43 -55z" />
    <glyph glyph-name="sacute" unicode="&#x15b;" horiz-adv-x="369" 
d="M325 493v-95c-38 12 -84 16 -117 16c-45 0 -62 -20 -62 -50c0 -42 47 -51 98 -73c55 -24 103 -52 103 -144c0 -119 -75 -157 -191 -157c-57 0 -91 8 -124 19v96c43 -12 89 -19 131 -19c36 0 67 14 67 63c0 41 -35 54 -81 72c-59 25 -113 54 -113 142c0 84 45 147 177 147
c32 0 66 -4 112 -17zM158 569l89 132h111l-121 -132h-79z" />
    <glyph glyph-name="scedilla" unicode="&#x15f;" horiz-adv-x="370" 
d="M325 493v-95c-38 12 -84 16 -117 16c-45 0 -62 -20 -62 -50c0 -42 47 -51 98 -73c55 -24 103 -52 103 -144c0 -106 -60 -148 -155 -156l-9 -42c1 1 9 1 18 1c54 0 76 -39 76 -83c0 -63 -41 -91 -98 -91c-21 0 -54 6 -75 16v51c17 -9 39 -16 60 -16c27 0 42 18 42 41
c0 18 -13 36 -45 36c-12 0 -25 -1 -40 -4l18 90c-47 2 -78 9 -107 19v96c43 -12 89 -19 131 -19c36 0 67 14 67 63c0 41 -35 54 -81 72c-59 25 -113 54 -113 142c0 84 45 147 177 147c32 0 66 -4 112 -17z" />
    <glyph glyph-name="scircumflex" unicode="&#x15d;" horiz-adv-x="369" 
d="M325 493v-95c-38 12 -84 16 -117 16c-45 0 -62 -20 -62 -50c0 -42 47 -51 98 -73c55 -24 103 -52 103 -144c0 -119 -75 -157 -191 -157c-57 0 -91 8 -124 19v96c43 -12 89 -19 131 -19c36 0 67 14 67 63c0 41 -35 54 -81 72c-59 25 -113 54 -113 142c0 84 45 147 177 147
c32 0 66 -4 112 -17zM342 570h-73l-72 86l-70 -86h-72l86 138h112z" />
    <glyph glyph-name="scommaaccent" unicode="&#x219;" horiz-adv-x="369" 
d="M325 493v-95c-38 12 -84 16 -117 16c-45 0 -62 -20 -62 -50c0 -42 47 -51 98 -73c55 -24 103 -52 103 -144c0 -119 -75 -157 -191 -157c-57 0 -91 8 -124 19v96c43 -12 89 -19 131 -19c36 0 67 14 67 63c0 41 -35 54 -81 72c-59 25 -113 54 -113 142c0 84 45 147 177 147
c32 0 66 -4 112 -17zM234 -128c0 -42 -31 -79 -70 -102l-13 25c20 13 37 27 42 48c0 -2 -8 -3 -10 -3c-20 0 -32 18 -32 41c0 26 16 46 40 46c25 0 43 -22 43 -55z" />
    <glyph glyph-name="s_t" unicode="&#xfb06;" horiz-adv-x="721" 
d="M325 493v-95c-38 12 -84 16 -117 16c-45 0 -62 -20 -62 -50c0 -42 47 -51 98 -73c55 -24 103 -52 103 -144c0 -119 -75 -157 -191 -157c-57 0 -91 8 -124 19v96c43 -12 89 -19 131 -19c36 0 67 14 67 63c0 41 -35 54 -81 72c-59 25 -113 54 -113 142c0 84 45 147 177 147
c32 0 66 -4 112 -17zM408 405v95h61v99l114 39v-138h111v-95h-111v-196c0 -79 10 -121 61 -121c22 0 40 5 57 12v-97c-31 -10 -57 -14 -90 -14c-96 0 -142 54 -142 218v198h-61z" />
    <glyph glyph-name="tbar" unicode="&#x167;" horiz-adv-x="331" 
d="M17 427v73h62v99l114 39v-138h109v-73h-109v-62h109v-73h-109v-83c0 -79 10 -121 61 -121c21 0 39 5 56 12v-97c-30 -10 -56 -14 -89 -14c-97 0 -142 54 -142 218v85h-62v73h62v62h-62z" />
    <glyph glyph-name="tcaron" unicode="&#x165;" horiz-adv-x="329" 
d="M16 405v95h61v99l114 39v-138h111v-95h-111v-196c0 -79 10 -121 61 -121c22 0 40 5 57 12v-97c-31 -10 -57 -14 -90 -14c-96 0 -142 54 -142 218v198h-61zM337 697c0 -48 -36 -90 -80 -117l-16 29c26 17 44 33 49 54c-2 -2 -7 -3 -12 -3c-23 0 -38 21 -38 47
c0 31 19 54 47 54c30 0 50 -26 50 -64z" />
    <glyph glyph-name="tcommaaccent" unicode="&#x163;" horiz-adv-x="329" 
d="M16 405v95h61v99l114 39v-138h111v-95h-111v-196c0 -79 10 -121 61 -121c22 0 40 5 57 12v-97c-31 -10 -57 -14 -90 -14c-96 0 -142 54 -142 218v198h-61zM213 -128c0 -42 -31 -79 -70 -102l-13 25c20 13 37 27 42 48c0 -2 -8 -3 -10 -3c-20 0 -32 18 -32 41
c0 26 16 46 40 46c25 0 43 -22 43 -55z" />
    <glyph glyph-name="uacute" unicode="&#xfa;" 
d="M426 500v-500h-96l-11 48c-31 -30 -74 -59 -129 -59c-80 0 -142 50 -142 182v329h113v-297c0 -95 37 -110 65 -110c32 0 61 14 88 41v366h112zM201 559l89 132h111l-121 -132h-79z" />
    <glyph glyph-name="ubreve" unicode="&#x16d;" 
d="M426 500v-500h-96l-11 48c-31 -30 -74 -59 -129 -59c-80 0 -142 50 -142 182v329h113v-297c0 -95 37 -110 65 -110c32 0 61 14 88 41v366h112zM240 610c27 0 42 22 42 51h64c0 -60 -30 -110 -106 -110c-75 0 -108 50 -108 110h65c0 -29 17 -51 43 -51z" />
    <glyph glyph-name="ucircumflex" unicode="&#xfb;" 
d="M426 500v-500h-96l-11 48c-31 -30 -74 -59 -129 -59c-80 0 -142 50 -142 182v329h113v-297c0 -95 37 -110 65 -110c32 0 61 14 88 41v366h112zM384 560h-73l-72 86l-70 -86h-72l86 138h112z" />
    <glyph glyph-name="udieresis" unicode="&#xfc;" 
d="M426 500v-500h-96l-11 48c-31 -30 -74 -59 -129 -59c-80 0 -142 50 -142 182v329h113v-297c0 -95 37 -110 65 -110c32 0 61 14 88 41v366h112zM376 621c0 -35 -26 -62 -58 -62c-30 0 -56 27 -56 62s26 62 56 62c32 0 58 -27 58 -62zM215 621c0 -35 -25 -62 -57 -62
c-31 0 -56 27 -56 62s25 62 56 62c32 0 57 -27 57 -62z" />
    <glyph glyph-name="uhungarumlaut" unicode="&#x171;" 
d="M426 500v-500h-96l-11 48c-31 -30 -74 -59 -129 -59c-80 0 -142 50 -142 182v329h113v-297c0 -95 37 -110 65 -110c32 0 61 14 88 41v366h112zM126 559l75 136h111l-109 -136h-77zM276 559l75 136h110l-108 -136h-77z" />
    <glyph glyph-name="ugrave" unicode="&#xf9;" 
d="M426 500v-500h-96l-11 48c-31 -30 -74 -59 -129 -59c-80 0 -142 50 -142 182v329h113v-297c0 -95 37 -110 65 -110c32 0 61 14 88 41v366h112zM284 559h-77l-112 133h113z" />
    <glyph glyph-name="umacron" unicode="&#x16b;" 
d="M426 500v-500h-96l-11 48c-31 -30 -74 -59 -129 -59c-80 0 -142 50 -142 182v329h113v-297c0 -95 37 -110 65 -110c32 0 61 14 88 41v366h112zM343 563h-207v82h207v-82z" />
    <glyph glyph-name="uogonek" unicode="&#x173;" 
d="M387 -145c14 0 40 6 53 14v-45c-17 -14 -42 -23 -79 -23c-71 0 -102 38 -102 86c0 46 24 85 77 113h-6l-11 48c-31 -30 -74 -59 -129 -59c-80 0 -142 50 -142 182v329h113v-297c0 -95 37 -110 65 -110c32 0 61 14 88 41v366h112v-500h-38c-31 -25 -48 -60 -48 -90
c0 -34 18 -55 47 -55z" />
    <glyph glyph-name="uring" unicode="&#x16f;" 
d="M426 500v-500h-96l-11 48c-31 -30 -74 -59 -129 -59c-80 0 -142 50 -142 182v329h113v-297c0 -95 37 -110 65 -110c32 0 61 14 88 41v366h112zM240 593c-73 0 -105 46 -105 103s32 104 105 104c75 0 103 -47 103 -104s-28 -103 -103 -103zM240 652c29 0 40 20 40 44
c0 26 -11 45 -40 45c-28 0 -40 -19 -40 -45c0 -24 12 -44 40 -44z" />
    <glyph glyph-name="utilde" unicode="&#x169;" 
d="M426 500v-500h-96l-11 48c-31 -30 -74 -59 -129 -59c-80 0 -142 50 -142 182v329h113v-297c0 -95 37 -110 65 -110c32 0 61 14 88 41v366h112zM288 562c-51 0 -63 55 -90 55c-13 0 -26 -13 -26 -49h-56c0 68 27 116 85 116c52 0 62 -55 91 -55c16 0 26 19 26 49h57
c0 -80 -33 -116 -87 -116z" />
    <glyph glyph-name="wacute" unicode="&#x1e83;" horiz-adv-x="696" 
d="M476 118c40 136 58 249 69 382h113c-18 -167 -63 -334 -134 -500h-98c-38 108 -66 218 -85 328c-21 -114 -49 -224 -86 -328h-98c-73 166 -119 333 -133 500h113c11 -133 29 -246 68 -382c47 136 67 249 79 382h114c12 -133 33 -246 78 -382zM310 559l89 132h111
l-121 -132h-79z" />
    <glyph glyph-name="wcircumflex" unicode="&#x175;" horiz-adv-x="696" 
d="M476 118c40 136 58 249 69 382h113c-18 -167 -63 -334 -134 -500h-98c-38 108 -66 218 -85 328c-21 -114 -49 -224 -86 -328h-98c-73 166 -119 333 -133 500h113c11 -133 29 -246 68 -382c47 136 67 249 79 382h114c12 -133 33 -246 78 -382zM494 560h-73l-72 86l-70 -86
h-72l86 138h112z" />
    <glyph glyph-name="wdieresis" unicode="&#x1e85;" horiz-adv-x="696" 
d="M476 118c40 136 58 249 69 382h113c-18 -167 -63 -334 -134 -500h-98c-38 108 -66 218 -85 328c-21 -114 -49 -224 -86 -328h-98c-73 166 -119 333 -133 500h113c11 -133 29 -246 68 -382c47 136 67 249 79 382h114c12 -133 33 -246 78 -382zM485 621
c0 -35 -26 -62 -58 -62c-30 0 -56 27 -56 62s26 62 56 62c32 0 58 -27 58 -62zM324 621c0 -35 -25 -62 -57 -62c-31 0 -56 27 -56 62s25 62 56 62c32 0 57 -27 57 -62z" />
    <glyph glyph-name="wgrave" unicode="&#x1e81;" horiz-adv-x="696" 
d="M476 118c40 136 58 249 69 382h113c-18 -167 -63 -334 -134 -500h-98c-38 108 -66 218 -85 328c-21 -114 -49 -224 -86 -328h-98c-73 166 -119 333 -133 500h113c11 -133 29 -246 68 -382c47 136 67 249 79 382h114c12 -133 33 -246 78 -382zM393 559h-77l-112 133h113z
" />
    <glyph glyph-name="yacute" unicode="&#xfd;" horiz-adv-x="449" 
d="M205 -221h-114c29 77 59 151 87 224c-80 165 -132 331 -157 497h116c16 -122 42 -239 88 -365c38 113 68 230 86 365h115c-33 -251 -133 -498 -221 -721zM188 559l89 132h111l-121 -132h-79z" />
    <glyph glyph-name="ycircumflex" unicode="&#x177;" horiz-adv-x="449" 
d="M205 -221h-114c29 77 59 151 87 224c-80 165 -132 331 -157 497h116c16 -122 42 -239 88 -365c38 113 68 230 86 365h115c-33 -251 -133 -498 -221 -721zM371 560h-73l-72 86l-70 -86h-72l86 138h112z" />
    <glyph glyph-name="ydieresis" unicode="&#xff;" horiz-adv-x="449" 
d="M205 -221h-114c29 77 59 151 87 224c-80 165 -132 331 -157 497h116c16 -122 42 -239 88 -365c38 113 68 230 86 365h115c-33 -251 -133 -498 -221 -721zM363 621c0 -35 -26 -62 -58 -62c-30 0 -56 27 -56 62s26 62 56 62c32 0 58 -27 58 -62zM202 621
c0 -35 -25 -62 -57 -62c-31 0 -56 27 -56 62s25 62 56 62c32 0 57 -27 57 -62z" />
    <glyph glyph-name="ygrave" unicode="&#x1ef3;" horiz-adv-x="449" 
d="M205 -221h-114c29 77 59 151 87 224c-80 165 -132 331 -157 497h116c16 -122 42 -239 88 -365c38 113 68 230 86 365h115c-33 -251 -133 -498 -221 -721zM271 559h-77l-112 133h113z" />
    <glyph glyph-name="Eng" unicode="&#x14a;" horiz-adv-x="619" 
d="M65 0v720h114c98 -91 181 -225 259 -382v382h116v-684c0 -151 -59 -227 -193 -227c-40 0 -93 5 -145 20v96c41 -9 72 -17 124 -17c70 0 98 48 98 135v87c-84 189 -173 333 -259 427v-557h-114z" />
    <glyph glyph-name="eng" unicode="&#x14b;" horiz-adv-x="482" 
d="M52 0v500h113v-37c30 23 81 47 126 47c113 0 139 -97 139 -176v-355c0 -112 -32 -182 -126 -182c-40 0 -62 5 -83 14v90c11 -5 25 -10 45 -10c44 0 52 36 52 87v318c0 66 -18 112 -72 112c-31 0 -60 -20 -81 -31v-377h-113z" />
    <glyph glyph-name="apostrophemod" unicode="&#x2bc;" horiz-adv-x="265" 
 />
    <glyph glyph-name="nonbreakingspace" unicode="&#xa0;" horiz-adv-x="185" 
 />
    <glyph glyph-name="minus" unicode="&#x2212;" horiz-adv-x="313" 
d="M260 256h-208v97h208v-97z" />
    <glyph glyph-name="fraction" unicode="&#x2044;" horiz-adv-x="325" 
d="M98 -29h-94l222 764h94z" />
    <glyph glyph-name="m" unicode="m" horiz-adv-x="714" 
d="M52 0v500h113v-38c19 15 68 48 115 48c55 0 89 -24 110 -60c33 28 84 60 137 60c103 0 138 -83 138 -172v-338h-113v301c0 72 -21 107 -66 107c-26 0 -54 -24 -72 -38c1 -13 2 -27 2 -41v-329h-113v292c0 77 -21 116 -66 116c-29 0 -57 -21 -72 -31v-377h-113z" />
    <glyph glyph-name="Wdieresis" unicode="&#x1e84;" horiz-adv-x="835" 
d="M636 0h-99c-55 145 -93 290 -119 436c-27 -146 -64 -291 -118 -436h-100c-90 240 -150 480 -175 720h113c16 -178 54 -398 112 -583c58 185 95 405 111 583h113c16 -178 55 -398 112 -583c58 185 96 405 111 583h113c-25 -240 -84 -480 -174 -720zM555 819
c0 -35 -26 -62 -58 -62c-30 0 -56 27 -56 62s26 62 56 62c32 0 58 -27 58 -62zM394 819c0 -35 -25 -62 -57 -62c-31 0 -56 27 -56 62s25 62 56 62c32 0 57 -27 57 -62z" />
    <glyph glyph-name="Wgrave" unicode="&#x1e80;" horiz-adv-x="835" 
d="M636 0h-99c-55 145 -93 290 -119 436c-27 -146 -64 -291 -118 -436h-100c-90 240 -150 480 -175 720h113c16 -178 54 -398 112 -583c58 185 95 405 111 583h113c16 -178 55 -398 112 -583c58 185 96 405 111 583h113c-25 -240 -84 -480 -174 -720zM463 756h-77l-112 133
h113z" />
    <glyph glyph-name="zacute" unicode="&#x17a;" horiz-adv-x="400" 
d="M40 409v91h318v-91c0 -135 -95 -242 -197 -313h207v-96h-336v96c103 62 218 176 218 313h-210zM162 591l89 132h111l-121 -132h-79z" />
    <glyph glyph-name="zcaron" unicode="&#x17e;" horiz-adv-x="400" 
d="M40 409v91h318v-91c0 -135 -95 -242 -197 -313h207v-96h-336v96c103 62 218 176 218 313h-210zM273 728h73l-88 -138h-112l-87 138h72l70 -86z" />
    <glyph glyph-name="zdotaccent" unicode="&#x17c;" horiz-adv-x="400" 
d="M40 409v91h318v-91c0 -135 -95 -242 -197 -313h207v-96h-336v96c103 62 218 176 218 313h-210zM257 664c0 -35 -25 -60 -58 -60c-31 0 -56 25 -56 60s25 60 56 60c33 0 58 -25 58 -60z" />
    <glyph glyph-name="Ccaron" unicode="&#x10c;" horiz-adv-x="581" 
d="M542 112v-100c-50 -13 -124 -22 -171 -22c-225 0 -334 171 -334 392c0 255 122 348 273 348c161 0 232 -98 232 -266v-17h-107v14c0 103 -44 161 -125 161c-84 0 -156 -61 -156 -238c0 -120 38 -290 245 -290c37 0 85 5 143 18zM367 906h73l-88 -138h-112l-87 138h72
l70 -86z" />
    <glyph glyph-name="Atilde" unicode="&#xc3;" horiz-adv-x="566" 
d="M334 720c108 -240 180 -480 210 -720h-114c-6 51 -15 106 -26 163c-79 -3 -174 -24 -253 -60c-6 -36 -11 -70 -14 -103h-116c32 240 103 480 211 720h102zM283 580c-47 -115 -84 -242 -111 -365c67 27 144 44 211 49c-26 107 -59 217 -100 316zM332 762
c-51 0 -63 55 -90 55c-13 0 -26 -13 -26 -49h-56c0 68 27 116 85 116c52 0 62 -55 91 -55c16 0 26 19 26 49h57c0 -80 -33 -116 -87 -116z" />
    <glyph glyph-name="Ntilde" unicode="&#xd1;" horiz-adv-x="617" 
d="M65 0v720h114c98 -91 181 -225 259 -382v382h114v-720h-114v141c-84 189 -172 335 -259 428v-569h-114zM357 762c-51 0 -63 55 -90 55c-13 0 -26 -13 -26 -49h-56c0 68 27 116 85 116c52 0 62 -55 91 -55c16 0 26 19 26 49h57c0 -80 -33 -116 -87 -116z" />
    <glyph glyph-name="Ucircumflex" unicode="&#xdb;" horiz-adv-x="622" 
d="M563 720v-419c0 -210 -90 -311 -250 -311c-162 0 -254 101 -254 311v419h114v-405c0 -201 84 -220 140 -220c55 0 136 19 136 220v405h114zM456 760h-73l-72 86l-70 -86h-72l86 138h112z" />
    <glyph glyph-name="a.int" unicode="&#xe05e;" horiz-adv-x="445" 
d="M178 290c41 0 80 -6 106 -18v17c0 83 -14 123 -104 123c-38 0 -85 -10 -125 -22v96c47 15 95 24 146 24c142 0 197 -61 197 -188v-322h-97l-8 37c-31 -29 -76 -47 -126 -47c-100 0 -142 57 -142 151c0 82 40 149 153 149zM207 85c35 0 61 12 77 32v74
c-21 9 -45 11 -73 11c-42 0 -68 -14 -68 -59c0 -41 22 -58 64 -58z" />
    <glyph glyph-name="e.int" unicode="&#xe05f;" horiz-adv-x="452" 
d="M413 208h-262c10 -84 47 -120 136 -120c40 0 88 7 129 17v-96c-53 -12 -111 -19 -154 -19c-149 0 -229 83 -229 269c0 169 66 251 192 251c127 0 188 -82 188 -240v-62zM228 420c-43 0 -73 -30 -78 -123h152v8c0 82 -30 115 -74 115z" />
    <glyph glyph-name="s.int" unicode="&#xe060;" horiz-adv-x="375" 
d="M327 493v-92c-40 12 -83 18 -121 18s-59 -19 -59 -52c0 -41 45 -47 99 -71c53 -23 101 -50 101 -148c0 -120 -70 -158 -187 -158c-57 0 -93 8 -128 20v91c43 -11 90 -20 131 -20c33 0 65 14 65 64c0 43 -28 50 -79 71c-57 23 -113 50 -113 148c0 84 42 146 167 146
c31 0 71 -4 124 -17z" />
    <glyph glyph-name="zero.tab" unicode="&#xe061;" horiz-adv-x="533" 
d="M37 361c0 201 50 369 229 369c180 0 230 -168 230 -369c0 -203 -50 -372 -230 -372c-179 0 -229 169 -229 372zM157 361c0 -155 22 -264 109 -264c86 0 110 109 110 264c0 153 -24 262 -110 262c-87 0 -109 -109 -109 -262z" />
    <glyph glyph-name="one.tab" unicode="&#xe062;" horiz-adv-x="534" 
d="M413 0h-114v604l-137 -73v109l153 80h98v-720z" />
    <glyph glyph-name="four.tab" unicode="&#xe063;" horiz-adv-x="534" 
d="M428 720v-470h66v-106h-66v-144h-113v144h-276v90l257 486h132zM315 250v340l-156 -340h156z" />
    <glyph glyph-name="five.tab" unicode="&#xe064;" horiz-adv-x="532" 
d="M120 720h343v-105h-258l-29 -166c21 1 45 1 65 1c184 0 251 -81 251 -219c0 -127 -63 -242 -257 -242c-63 0 -149 14 -195 38v104c49 -24 116 -40 177 -40c124 0 162 72 162 136c0 80 -42 131 -181 131c-50 0 -73 -2 -136 -6z" />
    <glyph glyph-name="six.tab" unicode="&#xe065;" horiz-adv-x="533" 
d="M296 428c116 0 197 -70 197 -212c0 -136 -79 -226 -220 -226c-157 0 -233 123 -233 326c0 247 113 414 406 414v-106c-218 -7 -280 -93 -290 -254c37 34 83 58 140 58zM275 97c63 0 104 41 104 117c0 82 -45 113 -100 113c-44 0 -86 -19 -124 -55
c7 -120 49 -175 120 -175z" />
    <glyph glyph-name="nine.tab" unicode="&#xe066;" horiz-adv-x="534" 
d="M240 293c-120 0 -199 67 -199 209c0 132 76 228 225 228c154 0 227 -134 227 -328c0 -245 -113 -412 -406 -412v106c215 5 278 90 290 247c-37 -27 -85 -50 -137 -50zM262 623c-68 0 -107 -48 -107 -117c0 -81 42 -112 102 -112c37 0 82 14 121 46
c-6 124 -49 183 -116 183z" />
    <glyph glyph-name="seven.tab" unicode="&#xe067;" horiz-adv-x="533" 
d="M245 0h-124c36 237 112 419 245 613h-328v107h457v-91c-139 -212 -209 -391 -250 -629z" />
    <glyph glyph-name="eight.tab" unicode="&#xe068;" horiz-adv-x="534" 
d="M267 -10c-131 0 -227 68 -227 198c0 101 54 163 125 198c-50 24 -94 72 -94 165c0 122 85 179 196 179c112 0 196 -58 196 -180c0 -91 -43 -137 -95 -164c71 -35 126 -97 126 -198c0 -130 -97 -198 -227 -198zM267 435c54 19 86 51 86 104c0 57 -32 95 -86 95
s-86 -38 -86 -93c0 -54 33 -91 86 -106zM267 87c67 0 111 49 111 113c0 65 -52 112 -111 129c-65 -20 -111 -67 -111 -128c0 -65 42 -114 111 -114z" />
    <glyph glyph-name="dollar.tab" unicode="&#xe069;" horiz-adv-x="532" 
d="M225 -106v97c-70 4 -136 21 -185 44v102c65 -29 127 -47 207 -47c60 0 133 13 133 99c0 151 -322 82 -322 342c0 106 58 180 167 196v98h81v-98c111 -14 168 -90 168 -203v-18h-107v13c0 71 -38 110 -98 110c-61 0 -98 -40 -98 -97c0 -169 321 -89 321 -343
c0 -145 -83 -188 -184 -197v-98h-83z" />
    <glyph glyph-name="Euro.tab" unicode="&#xe06a;" horiz-adv-x="534" 
d="M30 373v62h55c12 211 106 295 227 295c134 0 191 -108 191 -266v-17h-105v11c0 99 -23 164 -89 164c-60 0 -96 -50 -103 -187h145v-62h-146c0 -22 2 -46 5 -69h141v-62h-129c23 -79 71 -144 168 -144c31 0 69 5 113 17v-103c-47 -17 -104 -22 -138 -22
c-139 0 -231 101 -266 252h-69v62h58c-2 22 -4 45 -4 69h-54z" />
    <glyph glyph-name="two.tab" unicode="&#xe06b;" horiz-adv-x="533" 
d="M186 106h309v-106h-457v106c221 175 322 279 322 394c0 60 -22 122 -104 122c-81 0 -105 -62 -105 -126v-11h-106v17c0 149 67 228 212 228c146 0 224 -79 224 -217c0 -111 -72 -236 -295 -407z" />
    <glyph glyph-name="three.tab" unicode="&#xe06c;" horiz-adv-x="533" 
d="M43 110c50 -17 93 -23 135 -23c141 0 197 76 197 168c0 68 -41 113 -126 113c-25 0 -75 -1 -130 -22v72c69 74 119 123 203 200h-271v102h419v-101c-82 -72 -147 -135 -197 -187c33 7 66 9 93 6c83 -9 125 -71 125 -172c0 -180 -111 -277 -296 -277c-56 0 -98 7 -152 22
v99z" />
    <glyph glyph-name="zero.osf.tab" unicode="&#xe06d;" horiz-adv-x="534" 
d="M40 253c0 140 50 257 226 257c178 0 227 -117 227 -257c0 -143 -49 -261 -227 -261c-176 0 -226 118 -226 261zM160 253c0 -87 21 -153 106 -153s108 66 108 153c0 84 -23 150 -108 150s-106 -66 -106 -150z" />
    <glyph glyph-name="one.osf.tab" unicode="&#xe06e;" horiz-adv-x="533" 
d="M393 0h-113v384l-106 -29v111l112 33h107v-499z" />
    <glyph glyph-name="four.osf.tab" unicode="&#xe06f;" horiz-adv-x="534" 
d="M426 506v-403h68v-103h-68v-128h-108v128h-278v87l258 419h128zM318 103v276l-158 -276h158z" />
    <glyph glyph-name="five.osf.tab" unicode="&#xe070;" horiz-adv-x="533" 
d="M119 499h345v-105h-263l-25 -137c22 1 46 1 63 1c187 0 253 -69 253 -196c0 -111 -68 -218 -265 -218c-50 0 -133 12 -186 33v103c49 -21 118 -35 179 -35c121 0 159 56 159 112c0 68 -42 110 -176 110c-57 0 -79 -2 -141 -6z" />
    <glyph glyph-name="six.osf.tab" unicode="&#xe071;" horiz-adv-x="533" 
d="M296 390c115 0 196 -66 196 -192c0 -121 -78 -207 -220 -207c-160 0 -231 120 -231 295c0 221 112 371 405 371v-106c-212 -7 -276 -76 -289 -209c37 28 83 48 139 48zM273 98c60 0 105 34 105 97c0 67 -44 94 -98 94c-44 0 -86 -15 -124 -45c7 -98 49 -146 117 -146z
" />
    <glyph glyph-name="nine.osf.tab" unicode="&#xe072;" horiz-adv-x="533" 
d="M239 112c-119 0 -198 62 -198 191c0 120 76 207 225 207c154 0 226 -121 226 -295c0 -221 -112 -371 -406 -371v106c210 5 276 74 290 205c-37 -24 -85 -43 -137 -43zM261 403c-67 0 -106 -40 -106 -97c0 -67 41 -94 101 -94c38 0 82 12 122 40c-7 102 -50 151 -117 151z
" />
    <glyph glyph-name="seven.osf.tab" unicode="&#xe073;" horiz-adv-x="533" 
d="M247 -148h-125c37 209 112 370 243 541h-326v107h455v-90c-138 -189 -207 -347 -247 -558z" />
    <glyph glyph-name="eight.osf.tab" unicode="&#xe074;" horiz-adv-x="534" 
d="M266 -9c-129 0 -225 60 -225 179c0 88 54 143 124 175c-49 24 -88 69 -88 148c0 115 82 164 189 164c109 0 191 -50 191 -165c0 -79 -41 -122 -89 -147c71 -32 125 -87 125 -175c0 -119 -96 -179 -227 -179zM266 394c50 15 85 47 85 90c0 47 -31 83 -85 83
c-55 0 -84 -38 -84 -81c0 -47 36 -80 84 -92zM266 82c70 0 111 45 111 97c0 56 -55 95 -111 109c-57 -15 -109 -54 -109 -109c0 -53 40 -97 109 -97z" />
    <glyph glyph-name="two.osf.tab" unicode="&#xe075;" horiz-adv-x="533" 
d="M215 102l276 2v-104h-449v101c190 78 331 167 331 234c0 43 -43 74 -154 74c-68 0 -113 -10 -168 -30v98c55 19 98 33 209 33c153 0 227 -58 227 -158c0 -103 -109 -178 -272 -250z" />
    <glyph glyph-name="three.osf.tab" unicode="&#xe076;" horiz-adv-x="533" 
d="M44 -40c50 -15 93 -20 135 -20c140 0 195 64 195 146c0 55 -41 90 -125 90c-24 0 -74 0 -130 -19v71c74 64 125 103 214 170h-282v102h429v-101c-84 -60 -155 -113 -207 -158c21 4 42 6 62 6c11 0 21 -1 31 -2c82 -8 125 -61 125 -148c0 -170 -110 -255 -295 -255
c-57 0 -98 5 -152 18v100z" />
    <glyph glyph-name="onethird" unicode="&#x2153;" horiz-adv-x="859" 
d="M235 0h-94l373 720h95zM192 216h-85v409l-80 -43v94l78 44h87v-504zM546 82c33 -12 58 -16 84 -16c84 0 115 50 115 112c0 46 -26 76 -75 76c-16 0 -47 -1 -81 -15v54c45 50 72 82 124 134h-164v77h275v-76c-49 -48 -88 -90 -120 -125c21 5 41 6 57 3
c46 -6 71 -50 71 -120c0 -128 -72 -194 -188 -194c-37 0 -62 5 -98 15v75z" />
    <glyph glyph-name="oneeighth" unicode="&#x215b;" horiz-adv-x="857" 
d="M235 0h-94l373 720h95zM192 216h-85v409l-80 -43v94l78 44h87v-504zM672 -7c-91 0 -158 47 -158 139c0 69 36 112 83 137c-36 18 -67 51 -67 116c0 88 63 126 142 126c80 0 142 -40 142 -127c0 -63 -30 -96 -67 -115c47 -25 83 -68 83 -137c0 -92 -68 -139 -158 -139z
M672 306c35 13 55 34 55 69c0 37 -20 60 -55 60c-36 0 -56 -24 -56 -58c0 -36 23 -61 56 -71zM672 70c44 0 72 33 72 73c0 43 -35 72 -72 83c-41 -14 -72 -43 -72 -83s28 -73 72 -73z" />
    <glyph glyph-name="oneoldstyle" unicode="&#xe077;" horiz-adv-x="290" 
d="M222 0h-114v598l-79 -43v114l92 51h101v-720z" />
    <glyph glyph-name="twooldstyle" unicode="&#xe078;" horiz-adv-x="512" 
d="M230 106l-5 -1l247 1v-106h-432v79c206 186 300 297 300 421c0 60 -20 122 -94 122c-73 0 -94 -62 -94 -126v-11h-106v17c0 149 64 228 201 228c138 0 213 -79 213 -217c0 -111 -56 -236 -230 -407z" />
    <glyph glyph-name="threeoldstyle" unicode="&#xe079;" horiz-adv-x="488" 
d="M43 110c45 -17 82 -23 119 -23c122 0 168 76 168 168c0 68 -37 113 -109 113c-22 0 -66 -1 -114 -22v72c60 74 98 123 170 200h-229v102h377v-101c-68 -72 -122 -135 -164 -187c29 7 57 10 81 6c68 -8 105 -71 105 -172c0 -180 -102 -277 -266 -277c-52 0 -88 7 -138 22
v99z" />
    <glyph glyph-name="fouroldstyle" unicode="&#xe07a;" horiz-adv-x="515" 
d="M411 720v-470h67v-106h-67v-144h-113v144h-279v90l259 486h133zM298 250v340l-159 -340h159z" />
    <glyph glyph-name="eightoldstyle" unicode="&#xe07b;" horiz-adv-x="530" 
d="M265 -10c-132 0 -228 68 -228 198c0 101 54 163 126 198c-51 24 -94 72 -94 165c0 122 85 179 196 179c113 0 197 -58 197 -180c0 -91 -43 -137 -95 -164c71 -35 126 -97 126 -198c0 -130 -97 -198 -228 -198zM265 435c55 19 87 51 87 104c0 57 -32 95 -87 95
c-54 0 -86 -38 -86 -93c0 -54 33 -91 86 -106zM264 87c70 0 113 49 113 113c0 65 -53 112 -112 129c-66 -20 -112 -67 -112 -128c0 -65 43 -114 111 -114z" />
    <glyph glyph-name="orn.1" unicode="&#xe07c;" horiz-adv-x="410" 
d="M-1 0v124h42c0 -1 3 -11 3 -16v-12c-2 -10 -11 -26 -13 -26l-2 -4c0 -5 -3 -9 -3 -16c0 -14 9 -21 14 -23l7 -3h14c22 0 26 19 27 24h233c2 -3 5 -24 28 -24h13l7 3c9 4 14 13 14 26c0 4 -2 8 -3 13l-2 4c-2 0 -11 17 -13 26v12c0 5 3 15 3 16h42v-124h-411zM41 377h-42
v123h411v-123h-42c-1 1 -3 10 -3 12v9c0 9 3 17 6 22l6 9c2 3 6 12 6 25c0 17 -14 23 -28 23c-19 0 -34 -4 -34 -24h-233c0 11 -13 19 -20 21l-7 2c-2 0 -3 1 -4 1h-4c-19 0 -27 -14 -27 -26c0 -10 4 -19 6 -22l6 -9c3 -5 6 -13 6 -22v-9s-1 -10 -3 -12zM60 122h289v-46
h-289v46zM60 379v46h289v-46h-289zM349 149l-41 3c0 12 1 25 1 34v8c0 9 1 22 3 32v9c0 3 1 7 1 11v8c0 4 -1 7 -1 11v9c-1 5 -1 10 -1 15l-1 25c0 5 0 7 -2 26v12h41v-203zM101 149h-40v203h40v-12c0 -5 -1 -24 -1 -26l-2 -25c0 -2 0 -10 -1 -15v-48c2 -10 3 -23 3 -32v-8
c0 -9 1 -22 1 -37zM-1 262v90h42v-90h-42zM410 352v-90h-42v90h42zM41 149h-42v89h42v-89zM410 149h-42v89h42v-89zM205 269c24 0 52 -6 68 -19c-16 -12 -44 -18 -68 -18c-25 0 -52 6 -69 18c17 13 44 19 69 19zM205 345c24 0 52 -5 68 -18c-16 -13 -44 -18 -68 -18
c-25 0 -52 5 -69 18c17 13 44 18 69 18zM136 172c17 13 44 18 69 18c24 0 52 -5 68 -18c-16 -12 -44 -18 -68 -18c-25 0 -52 6 -69 18zM148 352c-7 -9 -20 -17 -34 -17c0 3 -1 5 -1 7c0 10 7 11 15 11c6 0 14 -1 20 -1zM261 352c6 0 14 1 20 1c8 0 15 -1 15 -11
c0 -2 -1 -4 -1 -7c-14 0 -26 8 -34 17zM148 148c-6 0 -14 -2 -20 -2c-8 0 -15 2 -15 10c0 3 1 5 1 8c14 0 27 -8 34 -16zM148 302c-6 0 -14 -2 -20 -2c-8 0 -15 2 -15 11c0 2 1 4 1 7c14 0 27 -8 34 -16zM148 275c-7 -8 -20 -16 -34 -16c0 3 -1 5 -1 7c0 9 7 11 15 11
c6 0 14 -2 20 -2zM148 197c-7 -8 -20 -16 -34 -16c0 3 -1 5 -1 7c0 9 7 11 15 11c6 0 14 -2 20 -2zM148 226c-6 0 -14 -2 -20 -2c-8 0 -15 2 -15 11c0 2 1 4 1 7c14 0 27 -8 34 -16zM261 148c8 8 20 16 34 16c0 -3 1 -5 1 -8c0 -8 -7 -10 -15 -10c-6 0 -14 2 -20 2zM261 197
c6 0 14 2 20 2c8 0 15 -2 15 -11c0 -2 -1 -4 -1 -7c-14 0 -26 8 -34 16zM261 275c6 0 14 2 20 2c8 0 15 -2 15 -11c0 -2 -1 -4 -1 -7c-14 0 -26 8 -34 16zM261 226c8 8 20 16 34 16c0 -3 1 -5 1 -7c0 -9 -7 -11 -15 -11c-6 0 -14 2 -20 2zM261 302c8 8 20 16 34 16
c0 -3 1 -5 1 -7c0 -9 -7 -11 -15 -11c-6 0 -14 2 -20 2z" />
    <glyph glyph-name="orn.1.001" unicode="&#xe07d;" horiz-adv-x="399" 
d="M338 424v-348h-278v348h278zM118 128c29 0 53 -4 81 -6c28 2 52 6 81 6v-6h21v27h-4c0 36 3 66 4 101c-1 35 -4 65 -4 101h4v27h-21v-6c-29 0 -53 4 -81 6c-28 -2 -52 -6 -81 -6v6h-21v-27h4c0 -36 -3 -66 -4 -101c1 -35 4 -65 4 -101h-4v-27h21v6zM206 154h-14
c0 -3 1 -7 1 -10c-3 0 -4 -1 -6 -1c-6 0 -9 5 -9 13c-7 1 -13 3 -20 5c0 -10 -1 -18 -9 -18c-1 0 -3 1 -5 1v4c-5 -1 -10 -2 -14 -2v-2c-2 0 -4 -1 -6 -1c-5 0 -11 7 -11 13c0 3 1 5 1 8h2c0 5 1 11 1 17h-3c0 3 -1 5 -1 7c0 9 7 11 15 11c-2 8 -3 16 -4 25
c-7 0 -11 3 -11 11c0 2 1 4 1 7c3 0 6 0 8 -1v18c-2 -1 -5 -1 -8 -1c0 3 -1 5 -1 7c0 8 4 11 11 11c1 9 2 17 4 25c-8 0 -15 2 -15 11c0 2 1 4 1 7h3c0 6 -1 12 -1 17h-2c0 3 -1 5 -1 8c0 6 6 13 11 13c2 0 4 -1 6 -1v-2c4 0 9 -1 14 -2v4c2 0 4 1 5 1c8 0 9 -8 9 -18
c7 2 13 4 20 5c0 8 3 13 9 13c2 0 3 -1 6 -1c0 -3 -1 -7 -1 -10h14c0 3 -1 7 -1 10c3 0 4 1 6 1c6 0 9 -5 9 -13c7 -1 13 -3 20 -5c0 10 1 18 9 18c1 0 3 -1 5 -1v-4c5 1 10 2 14 2v2c2 0 4 1 6 1c5 0 11 -7 11 -13c0 -3 -1 -5 -1 -8h-2c0 -5 -1 -11 -1 -17h3
c0 -3 1 -5 1 -7c0 -9 -7 -11 -15 -11c2 -8 3 -16 4 -25c7 0 11 -3 11 -11c0 -2 -1 -4 -1 -7c-3 0 -6 0 -8 1v-18c2 1 5 1 8 1c0 -3 1 -5 1 -7c0 -8 -4 -11 -11 -11c-1 -9 -2 -17 -4 -25c8 0 15 -2 15 -11c0 -2 -1 -4 -1 -7h-3c0 -6 1 -12 1 -17h2c0 -3 1 -5 1 -8
c0 -6 -6 -13 -11 -13c-2 0 -4 1 -6 1v2c-4 0 -9 1 -14 2v-4c-2 0 -4 -1 -5 -1c-8 0 -9 8 -9 18c-7 -2 -13 -4 -20 -5c0 -8 -3 -13 -9 -13c-2 0 -3 1 -6 1c0 3 1 7 1 10zM-1 124h42c0 -4 3 -10 3 -16v-12c-3 -15 -18 -27 -18 -43v-3c0 -12 3 -16 13 -16h2c13 0 22 18 35 22h9
c5 0 9 -2 13 -3v-53h-99v124zM399 376h-42c0 4 -3 10 -3 16v12c3 15 18 27 18 43v3c0 12 -3 16 -13 16h-2c-13 0 -22 -18 -35 -22h-9c-5 0 -9 2 -13 3v53h99v-124zM41 377h-42v123h99v-53c-4 -1 -8 -3 -13 -3h-9c-13 4 -22 22 -35 22h-2c-10 0 -13 -4 -13 -16v-3
c0 -16 15 -28 18 -43v-12c0 -6 -3 -11 -3 -15zM357 124h42v-124h-99v53c4 1 8 3 13 3h9c13 -4 22 -22 35 -22h2c10 0 13 4 13 16v3c0 16 -15 28 -18 43v12c0 6 3 12 3 16zM280 500v-53h-71v53h71zM399 262h-42v89h42v-89zM357 238h42v-89h-42v89zM118 0v53h71v-53h-71z
M118 447v53h71v-53h-71zM41 262h-42v90h42v-90zM-1 238h42v-89h-42v89zM280 53v-53h-71v53h71zM248 259l12 67c-17 -13 -34 -13 -54 -15c3 -13 6 -28 7 -44c12 -1 24 -4 35 -8zM150 241l-12 -67c17 13 34 13 54 15c-3 13 -6 28 -7 44c-12 1 -24 4 -35 8zM260 174l-12 67
c-11 -4 -23 -7 -35 -8c-1 -16 -4 -31 -7 -44c20 -2 37 -2 54 -15zM138 326l12 -67c11 4 23 7 35 8c1 16 4 31 7 44c-20 2 -37 2 -54 15zM131 185c-3 -2 -7 -3 -10 -4c3 -5 5 -12 7 -20c6 -2 12 -5 16 -9c1 4 1 9 3 13c-4 2 -8 4 -11 7zM267 185l-5 -13c-3 -3 -7 -5 -11 -7
c2 -4 2 -9 3 -13c4 4 10 7 16 9c2 8 4 15 7 20c-3 1 -7 2 -10 4zM262 328l5 -13c3 2 7 3 10 4c-3 5 -5 12 -7 20c-6 2 -12 5 -16 9c-1 -4 -1 -9 -3 -13c4 -2 8 -4 11 -7zM131 315l5 13c3 3 7 5 11 7c-2 4 -2 9 -3 13c-4 -4 -10 -7 -16 -9c-2 -8 -4 -15 -7 -20
c3 -1 7 -2 10 -4z" />
    <glyph glyph-name="orn.1.002" unicode="&#xe07e;" horiz-adv-x="399" 
d="M323 403v-303h-246v303h246zM-1 124h42c0 -4 3 -10 3 -16v-12c-3 -15 -18 -27 -18 -46c0 -12 3 -16 15 -16c13 0 22 18 35 22h9c5 0 9 -2 13 -3v-53h-99v124zM399 377h-42c0 4 -3 9 -3 15v12c3 15 18 27 18 46c0 12 -3 16 -15 16c-13 0 -22 -18 -35 -22h-9
c-5 0 -9 2 -13 3v53h99v-123zM357 124h42v-124h-99v53c4 1 8 3 13 3h9c13 -4 22 -22 37 -22c10 0 13 4 13 19c0 16 -15 28 -18 43v12c0 6 3 12 3 16zM41 377h-42v123h99v-53c-4 -1 -8 -3 -13 -3h-9c-13 4 -22 22 -37 22c-10 0 -13 -4 -13 -19c0 -16 15 -28 18 -43v-12
c0 -6 -3 -11 -3 -15zM280 500v-53h-71v53h71zM41 262h-42v90h42v-90zM-1 238h42v-89h-42v89zM280 53v-53h-71v53h71zM357 238h42v-89h-42v89zM118 0v53h71v-53h-71zM118 447v53h71v-53h-71zM399 262h-42v89h42v-89zM261 170c-4 -18 -14 -37 -28 -46h66v64
c-2 13 -10 13 -13 13c-5 -19 -14 -29 -25 -31zM259 339c16 -3 32 -16 40 -33v73h-52c-10 -3 -10 -12 -10 -16c11 -4 18 -13 22 -24zM149 146c-16 4 -23 15 -24 28c-12 6 -24 16 -30 31v-81h45c9 4 9 16 9 22zM153 379h-58v-57c3 -11 13 -11 18 -11c3 13 7 21 14 25
c4 18 14 34 26 43zM165 355c11 -4 19 -9 22 -17v5h14c4 12 12 26 22 36h-46c-7 -2 -12 -14 -12 -24zM271 263v-18c10 -6 20 -15 28 -27v57c-2 9 -11 15 -19 15c-3 -13 -7 -23 -14 -27h5zM123 244v19h7c-13 5 -26 15 -35 31v-58c2 -9 11 -15 19 -15c3 11 5 18 9 23zM221 148
c-8 2 -15 5 -19 10h-15v10c-4 -16 -13 -33 -25 -44h47c7 2 12 14 12 24zM274 204c0 19 -13 32 -26 32c-11 0 -11 -15 -11 -18c16 -6 24 -18 24 -35c7 1 13 5 13 21zM226 154c13 0 21 7 23 16c-14 1 -27 11 -36 22c-3 -5 -4 -11 -4 -19c0 -17 9 -19 17 -19zM152 155
c15 0 25 15 25 33c0 10 -4 13 -7 13c-5 -21 -14 -31 -27 -31h-9c1 -11 6 -15 18 -15zM261 324c0 -18 -4 -33 -13 -46c3 -1 7 -3 12 -3c13 0 15 12 15 22c0 17 -6 25 -14 27zM224 311c4 19 13 28 25 29c-2 5 -8 8 -15 8c-14 0 -25 -14 -25 -30c5 -7 11 -7 15 -7zM152 297
c3 0 7 1 9 2c0 22 -10 30 -26 30c-1 -5 -1 -8 -1 -12c0 -13 4 -20 18 -20zM125 189c3 18 10 33 20 44c-3 2 -7 3 -11 3c-13 0 -15 -12 -15 -22c0 -11 2 -19 6 -25zM120 307c0 -19 12 -32 27 -32c2 4 2 7 2 10c-17 6 -24 18 -24 34v7c-4 -4 -5 -10 -5 -19zM160 349
c-11 0 -15 -3 -19 -9c14 -1 26 -8 35 -19c1 3 1 6 1 9c0 17 -9 19 -17 19zM161 204l-1 3c-17 0 -24 -9 -26 -23c4 -1 7 -1 11 -1c10 0 16 4 16 21zM233 307c0 -4 0 -8 1 -11c14 4 15 15 15 33c-10 0 -16 -5 -16 -22zM234 206c0 -17 7 -20 17 -20c0 13 -3 20 -17 20z" />
    <glyph glyph-name="orn.1.003" unicode="&#xe07f;" horiz-adv-x="399" 
d="M65 82v340h268v-340h-268zM-1 124h42l3 -16v-12l-18 -43v-3l13 -16h2l35 22h9l13 -3v-53h-99v124zM41 376h-42v124h99v-53l-13 -3h-9l-35 22h-2l-13 -16v-3l18 -43v-12zM399 376h-42l-3 16v12l18 43v3l-13 16h-2l-35 -22h-9l-13 3v53h99v-124zM357 124h42v-124h-99v53
l13 3h9l35 -22h2l13 16v3l-18 43v12zM-1 238h42v-89h-42v89zM280 53v-53h-71v53h71zM357 238h42v-89h-42v89zM118 0v53h71v-53h-71zM399 262h-42v89h42v-89zM280 500v-53h-71v53h71zM118 447v53h71v-53h-71zM41 262h-42v89h42v-89zM321 400l-111 -5v-42zM210 109l111 -5
l-111 47v-42zM188 395l-111 5l111 -47v42zM77 104l111 5v42zM188 338l-111 50v-30zM210 166l111 -50v30zM77 116l111 50l-111 -20v-30zM321 388l-111 -50l111 20v30zM159 288v-15l40 10l40 -10v15h-80zM159 231v-15h80v15l-40 -10zM210 327l111 -14v14h-111zM321 191
l-111 -14h111v14zM77 313l111 14h-111v-14zM188 177l-111 14v-14h111zM120 268v-32h24v32h-24zM254 268v-32h24v32h-24zM159 268v-32h22v32h-22zM217 268v-32h22v32h-22zM321 336v12l-86 -14zM321 156v12l-86 2zM77 348v-12l86 -2zM77 168v-12l86 14zM77 288v-15l67 15h-67z
M321 273v15h-67zM77 231v-15h67zM321 216v15l-67 -15h67zM84 268v-32h13v32h-13zM301 268v-32h13v32h-13zM228 191l-23 5l6 -13zM170 313l23 -5l-6 13zM205 308l23 5l-17 8zM193 196l-23 -5l17 -8zM123 210l-22 -4l16 -8zM146 210l-22 -4l17 -8zM274 206l-22 4l5 -12z
M77 298l22 -4l-6 12zM124 298l22 -4l-5 12zM321 206l-22 4l6 -12zM252 294l22 4l-17 8zM299 294l22 4l-16 8zM101 298l22 -4l-6 12zM297 206l-22 4l6 -12zM99 210l-22 -4l16 -8zM275 294l22 4l-16 8zM250 198l-22 5l6 -12zM170 203l-22 -5l16 -7zM148 306l22 -5l-6 12z
M228 301l22 5l-16 7z" />
    <glyph glyph-name="orn.1.004" unicode="&#xe080;" horiz-adv-x="400" 
d="M400 149h-99v202h99v-202zM117 0v124h165v-124h-165zM98 149h-99v202h99v-202zM117 377v123h165v-123h-165zM204 264c28 86 47 72 67 78l2 1v-3c0 -45 -37 -71 -64 -83l-3 -6l3 -6c73 -38 59 -65 63 -83l1 -3h-2c-42 0 -60 55 -67 79l-4 3l-5 -3c-29 -88 -53 -74 -67 -78
l-2 -1v3c0 45 37 71 63 83l4 6l-4 6c-71 38 -58 64 -62 83l-1 3h2c41 0 60 -55 67 -79l5 -4zM400 377h-43l-2 15v12l18 43v3l-13 16h-3l-34 -22h-10l-12 3v53h99v-123zM-1 124h43l3 -16v-12l-18 -43v-3l13 -16h2l35 22h9l13 -3v-53h-100v124zM357 124h43v-124h-99v53l12 3
h10l34 -22h3l13 16v3l-18 43v12zM42 377h-43v123h100v-53l-13 -3h-9l-35 22h-2l-13 -16v-3l18 -43v-12zM222 275c19 6 43 23 43 54l-4 4c-24 0 -38 -29 -43 -53zM177 227c-20 -6 -43 -23 -43 -54l3 -4c25 0 39 29 44 53zM218 222c5 -24 19 -53 43 -53l4 4
c0 31 -24 48 -43 54zM181 280c-5 24 -19 53 -44 53l-3 -4c0 -31 23 -48 43 -54zM117 149h165v202h-165v-202z" />
    <glyph glyph-name="orn.1.005" unicode="&#xe081;" horiz-adv-x="399" 
d="M22 284c-15 6 -21 18 -21 34c0 23 10 49 24 59h-26v33c27 11 54 37 87 37c26 0 39 -21 47 -37c26 11 53 37 87 37c25 0 37 -21 45 -37c28 11 55 37 88 37c25 0 38 -21 46 -37v-33h-22c-8 -3 -8 -11 -8 -16c15 -5 21 -22 21 -38c0 -26 -10 -49 -25 -61h34v-24h-22
c-8 -8 -8 -16 -8 -21c15 -6 21 -18 21 -34c0 -23 -10 -49 -25 -59h34v-40c-64 -28 -78 -30 -95 -30c-11 0 -25 7 -39 29v1c-64 -28 -78 -30 -95 -30c-11 0 -25 7 -38 29c-63 -27 -78 -29 -95 -29c-11 0 -24 7 -38 29v41h14c9 3 9 16 9 21c-15 5 -21 17 -21 33
c0 26 10 48 24 60h-26v24h14c9 8 9 17 9 22zM-1 0v31h400v-31h-400zM-1 469v31h400v-31h-400zM232 124h48c9 3 9 16 9 21c-16 5 -22 17 -22 33c0 26 10 48 25 60h-48c-9 -8 -9 -16 -9 -21c15 -6 22 -18 22 -34c0 -23 -11 -49 -25 -59zM289 284c-16 6 -22 18 -22 34
c0 23 10 49 25 59h-48c-9 -3 -9 -11 -9 -16c15 -5 22 -22 22 -38c0 -26 -11 -49 -25 -61h48c9 8 9 17 9 22zM99 124h47c9 3 9 16 9 21c-15 5 -22 17 -22 33c0 26 11 48 25 60h-47c-9 -8 -9 -16 -9 -21c15 -6 22 -18 22 -34c0 -23 -11 -49 -25 -59zM155 284
c-15 6 -22 18 -22 34c0 23 11 49 25 59h-47c-9 -3 -9 -11 -9 -16c15 -5 22 -22 22 -38c0 -26 -11 -49 -25 -61h47c9 8 9 17 9 22zM332 317c0 17 9 45 24 60h-42c-6 -2 -11 -14 -11 -23c16 -5 22 -16 22 -29c0 -20 -9 -44 -24 -63h42c6 6 10 13 10 24c-15 4 -21 16 -21 31z
M65 317c0 17 10 45 24 60h-41c-7 -2 -11 -14 -11 -23c16 -5 22 -16 22 -29c0 -20 -10 -44 -24 -63h42c6 6 10 13 10 24c-15 4 -22 16 -22 31zM198 317c0 17 10 45 24 60h-41c-7 -2 -11 -14 -11 -23c15 -5 22 -16 22 -29c0 -20 -10 -44 -24 -63h41c7 6 11 13 11 24
c-15 4 -22 16 -22 31zM356 238h-42c-6 -8 -11 -12 -11 -23c16 -4 22 -16 22 -31c0 -17 -9 -45 -24 -60h42c6 2 10 14 10 23c-15 5 -21 16 -21 29c0 20 9 43 24 62zM89 238h-41c-7 -8 -11 -12 -11 -23c16 -4 22 -16 22 -31c0 -17 -10 -45 -24 -60h42c6 2 10 14 10 23
c-15 5 -22 16 -22 29c0 20 10 43 24 62zM222 238h-41c-8 -8 -11 -12 -11 -23c15 -4 22 -16 22 -31c0 -17 -10 -45 -24 -60h41c7 2 11 14 11 23c-15 5 -22 16 -22 29c0 20 10 43 24 62zM25 155c13 0 23 15 23 32c0 19 -9 20 -16 20c-18 0 -23 -13 -23 -32c0 -14 3 -20 16 -20
zM157 155c14 0 24 15 24 32c0 19 -9 20 -16 20c-18 0 -23 -13 -23 -32c0 -14 3 -20 15 -20zM291 155c14 0 23 15 23 32c0 19 -9 20 -16 20c-17 0 -22 -13 -22 -32c0 -14 2 -20 15 -20zM233 346c-14 0 -24 -15 -24 -32c0 -19 9 -20 16 -20c18 0 23 13 23 32
c0 12 -3 20 -15 20zM366 346c-13 0 -23 -15 -23 -32c0 -19 9 -20 16 -20c18 0 22 13 22 32c0 12 -3 20 -15 20zM100 346c-14 0 -23 -15 -23 -32c0 -19 8 -20 16 -20c17 0 22 13 22 32c0 12 -3 20 -15 20zM291 296c14 0 23 15 23 32s-9 19 -16 19c-17 0 -22 -13 -22 -31
c0 -13 2 -20 15 -20zM157 296c14 0 24 15 24 32s-9 19 -16 19c-18 0 -23 -13 -23 -31c0 -13 3 -20 15 -20zM25 296c13 0 23 15 23 32s-9 19 -16 19c-18 0 -23 -13 -23 -31c0 -13 3 -20 16 -20zM100 205c-14 0 -23 -15 -23 -32s8 -19 16 -19c17 0 22 13 22 31
c0 13 -3 20 -15 20zM366 205c-13 0 -23 -15 -23 -32s9 -19 16 -19c18 0 22 13 22 31c0 13 -3 20 -15 20zM233 205c-14 0 -24 -15 -24 -32s9 -19 16 -19c18 0 23 13 23 31c0 13 -3 20 -15 20z" />
    <glyph glyph-name="orn.1.006" unicode="&#xe082;" horiz-adv-x="399" 
d="M-1 0v124h400v-124h-400zM-1 377v124h400v-124h-400zM212 149h-57v5c0 50 -38 73 -60 84h64c22 -27 26 -78 53 -89zM372 149h-57v5c0 50 -38 73 -60 84h64c22 -27 26 -78 53 -89zM132 149h-57v5c0 50 -38 73 -60 84h64c22 -27 26 -78 53 -89zM292 149h-57v5
c0 50 -38 73 -60 84h64c22 -27 26 -78 53 -89zM372 351c-27 -11 -31 -62 -53 -89h-64c53 29 55 43 59 83l1 6h57zM212 351c-27 -11 -31 -62 -53 -89h-64c53 29 55 43 59 83l1 6h57zM132 351c-27 -11 -31 -62 -53 -89h-64c53 29 55 43 59 83l1 6h57zM292 351
c-27 -11 -31 -62 -53 -89h-64c53 29 55 43 59 83l1 6h57zM52 351c-27 -11 -31 -62 -53 -89v89h53zM52 149h-53v89c22 -27 26 -78 53 -89zM335 238h64v-89h-4v5c0 50 -38 73 -60 84zM394 345l1 6h4v-89h-64c53 29 55 43 59 83zM263 215c23 0 37 -22 42 -53
c-24 0 -37 29 -42 53zM103 215c23 0 37 -22 42 -53c-24 0 -37 29 -42 53zM183 215c23 0 37 -22 42 -53c-24 0 -37 29 -42 53zM343 215c23 0 37 -22 42 -53c-24 0 -37 29 -42 53zM23 215c23 0 37 -22 42 -53c-24 0 -37 29 -42 53zM23 285c5 24 18 53 42 53
c-5 -30 -19 -53 -42 -53zM263 285c5 24 18 53 42 53c-5 -30 -19 -53 -42 -53zM343 285c5 24 18 53 42 53c-5 -30 -19 -53 -42 -53zM183 285c5 24 18 53 42 53c-5 -30 -19 -53 -42 -53zM103 285c5 24 18 53 42 53c-5 -30 -19 -53 -42 -53z" />
    <glyph glyph-name="orn.1.007" unicode="&#xe083;" horiz-adv-x="399" 
d="M-1 262v31h20c5 2 9 6 10 12v44c-12 -8 -21 -21 -30 -29v8c10 11 22 17 30 31v31c-14 4 -21 -4 -30 -14v20h29c0 3 0 5 1 5c-1 20 -16 14 -30 12v12h9c1 9 1 11 0 17c-4 0 -7 0 -9 -2v12c9 -6 18 -2 30 0c6 33 -16 19 -30 23v25h16v-19h14c0 9 0 15 -1 19h13
c-4 -4 6 -6 3 0h6c0 -15 0 -17 3 -21h10c2 6 2 13 2 21h24v-19c2 -2 6 -2 13 0c0 9 0 15 -1 19h23c0 -8 -2 -15 2 -21h11v21h12c-4 -6 -4 -10 -3 -19h7s-6 18 0 19h9c0 -19 0 -19 1 -21h10c2 6 2 17 0 21h8s-11 -20 0 -19h9v19h9c-2 -4 -2 -10 -2 -19c2 -2 7 -2 12 -2
c1 6 1 13 1 21h25v-21h11v21h12c-3 -4 -3 -10 -3 -19h8c0 9 0 15 -2 19h8c0 -8 -1 -15 2 -21h10v21h26c-1 -4 -1 -10 -1 -19c1 -2 7 -2 12 -2c1 6 1 13 1 21h6v-19c4 0 9 0 10 4c2 9 -1 9 -3 15h67v-25h-39c-3 -4 -3 -6 -3 -25c9 -5 13 -4 42 -4v-184h-400zM-1 206v31h400
v-183c-31 0 -34 1 -43 -4c0 -19 0 -21 3 -25h40v-25h-69c3 6 7 6 4 15c-1 4 -6 4 -9 4v-19h-7c0 8 0 15 -1 21c-7 0 -11 0 -12 -2c0 -9 0 -15 1 -19h-25v21h-12c-1 -2 -1 -2 -1 -21h-9c3 4 3 10 3 19h-9c0 -9 0 -15 4 -19h-12v21h-11s-10 -21 0 -21h-25v21
c-6 0 -11 0 -13 -2c0 -9 0 -15 2 -19h-8v19h-10c0 -11 4 -11 1 -19h-8c1 4 1 15 0 21h-11c-1 -2 -1 -2 -1 -21h-9c0 6 4 13 0 19h-7c-1 -9 -1 -13 3 -19h-11c0 8 0 15 -1 21h-11c-1 -2 -1 -2 -1 -21h-23v19c-7 2 -10 2 -12 0v-19h-24c0 8 0 15 -3 21h-9c-3 -4 -3 -6 -3 -21
h-7c3 6 -6 4 -2 0h-14c2 4 2 10 2 19h-14v-19h-16v25c14 4 36 -10 30 23c-12 2 -22 6 -30 0v12c2 -2 5 -2 8 -2c2 6 2 8 0 17h-8v12c14 -2 28 -8 30 11c-2 0 -2 2 -2 6c0 0 -36 0 -28 0v19c8 -9 16 -17 30 -13v31c-8 13 -20 19 -30 30v8c8 -8 18 -21 30 -29v45
c-2 5 -5 9 -10 11h-20zM395 390c-17 2 -35 2 -54 2l-35 -37c1 -19 -3 -45 0 -62h63c11 4 19 12 26 23v74zM395 110v73c-7 12 -18 19 -28 23h-62c-3 -17 1 -42 0 -61l35 -37c19 0 37 0 55 2zM35 355v-45c18 12 31 33 50 47v33c-25 6 -36 -24 -50 -35zM35 189v-44
c14 -12 24 -41 49 -35v33c-18 13 -31 34 -49 46zM299 110c6 50 -31 54 -46 79c-4 -10 -4 -25 -4 -41c16 -13 24 -40 50 -38zM199 357v-47c16 16 30 33 47 47v33c-26 2 -32 -20 -47 -33zM192 390c-27 4 -30 -24 -47 -33v-43c20 12 32 31 49 45c0 11 0 25 -2 31zM300 390
c-26 2 -33 -25 -49 -39c0 -15 0 -31 4 -41c14 26 51 29 45 80zM198 143c15 -14 21 -35 47 -33v33c-17 13 -31 30 -47 46c0 0 -21 -47 0 -46zM191 110c2 6 2 19 2 31c-17 13 -29 32 -49 44v-42c17 -10 21 -37 47 -33zM89 355v-41c16 6 32 31 48 45v31c-24 2 -33 -24 -48 -35z
M89 185v-40c15 -12 24 -37 48 -35v31c-17 13 -32 38 -48 44zM299 349c-14 -21 -38 -27 -46 -56h47c2 14 6 48 -1 56zM137 349c-16 -19 -44 -29 -44 -54c0 -2 -3 -2 -2 -2h31c8 2 15 8 19 14c-4 13 1 36 -4 42zM297 150c8 8 3 43 2 56h-46c6 -29 31 -35 44 -56zM393 415h-87
c0 -6 3 -10 1 -19c0 0 39 -2 58 0c11 0 21 1 29 3c2 0 1 16 -1 16zM145 293h33c7 2 12 6 16 14v42c-17 -15 -41 -27 -49 -56zM177 206h-33c8 -29 32 -40 49 -56v43c-3 7 -8 11 -16 13zM136 150c6 6 1 29 4 43c-4 5 -11 11 -18 13h-31c-1 0 -2 0 -2 -2c11 -25 31 -34 47 -54z
M81 150c4 8 4 23 4 39c-3 8 -8 13 -13 17h-37c9 -29 31 -35 46 -56zM81 349c-15 -21 -36 -27 -46 -56h37c6 4 11 10 13 17c0 16 0 31 -4 39zM245 349c-14 -21 -39 -27 -46 -56h34c7 2 12 6 14 14c-1 13 4 36 -2 42zM243 150c6 6 2 29 3 43c-3 7 -7 11 -15 13h-33
c8 -29 32 -35 45 -56zM305 85h88c1 0 3 13 1 14c-9 3 -22 4 -36 4c-47 0 -47 0 -52 1c3 -10 -1 -13 -1 -19zM249 94c2 -19 56 -15 50 4c-5 16 -31 6 -46 8c0 -6 -4 -8 -4 -12zM253 405v-11c16 2 42 -8 47 7c6 20 -47 24 -47 4zM35 415v-19h50c0 38 -36 11 -50 19zM35 104
v-19c14 7 50 -19 49 19h-49zM137 415h-47v-19c15 3 36 -2 51 3c0 8 -4 8 -4 16zM198 104v-19c16 6 55 -14 47 19c-14 4 -31 -4 -47 0zM145 415c1 -8 -3 -8 -3 -14c11 -9 35 -2 50 -5c7 34 -32 13 -47 19zM199 415v-19c16 3 34 -4 47 0c7 32 -31 13 -47 19zM144 85
c15 6 54 -16 47 19c-15 -4 -39 4 -49 -6c0 -6 3 -6 2 -13zM90 85h47c-1 7 4 7 3 15c-15 6 -35 0 -50 4v-19zM69 25h32v25c-29 0 -30 0 -32 -2v-23zM101 475h-32v-23c3 -2 3 -2 32 -2c0 0 -12 24 0 25zM246 475c-9 0 -24 0 -31 -4v-19c7 -6 22 0 31 -2c0 0 -12 24 0 25z
M245 25v25c-10 -2 -24 4 -31 -2v-19c7 -4 21 -4 31 -4zM108 475c0 -23 0 -24 1 -25h28s-10 24 0 25h-29zM288 29c5 -4 21 -4 30 -4v25h-30v-21zM289 471c0 0 -9 -22 0 -21h30v25c-10 0 -24 0 -30 -4zM249 48v-19c10 -4 43 -8 32 21c-12 -2 -24 4 -32 -2zM108 25h29
c0 23 0 23 -1 25h-27c-1 -2 -1 -2 -1 -25zM142 471v-16c7 -9 21 -5 31 -5c12 29 -20 25 -31 21zM142 44v-15c10 -4 42 -8 31 21c-28 0 -28 0 -31 -6zM251 471v-19c7 -6 20 0 30 -2c12 29 -20 25 -30 21zM35 475c0 0 -11 -24 0 -23c9 -2 18 -2 28 -2c9 25 -7 25 -28 25z
M35 25c24 0 36 1 27 25c-9 0 -19 0 -27 -2v-23zM180 48v-19c7 -3 39 -10 29 21c-11 -2 -23 4 -29 -2zM181 471v-19c6 -6 18 0 28 -2c11 29 -19 25 -28 21zM124 442c0 -19 0 -19 2 -21h11c8 15 -3 31 -13 21zM15 444c0 -8 0 -18 2 -23h11c5 13 1 31 -13 23zM50 442
c0 -17 0 -17 3 -21h10c6 13 -1 34 -13 21zM124 58c9 -10 20 6 13 21h-12c-1 -2 -1 -2 -1 -21zM15 56c14 -8 18 10 12 23h-10c-2 -6 -2 -15 -2 -23zM50 58c11 -14 19 8 12 21h-9c-3 -4 -3 -6 -3 -21zM268 56c13 -6 17 10 13 23h-12c-1 -2 -1 -2 -1 -23zM269 444
c0 -8 -1 -18 2 -23h10c6 13 2 29 -12 23zM161 56c13 -8 16 10 12 23h-11c-1 -2 -1 -2 -1 -23zM162 444c0 -21 0 -21 1 -23h10c5 13 2 31 -11 23zM89 444c0 -21 0 -21 1 -23h11c4 13 0 29 -12 23zM89 56c12 -6 16 10 12 23h-11c-1 -2 -1 -2 -1 -23zM325 475c0 0 -9 -26 0 -25
h10c5 13 2 25 -10 25zM306 442v-17c1 -4 8 -4 13 -4v23c-12 0 -12 0 -13 -2zM305 75v-17c1 -2 1 -2 13 -2v23c-5 0 -12 0 -13 -4zM325 25c12 0 14 12 9 25h-9c-2 -10 -4 -15 0 -25zM199 444c1 -10 -2 -14 -2 -19c2 -4 7 -4 12 -4c1 5 1 13 1 21c-1 2 -6 2 -11 2zM237 444
c0 -4 -2 -10 -2 -19c2 -4 6 -4 11 -4c3 9 3 29 -9 23zM198 56c5 0 11 0 11 2v21c-6 0 -11 0 -13 -4c0 -6 4 -9 2 -19zM237 56c10 -6 10 13 8 23c-5 0 -10 0 -11 -4c0 -9 1 -15 3 -19zM108 440c-3 -10 1 -12 1 -15h9c3 1 3 9 3 17c-12 0 -12 0 -13 -2zM108 60
c1 -2 1 -2 12 -2c0 8 0 15 -3 17h-8c0 -4 -4 -6 -1 -15zM199 384c0 -6 0 -10 1 -14c6 4 13 8 15 16c-6 4 -10 4 -16 -2zM198 116c7 -6 11 -6 16 -2c-2 7 -8 11 -14 15c-2 -4 -2 -8 -2 -13zM36 386v-16c8 4 11 8 14 16c-5 4 -5 4 -14 0zM253 442c0 -8 0 -16 2 -17h8v17h-10z
M36 114c8 -4 8 -4 14 0c-3 7 -7 11 -14 15c0 0 -9 -15 0 -15zM253 58h9v17h-9v-17zM145 436c1 0 0 -15 8 -11c2 1 2 9 2 17c-5 0 -10 2 -10 -6zM144 64c0 -8 5 -6 10 -6c0 15 0 16 -2 17c-8 4 -7 -11 -8 -11zM292 442c-5 -6 -3 -8 -3 -17c6 -4 6 1 10 1c-3 4 1 16 -3 16
c-3 -14 0 2 -4 0zM90 384v-10c3 -4 12 4 14 12c-13 0 -14 0 -14 -2zM290 58c5 -2 2 13 5 0c4 0 0 11 2 15c-4 0 -4 6 -9 2c0 -15 0 -15 2 -17zM90 125v-9c0 -2 1 -2 14 -2c-3 7 -11 15 -14 11zM307 384c0 0 -2 -10 0 -10c6 4 12 4 14 12c-13 0 -13 0 -14 -2zM306 116
c1 -2 1 -2 15 -2c-3 7 -11 7 -15 11v-9zM225 440c1 0 1 0 1 -4c-4 6 -6 -2 -9 -6c1 0 5 0 5 -2c-2 0 -2 -2 -2 -3h6c3 1 2 25 -1 15zM289 494c3 -2 0 -13 7 -13c3 4 3 11 3 15c-6 -2 -7 0 -10 -2zM225 60c1 -10 3 13 0 15h-6c0 -2 0 -4 2 -4c0 -2 -3 -2 -6 -2
c4 -3 6 -11 10 -5v-4zM288 6c2 -2 4 0 9 -2c0 4 0 11 -2 15c-7 0 -5 -11 -7 -13zM73 15v-11h8v11h-8zM73 496v-11h8v11h-8zM72 434c3 0 1 -8 5 -8c0 2 1 2 2 0v16c-2 0 -6 0 -6 -2c2 0 4 -4 5 -6c-3 -4 -6 8 -6 0zM72 66c0 -8 3 3 5 0c-1 -2 -2 -6 -4 -6c0 -2 3 -2 5 -2v15
c-1 -2 -2 -2 -2 0c-3 0 -1 -7 -4 -7zM153 376c4 2 6 3 8 9c-4 -5 -6 4 -8 -1c9 -4 -4 0 0 -8zM152 123c-4 -7 9 -4 0 -7c2 -6 4 3 9 -2c-2 5 -5 7 -9 9z" />
    <glyph glyph-name="orn.1.008" unicode="&#xe084;" horiz-adv-x="399" 
d="M373 51v-21l26 13v-43h-12v22h-14v-22h-10v22h-16v-22h-14v22h-9v-22h-37v22h-14v-22h-10v22h-16v-22h-14v22h-9v-22h-37v22h-14v-22h-10v22h-16v-22h-14v22h-9v-22h-37v22h-14v-22h-10v22h-16v-22h-14v22h-9v-22h-25v238h400v-187h-26zM373 470v-21h26v-187h-400v238h25
v-22h9v22h14v-22h16v22h10v-22h14v22h37v-22h9v22h14v-22h16v22h10v-22h14v22h37v-22h9v22h14v-22h16v22h10v-22h14v22h37v-22h9v22h14v-22h16v22h10v-22h14v22h12v-43zM192 358v31l-73 -37v-42zM392 111v31l-73 48v-42zM392 358v31l-73 -37v-42zM192 111v31l-73 48v-42z
M292 111v31l-73 48v-42zM92 111v31l-73 48v-42zM292 358v31l-73 -37v-42zM92 358v31l-73 -37v-42zM69 207h-50l73 -56v41zM369 207h-50l73 -56v41zM19 293h50l23 15v41zM119 293h50l23 15v41zM319 293h50l23 15v41zM269 207h-50l73 -56v41zM169 207h-50l73 -56v41zM219 293
h50l23 15v41zM92 395l-73 19v-19h73zM319 86l73 19h-73v-19zM192 395l-73 19v-19h73zM19 86l73 19h-73v-19zM392 395l-73 19v-19h73zM219 86l73 19h-73v-19zM119 86l73 19h-73v-19zM292 395l-73 19v-19h73zM219 383v-17l56 23zM19 134v-17l56 -6zM319 134v-17l56 -6zM19 383
v-17l56 23zM119 383v-17l56 23zM319 383v-17l56 23zM219 134v-17l56 -6zM119 134v-17l56 -6zM319 51v-21l44 21h-44zM19 470v-21h44zM319 470v-21h44zM219 51v-21l44 21h-44zM119 470v-21h44zM19 51v-21l44 21h-44zM119 51v-21l44 21h-44zM219 470v-21h44zM73 51v-21l26 13
v8h-26zM273 470v-21h26v8zM273 51v-21l26 13v8h-26zM173 51v-21l26 13v8h-26zM73 470v-21h26v8zM173 470v-21h26v8zM165 65l15 -6l-3 17zM350 65l15 -6l-4 17zM50 65l15 -6l-4 17zM33 441l-14 -6l11 -11zM233 441l-14 -6l11 -11zM380 441l-15 -6l12 -11zM365 441l-15 -6
l11 -11zM380 65l14 -6l-3 17zM150 65l15 -6l-4 17zM34 65l15 -6l-4 17zM249 441l-15 -6l11 -11zM133 441l-14 -6l11 -11zM280 65l14 -6l-3 17zM19 65l14 -6l-3 17zM265 65l15 -6l-3 17zM219 65l14 -6l-3 17zM334 65l15 -6l-4 17zM134 65l15 -6l-4 17zM65 65l15 -6l-3 17z
M365 65l15 -6l-3 17zM333 441l-14 -6l11 -11zM119 65l14 -6l-3 17zM394 441l-14 -6l11 -11zM265 441l-15 -6l11 -11zM180 65l14 -6l-3 17zM280 441l-15 -6l12 -11zM80 65l14 -6l-3 17zM165 441l-15 -6l11 -11zM94 441l-14 -6l11 -11zM349 441l-15 -6l11 -11zM234 65l15 -6
l-4 17zM49 441l-15 -6l11 -11zM319 65l14 -6l-3 17zM250 65l15 -6l-4 17zM149 441l-15 -6l11 -11zM65 441l-15 -6l11 -11zM194 441l-14 -6l11 -11zM80 441l-15 -6l12 -11zM294 441l-14 -6l11 -11zM180 441l-15 -6l12 -11z" />
    <glyph glyph-name="orn.1.009" unicode="&#xe085;" horiz-adv-x="399" 
d="M339 470v-21h60v-187h-400v238h28v-22h21v22h33v-22h35v22h23v-22h34v22h54v-22h21v22h33v-22h35v22h23v-22h34v22h26v-43zM339 51v-21l60 13v-43h-26v22h-34v-22h-23v22h-35v-22h-33v22h-21v-22h-54v22h-34v-22h-23v22h-35v-22h-33v22h-21v-22h-28v238h400v-187h-60z
M382 121l-165 69v-42zM217 310l165 67l-165 -25v-42zM17 310l165 67l-165 -25v-42zM182 121l-165 69v-42zM182 172l-165 35l165 -66v31zM382 172l-165 35l165 -66v31zM17 293l165 35v29zM217 293l165 35v29zM17 86l165 19h-165v-19zM217 86l165 19h-165v-19zM182 395
l-165 19v-19h165zM382 395l-165 19v-19h165zM17 383v-17l128 17h-128zM17 134v-17l128 -2zM217 134v-17l128 -2zM217 383v-17l128 17h-128zM17 51v-21l99 21h-99zM217 51v-21l99 21h-99zM17 470v-21h99zM217 470v-21h99zM139 470v-21h60v8zM139 51v-21l60 13v8h-60zM122 75
l34 -6l-9 17zM356 431l-34 -6l25 -11zM322 75l34 -6l-9 17zM156 431l-34 -6l25 -11zM17 65l32 -6l-7 17zM249 441l-32 -6l25 -11zM217 65l32 -6l-7 17zM49 441l-32 -6l25 -11zM321 441l-34 -6l25 -11zM85 441l-32 -6l24 -11zM389 421l-33 -6l25 -11zM53 65l32 -6l-8 17z
M121 441l-34 -6l25 -11zM285 441l-32 -6l24 -11zM356 85l33 -6l-8 17zM156 85l33 -6l-8 17zM87 65l34 -6l-9 17zM253 65l32 -6l-8 17zM189 421l-33 -6l25 -11zM287 65l34 -6l-9 17z" />
    <glyph glyph-name="orn.1.010" unicode="&#xe086;" horiz-adv-x="399" 
d="M-1 107v17h400v-96c-18 0 -33 1 -43 -2c0 -5 -1 -10 2 -13h41v-13h-69c2 2 4 3 4 5c0 4 -3 5 -10 5v-10h-7v11c-7 0 -12 0 -12 -1v-10h-24v11h-12c0 -1 -1 -3 -1 -4c0 -2 1 -5 1 -7h-9c2 2 2 5 2 10h-9c0 -5 0 -8 4 -10h-12v11h-11c-1 -1 -1 -2 -1 -4s1 -4 1 -7h-25v11
c-6 0 -11 0 -13 -1c0 -5 0 -8 2 -10h-9v10h-9c0 -5 2 -6 2 -8c0 0 0 -1 -1 -2h-8v11h-10c-2 -1 -2 -3 -2 -5v-6h-9c0 2 1 4 1 7c0 2 0 2 -1 3h-7v-4c0 -3 0 -4 3 -6h-11c0 4 0 8 -1 11h-11c-3 -3 -2 -7 -2 -11h-23c1 2 1 5 1 10c-3 0 -6 1 -8 1s-4 -1 -4 -1v-10h-24
c0 4 0 8 -2 11h-10c-2 -2 -3 -4 -3 -6s1 -3 1 -5h-8c2 2 2 2 2 4s-2 3 -4 3c-3 0 -5 -1 -5 -3s2 -3 5 -4h-14c2 2 2 5 2 10h-14v-10h-16v13c4 0 9 -1 14 -1c9 0 17 2 17 8s-18 6 -25 6c-2 0 -4 0 -6 -1v6c2 -1 5 -1 9 -1c0 1 1 2 1 4c0 1 -1 2 -1 5h-9v6c6 -1 12 -1 17 -1
c7 0 12 1 13 7c-2 0 -19 3 -30 3v10c7 -4 13 -8 23 -8c3 0 5 1 7 1v16c-8 7 -20 10 -30 16v4c9 -4 18 -11 30 -15v23c-2 3 -5 5 -10 6h-20zM-1 377v16h20c5 1 8 3 10 6v23c-12 -4 -21 -11 -30 -15v4c10 6 22 9 30 16v16c-16 0 -21 -2 -30 -7v10c6 0 13 -1 19 -1
c7 0 9 4 11 4c-1 6 -6 7 -13 7c-5 0 -11 -1 -17 -1v6h9c0 2 1 4 1 5s-1 2 -1 4c-4 0 -7 0 -9 -1v6c3 -1 7 -2 10 -2c5 0 21 -1 21 7c0 6 -6 7 -13 7c-4 0 -8 -1 -12 -1c-2 0 -4 1 -6 1v13h16v-10h14c0 5 0 8 -2 10h14c-4 -2 -5 -3 -5 -5c0 -1 2 -2 5 -2c2 0 4 1 4 3
s0 2 -2 4h8c0 -2 -1 -4 -1 -5c0 -2 1 -4 3 -6h10c2 3 2 7 2 11h24v-10c0 -1 2 -1 4 -1s5 0 8 1c0 5 0 8 -1 10h23c0 -4 -1 -8 2 -11h11c1 3 1 7 1 11h11c-3 -2 -3 -4 -3 -6v-4h7c1 1 1 1 1 3s-1 5 -1 7h9v-7c0 -1 0 -3 2 -4h10v11h8c1 -1 1 -2 1 -2c0 -2 -2 -4 -2 -8h9v10h9
c-2 -2 -2 -5 -2 -10c2 -1 7 -1 13 -1v11h25c0 -3 -1 -5 -1 -8c0 -2 0 -2 1 -3h11v11h12c-4 -2 -4 -5 -4 -10h9c0 5 0 8 -2 10h9c0 -2 -1 -5 -1 -7c0 -1 1 -3 1 -4h12v11h24v-10c0 -1 5 -1 12 -1v11h7v-10c7 0 10 1 10 5c0 2 -2 3 -4 5h69v-13h-41c-2 -2 -2 -5 -2 -8
c0 -6 10 -8 22 -8c7 0 15 1 21 1v-95h-400zM-1 207v86h400v-86h-400zM395 443c-17 1 -37 1 -55 1l-35 -19c0 -8 -2 -16 -2 -23c0 -4 1 -6 2 -9h62c11 2 21 6 28 12v38zM395 57v38c-7 6 -17 10 -28 12h-62c-1 -3 -2 -6 -2 -9c0 -7 2 -17 2 -23l35 -19c18 0 38 0 55 1zM35 98
v-23c13 -6 22 -19 42 -19c3 0 4 1 7 1v17c-17 7 -31 18 -49 24zM35 425v-23c18 6 32 17 49 24v17c-26 0 -34 -12 -49 -18zM299 443c-26 0 -33 -13 -49 -20c0 -8 0 -16 3 -21c15 12 47 14 47 36c0 1 -1 3 -1 5zM198 74c15 -7 21 -17 47 -17v17c-17 7 -31 16 -47 24
c-1 -3 -1 -6 -1 -8c0 -5 1 -9 1 -16zM198 426c0 -7 -1 -12 -1 -16c0 -3 0 -5 1 -8c16 8 30 17 47 24v17c-26 0 -32 -10 -47 -17zM299 57c0 2 1 4 1 5c0 21 -32 24 -47 36c-3 -5 -3 -13 -3 -21c16 -7 23 -20 49 -20zM191 57c2 3 2 10 2 16c-16 7 -29 17 -48 23v-22
c16 -6 20 -17 46 -17zM191 443c-26 0 -30 -12 -46 -17v-22c19 6 32 16 48 23c0 6 0 13 -2 16zM89 96v-21c15 -6 24 -18 48 -18v16c-17 7 -32 20 -48 23zM89 425v-21c16 3 31 16 48 23v16c-24 0 -33 -12 -48 -18zM393 456h-88c0 -2 1 -4 1 -7c0 -2 0 -2 -1 -3c8 0 18 1 28 1
c9 0 20 -1 30 -1s32 0 32 4c0 3 -2 6 -2 6zM298 78c3 2 3 5 3 10c0 7 -1 15 -2 19h-46c7 -15 32 -18 45 -29zM145 393h32c8 1 12 3 16 7v22c-16 -8 -41 -14 -48 -29zM298 422c-13 -11 -38 -14 -45 -29h46c1 4 2 12 2 19c0 4 0 8 -3 10zM177 107h-32c7 -15 32 -21 48 -29v22
c-4 4 -8 6 -16 7zM244 422c-14 -11 -39 -14 -46 -29h34c15 2 15 8 15 21c0 4 -1 7 -3 8zM244 78c2 1 3 4 3 7c0 11 1 20 -15 22h-34c7 -15 32 -18 46 -29zM81 78c4 4 4 12 4 20c-2 4 -8 7 -13 9h-37c10 -15 32 -18 46 -29zM81 422c-14 -11 -36 -14 -46 -29h37c5 2 11 5 13 9
c0 8 0 16 -4 20zM136 78c1 1 2 3 2 6s-1 6 -1 8c0 3 1 6 2 8c-3 3 -10 6 -17 7h-31c-1 0 -2 0 -2 -1c11 -13 31 -18 47 -28zM136 422c-23 -15 -43 -15 -43 -28c0 -1 -3 -1 -2 -1h31c7 1 14 4 17 7c-1 3 -2 5 -2 8s1 6 1 9c0 2 -1 4 -2 5zM305 44h88s2 3 2 6c0 2 -10 3 -23 3
c-11 0 -23 -1 -36 -1c-12 0 -23 1 -31 2c1 -1 1 -2 1 -4s-1 -4 -1 -6zM250 49c2 -5 13 -7 24 -7c13 0 25 3 25 7c0 5 -9 7 -18 7c-8 0 -31 1 -31 -7zM250 451c0 -6 11 -7 20 -7c12 0 29 -1 29 6c0 5 -12 7 -25 7c-11 0 -22 -2 -24 -6zM145 456c0 -4 -4 -4 -4 -7
c8 -3 22 -4 38 -4c7 0 13 1 13 5c0 5 -7 7 -15 7s-18 -2 -25 -2c-3 0 -6 0 -7 1zM145 44c6 0 20 -1 32 -1c8 0 15 1 15 7c0 2 0 2 -1 4c-3 -1 -7 -1 -12 -1c-6 0 -12 1 -18 1c-8 0 -15 -1 -20 -3c0 -3 4 -3 4 -7zM35 54v-10c2 0 4 1 7 1c8 0 19 -2 27 -2c9 0 15 2 15 11h-49
zM35 456v-10h49c0 9 -6 11 -15 11c-8 0 -19 -2 -27 -2c-3 0 -5 0 -7 1zM198 456v-10c13 0 27 -1 38 -1c3 0 10 -1 10 5c0 5 -7 6 -16 6c-7 0 -16 -1 -24 -1c-3 0 -5 0 -8 1zM198 54v-10c7 0 16 -1 24 -1c13 0 24 1 24 7c0 3 -2 4 -5 4c-9 0 -20 -1 -32 -1c-4 0 -8 0 -11 1z
M137 456h-47v-10c4 0 9 1 15 1c4 0 10 -1 16 -1c5 0 18 0 18 3s-2 4 -2 7zM90 44h47c0 3 2 4 2 6c0 5 -39 2 -49 4v-10zM100 487h-31v-12c4 -1 8 -2 12 -2c7 0 20 -1 20 5c0 3 -1 5 -1 9zM69 13h31c0 4 1 6 1 9c0 4 -7 5 -13 5c-8 0 -14 -1 -19 -2v-12zM245 487
c-10 0 -24 0 -31 -2v-10c4 -2 12 -2 22 -2c5 0 10 1 10 5c0 3 -1 5 -1 9zM141 485v-8c4 -3 10 -4 16 -4c8 0 18 -1 18 6c0 6 -9 7 -18 7c-6 0 -12 0 -16 -1zM107 13h30v8c0 2 0 4 -1 5h-27c-2 -1 -3 -3 -3 -5c0 -3 1 -5 1 -8zM107 487c0 -3 -1 -5 -1 -8c0 -2 1 -4 3 -5h27
c1 1 1 3 1 4v9h-30zM245 13c0 4 1 6 1 9s-5 4 -9 4c-8 0 -19 0 -23 -1v-10c7 -2 21 -2 31 -2zM35 487c-2 -2 -2 -2 -2 -4c0 -8 8 -10 16 -10c6 0 16 -1 16 7s-21 7 -30 7zM141 23v-8c4 -1 10 -1 16 -1c9 0 18 1 18 6s-4 6 -10 6c-18 0 -21 0 -24 -3zM250 485v-10
c3 -1 6 -1 10 -1c9 0 23 -2 23 5c0 6 -9 7 -18 7c-6 0 -12 0 -15 -1zM289 485c-2 -1 -2 -2 -2 -4s2 -4 2 -7h28v13c-9 0 -23 0 -28 -2zM289 15c5 -2 19 -2 28 -2v13h-28c0 -3 -2 -5 -2 -8c0 -2 0 -2 2 -3zM250 25v-10c3 -1 9 -1 15 -1c9 0 18 1 18 6s-5 6 -10 6
c-9 0 -18 0 -23 -1zM35 13c9 0 30 -1 30 7c0 5 -4 6 -8 6c-11 0 -24 1 -24 -9c0 -2 0 -2 2 -4zM180 485v-10c1 -1 2 -1 5 -1c4 0 26 -2 26 5c0 6 -8 7 -17 7c-5 0 -11 0 -14 -1zM180 25v-10c3 -1 9 -1 14 -1c9 0 17 1 17 6s-6 6 -11 6c-10 0 -16 0 -20 -1zM123 30
c2 -1 4 -2 6 -2c6 0 10 3 10 7c0 2 -1 4 -2 6h-12c-3 -3 -2 -7 -2 -11zM15 471c0 -4 0 -9 2 -12h10c2 2 3 4 3 6c0 4 -3 7 -9 7c-2 0 -4 0 -6 -1zM15 29c2 -1 4 -1 6 -1c6 0 9 3 9 6c0 2 -1 5 -3 7h-10c-2 -3 -2 -8 -2 -12zM123 470c0 -4 -1 -8 2 -11h12c1 3 2 3 2 5
c0 4 -4 7 -10 7c-2 0 -4 0 -6 -1zM51 30c2 -2 4 -2 6 -2c5 0 8 3 8 7c0 2 0 4 -2 6h-10c-2 -2 -3 -4 -3 -6s1 -3 1 -5zM269 29c1 -1 3 -1 5 -1c6 0 8 3 8 7c0 2 0 4 -1 6h-12c0 -1 -1 -3 -1 -5s1 -5 1 -7zM51 470c0 -2 -1 -4 -1 -5c0 -2 1 -4 3 -6h10c2 2 2 3 2 5
c0 4 -3 8 -8 8c-2 0 -4 -1 -6 -2zM269 471c0 -2 -1 -5 -1 -7s1 -4 1 -5h12c1 2 1 4 1 6c0 4 -2 7 -8 7c-1 0 -4 -1 -5 -1zM161 471v-7c0 -2 0 -4 2 -5h10c1 2 1 4 1 6c0 4 -2 7 -7 7c-2 0 -4 0 -6 -1zM161 29c2 -1 4 -1 6 -1c5 0 7 3 7 7c0 2 0 4 -1 6h-10
c-2 -1 -2 -3 -2 -5v-7zM324 487c-2 -2 -2 -3 -2 -5c0 -3 1 -5 2 -8h9c2 2 3 4 3 6c0 4 -3 7 -12 7zM324 13c9 0 12 3 12 6c0 2 -1 5 -3 7h-9c-1 -3 -2 -6 -2 -8s0 -3 2 -5zM89 29c1 -1 2 -1 4 -1c5 0 8 3 8 7c0 2 0 4 -1 6h-10c-1 -1 -1 -1 -1 -12zM305 39v-9
c0 -2 5 -1 12 -1v12c-4 0 -12 0 -12 -2zM198 29c5 0 11 0 11 1v11c-6 0 -11 0 -13 -2c0 -4 2 -4 2 -10zM305 470v-9c0 -2 8 -2 12 -2v12c-4 0 -12 0 -12 -1zM89 471c0 -4 -1 -9 1 -12h10c1 2 1 3 1 5c0 4 -3 8 -8 8c-1 0 -3 -1 -4 -1zM198 471c0 -6 -2 -8 -2 -10
c2 -2 7 -2 13 -2v11c0 1 -6 1 -11 1zM237 29c1 -1 2 -1 4 -1c4 0 5 4 5 7c0 2 0 4 -1 6c-4 0 -10 0 -11 -2c0 -5 1 -8 3 -10zM237 471c-2 -2 -3 -5 -3 -10c1 -2 7 -2 11 -2c1 1 1 4 1 6c0 5 -1 6 -9 6zM107 469c-1 -1 -1 -1 -1 -3c0 -3 3 -4 3 -5h8c3 1 3 5 3 9
c-4 0 -7 1 -9 1s-3 -1 -4 -2zM107 31c1 -1 2 -2 4 -2s5 1 9 1c0 4 0 8 -3 9h-8c0 -2 -3 -2 -3 -5c0 -2 0 -2 1 -3zM198 60c3 -2 7 -3 9 -3s5 1 7 2c-2 4 -9 6 -14 8c-2 -2 -2 -4 -2 -7zM36 59c4 -1 6 -2 8 -2s4 1 7 2c-4 4 -8 6 -15 8c0 -1 -1 -2 -1 -3s1 -2 1 -5zM198 440
c0 -3 0 -5 2 -7c5 2 12 4 14 8c-2 1 -5 1 -7 1s-6 0 -9 -2zM36 441c0 -3 -1 -4 -1 -5s1 -2 1 -3c7 2 11 4 15 8c-3 1 -5 1 -7 1s-4 0 -8 -1zM253 470v-9h9v9h-9zM253 30h9v9h-9v-9zM291 30c2 0 2 2 2 3c1 0 1 -1 3 -3c2 0 1 6 2 8c-3 0 -4 2 -6 2c-3 0 -4 -4 -4 -7
c0 -1 1 -3 3 -3zM90 440v-5c1 0 2 -1 3 -1c3 0 8 4 11 7c-3 0 -7 1 -10 1c-2 0 -4 -1 -4 -2zM291 470c-2 -2 -3 -2 -3 -4s1 -6 4 -6c2 0 3 2 6 2c-1 2 0 8 -2 8c-2 -2 -2 -3 -3 -3c0 1 0 3 -2 3zM145 467c0 0 0 -6 4 -6c5 0 5 3 5 9c-2 0 -9 1 -9 -3zM145 33c0 -4 7 -3 9 -3
c0 5 0 9 -5 9c-4 0 -4 -6 -4 -6zM305 60c2 -1 4 -2 7 -2s6 1 9 1c-4 4 -11 4 -16 6v-5zM305 440v-5c5 2 12 2 16 6c-3 0 -6 1 -9 1s-5 -1 -7 -2zM90 65v-5c0 -1 2 -2 4 -2c3 0 7 1 10 1c-4 4 -10 6 -14 6zM225 30c1 0 2 2 2 4s-1 4 -2 5h-6c0 -1 0 -2 2 -2c0 -1 -3 -1 -5 -1
c2 -2 4 -4 6 -4c1 0 3 0 3 1v-3zM225 467c0 1 -2 1 -3 1c-2 0 -5 -3 -5 -4c2 0 4 0 4 -1c-2 0 -2 -1 -2 -2h6c1 0 2 3 2 5s-1 4 -2 4v-3zM298 498c-6 -1 -7 0 -9 -1c1 -2 0 -7 7 -7c2 2 2 6 2 8zM296 10c-7 0 -6 -6 -7 -7c2 -1 0 0 9 -1c0 2 0 6 -2 8zM73 498v-6h8v6h-8z
M72 34c0 -1 0 -2 1 -2s3 2 4 2c0 -1 -2 -3 -4 -3c0 -1 4 -1 6 -1v8c-1 -1 -2 -1 -2 -1v1c-4 0 -2 -4 -5 -4zM72 466c3 0 1 -4 5 -4v1s0 -1 2 -1v8c-2 0 -6 0 -6 -1c2 0 4 -2 4 -3c-1 0 0 -1 -1 -1c-2 0 -3 2 -3 2c-1 0 -1 0 -1 -1zM152 436c3 1 9 3 9 5c-1 -1 -3 -1 -4 -1
s-3 1 -4 1l-1 -1v-1c-1 0 -1 -1 -1 -2c0 0 -1 -1 1 -1zM152 64l-1 -1c0 -2 4 -2 4 -2s-1 -1 -3 -1l1 -1c1 0 3 1 4 1s3 0 4 -1c0 2 -6 4 -9 5z" />
    <glyph glyph-name="orn.1.011" unicode="&#xe087;" horiz-adv-x="399" 
d="M-1 262v31h26c7 2 12 6 14 12v44c-16 -8 -28 -21 -40 -29v8c13 11 30 17 40 31v31c-19 4 -28 -4 -40 -14v20h38c0 3 0 5 2 5c-2 20 -22 14 -40 12v12h12c1 9 1 11 0 17c-6 0 -9 0 -12 -2v12c12 -6 24 -2 40 0c7 33 -22 19 -40 23v25h21v-19h19c0 9 0 15 -2 19h17
c-5 -4 7 -5 3 0h10c0 -8 -2 -15 3 -21h14c2 6 2 13 2 21h31v-19c4 -2 8 -2 17 0c0 9 0 15 -1 19h29c0 -15 0 -16 4 -21h13c2 6 2 13 2 21h14c-5 -6 -5 -10 -3 -19h8s-6 18 0 19h13c0 -19 0 -19 1 -21h14c1 6 1 17 0 21h11c3 -8 -2 -8 -2 -19h13v19h11c-2 -4 -2 -10 -2 -19
c2 -2 9 -2 16 -2c2 6 2 13 2 21h32v-21h15v21h15c-4 -4 -4 -10 -4 -19h11c0 9 0 15 -3 19h11c0 -8 -1 -15 2 -21h14v21h29v-26c-8 0 -15 -1 -18 -3c0 0 -9 -22 0 -21h18v-188h-400zM379 29c4 -3 11 -4 20 -4v-25h-30s-11 21 0 21h-15c-1 -2 -1 -2 -1 -21h-12c4 4 4 10 4 19
h-12c0 -9 0 -15 5 -19h-17v21h-13s-10 -21 0 -21h-33c0 8 0 15 -1 21c-7 0 -13 0 -17 -2c0 -9 0 -15 4 -19h-12v19h-12c0 -11 4 -11 1 -19h-11c2 4 2 15 0 21h-14c-1 -2 -1 -2 -1 -21h-13v19h-8c-2 -9 -2 -13 3 -19h-14c0 8 0 15 -2 21h-13c-3 -4 -3 -6 -3 -21h-30
c1 4 1 10 1 19c-8 2 -12 2 -16 0v-19h-31c0 8 0 15 -3 21h-13c-5 -6 -3 -13 -3 -21h-10c4 5 -9 4 -3 0h-18c3 4 3 10 3 19h-19v-19h-21v25c18 4 47 -10 40 23c-16 2 -29 6 -40 0v12c3 -2 6 -2 11 -2c2 6 2 8 0 17h-11v12c18 -2 37 -8 40 11c-3 0 -3 2 -3 6c0 0 -48 -1 -37 0
v19c11 -9 21 -17 40 -13v31c-10 13 -27 19 -40 30v8c11 -8 24 -21 40 -29v45c-3 5 -7 9 -14 11h-26v31h400v-187h-20v-21zM46 355v-45c24 12 42 33 65 47v33c-32 6 -46 -24 -65 -35zM46 189v-44c19 -12 32 -41 64 -35v33c-22 13 -40 34 -64 46zM252 390
c-34 4 -39 -24 -62 -33v-43c26 12 43 31 66 45c0 11 0 25 -4 31zM261 357v-47c22 16 40 33 63 47v33c-35 2 -43 -20 -63 -33zM395 390c-34 2 -44 -25 -65 -39c0 -15 0 -31 5 -41c19 26 66 29 60 80zM251 110c3 6 3 19 3 31c-23 13 -39 32 -65 44v-42c23 -10 28 -37 62 -33z
M261 143c19 -14 28 -35 60 -33v33c-22 13 -40 30 -60 46c0 0 -21 -47 0 -46zM393 110c7 50 -40 54 -60 79c-4 -10 -4 -25 -4 -41c20 -13 31 -40 64 -38zM117 355v-41c21 6 41 31 64 45v31c-32 2 -44 -24 -64 -35zM117 185v-40c20 -12 30 -37 63 -35v31c-23 13 -42 38 -63 44
zM190 293h44c10 2 16 6 22 14v42c-23 -15 -56 -27 -66 -56zM233 206h-44c10 -29 42 -40 65 -56v43c-5 7 -11 11 -21 13zM391 150c9 8 4 43 2 56h-61c9 -29 41 -35 59 -56zM393 349c-17 -21 -50 -27 -60 -56h62c2 14 6 48 -2 56zM179 349c-21 -19 -46 -29 -62 -54
c0 -2 2 -2 4 -2h40c10 2 18 8 24 14c-4 13 2 36 -6 42zM178 150c9 6 2 29 6 43c-6 5 -14 11 -23 13h-40c-2 0 -4 0 -4 -2c15 -25 40 -34 61 -54zM107 150c5 8 5 23 5 39c-3 8 -10 13 -18 17h-48c12 -29 42 -35 61 -56zM108 349c-20 -21 -49 -27 -62 -56h48c9 4 15 10 18 17
c0 16 0 31 -4 39zM321 349c-17 -21 -49 -27 -60 -56h45c9 2 15 6 19 14c-1 13 5 36 -4 42zM320 150c9 6 1 29 4 43c-4 7 -10 11 -20 13h-43c10 -29 41 -35 59 -56zM329 94c2 -9 16 -12 31 -12c18 0 37 6 33 16c-6 16 -40 6 -61 8c0 -6 -3 -8 -3 -12zM330 405
c0 -4 3 -6 3 -11c21 2 55 -8 62 7c3 11 -15 17 -33 17c-15 0 -30 -4 -32 -13zM46 104v-19c10 4 29 -2 44 -2c12 0 21 4 20 21h-64zM46 415v-19h65c0 17 -8 21 -20 21c-15 0 -34 -6 -45 -2zM261 415v-19c22 3 45 -4 63 0c9 32 -41 13 -63 19zM181 415h-62v-19
c19 3 47 -2 66 3c1 8 -6 8 -4 16zM190 415c2 -8 -3 -8 -3 -14c13 -9 46 -2 65 -5c9 34 -42 13 -62 19zM261 104v-19c20 6 71 -14 60 19c-17 4 -40 -4 -60 0zM189 85c20 6 72 -16 62 19c-20 -4 -52 4 -64 -6c0 -6 4 -6 2 -13zM119 85h61c-2 7 5 7 4 15c-19 6 -46 0 -65 4v-19
zM133 475h-42v-23c3 -2 4 -2 42 -2c0 0 -12 24 0 25zM91 25h41v25c-37 0 -38 0 -41 -2v-23zM141 475c0 -23 0 -23 2 -25h36c2 2 2 2 2 25h-40zM321 25v25c-12 -2 -29 4 -40 -2v-19c11 -4 28 -4 40 -4zM141 25h39c0 23 0 23 -2 25h-36c-1 -2 -1 -2 -1 -25zM324 475
c-13 0 -31 0 -41 -4v-19c10 -6 28 0 41 -2c0 0 -12 24 0 25zM187 471v-16c4 -5 4 -5 41 -5c14 29 -28 25 -41 21zM46 475c0 0 -11 -24 0 -23c11 -2 24 -2 38 -2c11 25 -8 25 -38 25zM329 48v-19c12 -4 55 -8 40 21c-15 -2 -31 4 -40 -2zM330 471v-19c9 -6 26 0 40 -2
c15 29 -27 25 -40 21zM46 25c29 0 49 0 37 25c-13 0 -26 0 -37 -2v-23zM187 44v-15c12 -4 54 -8 40 21c-36 0 -36 0 -40 -6zM237 48v-19c12 -4 52 -8 37 21c-13 -2 -29 4 -37 -2zM237 471v-19c8 -6 24 0 38 -2c14 29 -25 25 -38 21zM162 442c0 -14 0 -17 4 -21h15
c9 15 -5 31 -19 21zM20 444c0 -8 0 -18 3 -23h14c8 13 2 31 -17 23zM162 58c13 -10 27 6 18 21h-15c-3 -4 -3 -6 -3 -21zM20 56c19 -8 25 10 16 23h-13c-3 -6 -3 -15 -3 -23zM67 442c0 -8 -2 -16 3 -21h14c7 13 -2 34 -17 21zM67 58c14 -14 24 8 16 21h-13
c-5 -6 -3 -13 -3 -21zM354 444c0 -8 -1 -18 2 -23h14c7 13 2 29 -16 23zM353 56c17 -6 23 10 16 23h-15c-1 -2 -1 -2 -1 -23zM213 444c0 -21 0 -22 1 -23h14c6 13 1 31 -15 23zM212 56c17 -8 21 10 15 23h-14c-1 -2 -1 -2 -1 -23zM117 444c0 -8 -1 -18 2 -23h14
c5 13 0 29 -16 23zM117 56c15 -6 21 10 15 23h-13c-3 -6 -2 -15 -2 -23zM261 444c2 -10 -2 -14 -2 -19c2 -4 9 -4 16 -4c2 5 2 13 2 21c-2 2 -9 2 -16 2zM261 56c6 0 13 0 14 2c0 8 0 15 -1 21c-7 0 -13 0 -17 -4c0 -6 5 -9 4 -19zM312 444c-1 -4 -3 -10 -3 -19
c2 -4 8 -4 15 -4c3 9 3 29 -12 23zM311 56c14 -6 14 13 10 23c-5 0 -12 0 -13 -4c0 -9 1 -15 3 -19zM141 440c-3 -10 2 -12 2 -15h12c3 1 3 9 3 17c-15 0 -16 0 -17 -2zM141 60c1 -2 1 -2 16 -2c0 8 0 15 -3 17h-12c0 -4 -4 -6 -1 -15zM261 384c0 -6 0 -10 2 -14
c9 4 17 8 20 16c-8 4 -14 4 -22 -2zM48 386v-16c9 4 14 8 19 16c-8 4 -8 4 -19 0zM261 116c8 -6 13 -6 20 -2c-3 7 -10 11 -19 15c-1 -4 -1 -8 -1 -13zM48 114c10 -4 10 -4 19 0c-5 7 -10 11 -19 15c0 0 -9 -15 0 -15zM333 442c0 -8 0 -16 2 -17h11v17h-13zM332 58h13v17
h-12c-1 -2 -1 -9 -1 -17zM190 436c2 0 0 -15 10 -11c4 1 4 9 4 17c-7 0 -14 2 -14 -6zM189 64c0 -8 7 -6 14 -6c0 8 0 15 -4 17c-10 4 -8 -11 -10 -11zM384 442c-7 -6 -3 -8 -3 -17c7 -4 7 1 12 1c-4 4 2 16 -4 16c-4 -14 0 2 -5 0zM382 58c6 -2 2 13 6 0c5 0 0 11 3 15
c-5 0 -5 6 -12 2c0 -9 -3 -11 3 -17zM119 384v-10c5 -4 15 4 18 12c-16 0 -17 0 -18 -2zM119 125v-9c1 -2 2 -2 18 -2c-4 7 -14 15 -18 11zM296 440c1 0 1 0 1 -4c-4 6 -8 -2 -12 -6c2 0 8 0 8 -2c-4 0 -4 -2 -4 -3h8c4 1 2 25 -1 15zM381 494c3 -2 0 -13 8 -13
c4 4 4 11 4 15c-8 -2 -9 0 -12 -2zM379 6c3 -2 5 0 12 -2c0 4 0 11 -3 15c-9 0 -6 -11 -9 -13zM97 496v-11h11v11h-11zM295 60c2 -10 4 13 2 15h-8c0 -2 0 -4 3 -4c0 -2 -6 -2 -9 -2c6 -3 9 -11 14 -5c0 -4 0 -4 -2 -4zM97 15v-11h10v11h-10zM94 434c6 0 3 -8 7 -8
c0 2 2 2 4 0v16c-4 0 -8 0 -8 -2c3 0 4 -4 6 -6c-3 -4 -9 8 -9 0zM94 66c0 -8 5 3 8 0c-1 -2 -3 -6 -5 -6c0 -2 4 -2 7 -2v15c-2 -2 -3 -2 -3 0c-4 0 -2 -7 -7 -7zM200 376c5 2 10 4 13 10c-8 -6 -9 4 -13 -2c13 -4 -5 0 0 -8zM199 123c-5 -7 13 -4 0 -7c4 -6 6 3 13 -2
c-3 5 -7 7 -13 9z" />
    <glyph glyph-name="orn.1.012" unicode="&#xe088;" horiz-adv-x="399" 
d="M399 0h-115c1 3 1 5 1 7c0 4 -1 8 -1 15h-11c-1 -3 -2 -5 -2 -8c0 -4 1 -10 1 -14h-9c2 4 2 11 2 20h-8c0 -9 0 -16 4 -20h-13v22h-11c-2 -3 -2 -5 -2 -7c0 -4 2 -8 2 -15h-25c0 8 0 16 -1 22c-6 0 -10 0 -13 -2c0 -9 0 -16 3 -20h-8v20h-11c0 -8 2 -10 2 -14
c0 -2 0 -4 -1 -6h-8c0 2 1 7 1 11s-1 8 -1 11h-10c-2 -3 -3 -6 -3 -9c0 -4 1 -9 1 -13h-10c0 4 2 9 2 14c0 2 0 4 -2 6h-6c-1 -4 -1 -6 -1 -9s1 -7 3 -11h-11c0 8 0 16 -1 22h-10c-2 -3 -2 -6 -2 -10v-12h-24c1 4 1 11 1 20c-3 1 -5 1 -8 1c-2 0 -3 0 -4 -1v-20h-24
c0 8 0 16 -2 22h-10c-3 -4 -3 -7 -3 -22h-7c1 3 2 7 2 9c0 4 -2 5 -5 5c-2 0 -5 -1 -5 -5c0 -2 1 -6 5 -9h-13c2 4 2 11 2 20h-15v-20h-16v26c2 0 4 1 6 1c4 0 8 -1 12 -1c8 0 14 2 14 15c0 10 -11 11 -18 11c-5 0 -9 0 -14 -3v12c2 -2 5 -2 9 -2c0 3 1 5 1 7s-1 5 -1 10h-9
v12c6 -1 12 -3 18 -3s12 3 13 14c-4 0 1 7 -12 7c-6 0 -13 -1 -19 -1v19c7 -7 13 -14 23 -14c3 0 5 0 8 1v31c-9 13 -21 19 -31 30v8c9 -8 18 -21 31 -29v45c-2 5 -5 9 -11 11h-20v31h308v24h-308v31h20c6 2 9 6 11 12v44c-13 -8 -22 -21 -31 -29v8c10 11 22 17 31 31v31
c-3 1 -5 1 -7 1c-10 0 -17 -7 -24 -15v20c6 0 13 -1 19 -1c11 0 9 6 12 6c-1 11 -7 14 -14 14c-5 0 -11 -1 -17 -2v12h9c0 4 1 7 1 9c0 3 -1 5 -1 8c-4 0 -7 0 -9 -2v12c3 -2 7 -3 10 -3c7 0 22 -1 22 11s-6 15 -14 15c-4 0 -8 -1 -12 -1c-2 0 -4 0 -6 1v25h16v-19h15
c0 9 0 15 -2 19h13c-4 -3 -4 -6 -4 -9s2 -5 5 -5s5 2 5 6c0 2 -1 5 -2 8h6c0 -15 0 -17 3 -21h11c1 6 1 13 1 21h24v-19c1 -1 3 -2 5 -2s5 1 8 2c0 9 0 15 -2 19h24v-10c0 -4 0 -8 3 -11h10c1 6 1 13 1 21h11c-2 -4 -3 -7 -3 -11c0 -2 0 -5 1 -8h6c2 2 2 3 2 6
c0 4 -2 9 -2 13h10c0 -4 -1 -8 -1 -11c0 -4 1 -7 2 -10h11c0 3 1 7 1 11s-1 8 -1 10h8c1 -2 1 -3 1 -5c0 -4 -3 -6 -3 -14h11v19h8c-2 -4 -2 -10 -2 -19c2 -2 7 -2 13 -2c1 6 1 13 1 21h25c0 -7 -1 -11 -1 -15c0 -2 0 -4 1 -6h11v21h12c-3 -4 -3 -10 -3 -19h8
c0 9 0 15 -2 19h9c0 -19 0 -19 1 -21h11v21h114v-500zM35 355v-45c19 12 33 33 50 47v33c-2 0 -4 1 -6 1c-21 0 -30 -26 -44 -36zM35 190v-44c14 -11 23 -36 43 -36c2 0 4 0 7 1v33c-17 13 -31 34 -50 46zM304 390c-27 0 -33 -24 -50 -39c0 -15 0 -31 4 -41
c14 24 47 28 47 70c0 3 -1 6 -1 10zM193 111c3 6 3 19 3 31c-18 13 -31 32 -51 44v-42l36 -34c1 0 11 1 12 1zM194 390c-28 0 -29 -24 -48 -33v-43c20 12 33 31 51 45c0 11 0 25 -3 31zM201 357v-47c17 16 31 33 48 47v33c-28 0 -32 -20 -48 -33zM201 144
c16 -15 20 -33 47 -33v33c-18 13 -31 30 -47 46c-1 -6 -1 -11 -1 -15c0 -9 1 -17 1 -31zM90 355v-41c16 6 31 31 49 45v31c-26 0 -34 -24 -49 -35zM90 186v-40c15 -13 23 -35 48 -35v31c-17 13 -32 38 -48 44zM303 111c0 52 -29 50 -46 79c-4 -10 -4 -25 -4 -41
c17 -14 23 -38 50 -38zM146 293h35c7 2 12 6 16 14v42c-18 -15 -43 -27 -51 -56zM179 207h-34c8 -29 33 -40 51 -56v43c-3 7 -9 11 -17 13zM138 349c-17 -19 -37 -29 -48 -54c0 -2 2 -2 3 -2h31c8 2 14 8 18 14c-1 4 -1 9 -1 14v12c0 7 0 13 -3 16zM137 151c3 2 4 8 4 15
c0 4 -1 9 -1 13c0 6 1 11 1 15c-4 5 -10 11 -17 13h-31c-1 0 -3 0 -3 -2c11 -25 31 -34 47 -54zM82 151c4 8 4 23 4 39c-2 8 -8 13 -13 17h-38c10 -29 33 -35 47 -56zM303 349c-14 -21 -39 -27 -46 -56h47c1 19 1 31 1 39c0 12 0 15 -2 17zM83 349c-15 -21 -38 -27 -48 -56
h38c6 4 12 10 13 17c0 16 0 31 -3 39zM301 151c3 3 3 12 3 21l-1 35h-47c7 -29 32 -35 45 -56zM248 349c-14 -21 -39 -27 -47 -56h35c14 4 15 17 15 33c0 18 0 19 -3 23zM246 151c3 2 3 8 3 15v28c-3 7 -7 11 -15 13h-33c8 -29 32 -35 45 -56zM253 95c1 -9 12 -13 24 -13
c13 0 26 5 26 14c0 11 -11 12 -21 12c-12 0 -29 2 -29 -13zM254 405c0 -12 11 -13 21 -13c13 0 29 -1 29 12c0 9 -13 14 -25 14s-23 -4 -25 -13zM35 105v-19c2 1 4 1 7 1c8 0 19 -3 27 -3c10 0 16 4 16 21h-50zM35 415v-19h50c0 17 -6 21 -16 21c-8 0 -18 -4 -27 -4
c-2 0 -5 1 -7 2zM139 415h-47v-19c2 1 6 1 9 1c8 0 15 -1 23 -1c6 0 13 1 18 3c0 8 -3 8 -3 16zM146 415c0 -8 -2 -8 -2 -14c5 -4 12 -5 20 -5c6 0 13 1 20 1c4 0 7 -1 10 -1c1 3 1 5 1 7c0 10 -6 13 -15 13c-8 0 -18 -2 -26 -2c-3 0 -5 0 -8 1zM201 105v-19c2 1 4 1 8 1
c8 0 17 -2 24 -2c9 0 16 3 16 12s-4 9 -11 9c-8 0 -17 -2 -27 -2c-3 0 -7 0 -10 1zM201 415v-19c4 0 7 1 10 1c11 0 22 -2 33 -2c3 0 6 1 6 8c0 10 -7 12 -16 12c-7 0 -16 -1 -23 -1c-4 0 -7 0 -10 1zM145 86c2 1 5 1 8 1c8 0 18 -3 26 -3c9 0 15 3 15 13c0 3 0 5 -1 8
c-10 -5 -40 4 -49 -6c0 -6 1 -7 1 -13zM92 86h46c0 6 3 7 3 13c0 5 -14 5 -19 5s-11 -1 -16 -1s-10 1 -14 2v-19zM101 475h-31v-23c2 -3 5 -3 20 -3c7 0 13 1 13 9c0 4 -2 9 -2 17zM70 26h31c0 8 2 12 2 17c0 8 -6 9 -14 9c-7 0 -14 0 -19 -3v-23zM109 475
c0 -6 -1 -11 -1 -16c0 -3 1 -7 2 -9h28c2 2 2 5 2 8c0 5 -1 11 -1 17h-30zM248 26c0 8 1 12 1 17c0 2 0 5 -1 8c-2 0 -3 -1 -5 -1c-6 0 -11 2 -16 2c-4 0 -8 -1 -10 -3v-19c8 -4 21 -4 31 -4zM254 471v-19c3 -2 6 -3 10 -3c12 0 24 -1 24 11c0 11 -9 14 -19 14
c-5 0 -12 -2 -15 -3zM109 26h29c0 6 1 12 1 17c0 3 0 6 -2 8h-28c-1 -3 -1 -5 -1 -9s1 -10 1 -16zM35 475c-2 -3 -2 -6 -2 -8c0 -15 8 -18 18 -18c7 0 15 -2 15 12c0 16 -21 14 -31 14zM144 471v-16c3 -5 9 -6 15 -6c10 0 18 -2 18 11c0 11 -8 14 -17 14c-7 0 -13 -2 -16 -3
zM253 49v-19c3 -2 9 -3 16 -3c8 0 17 3 17 13c0 3 -1 6 -2 11c-2 0 -3 -1 -6 -1c-5 0 -11 2 -16 2c-3 0 -7 -1 -9 -3zM144 45v-15c3 -2 9 -3 15 -3c9 0 18 3 18 14c0 10 -5 11 -12 11c-9 0 -17 0 -21 -7zM35 26c11 0 31 -3 31 13c0 11 -5 12 -12 12c-11 0 -21 0 -21 -17
c0 -2 0 -5 2 -8zM249 475c-10 -1 -24 -5 -31 -4v-19c4 -3 10 -3 17 -3s15 1 15 9c0 4 -1 9 -1 17zM182 471v-19c3 -2 6 -3 9 -3c10 0 23 -1 23 12c0 10 -8 13 -17 13c-5 0 -12 -2 -15 -3zM182 49v-19c3 -2 10 -3 15 -3c8 0 16 3 16 13c0 3 0 6 -2 11c-2 0 -3 -1 -5 -1
c-5 0 -11 2 -15 2s-6 -1 -9 -3zM292 30c3 -3 9 -4 15 -4v25h-15c0 -7 -2 -10 -2 -14c0 -2 0 -4 2 -7zM15 57c2 -1 4 -2 6 -2c7 0 10 5 10 12c0 4 -2 9 -3 13h-11c-2 -6 -2 -15 -2 -23zM15 444c0 -8 0 -18 2 -23h11c1 4 3 8 3 12c0 7 -3 13 -10 13c-2 0 -4 -1 -6 -2zM125 442
v-11c0 -4 0 -7 3 -10h11c2 3 2 6 2 10c0 8 -4 14 -9 14c-3 0 -5 -1 -7 -3zM125 59c2 -2 4 -3 7 -3c5 0 9 6 9 14c0 3 -1 6 -3 10h-11c-2 -3 -2 -6 -2 -10v-11zM51 59c2 -3 5 -5 7 -5c5 0 8 8 8 15c0 4 -1 8 -2 11h-10c-3 -4 -3 -6 -3 -21zM51 442c0 -17 0 -17 3 -21h11
c1 3 1 6 1 10c0 8 -3 15 -8 15c-2 0 -5 -1 -7 -4zM307 450v24c-10 0 -15 -2 -15 -10c0 -4 1 -8 1 -14h14zM163 57c2 -1 4 -2 6 -2c5 0 8 7 8 14c0 4 -1 7 -2 11h-10c-2 -3 -3 -6 -3 -10s1 -9 1 -13zM272 57c1 -1 3 -1 5 -1c6 0 9 5 9 12c0 4 -1 8 -2 12h-11
c-1 -3 -2 -6 -2 -9c0 -5 1 -10 1 -14zM164 444c0 -4 -1 -9 -1 -13s1 -8 2 -10h11c1 3 1 7 1 11c0 7 -2 14 -8 14c-2 0 -2 -1 -5 -2zM273 444c0 -21 0 -21 1 -23h11c1 3 2 7 2 11c0 7 -3 13 -9 13c-2 0 -4 0 -5 -1zM90 444c0 -4 -1 -9 -1 -13s1 -8 3 -10h9c1 3 2 7 2 10
c0 8 -3 14 -8 14c-2 0 -3 0 -5 -1zM90 57c2 -1 3 -1 5 -1c5 0 8 6 8 14c0 3 -1 6 -2 10h-9c-2 -3 -3 -7 -3 -11s1 -8 1 -12zM201 444c0 -10 -2 -15 -2 -19c2 -4 7 -4 13 -4c1 5 1 13 1 21c-1 2 -7 2 -12 2zM201 57c4 0 10 0 11 2c0 8 0 15 -1 21c-6 0 -10 0 -13 -4
c0 -6 3 -9 3 -19zM240 444c-1 -3 -2 -11 -2 -19c1 -4 6 -4 11 -4c1 3 1 7 1 10c0 7 -1 14 -6 14c-2 0 -4 0 -4 -1zM239 57c2 -1 2 -1 4 -1c4 0 6 6 6 13c0 4 0 8 -1 11c-5 0 -10 0 -11 -4c0 -9 1 -15 2 -19zM109 440c-1 -2 -1 -4 -1 -6c0 -5 2 -7 2 -9h9c2 1 2 9 2 17
c-4 0 -6 1 -8 1s-3 -1 -4 -3zM109 61c1 -3 1 -3 3 -3s5 1 9 1c0 8 0 15 -3 17h-9c0 -3 -1 -5 -1 -9c0 -2 0 -4 1 -6zM201 384c0 -6 0 -10 1 -14c7 4 14 8 16 16c-3 2 -5 3 -8 3c-2 0 -5 -2 -9 -5zM37 386c0 -7 -1 -8 -1 -11c0 -2 0 -2 1 -5c8 4 11 8 14 16c-3 2 -4 3 -6 3
s-4 -1 -8 -3zM201 117c3 -3 6 -5 8 -5c3 0 5 1 8 3c-3 7 -8 11 -15 15c-1 -4 -1 -8 -1 -13zM146 133v-18h19zM146 436c2 0 0 -12 6 -12c5 0 5 6 5 18c-5 0 -11 1 -11 -6zM37 115c4 -2 5 -3 8 -3c2 0 4 2 6 3c-3 7 -7 11 -14 15c-1 -3 -1 -4 -1 -6s1 -3 1 -9zM145 65
c0 -8 6 -6 11 -6c0 10 0 18 -5 18c-6 0 -4 -12 -6 -12zM257 442c0 -8 0 -16 1 -17h8v17h-9zM256 59h9v17h-8c-1 -2 -1 -9 -1 -17zM294 59c3 0 3 5 3 5s1 -1 2 -5c2 0 2 1 2 3s-1 5 -1 7s1 4 1 5c-3 0 -4 3 -6 3c-4 0 -4 -5 -4 -9s0 -5 3 -9zM92 384v-10c1 -1 0 -1 2 -1
c3 0 9 6 11 13c-3 0 -6 1 -9 1s-4 -1 -4 -3zM296 442c-3 -3 -3 -5 -3 -7s0 -12 4 -12c2 0 3 3 6 3c-2 1 -2 3 -2 5v8c0 2 0 3 -1 3c-1 -4 -2 -6 -2 -6c-1 0 0 6 -2 6zM92 126v-9c0 -3 1 -3 4 -3c2 0 5 1 9 1c-3 6 -8 12 -11 12c-2 0 -1 0 -2 -1zM228 440c1 0 1 0 1 -4
c0 1 -2 2 -3 2c-2 0 -5 -5 -7 -8c2 0 6 0 6 -2c-3 0 -3 -2 -3 -3h7c1 0 1 3 1 7c0 5 0 10 -1 10c0 0 -1 0 -1 -2zM293 494c3 -2 0 -13 7 -13c3 4 3 11 3 15c-6 -2 -7 0 -10 -2zM74 496v-11h9v11h-9zM292 7c2 -2 4 0 9 -2c0 4 0 11 -2 15c-7 0 -5 -11 -7 -13zM229 65v11h-7
c0 -2 0 -4 3 -4c0 -2 -4 -2 -7 -2c3 -2 5 -7 7 -7s3 0 4 2zM74 16v-11h8v11h-8zM73 434c4 0 1 -8 5 -8c0 1 0 1 1 1c0 0 1 0 2 -1v16c-3 0 -7 0 -7 -2c3 0 4 -4 5 -6c-1 -1 0 -1 -2 -1c-1 0 -3 4 -4 4v-3zM73 67v-3c1 0 3 3 5 3c-1 -2 -2 -6 -4 -6c0 -2 3 -2 6 -2v15l-2 -2
c-1 0 -1 1 -1 2c-3 0 -1 -7 -4 -7zM154 376c4 2 8 4 10 10c-2 -2 -2 -2 -4 -2s-3 2 -4 2c-2 0 0 0 -2 -2c3 -1 3 -2 3 -2c0 -1 -4 0 -4 -3c0 -2 0 -2 1 -3zM227 61c0 -2 1 -3 1 -3s1 1 1 3h-2z" />
    <glyph glyph-name="orn.1.013" unicode="&#xe089;" horiz-adv-x="399" 
d="M399 500v-500h-54v21h-12l-2 -21h-11l3 19h-10l4 -19h-16v21h-13v-21h-31v21l-16 -2l3 -19h-10v19h-13l2 -19h-10v21h-13l-1 -21h-12v19h-8l3 -19h-13l-2 21h-13l-1 -21h-30l2 19h-15v-19h-29l-4 21h-12l-2 -21h-30l4 19h-18v-19h-20v25l38 23h-38v12l10 -2v17h-10v12
l38 11l-4 6h-34v19l38 -13v31l-38 30v8l38 -29v45l-14 11h-24v32h375v24h-375v31h24l14 12v44l-38 -29v8l38 31v31l-38 -14v20h35l3 5l-38 12v12h11v17l-11 -2v12h38l-38 23v25h20v-19h18l-3 19h29l2 -21h13l3 21h29v-19h15l-1 19h29l2 -21h13l1 21h14l-3 -19h8v19h11l2 -21
h12v21h11l-2 -19h13v19h10l-2 -19l14 -2l2 21h30v-21h14v21h15l-4 -19h11l-4 19h12v-21h14v21h52zM43 355v-45l62 47v33zM43 189v-44l61 -35v33zM245 357v-47l58 47v33zM237 390l-59 -33v-43l62 45zM244 143l57 -33v33l-57 46v-46zM236 110l2 31l-61 44v-42zM110 355v-41
l59 45v31zM110 185v-40l59 -35v31zM168 349l-58 -54l3 -2h38l22 14zM167 150l5 43l-21 13h-38l-3 -2zM101 150l4 39l-16 17h-46zM101 349l-58 -56h46l16 17zM369 349l-56 -56h57zM367 150l2 56h-58zM178 293h42l20 14v42zM301 349l-56 -56h42l18 14zM218 206h-41l61 -56v43z
M300 150l3 43l-18 13h-41zM370 390l-61 -39l5 -41zM369 110l-56 79l-5 -41zM169 415h-58v-19l62 3zM111 85h58l3 15l-61 4v-19zM124 475h-39v-23l39 -2v25zM85 25h38v25l-38 -2v-23zM133 475l1 -25h34l1 25h-36zM133 25h36l-2 25h-34v-25zM301 25v25l-37 -2v-19zM303 475
l-38 -4v-19l38 -2v25zM43 415v-19h62zM43 104v-19l61 19h-61zM245 415v-19h58zM244 104v-19l57 19h-57zM355 29l19 -4v25h-19v-21zM178 415l-3 -14l62 -5zM43 475v-23l35 -2zM177 85l59 19l-61 -6zM374 450v24l-17 -3v-21h17zM43 25l34 25l-34 -2v-23zM308 94l61 4l-58 8z
M308 48v-19l37 21zM309 471v-19l38 -2zM221 48v-19l36 21zM222 471v-19l35 -2zM309 405l4 -11l57 7zM175 471v-16l38 -5zM245 444l-2 -19l14 -4l2 21zM244 56l13 2v21l-16 -4zM175 44v-15l38 21zM133 440l1 -15h11l4 17zM133 60l15 -2l-3 17h-12v-15zM311 58h12v17h-10z
M313 442l1 -17h11v17h-12zM333 444v-23h14zM153 442l2 -21h14zM153 58l16 21h-15zM45 386v-16l18 16h-18zM199 56l14 23h-13zM19 444l2 -23h13zM245 384l1 -14l19 16zM110 444l1 -23h13zM331 56l14 23h-12zM199 444l2 -23h12zM360 442l-3 -17l12 1l-4 16h-5zM358 58h6l3 15
l-12 2zM110 56l13 23h-12zM45 114h18l-18 15v-15zM19 56l14 23h-12zM291 56l10 23l-13 -4zM63 442l2 -21h13zM292 444l-3 -19l14 -4zM244 116l20 -2l-19 15zM63 58l14 21h-12zM90 496v-11h11v11h-11zM90 15v-11h11v11h-11zM178 436l10 -11l3 17zM177 64l13 -6l-3 17zM89 434
l6 -8h3v16l-8 -2l7 -6h-8zM357 494l8 -13l4 15zM355 6l12 -2l-3 15zM111 384v-10l17 12zM89 66h7l-6 -6l7 -2v15h-3zM111 125v-9l17 -2zM273 71l-8 -2l12 -5l1 11h-8zM279 425l-2 10l-10 -5l7 -2l-3 -3h8zM188 376l11 10l-11 -2v-8zM187 123v-7l12 -2z" />
    <glyph glyph-name="orn.1.014" unicode="&#xe08a;" horiz-adv-x="399" 
d="M-1 0v500h31l-4 -19h10v19h14l3 -21h15v21h13l-2 -19h15v19h13l-3 -19l18 -2l3 21h37v-21h17v21h51l-4 -19h10v19h14l3 -21h15v21h13l-2 -19h15v19h13l-3 -19l18 -2l3 21h37v-21h17v21h20v-238h-376v-24h376v-238h-22v22h-17v-22h-38v22h-17v-22h-12v22h-16v-22h-10v22
h-17v-22h-15v22h-10v-22h-48v22h-17v-22h-38v22h-17v-22h-12v22h-16v-22h-10v22h-17v-22h-15v22h-10v-22h-26zM307 357v-47l72 47v33zM107 357v-47l72 47v33zM105 144l72 -33v33l-72 46v-46zM305 144l72 -33v33l-72 46v-46zM296 390l-71 -33v-43l75 45zM96 390l-71 -33v-43
l75 45zM295 111l3 31l-75 44v-42zM95 111l3 31l-75 44v-42zM273 207h-50l75 -56v43zM73 207h-50l75 -56v43zM175 151l4 43l-22 13h-52zM375 151l4 43l-22 13h-52zM25 293h51l24 14v42zM225 293h51l24 14v42zM177 349l-70 -56h51l23 14zM377 349l-70 -56h51l23 14zM379 475
l-47 -4v-19l47 -2v25zM179 475l-47 -4v-19l47 -2v25zM377 26v25l-47 -2v-19zM177 26v25l-47 -2v-19zM307 415v-19h72zM107 415v-19h72zM305 105v-19l72 19h-72zM105 105v-19l72 19h-72zM225 415l-4 -14l75 -5zM25 415l-4 -14l75 -5zM23 86l72 19l-74 -6zM223 86l72 19
l-74 -6zM77 49v-19l44 21zM277 49v-19l44 21zM79 471v-19l43 -2zM279 471v-19l43 -2zM21 471v-16l47 -5zM221 471v-16l47 -5zM107 444l-3 -19l18 -4l3 21zM307 444l-3 -19l18 -4l3 21zM105 57l17 2l-1 21l-19 -4zM305 57l17 2l-1 21l-19 -4zM21 45v-15l46 21zM221 45v-15
l46 21zM107 384l2 -14l23 16zM307 384l2 -14l23 16zM250 444l3 -23h15zM50 444l3 -23h15zM249 57l18 23h-15zM49 57l18 23h-15zM164 57l13 23l-17 -4zM364 57l13 23l-17 -4zM165 444l-3 -19l17 -4zM365 444l-3 -19l17 -4zM305 117l25 -2l-22 15zM105 117l25 -2l-22 15z
M223 65l16 -6l-4 17zM23 65l16 -6l-4 17zM25 436l11 -11l4 17zM225 436l11 -11l4 17zM338 76l-6 -6l13 -5l3 11h-10zM138 76l-6 -6l13 -5l3 11h-10zM149 425l-3 10l-12 -5l9 -2l-4 -3h10zM349 425l-3 10l-12 -5l9 -2l-4 -3h10zM36 376l14 10l-14 -2v-8zM236 376l14 10
l-14 -2v-8zM35 124v-7l14 -2zM235 124v-7l14 -2z" />
    <glyph glyph-name="n.ch" unicode="&#xe08b;" 
d="M163 297v-297h-113v313c0 91 36 197 190 197c152 0 189 -106 189 -197v-313h-113v297c0 64 -19 111 -76 111c-58 0 -77 -47 -77 -111z" />
    <glyph glyph-name="m.ch" unicode="&#xe08c;" horiz-adv-x="711" 
d="M411 307v-307h-112v315c-2 54 -22 93 -69 93c-51 0 -69 -43 -69 -101v-307h-113v323c0 84 35 187 182 187c57 0 97 -23 125 -53c27 30 67 53 125 53c146 0 182 -103 182 -187v-323h-113v307c0 58 -19 101 -69 101c-51 0 -69 -43 -69 -101z" />
    <glyph glyph-name="a.san" unicode="&#xe08d;" horiz-adv-x="480" 
d="M428 457v-457h-113v54c-40 -45 -81 -64 -119 -64c-105 0 -163 104 -163 253c0 160 70 267 206 267c79 0 150 -27 189 -53zM239 407c-59 0 -89 -63 -89 -161c0 -101 34 -154 81 -154c32 0 56 18 84 55v240c-21 9 -49 20 -76 20z" />
    <glyph glyph-name="p.san" unicode="&#xe08e;" 
d="M52 457c39 26 109 53 188 53c135 0 205 -107 205 -267c0 -149 -57 -253 -162 -253c-39 0 -79 19 -118 64v-276h-113v679zM240 407c-27 0 -55 -11 -75 -20v-239c28 -38 52 -56 83 -56c47 0 79 53 79 154c0 98 -29 161 -87 161z" />
    <glyph glyph-name="d.san" unicode="&#xe08f;" 
d="M426 723v-680c-39 -26 -109 -53 -189 -53c-134 0 -204 108 -204 268c0 149 56 253 163 253c36 0 78 -17 117 -57v269h113zM237 94c27 0 56 11 76 20v246c-28 33 -52 48 -82 48c-48 0 -81 -52 -81 -153c0 -98 30 -161 87 -161z" />
    <glyph glyph-name="g.san" unicode="&#xe090;" horiz-adv-x="480" 
d="M315 -12v63c-41 -43 -81 -61 -119 -61c-106 0 -164 104 -164 253c0 160 72 267 209 267c78 0 148 -27 187 -53v-441c0 -143 -48 -252 -206 -252c-60 0 -125 17 -178 39v96c59 -24 116 -36 162 -36c76 0 109 46 109 125zM230 92c33 0 56 16 85 52v243c-21 9 -48 20 -74 20
c-60 0 -91 -63 -91 -161c0 -101 33 -154 80 -154z" />
    <glyph glyph-name="q.san" unicode="&#xe091;" horiz-adv-x="480" 
d="M428 457v-679h-113v277c-41 -46 -81 -65 -119 -65c-106 0 -164 105 -164 252c0 161 72 268 209 268c78 0 148 -27 187 -53zM241 407c-60 0 -91 -62 -91 -162s33 -153 80 -153c33 0 56 18 85 56v238c-21 9 -48 21 -74 21z" />
    <glyph glyph-name="ampersand" unicode="&#x26;" horiz-adv-x="582" 
d="M314 624c-55 0 -82 -45 -82 -114c0 -95 90 -202 155 -271l42 -48c19 37 29 78 30 114h108c-1 -70 -24 -139 -66 -195l97 -110h-142l-34 37c-48 -30 -107 -48 -176 -48c-130 0 -208 74 -208 187c0 92 43 164 110 208c-19 45 -32 93 -32 142c0 120 67 204 187 204
c143 0 204 -88 204 -224v-17h-106v14c0 71 -33 121 -87 121zM259 78c37 0 70 11 97 30l-57 62c-37 40 -72 80 -106 133c-25 -28 -42 -62 -42 -117c0 -47 33 -108 108 -108z" />
    <glyph glyph-name="N.str" unicode="&#xe094;" horiz-adv-x="613" 
d="M65 0v720h110l246 -488c8 -15 11 -34 17 -49v537h110v-720h-110l-248 492c-7 14 -10 31 -15 45v-537h-110z" />
    <glyph glyph-name="Y.str" unicode="&#xe095;" horiz-adv-x="534" 
d="M209 0v242l-191 478h117l132 -368l132 368h115l-190 -478v-242h-115z" />
    <glyph glyph-name="r.san" unicode="&#xe096;" horiz-adv-x="330" 
d="M51 0v458c43 27 120 52 198 52c15 0 28 -1 39 -3v-103c-7 2 -18 4 -36 4c-27 0 -65 -11 -88 -20v-388h-113z" />
    <glyph glyph-name="r.ch" unicode="&#xe097;" horiz-adv-x="318" 
d="M163 281v-281h-113v296c0 98 35 214 180 214c22 0 48 -3 68 -9v-99c-8 4 -21 6 -35 6c-73 0 -100 -52 -100 -127z" />
    <glyph glyph-name="E.str" unicode="&#xe098;" horiz-adv-x="470" 
d="M174 330v-227h261v-105h-374v722h364v-102h-251v-186h211v-102h-211z" />
    <glyph glyph-name="dollar.osf" unicode="&#xe099;" horiz-adv-x="375" 
d="M147 -95v85c-52 1 -84 9 -115 19v96c43 -12 89 -19 131 -19c36 0 67 14 67 63c0 41 -35 54 -81 72c-59 25 -113 54 -113 142c0 70 32 126 121 142v90h79v-86c25 -1 54 -6 89 -16v-95c-38 12 -84 16 -117 16c-45 0 -62 -20 -62 -50c0 -42 47 -51 98 -73
c55 -24 103 -52 103 -144s-45 -136 -119 -150v-92h-81z" />
    <glyph glyph-name="euro.osf" unicode="&#xe09a;" horiz-adv-x="533" 
d="M403 289h-100v22c0 61 -24 104 -74 104c-43 0 -73 -34 -80 -116h94v-40h-95c0 -18 2 -35 4 -50h82v-41h-71c22 -58 68 -84 134 -84c34 0 74 5 108 12v-90c-43 -10 -103 -16 -135 -16c-120 0 -201 57 -228 178h-66v41h59c-2 16 -3 32 -3 50h-56v40h57
c10 147 90 211 195 211c117 0 175 -71 175 -195v-26z" />
    <glyph glyph-name="percent.osf" unicode="&#xe09b;" horiz-adv-x="558" 
d="M184 0h-84l277 503h84zM423 -7c-75 0 -111 63 -111 126s36 127 111 127c74 0 110 -64 110 -127s-36 -126 -110 -126zM423 52c26 0 40 34 40 67s-14 66 -40 66c-27 0 -40 -32 -40 -66c0 -33 13 -67 40 -67zM138 259c-75 0 -112 62 -112 126c0 63 37 125 112 125
c74 0 110 -62 110 -125c0 -64 -36 -126 -110 -126zM138 318c26 0 41 33 41 67c0 33 -15 65 -41 65c-27 0 -40 -33 -40 -66s14 -66 40 -66z" />
    <glyph glyph-name="oacute" unicode="&#xf3;" horiz-adv-x="468" 
d="M436 254c0 -173 -80 -264 -202 -264c-124 0 -201 91 -201 264c0 176 82 256 201 256c117 0 202 -80 202 -256zM323 254c0 107 -34 161 -89 161c-54 0 -88 -54 -88 -161c0 -106 28 -168 88 -168c59 0 89 62 89 168zM199 569l89 132h111l-121 -132h-79z" />
    <glyph glyph-name="obreve" unicode="&#x14f;" horiz-adv-x="468" 
d="M436 254c0 -173 -80 -264 -202 -264c-124 0 -201 91 -201 264c0 176 82 256 201 256c117 0 202 -80 202 -256zM323 254c0 107 -34 161 -89 161c-54 0 -88 -54 -88 -161c0 -106 28 -168 88 -168c59 0 89 62 89 168zM238 620c27 0 42 22 42 51h64c0 -60 -30 -110 -106 -110
c-75 0 -108 50 -108 110h65c0 -29 17 -51 43 -51z" />
    <glyph glyph-name="ocircumflex" unicode="&#xf4;" horiz-adv-x="468" 
d="M436 254c0 -173 -80 -264 -202 -264c-124 0 -201 91 -201 264c0 176 82 256 201 256c117 0 202 -80 202 -256zM323 254c0 107 -34 161 -89 161c-54 0 -88 -54 -88 -161c0 -106 28 -168 88 -168c59 0 89 62 89 168zM383 570h-73l-72 86l-70 -86h-72l86 138h112z" />
    <glyph glyph-name="odieresis" unicode="&#xf6;" horiz-adv-x="468" 
d="M436 254c0 -173 -80 -264 -202 -264c-124 0 -201 91 -201 264c0 176 82 256 201 256c117 0 202 -80 202 -256zM323 254c0 107 -34 161 -89 161c-54 0 -88 -54 -88 -161c0 -106 28 -168 88 -168c59 0 89 62 89 168zM374 630c0 -35 -26 -62 -58 -62c-30 0 -56 27 -56 62
s26 62 56 62c32 0 58 -27 58 -62zM213 630c0 -35 -25 -62 -57 -62c-31 0 -56 27 -56 62s25 62 56 62c32 0 57 -27 57 -62z" />
    <glyph glyph-name="ograve" unicode="&#xf2;" horiz-adv-x="468" 
d="M436 254c0 -173 -80 -264 -202 -264c-124 0 -201 91 -201 264c0 176 82 256 201 256c117 0 202 -80 202 -256zM323 254c0 107 -34 161 -89 161c-54 0 -88 -54 -88 -161c0 -106 28 -168 88 -168c59 0 89 62 89 168zM282 569h-77l-112 133h113z" />
    <glyph glyph-name="ohungarumlaut" unicode="&#x151;" horiz-adv-x="468" 
d="M436 254c0 -173 -80 -264 -202 -264c-124 0 -201 91 -201 264c0 176 82 256 201 256c117 0 202 -80 202 -256zM323 254c0 107 -34 161 -89 161c-54 0 -88 -54 -88 -161c0 -106 28 -168 88 -168c59 0 89 62 89 168zM123 569l75 136h111l-109 -136h-77zM273 569l75 136h110
l-108 -136h-77z" />
    <glyph glyph-name="omacron" unicode="&#x14d;" horiz-adv-x="468" 
d="M436 254c0 -173 -80 -264 -202 -264c-124 0 -201 91 -201 264c0 176 82 256 201 256c117 0 202 -80 202 -256zM323 254c0 107 -34 161 -89 161c-54 0 -88 -54 -88 -161c0 -106 28 -168 88 -168c59 0 89 62 89 168zM341 573h-207v82h207v-82z" />
    <glyph glyph-name="oslashacute" unicode="&#x1ff;" horiz-adv-x="468" 
d="M136 0h-60l22 44c-42 44 -65 114 -65 210c0 176 82 256 201 256c34 0 66 -7 94 -22l6 12h62l-24 -45c40 -42 64 -108 64 -201c0 -173 -80 -264 -202 -264c-35 0 -66 7 -92 21zM146 254c0 -38 3 -71 11 -97l124 240c-13 12 -29 18 -47 18c-54 0 -88 -54 -88 -161zM323 254
c0 34 -4 62 -10 86l-124 -239c12 -10 27 -15 45 -15c59 0 89 62 89 168zM199 569l89 132h111l-121 -132h-79z" />
    <glyph glyph-name="otilde" unicode="&#xf5;" horiz-adv-x="468" 
d="M436 254c0 -173 -80 -264 -202 -264c-124 0 -201 91 -201 264c0 176 82 256 201 256c117 0 202 -80 202 -256zM323 254c0 107 -34 161 -89 161c-54 0 -88 -54 -88 -161c0 -106 28 -168 88 -168c59 0 89 62 89 168zM286 572c-51 0 -63 55 -90 55c-13 0 -26 -13 -26 -49
h-56c0 68 27 116 85 116c52 0 62 -55 91 -55c16 0 26 19 26 49h57c0 -80 -33 -116 -87 -116z" />
    <glyph glyph-name="E.sc" horiz-adv-x="406" 
d="M161 271v-69c0 -84 19 -99 78 -99h141v-105h-144c-146 0 -188 43 -188 200v414h321v-102h-208v-137h175v-102h-175z" />
    <glyph glyph-name="X.sc" 
d="M239 365c51 80 87 181 102 247h120c-21 -98 -69 -206 -136 -304c67 -99 115 -209 136 -308h-120c-15 67 -51 170 -102 252c-52 -82 -88 -185 -103 -252h-120c24 99 70 209 137 308c-66 98 -113 206 -137 304h120c15 -66 51 -167 103 -247z" />
    <glyph glyph-name="C.sc" horiz-adv-x="499" 
d="M468 113v-103c-50 -14 -111 -19 -147 -19c-191 0 -294 133 -294 339c0 209 106 291 240 291c140 0 201 -89 201 -229v-15h-106v12c0 75 -39 124 -98 124c-58 0 -116 -49 -116 -185c0 -97 32 -229 198 -229c34 0 75 4 122 14z" />
    <glyph glyph-name="O.sc" horiz-adv-x="562" 
d="M535 309c0 -194 -93 -318 -254 -318c-162 0 -254 123 -254 317c0 193 93 313 254 313s254 -118 254 -312zM418 309c0 119 -47 209 -137 209s-137 -90 -137 -209c0 -120 46 -215 137 -215c90 0 137 95 137 215z" />
    <glyph glyph-name="S.sc" horiz-adv-x="411" 
d="M207 520c-36 0 -57 -30 -57 -72c0 -133 236 -68 236 -284c0 -147 -90 -173 -192 -173c-58 0 -124 16 -168 39v101c50 -25 97 -40 158 -40c39 0 89 9 89 73c0 113 -236 59 -236 283c0 103 55 174 169 174s166 -71 166 -180v-15h-107v11c0 54 -23 83 -58 83z" />
    <glyph glyph-name="G.sc" horiz-adv-x="512" 
d="M280 217v96h195v-295h-1l1 -3c-53 -17 -124 -25 -159 -25c-207 0 -287 135 -287 342s103 289 239 289c139 0 203 -76 203 -215v-15h-109v10c0 71 -37 112 -96 112c-62 0 -117 -54 -117 -186c0 -119 24 -234 159 -234c13 0 33 1 56 3v121h-84z" />
    <glyph glyph-name="F.sc" horiz-adv-x="396" 
d="M166 0h-115v612h326v-106h-211v-172h174v-105h-174v-229z" />
    <glyph glyph-name="B.sc" horiz-adv-x="443" 
d="M51 0v612h177c87 0 160 -50 160 -150c0 -52 -21 -94 -50 -126c50 -30 86 -71 86 -149c0 -143 -112 -187 -206 -187h-167zM253 271c-43 -23 -82 -34 -89 -36v-140h39c46 0 106 21 106 92c0 41 -27 67 -56 84zM212 517h-48v-186c38 13 117 49 117 118c0 52 -38 68 -69 68z
" />
    <glyph glyph-name="L.sc" horiz-adv-x="386" 
d="M164 189c0 -64 13 -82 61 -82h152v-109h-154c-123 0 -175 26 -175 186v428h116v-423z" />
    <glyph glyph-name="D.sc" horiz-adv-x="522" 
d="M51 0v612h200c117 0 245 -61 245 -271c0 -236 -171 -341 -331 -341h-114zM165 506v-399c122 0 211 79 211 230c0 133 -63 169 -141 169h-70z" />
    <glyph glyph-name="H.sc" horiz-adv-x="528" 
d="M51 0v612h114v-246h198v246h114v-612h-114v260h-198v-260h-114z" />
    <glyph glyph-name="I.sc" horiz-adv-x="216" 
d="M51 0v612h114v-612h-114z" />
    <glyph glyph-name="T.sc" horiz-adv-x="384" 
d="M8 506v106h368v-106h-126v-506h-114v506h-128z" />
    <glyph glyph-name="K.sc" horiz-adv-x="450" 
d="M51 0v612h114v-262c76 77 133 177 155 262h120c-26 -93 -75 -186 -148 -280c68 -109 114 -228 140 -332h-121c-19 71 -50 160 -95 244c-16 -18 -33 -35 -51 -52v-192h-114z" />
    <glyph glyph-name="J.sc" horiz-adv-x="356" 
d="M193 198v414h116v-420c0 -134 -56 -202 -173 -202c-35 0 -81 5 -128 18v96c34 -8 62 -15 106 -15c55 0 79 38 79 109z" />
    <glyph glyph-name="Q.sc" horiz-adv-x="562" 
d="M535 309c0 -128 -41 -225 -114 -276c38 -20 69 -42 112 -43v-102c-101 6 -156 59 -234 103v1c-6 -1 -12 -1 -18 -1c-162 0 -254 123 -254 317c0 193 93 313 254 313s254 -118 254 -312zM418 309c0 119 -47 209 -137 209s-137 -90 -137 -209c0 -120 46 -215 137 -215
c90 0 137 95 137 215z" />
    <glyph glyph-name="R.sc" horiz-adv-x="444" 
d="M409 418c0 -83 -35 -141 -80 -183c43 -78 76 -160 91 -235h-121c-11 47 -33 111 -63 174c-28 -14 -54 -23 -73 -30v-144h-114v612h170c98 0 190 -44 190 -194zM286 414c0 75 -37 98 -83 98h-38v-255c44 17 121 47 121 157z" />
    <glyph glyph-name="N.sc" horiz-adv-x="533" 
d="M51 0v612h114c82 -77 144 -179 203 -303v303h114v-612h-114v113c-63 150 -130 267 -203 347v-460h-114z" />
    <glyph glyph-name="M.sc" horiz-adv-x="631" 
d="M183 612c58 -112 98 -220 128 -318c4 -12 3 -26 5 -36c0 3 2 29 4 35c33 100 75 222 128 319h63c66 -209 90 -412 92 -612h-107c0 130 -19 295 -46 427c-38 -95 -72 -222 -91 -322h-86c-20 100 -55 226 -92 322c-27 -132 -45 -297 -45 -427h-108c2 200 27 403 92 612h63z
" />
    <glyph glyph-name="U.sc" horiz-adv-x="537" 
d="M491 612v-356c0 -179 -79 -265 -221 -265c-143 0 -225 86 -225 265v356h114v-341c0 -160 67 -176 111 -176c43 0 107 16 107 176v341h114z" />
    <glyph glyph-name="V.sc" horiz-adv-x="484" 
d="M295 0h-106c-90 204 -150 408 -176 612h116c16 -148 54 -333 113 -487c59 154 97 339 113 487h115c-25 -204 -85 -408 -175 -612z" />
    <glyph glyph-name="W.sc" horiz-adv-x="721" 
d="M554 0h-99c-43 112 -73 224 -95 336c-22 -112 -52 -224 -94 -336h-99c-77 204 -128 408 -150 612h112c13 -145 42 -324 87 -475c46 151 75 330 88 475h113c12 -145 43 -324 87 -475c45 151 75 330 88 475h113c-23 -204 -74 -408 -151 -612z" />
    <glyph glyph-name="Z.sc" horiz-adv-x="415" 
d="M36 511v102h341v-59c0 -72 -85 -314 -221 -448h235v-106h-368v106c153 157 217 354 234 405h-221z" />
    <glyph glyph-name="Y.sc" horiz-adv-x="460" 
d="M172 0v203c-90 139 -139 271 -162 409h115c14 -97 47 -205 105 -305c58 100 91 208 105 305h113c-20 -138 -71 -270 -161 -409v-203h-115z" />
    <glyph glyph-name="A.sc" horiz-adv-x="491" 
d="M296 612c94 -204 156 -408 183 -612h-115c-5 41 -12 85 -21 130c-65 -3 -140 -20 -204 -50c-5 -27 -8 -54 -11 -80h-116c28 204 89 408 183 612h101zM246 472c-36 -88 -65 -186 -86 -281c52 21 110 35 162 39c-20 83 -46 166 -76 242z" />
    <glyph glyph-name="P.sc" horiz-adv-x="428" 
d="M410 415c0 -182 -177 -247 -245 -271v-144h-114v612h169c97 0 190 -45 190 -197zM287 410c0 74 -36 102 -83 102h-37v-261c37 15 120 47 120 159z" />
    <glyph glyph-name="euro" horiz-adv-x="654" 
d="M32 373v62h71c15 211 131 295 273 295c160 0 231 -108 231 -266v-17h-107v11c0 99 -48 164 -126 164c-68 0 -136 -50 -149 -187h181v-62h-183c0 -22 2 -46 6 -69h177v-62h-161c29 -79 91 -144 216 -144c41 0 89 5 146 17v-103c-59 -17 -129 -22 -170 -22
c-175 0 -280 101 -318 252h-87v62h75c-3 22 -5 45 -5 69h-70z" />
    </font>
</defs>
</svg>
