<?xml version="1.0" standalone="no"?>
<!DOCTYPE svg PUBLIC "-//W3C//DTD SVG 20010904//EN"
 "http://www.w3.org/TR/2001/REC-SVG-20010904/DTD/svg10.dtd">
<svg version="1.0" xmlns="http://www.w3.org/2000/svg"
 width="1320.000000pt" height="1320.000000pt" viewBox="0 0 1320.000000 1320.000000"
 preserveAspectRatio="xMidYMid meet">
<metadata>
Created by potrace 1.11, written by Peter Selinger 2001-2013
</metadata>
<g transform="translate(0.000000,1320.000000) scale(0.100000,-0.100000)"
fill="#000000" stroke="none">
<path d="M6395 10165 c4 -11 9 -27 10 -35 1 -8 5 -22 8 -30 38 -101 60 -309
45 -424 -14 -105 -17 -122 -28 -152 -6 -16 -11 -30 -11 -31 2 -12 -13 -65 -20
-69 -5 -3 -7 -10 -4 -15 4 -5 1 -9 -4 -9 -6 0 -11 -9 -11 -19 0 -11 -4 -23
-10 -26 -5 -3 -10 -15 -10 -26 0 -10 -4 -19 -9 -19 -5 0 -13 -9 -16 -20 -4
-11 -32 -55 -64 -98 -53 -71 -87 -107 -183 -194 -56 -51 -184 -136 -278 -186
-19 -10 -44 -23 -55 -30 -114 -64 -315 -134 -432 -148 -58 -7 -64 0 -33 34 12
12 18 22 15 22 -3 0 8 20 25 44 16 25 30 47 30 51 0 3 10 22 23 43 13 20 43
72 66 116 23 43 46 86 51 95 73 131 126 371 89 405 -9 8 -11 7 -6 -6 3 -10 2
-20 -4 -23 -5 -4 -7 -10 -4 -15 3 -5 0 -12 -6 -15 -5 -4 -8 -13 -5 -21 3 -8 1
-14 -4 -14 -6 0 -10 -6 -10 -14 0 -7 -7 -30 -15 -50 -8 -20 -15 -38 -15 -41
-1 -5 -76 -151 -95 -184 -5 -9 -36 -54 -68 -99 -56 -81 -275 -312 -294 -312
-6 0 -18 -10 -29 -21 -21 -24 -242 -172 -319 -214 -27 -15 -54 -31 -60 -35
-12 -9 -80 -47 -195 -108 -47 -25 -88 -50 -91 -55 -3 -5 -10 -9 -15 -9 -5 0
-27 -10 -49 -21 -22 -12 -44 -21 -50 -22 -5 0 -41 16 -80 36 -38 20 -108 55
-155 79 -47 24 -87 46 -90 49 -3 3 -11 7 -18 9 -7 1 -31 14 -52 27 -22 14 -40
22 -40 19 0 -4 -6 -2 -12 3 -15 12 -110 63 -303 163 -331 171 -391 203 -400
211 -5 5 -17 9 -27 9 -10 0 -18 3 -18 8 0 4 -24 18 -53 32 -28 13 -60 31 -69
39 -10 8 -18 11 -18 6 0 -4 -6 -3 -12 3 -7 5 -62 36 -123 67 -60 32 -162 85
-225 118 -63 33 -155 81 -205 107 -49 26 -162 85 -250 130 -88 45 -166 87
-174 93 -11 10 -12 4 -7 -33 11 -69 26 -137 52 -231 21 -74 37 -118 96 -269 5
-14 9 -25 8 -25 -4 0 194 -378 221 -420 10 -16 23 -39 28 -51 5 -12 26 -46 45
-77 20 -31 36 -59 36 -62 0 -3 5 -11 10 -18 8 -10 210 -311 245 -366 6 -9 12
-18 15 -21 3 -3 30 -39 60 -80 30 -41 57 -77 60 -80 3 -3 25 -32 50 -65 25
-33 47 -62 50 -65 4 -3 33 -39 66 -80 32 -41 68 -85 79 -97 11 -12 34 -39 52
-60 66 -79 132 -154 263 -297 96 -106 514 -521 604 -601 44 -38 89 -79 102
-90 37 -33 110 -93 192 -160 7 -5 23 -19 35 -30 20 -18 181 -140 251 -190 16
-11 34 -26 41 -32 8 -7 16 -13 19 -13 3 0 45 -28 94 -62 49 -35 111 -76 138
-92 27 -17 74 -45 104 -64 162 -102 494 -263 523 -254 4 1 7 -2 7 -6 0 -5 6
-9 13 -9 6 -1 55 -13 107 -27 83 -23 122 -31 205 -42 11 -1 22 -3 25 -4 17 -7
154 2 171 10 10 6 19 9 19 6 0 -10 66 18 105 45 51 34 105 89 105 106 0 7 4
13 8 13 9 0 42 92 42 117 0 8 3 12 8 10 13 -9 0 222 -22 368 -3 17 -5 30 -6
30 -1 0 -3 9 -5 20 -6 47 -27 122 -61 217 -19 57 -36 108 -38 113 -1 6 -9 26
-18 45 -8 19 -30 71 -49 115 -78 185 -221 442 -389 695 -91 137 -233 334 -247
343 -7 4 -13 12 -13 17 0 6 -24 41 -52 80 -58 75 -109 110 -134 90 -8 -7 -14
-10 -14 -7 0 3 -18 -5 -41 -17 l-40 -23 -51 25 c-35 17 -46 27 -37 33 13 7
173 61 194 65 6 1 48 12 95 24 101 26 111 28 170 36 25 3 56 7 70 9 90 15 349
23 368 11 6 -3 13 -2 17 4 4 6 11 8 16 4 6 -3 32 -8 57 -9 26 -2 47 -4 47 -5
0 -1 20 -3 45 -5 87 -6 198 -27 350 -67 63 -16 120 -31 127 -32 7 -1 16 -5 19
-9 4 -4 18 -7 30 -7 13 0 26 -4 29 -10 3 -5 14 -10 23 -10 9 0 30 -7 46 -15
16 -9 37 -17 45 -18 21 -4 209 -93 241 -115 14 -9 27 -17 30 -17 14 -1 195
-138 247 -186 68 -64 173 -184 173 -197 0 -7 4 -12 9 -12 21 0 175 -276 196
-352 2 -5 4 -10 5 -13 1 -3 3 -8 4 -12 1 -5 4 -12 7 -18 4 -5 10 -23 14 -40 5
-16 10 -34 11 -40 8 -22 44 -182 49 -215 3 -20 7 -47 10 -60 21 -106 21 -448
1 -635 -4 -34 -55 -360 -60 -388 -2 -9 0 -15 5 -12 14 9 78 244 95 353 3 19 8
44 10 56 26 136 38 269 38 451 0 194 -10 309 -39 440 -3 11 -7 31 -10 45 -4
14 -8 34 -10 45 -10 45 -67 210 -77 222 -6 7 -8 13 -5 13 10 0 -97 202 -143
271 -83 123 -223 276 -338 369 -24 19 -49 40 -56 45 -6 6 -34 26 -61 45 -28
19 -51 38 -53 42 -2 4 -8 8 -14 8 -5 0 -22 8 -36 19 -103 73 -378 200 -532
247 -85 26 -194 56 -215 60 -11 2 -42 8 -70 14 -195 40 -365 58 -605 65 -74 2
-138 4 -142 4 -5 1 -8 6 -8 13 0 6 3 9 6 6 3 -4 20 0 38 7 31 13 150 44 191
49 11 2 45 6 75 10 30 4 73 10 95 13 103 14 580 17 580 3 0 -1 29 -3 65 -5 36
-2 65 -4 65 -5 0 -1 16 -3 35 -4 65 -6 176 -23 335 -51 50 -9 104 -19 120 -21
17 -3 57 -12 90 -20 33 -8 71 -17 85 -20 14 -3 63 -16 110 -30 47 -14 92 -27
100 -29 59 -15 253 -89 348 -132 20 -10 39 -18 42 -19 35 -10 50 -18 50 -27 0
-6 3 -8 6 -4 3 3 32 -8 63 -25 126 -69 216 -123 219 -130 2 -4 9 -8 16 -8 6 0
29 -15 51 -32 l40 -33 -19 30 c-11 17 -36 51 -57 76 -21 25 -36 49 -32 53 3 3
1 6 -5 6 -6 0 -30 26 -53 57 -23 31 -48 64 -55 72 -24 30 -139 178 -164 211
-14 18 -29 38 -35 44 -5 6 -30 38 -55 71 -25 33 -49 65 -55 71 -5 6 -21 25
-35 43 -14 18 -40 52 -58 74 -17 23 -36 47 -40 52 -28 38 -77 101 -82 105 -3
3 -25 32 -50 65 -25 33 -52 69 -62 80 -22 27 -137 174 -168 215 -14 19 -53 69
-87 112 -35 43 -63 81 -63 83 0 3 -9 15 -20 28 -33 36 -45 50 -76 92 -31 42
-46 61 -81 103 -13 15 -23 30 -23 33 0 3 -10 17 -22 31 -13 14 -35 40 -49 59
-15 19 -54 69 -88 111 -33 43 -61 83 -61 88 0 6 -4 8 -10 5 -5 -3 -10 0 -10 9
0 8 -3 16 -7 18 -5 2 -28 30 -53 63 -25 33 -47 62 -50 65 -5 4 -39 48 -85 108
-5 7 -18 22 -27 33 -10 10 -18 21 -18 25 0 3 -14 19 -31 37 -23 23 -29 26 -24
12z"/>
<path d="M1797 9635 c-121 -126 -141 -302 -71 -630 2 -11 6 -29 8 -40 8 -39
69 -221 92 -278 36 -85 83 -189 95 -211 6 -10 36 -66 66 -125 70 -135 105
-195 115 -199 4 -2 8 -8 8 -14 0 -10 80 -149 91 -158 3 -3 12 -16 19 -30 35
-68 286 -431 302 -438 5 -2 8 -8 8 -13 0 -10 141 -192 153 -197 4 -2 7 -10 7
-17 0 -7 4 -15 8 -17 4 -1 43 -46 86 -98 78 -94 162 -191 242 -280 22 -25 56
-62 75 -84 149 -168 478 -495 649 -646 35 -30 75 -66 90 -80 15 -14 47 -41 71
-62 24 -20 54 -44 65 -55 12 -10 36 -29 54 -43 19 -14 45 -35 58 -47 14 -13
28 -23 31 -23 4 0 21 -13 38 -29 18 -16 54 -44 80 -63 26 -18 50 -35 53 -38 3
-3 21 -17 40 -30 19 -13 37 -27 40 -30 3 -3 25 -19 50 -35 25 -17 50 -33 55
-37 71 -54 356 -227 460 -281 167 -85 330 -151 435 -173 14 -3 30 -7 35 -8 25
-6 123 -26 150 -31 67 -12 182 -5 248 15 37 12 67 25 67 30 0 6 4 9 9 7 10 -2
91 61 91 71 0 8 -141 5 -148 -3 -3 -2 -13 0 -23 6 -11 5 -19 6 -19 2 0 -10
-99 -4 -160 10 -8 2 -33 7 -55 11 -51 10 -172 47 -255 79 -94 36 -284 127
-288 138 -2 5 -12 9 -23 9 -10 0 -19 4 -19 9 0 5 -10 13 -22 17 -20 6 -235
139 -248 154 -7 7 -42 29 -60 37 -8 4 -17 9 -20 13 -3 3 -34 26 -70 51 -36 24
-71 49 -77 56 -7 6 -29 21 -50 34 -21 13 -44 29 -52 37 -7 7 -50 40 -95 74
-100 76 -210 168 -214 179 -2 5 -8 9 -14 9 -6 0 -21 11 -34 26 -13 14 -24 23
-24 20 0 -2 -15 10 -33 27 -18 18 -62 57 -97 87 -35 30 -89 80 -120 110 -32
30 -82 78 -111 106 -215 205 -529 549 -769 844 -19 23 -40 48 -45 54 -6 6 -36
45 -67 86 -32 41 -62 81 -68 88 -19 21 -128 173 -168 232 -20 30 -42 61 -49
68 -6 6 -15 21 -18 32 -3 11 -10 20 -13 20 -4 0 -18 20 -32 45 -14 25 -28 45
-32 45 -5 0 -8 5 -8 11 0 6 -15 34 -33 62 -69 107 -87 137 -87 141 0 2 -24 46
-53 97 -50 89 -207 403 -207 413 0 3 -11 29 -24 58 -13 29 -31 76 -41 103 -10
28 -23 56 -28 63 -5 6 -7 12 -3 12 3 0 -3 24 -13 53 -24 66 -44 146 -45 185
-1 12 -3 22 -6 22 -6 0 -13 104 -13 190 0 64 14 172 29 223 8 27 -3 21 -49
-28z"/>
<path d="M1663 8656 c-13 -13 -23 -27 -23 -30 0 -4 -18 -34 -40 -66 -22 -32
-40 -64 -40 -70 0 -6 -7 -13 -15 -16 -8 -4 -15 -10 -15 -15 0 -4 -30 -55 -67
-113 -38 -58 -72 -114 -78 -124 -5 -9 -31 -49 -56 -87 -93 -141 -139 -216
-139 -225 0 -6 -4 -10 -8 -10 -5 0 -15 -12 -22 -27 -8 -16 -23 -41 -35 -58
-11 -16 -24 -37 -30 -47 -11 -17 -184 -288 -247 -386 -21 -31 -47 -73 -58 -92
-12 -19 -52 -82 -91 -140 -38 -58 -72 -111 -76 -119 -3 -8 -30 -50 -60 -94
-29 -43 -53 -80 -53 -82 0 -5 -109 -169 -130 -195 -11 -14 -20 -28 -20 -32 0
-3 -25 -43 -55 -88 -30 -45 -55 -86 -55 -91 0 -5 -5 -9 -11 -9 -5 0 -7 -4 -4
-10 3 -5 3 -10 -2 -10 -4 0 -21 -23 -38 -51 -16 -28 -35 -56 -41 -62 -21 -23
-75 -150 -81 -190 -12 -76 -6 -163 17 -233 13 -38 27 -75 33 -81 5 -7 7 -13 4
-13 -3 0 19 -50 49 -110 30 -61 54 -115 54 -120 0 -4 3 -10 8 -12 9 -4 72
-107 72 -119 0 -5 5 -9 10 -9 6 0 10 -6 10 -13 0 -7 9 -23 20 -35 11 -12 20
-25 20 -29 0 -4 18 -32 40 -61 22 -29 40 -56 40 -61 0 -4 9 -16 20 -26 11 -10
20 -24 20 -31 0 -7 4 -14 8 -16 5 -1 28 -30 53 -63 24 -33 47 -61 52 -63 4 -2
7 -8 7 -13 0 -9 20 -36 55 -73 11 -11 42 -48 69 -81 137 -170 439 -477 622
-632 27 -23 59 -50 70 -60 92 -78 118 -99 133 -107 9 -5 18 -12 21 -15 14 -16
325 -240 344 -247 6 -2 20 10 30 28 74 129 182 251 266 298 134 76 220 102
350 106 150 5 259 -22 398 -97 58 -32 82 -39 117 -38 25 2 45 6 45 10 0 4 12
10 27 14 16 4 33 11 40 16 6 6 35 23 65 38 112 59 185 99 236 129 28 17 52 28
52 24 0 -4 4 -2 8 3 8 13 298 175 311 175 5 0 11 3 13 8 2 4 30 21 63 37 33
17 62 33 65 36 3 3 46 27 95 54 50 27 106 57 125 68 19 11 80 44 135 74 55 30
105 58 110 63 6 4 51 29 100 55 50 27 108 59 130 72 22 12 54 30 70 39 17 8
48 25 70 37 146 81 145 80 134 94 -6 7 -18 13 -25 13 -8 0 -14 4 -14 9 0 5 -8
11 -17 14 -10 4 -61 33 -113 66 -52 33 -101 60 -107 60 -7 1 -13 5 -13 11 0 5
-17 19 -37 30 -45 24 -76 43 -83 50 -3 3 -30 21 -60 40 -30 19 -57 37 -60 40
-3 4 -20 15 -37 25 -18 11 -33 23 -33 27 0 4 -6 8 -13 8 -7 0 -24 11 -39 25
-15 14 -30 25 -34 25 -3 0 -19 10 -34 23 -15 12 -51 38 -79 57 -27 19 -50 38
-51 43 0 4 -4 7 -10 7 -5 0 -19 8 -29 18 -25 22 -36 31 -93 71 -27 19 -48 38
-48 42 0 4 -8 10 -17 13 -10 3 -34 21 -53 39 -19 17 -66 58 -105 89 -38 32
-84 70 -101 85 -17 16 -59 53 -94 83 -165 144 -439 418 -595 595 -38 43 -83
93 -99 110 -15 16 -49 56 -74 88 -25 31 -49 57 -53 57 -5 0 -9 5 -9 10 0 6
-25 41 -56 78 -82 98 -87 104 -108 136 -10 16 -30 41 -44 57 -14 16 -32 40
-41 53 -36 54 -57 82 -73 100 -10 11 -18 25 -18 32 0 7 -4 14 -9 16 -6 2 -53
68 -105 148 -53 80 -99 150 -103 155 -17 21 -63 95 -63 100 0 2 -8 14 -17 25
-10 11 -18 24 -18 28 -1 4 -13 26 -28 49 -15 24 -27 47 -27 53 0 5 -3 10 -7
10 -5 0 -13 10 -19 23 -17 35 -49 92 -54 97 -3 3 -15 23 -27 45 -45 84 -65
120 -75 133 -6 6 -7 12 -3 12 5 0 2 8 -7 18 -8 9 -34 58 -59 107 -24 50 -47
92 -51 93 -5 2 -8 10 -8 17 0 11 -38 85 -43 85 -1 0 -12 -11 -24 -24z"/>
<path d="M8330 7700 c0 -5 5 -10 10 -10 6 0 10 -6 10 -13 0 -7 9 -19 20 -27
11 -8 20 -20 20 -26 0 -7 3 -14 8 -16 4 -1 45 -51 90 -110 46 -59 88 -113 95
-120 7 -7 39 -49 72 -92 33 -43 64 -84 70 -90 6 -6 16 -18 21 -27 10 -18 60
-81 87 -110 9 -10 17 -21 17 -24 0 -7 123 -159 132 -163 5 -2 8 -8 8 -13 0 -8
6 -16 51 -69 8 -10 24 -31 35 -46 10 -15 31 -41 45 -58 14 -17 61 -77 104
-133 43 -57 82 -103 87 -103 4 0 4 8 -2 18 -5 9 -23 51 -41 92 -51 122 -179
349 -246 437 -18 24 -33 46 -33 48 0 6 -76 106 -144 190 -70 87 -297 308 -404
393 -56 45 -104 82 -107 82 -3 0 -5 -4 -5 -10z"/>
<path d="M5 5725 c7 -75 19 -166 31 -230 8 -45 57 -231 62 -240 4 -5 7 -16 8
-23 2 -8 6 -21 10 -30 4 -9 8 -24 10 -33 5 -24 65 -163 75 -173 5 -6 9 -15 9
-21 0 -19 131 -253 161 -287 9 -10 22 -31 30 -46 8 -15 19 -32 24 -39 13 -16
22 -28 65 -83 55 -71 78 -97 180 -205 54 -57 174 -165 199 -179 9 -5 22 -18
29 -28 7 -10 20 -18 28 -18 8 0 14 -4 14 -9 0 -8 150 -111 245 -168 59 -35
262 -133 275 -133 6 0 38 -11 72 -25 35 -13 74 -27 88 -29 14 -3 50 -12 81
-20 30 -9 71 -18 90 -20 19 -3 51 -8 72 -11 23 -4 37 -2 37 4 0 6 -7 11 -15
11 -8 0 -15 5 -15 10 0 6 -7 10 -15 10 -8 0 -15 5 -15 10 0 6 -5 10 -11 10 -5
0 -55 33 -110 73 -55 39 -111 79 -123 87 -13 8 -40 29 -61 45 -128 102 -161
128 -165 134 -3 4 -12 12 -21 17 -18 10 -110 88 -199 169 -157 143 -406 404
-519 545 -19 23 -40 48 -46 54 -6 6 -50 65 -98 131 -49 66 -95 128 -103 138
-8 9 -14 21 -14 26 0 4 -9 16 -20 26 -11 10 -17 21 -15 25 3 5 1 10 -3 12 -12
4 -72 95 -72 107 0 6 -4 11 -9 11 -5 0 -12 9 -16 19 -3 11 -16 34 -29 53 -12
18 -35 58 -51 88 -16 30 -38 67 -48 83 -10 15 -15 27 -11 27 4 0 0 8 -8 18 -8
9 -27 42 -41 72 -42 87 -47 92 -42 35z"/>
<path d="M2527 4120 c-15 -5 -42 -10 -61 -13 -18 -2 -41 -9 -52 -15 -10 -5
-23 -10 -29 -11 -18 -1 -133 -63 -154 -82 -11 -11 -23 -19 -26 -19 -8 0 -105
-104 -105 -113 0 -5 -9 -21 -20 -37 -25 -36 -79 -195 -88 -263 -8 -64 -8 -334
1 -402 12 -92 18 -120 38 -185 24 -76 61 -152 95 -197 13 -17 24 -35 24 -38 0
-13 115 -116 170 -153 71 -47 165 -86 235 -96 11 -2 20 -4 20 -6 0 -4 92 -10
175 -11 150 -3 315 19 353 46 40 28 45 56 37 195 -5 80 -15 85 -110 64 -52
-12 -277 -14 -330 -3 -117 24 -218 92 -285 194 -17 25 -43 76 -50 95 -1 3 -7
17 -13 32 -32 77 -46 158 -46 273 -1 173 34 277 121 362 55 54 104 75 168 75
63 -1 70 -3 126 -30 66 -32 101 -105 126 -262 l5 -36 142 1 141 0 0 93 c1 51
-2 95 -7 98 -4 3 -5 11 -2 19 13 32 -48 190 -96 249 -23 28 -90 90 -108 100
-10 5 -19 13 -22 17 -3 4 -41 20 -85 34 -84 28 -232 41 -288 25z"/>
<path d="M3638 3635 c-2 -2 -32 -6 -68 -8 -93 -7 -207 -37 -227 -59 -14 -15
-18 -40 -20 -109 -1 -48 -4 -93 -7 -98 -4 -5 -2 -12 4 -16 6 -4 8 -11 5 -16
-6 -9 43 -6 103 6 12 2 67 7 122 10 79 6 109 4 150 -10 49 -16 88 -53 98 -93
8 -29 11 -132 4 -133 -4 0 -72 -2 -152 -4 -171 -4 -188 -7 -243 -35 -78 -41
-136 -115 -152 -197 -6 -32 -7 -140 -2 -163 14 -56 22 -78 38 -102 11 -14 19
-29 19 -33 0 -28 113 -85 177 -90 26 -2 50 -4 53 -6 3 -1 9 -1 14 0 5 1 32 4
60 7 60 7 71 8 111 17 17 4 41 9 55 11 14 3 36 7 49 10 15 4 32 -1 43 -11 14
-13 38 -16 106 -16 85 0 139 7 150 18 7 7 6 694 -1 776 -9 95 -47 184 -98 229
-47 41 -60 50 -74 50 -8 0 -15 4 -15 9 0 5 -10 11 -22 14 -13 3 -41 10 -63 16
-22 6 -74 13 -115 16 -41 4 -80 8 -87 10 -6 2 -13 2 -15 0z m163 -747 c22 -24
19 -116 -4 -151 -20 -32 -115 -55 -153 -38 -50 23 -74 102 -45 152 34 60 162
84 202 37z"/>
<path d="M8672 3628 c-118 -18 -207 -66 -270 -146 -44 -56 -64 -107 -87 -217
-12 -55 -15 -325 -6 -383 15 -84 17 -94 37 -138 9 -21 16 -42 16 -46 -1 -5 2
-8 7 -8 5 0 12 -9 16 -20 12 -39 102 -114 170 -142 101 -42 149 -50 285 -50
98 -1 147 3 205 16 20 5 110 20 120 21 6 0 11 55 13 138 1 76 -1 136 -5 134
-30 -18 -294 -34 -371 -23 -101 14 -160 82 -153 176 1 13 37 15 263 14 244 -1
297 4 283 26 -2 4 -7 42 -9 86 -15 220 -25 272 -66 359 -16 34 -48 79 -72 100
-40 38 -116 83 -149 89 -107 21 -159 24 -227 14z m148 -310 c19 -29 45 -71 57
-94 l22 -41 -22 -11 c-12 -6 -38 -11 -57 -10 -19 0 -48 0 -65 -1 -42 -3 -145
0 -145 3 0 2 7 21 16 42 55 138 75 164 122 164 34 0 41 -5 72 -52z"/>
<path d="M5619 3610 c-166 -28 -260 -146 -260 -330 -1 -142 68 -238 219 -305
140 -63 172 -91 172 -155 0 -24 -46 -64 -64 -57 -9 4 -16 3 -16 -2 0 -10 -139
-3 -270 14 -42 5 -48 4 -53 -14 -3 -12 -2 -21 1 -21 4 0 6 -42 4 -94 -3 -86
-2 -95 21 -121 22 -26 29 -28 113 -31 49 -2 89 -4 89 -4 0 -5 183 -4 237 2
128 13 216 75 255 181 16 44 20 77 18 154 -2 141 -17 182 -87 252 -41 42 -67
56 -188 105 -63 26 -113 69 -123 108 -8 28 55 62 117 61 93 0 196 -8 196 -14
0 -3 10 -4 23 -2 22 4 23 8 22 106 -1 116 -7 142 -38 159 -25 14 -316 20 -388
8z"/>
<path d="M6229 3587 c-4 -62 0 -745 4 -787 13 -122 45 -201 103 -254 66 -60
198 -87 287 -59 20 7 37 10 37 8 0 -2 37 14 81 36 l82 40 31 -29 c17 -15 43
-33 57 -39 28 -12 126 -10 174 5 l30 8 0 541 0 540 -147 0 -148 -1 -1 -340 c0
-188 -2 -349 -5 -358 -2 -10 -5 -25 -7 -33 -5 -23 -57 -73 -87 -83 -42 -15
-108 -8 -130 14 -40 42 -47 102 -48 444 0 179 -1 333 -1 342 -1 15 -17 17
-156 16 -110 0 -155 -3 -156 -11z"/>
</g>
</svg>
